ISO-10303-21;
HEADER;
FILE_DESCRIPTION(('STEP AP214'),'1');
FILE_NAME('Label_neutral.stp','2026-09-05T16:48:55',(' '),(' '),'Spatial InterOp 3D',' ',' ');
FILE_SCHEMA(('AUTOMOTIVE_DESIGN { 1 0 10303 214 1 1 1 1 }'));
ENDSEC;
DATA;
#1=MECHANICAL_DESIGN_GEOMETRIC_PRESENTATION_REPRESENTATION(' ',(#10),#6);
#2=PRODUCT_DEFINITION_CONTEXT('',#11,'design');
#3=APPLICATION_PROTOCOL_DEFINITION('INTERNATIONAL STANDARD','automotive_design',1994,#11);
#4=PRODUCT_CATEGORY_RELATIONSHIP('NONE','NONE',#12,#13);
#5=SHAPE_DEFINITION_REPRESENTATION(#14,#15);
#6= (GEOMETRIC_REPRESENTATION_CONTEXT(3)GLOBAL_UNCERTAINTY_ASSIGNED_CONTEXT((#18))GLOBAL_UNIT_ASSIGNED_CONTEXT((#20,#21,#22))REPRESENTATION_CONTEXT('NONE','WORKSPACE'));
#10=STYLED_ITEM('',(#24),#25);
#11=APPLICATION_CONTEXT(' ');
#12=PRODUCT_CATEGORY('part','NONE');
#13=PRODUCT_RELATED_PRODUCT_CATEGORY('detail',' ',(#26));
#14=PRODUCT_DEFINITION_SHAPE('NONE','NONE',#27);
#15=ADVANCED_BREP_SHAPE_REPRESENTATION('Label_neutral',(#25,#28),#6);
#18=UNCERTAINTY_MEASURE_WITH_UNIT(LENGTH_MEASURE(1.0E-08),#20,'','');
#20= (CONVERSION_BASED_UNIT('METRE',#31)LENGTH_UNIT()NAMED_UNIT(#34));
#21= (NAMED_UNIT(#36)PLANE_ANGLE_UNIT()SI_UNIT($,.RADIAN.));
#22= (NAMED_UNIT(#36)SOLID_ANGLE_UNIT()SI_UNIT($,.STERADIAN.));
#24=PRESENTATION_STYLE_ASSIGNMENT((#42));
#25=MANIFOLD_SOLID_BREP('Label_neutral',#43);
#26=PRODUCT('Label_neutral','','PART--DESC',(#44));
#27=PRODUCT_DEFINITION('','NONE',#45,#2);
#28=AXIS2_PLACEMENT_3D('',#46,#47,#48);
#31=LENGTH_MEASURE_WITH_UNIT(LENGTH_MEASURE(1.0),#49);
#34=DIMENSIONAL_EXPONENTS(1.0,0.0,0.0,0.0,0.0,0.0,0.0);
#36=DIMENSIONAL_EXPONENTS(0.0,0.0,0.0,0.0,0.0,0.0,0.0);
#42=SURFACE_STYLE_USAGE(.BOTH.,#50);
#43=CLOSED_SHELL('',(#51,#52,#53,#54,#55,#56,#57,#58,#59,#60,#61,#62,#63,#64,#65,#66,#67,#68,#69,#70,#71,#72,#73,#74,#75,#76,#77,#78,#79,#80,#81));
#44=PRODUCT_CONTEXT('',#11,'mechanical');
#45=PRODUCT_DEFINITION_FORMATION_WITH_SPECIFIED_SOURCE(' ','NONE',#26,.NOT_KNOWN.);
#46=CARTESIAN_POINT('',(0.0,0.0,0.0));
#47=DIRECTION('',(0.0,0.0,1.0));
#48=DIRECTION('',(1.0,0.0,0.0));
#49= (NAMED_UNIT(#34)LENGTH_UNIT()SI_UNIT($,.METRE.));
#50=SURFACE_SIDE_STYLE('',(#83));
#51=ADVANCED_FACE('2:1421',(#84),#85,.T.);
#52=ADVANCED_FACE('2:1415',(#86),#87,.T.);
#53=ADVANCED_FACE('2:1406',(#88),#89,.T.);
#54=ADVANCED_FACE('2:1394',(#90),#91,.T.);
#55=ADVANCED_FACE('2:1391',(#92),#93,.T.);
#56=ADVANCED_FACE('2:1388',(#94),#95,.T.);
#57=ADVANCED_FACE('2:1382',(#96),#97,.T.);
#58=ADVANCED_FACE('2:1379',(#98),#99,.T.);
#59=ADVANCED_FACE('2:1376',(#100),#101,.F.);
#60=ADVANCED_FACE('2:1373',(#102),#103,.F.);
#61=ADVANCED_FACE('2:1370',(#104),#105,.F.);
#62=ADVANCED_FACE('2:1367',(#106),#107,.F.);
#63=ADVANCED_FACE('2:1367',(#108),#109,.F.);
#64=ADVANCED_FACE('2:1370',(#110),#111,.F.);
#65=ADVANCED_FACE('2:1373',(#112),#113,.F.);
#66=ADVANCED_FACE('2:1376',(#114),#115,.F.);
#67=ADVANCED_FACE('2:1379',(#116),#117,.T.);
#68=ADVANCED_FACE('2:1382',(#118),#119,.T.);
#69=ADVANCED_FACE('2:1385',(#120,#121,#122),#123,.F.);
#70=ADVANCED_FACE('2:1388',(#124),#125,.T.);
#71=ADVANCED_FACE('2:1391',(#126),#127,.T.);
#72=ADVANCED_FACE('2:1394',(#128),#129,.T.);
#73=ADVANCED_FACE('2:1397',(#130),#131,.T.);
#74=ADVANCED_FACE('2:1400',(#132),#133,.T.);
#75=ADVANCED_FACE('2:1403',(#134),#135,.T.);
#76=ADVANCED_FACE('2:1406',(#136),#137,.T.);
#77=ADVANCED_FACE('2:1409',(#138),#139,.T.);
#78=ADVANCED_FACE('2:1412',(#140,#141,#142),#143,.T.);
#79=ADVANCED_FACE('2:1415',(#144),#145,.T.);
#80=ADVANCED_FACE('2:1418',(#146),#147,.T.);
#81=ADVANCED_FACE('2:1421',(#148),#149,.T.);
#83=SURFACE_STYLE_FILL_AREA(#150);
#84=FACE_OUTER_BOUND('',#151,.T.);
#85=CYLINDRICAL_SURFACE('',#152,0.001);
#86=FACE_OUTER_BOUND('',#153,.T.);
#87=CYLINDRICAL_SURFACE('',#154,0.001);
#88=FACE_OUTER_BOUND('',#155,.T.);
#89=CYLINDRICAL_SURFACE('',#156,0.001);
#90=FACE_OUTER_BOUND('',#157,.T.);
#91=CYLINDRICAL_SURFACE('',#158,0.001);
#92=FACE_OUTER_BOUND('',#159,.T.);
#93=CYLINDRICAL_SURFACE('',#160,0.001);
#94=FACE_OUTER_BOUND('',#161,.T.);
#95=CYLINDRICAL_SURFACE('',#162,0.001);
#96=FACE_OUTER_BOUND('',#163,.T.);
#97=CYLINDRICAL_SURFACE('',#164,0.001);
#98=FACE_OUTER_BOUND('',#165,.T.);
#99=CYLINDRICAL_SURFACE('',#166,0.001);
#100=FACE_OUTER_BOUND('',#167,.T.);
#101=CYLINDRICAL_SURFACE('',#168,0.00175);
#102=FACE_OUTER_BOUND('',#169,.T.);
#103=CONICAL_SURFACE('',#170,0.00355,0.785398163397448);
#104=FACE_OUTER_BOUND('',#171,.T.);
#105=CONICAL_SURFACE('',#172,0.00355,0.785398163397448);
#106=FACE_OUTER_BOUND('',#173,.T.);
#107=CYLINDRICAL_SURFACE('',#174,0.00175);
#108=FACE_OUTER_BOUND('',#175,.T.);
#109=CYLINDRICAL_SURFACE('',#176,0.00175);
#110=FACE_OUTER_BOUND('',#177,.T.);
#111=CONICAL_SURFACE('',#178,0.00355,0.785398163397448);
#112=FACE_OUTER_BOUND('',#179,.T.);
#113=CONICAL_SURFACE('',#180,0.00355,0.785398163397448);
#114=FACE_OUTER_BOUND('',#181,.T.);
#115=CYLINDRICAL_SURFACE('',#182,0.00175);
#116=FACE_OUTER_BOUND('',#183,.T.);
#117=CYLINDRICAL_SURFACE('',#184,0.001);
#118=FACE_OUTER_BOUND('',#185,.T.);
#119=CYLINDRICAL_SURFACE('',#186,0.001);
#120=FACE_BOUND('',#187,.T.);
#121=FACE_BOUND('',#188,.T.);
#122=FACE_OUTER_BOUND('',#189,.T.);
#123=PLANE('',#190);
#124=FACE_OUTER_BOUND('',#191,.T.);
#125=CYLINDRICAL_SURFACE('',#192,0.001);
#126=FACE_OUTER_BOUND('',#193,.T.);
#127=CYLINDRICAL_SURFACE('',#194,0.001);
#128=FACE_OUTER_BOUND('',#195,.T.);
#129=CYLINDRICAL_SURFACE('',#196,0.001);
#130=FACE_OUTER_BOUND('',#197,.T.);
#131=PLANE('',#198);
#132=FACE_OUTER_BOUND('',#199,.T.);
#133=PLANE('',#200);
#134=FACE_OUTER_BOUND('',#201,.T.);
#135=PLANE('',#202);
#136=FACE_OUTER_BOUND('',#203,.T.);
#137=CYLINDRICAL_SURFACE('',#204,0.001);
#138=FACE_OUTER_BOUND('',#205,.T.);
#139=PLANE('',#206);
#140=FACE_BOUND('',#207,.T.);
#141=FACE_BOUND('',#208,.T.);
#142=FACE_OUTER_BOUND('',#209,.T.);
#143=PLANE('',#210);
#144=FACE_OUTER_BOUND('',#211,.T.);
#145=CYLINDRICAL_SURFACE('',#212,0.001);
#146=FACE_OUTER_BOUND('',#213,.T.);
#147=PLANE('',#214);
#148=FACE_OUTER_BOUND('',#215,.T.);
#149=CYLINDRICAL_SURFACE('',#216,0.001);
#150=FILL_AREA_STYLE('',(#217));
#151=EDGE_LOOP('',(#218,#219,#220,#221));
#152=AXIS2_PLACEMENT_3D('',#222,#223,#224);
#153=EDGE_LOOP('',(#225,#226,#227,#228));
#154=AXIS2_PLACEMENT_3D('',#229,#230,#231);
#155=EDGE_LOOP('',(#232,#233,#234,#235));
#156=AXIS2_PLACEMENT_3D('',#236,#237,#238);
#157=EDGE_LOOP('',(#239,#240,#241,#242));
#158=AXIS2_PLACEMENT_3D('',#243,#244,#245);
#159=EDGE_LOOP('',(#246,#247,#248,#249));
#160=AXIS2_PLACEMENT_3D('',#250,#251,#252);
#161=EDGE_LOOP('',(#253,#254,#255,#256));
#162=AXIS2_PLACEMENT_3D('',#257,#258,#259);
#163=EDGE_LOOP('',(#260,#261,#262,#263));
#164=AXIS2_PLACEMENT_3D('',#264,#265,#266);
#165=EDGE_LOOP('',(#267,#268,#269,#270));
#166=AXIS2_PLACEMENT_3D('',#271,#272,#273);
#167=EDGE_LOOP('',(#274,#275,#276,#277));
#168=AXIS2_PLACEMENT_3D('',#278,#279,#280);
#169=EDGE_LOOP('',(#281,#282,#283,#284,#285));
#170=AXIS2_PLACEMENT_3D('',#286,#287,#288);
#171=EDGE_LOOP('',(#289,#290,#291,#292,#293));
#172=AXIS2_PLACEMENT_3D('',#294,#295,#296);
#173=EDGE_LOOP('',(#297,#298,#299,#300));
#174=AXIS2_PLACEMENT_3D('',#301,#302,#303);
#175=EDGE_LOOP('',(#304,#305,#306,#307,#308));
#176=AXIS2_PLACEMENT_3D('',#309,#310,#311);
#177=EDGE_LOOP('',(#312,#313,#314,#315));
#178=AXIS2_PLACEMENT_3D('',#316,#317,#318);
#179=EDGE_LOOP('',(#319,#320,#321,#322));
#180=AXIS2_PLACEMENT_3D('',#323,#324,#325);
#181=EDGE_LOOP('',(#326,#327,#328,#329,#330));
#182=AXIS2_PLACEMENT_3D('',#331,#332,#333);
#183=EDGE_LOOP('',(#334,#335,#336,#337));
#184=AXIS2_PLACEMENT_3D('',#338,#339,#340);
#185=EDGE_LOOP('',(#341,#342,#343,#344));
#186=AXIS2_PLACEMENT_3D('',#345,#346,#347);
#187=EDGE_LOOP('',(#348,#349,#350));
#188=EDGE_LOOP('',(#351,#352,#353));
#189=EDGE_LOOP('',(#354,#355,#356,#357));
#190=AXIS2_PLACEMENT_3D('',#358,#359,#360);
#191=EDGE_LOOP('',(#361,#362,#363,#364));
#192=AXIS2_PLACEMENT_3D('',#365,#366,#367);
#193=EDGE_LOOP('',(#368,#369,#370,#371));
#194=AXIS2_PLACEMENT_3D('',#372,#373,#374);
#195=EDGE_LOOP('',(#375,#376,#377,#378));
#196=AXIS2_PLACEMENT_3D('',#379,#380,#381);
#197=EDGE_LOOP('',(#382,#383,#384,#385,#386));
#198=AXIS2_PLACEMENT_3D('',#387,#388,#389);
#199=EDGE_LOOP('',(#390,#391,#392,#393));
#200=AXIS2_PLACEMENT_3D('',#394,#395,#396);
#201=EDGE_LOOP('',(#397,#398,#399,#400,#401));
#202=AXIS2_PLACEMENT_3D('',#402,#403,#404);
#203=EDGE_LOOP('',(#405,#406,#407,#408));
#204=AXIS2_PLACEMENT_3D('',#409,#410,#411);
#205=EDGE_LOOP('',(#412,#413,#414,#415));
#206=AXIS2_PLACEMENT_3D('',#416,#417,#418);
#207=EDGE_LOOP('',(#419,#420,#421));
#208=EDGE_LOOP('',(#422,#423,#424));
#209=EDGE_LOOP('',(#425,#426,#427,#428,#429,#430,#431,#432,#433,#434,#435,#436));
#210=AXIS2_PLACEMENT_3D('',#437,#438,#439);
#211=EDGE_LOOP('',(#440,#441,#442,#443));
#212=AXIS2_PLACEMENT_3D('',#444,#445,#446);
#213=EDGE_LOOP('',(#447,#448,#449,#450));
#214=AXIS2_PLACEMENT_3D('',#451,#452,#453);
#215=EDGE_LOOP('',(#454,#455,#456,#457));
#216=AXIS2_PLACEMENT_3D('',#458,#459,#460);
#217=FILL_AREA_STYLE_COLOUR('',#461);
#218=ORIENTED_EDGE('',*,*,#462,.F.);
#219=ORIENTED_EDGE('',*,*,#463,.F.);
#220=ORIENTED_EDGE('',*,*,#464,.T.);
#221=ORIENTED_EDGE('',*,*,#465,.T.);
#222=CARTESIAN_POINT('',(0.063334060097657,0.0137930667147268,0.202121687970736));
#223=DIRECTION('',(1.87756532539572E-10,-1.29343783629318E-06,0.999999999999164));
#224=DIRECTION('',(0.707114020943394,0.707099541354984,9.14456535538173E-07));
#225=ORIENTED_EDGE('',*,*,#466,.F.);
#226=ORIENTED_EDGE('',*,*,#467,.F.);
#227=ORIENTED_EDGE('',*,*,#468,.T.);
#228=ORIENTED_EDGE('',*,*,#469,.T.);
#229=CARTESIAN_POINT('',(-0.0656659398955815,0.0137943874960261,0.202121687996665));
#230=DIRECTION('',(1.87756532539471E-10,-1.29343783629318E-06,0.999999999999164));
#231=DIRECTION('',(-0.707099541355585,0.707114020942793,9.14740791819627E-07));
#232=ORIENTED_EDGE('',*,*,#470,.F.);
#233=ORIENTED_EDGE('',*,*,#471,.F.);
#234=ORIENTED_EDGE('',*,*,#472,.T.);
#235=ORIENTED_EDGE('',*,*,#463,.T.);
#236=CARTESIAN_POINT('',(0.0633340087688037,0.00877987328847088,0.198652265484463));
#237=DIRECTION('',(7.23992666521594E-06,0.707105866550225,0.707107695784623));
#238=DIRECTION('',(0.707111900362959,0.499993406898401,-0.499999353422797));
#239=ORIENTED_EDGE('',*,*,#473,.F.);
#240=ORIENTED_EDGE('',*,*,#474,.T.);
#241=ORIENTED_EDGE('',*,*,#475,.T.);
#242=ORIENTED_EDGE('',*,*,#476,.F.);
#243=CARTESIAN_POINT('',(-0.0656659912244349,0.00878119406977015,0.198652265510392));
#244=DIRECTION('',(-7.23992666442185E-06,-0.707105866550225,-0.707107695784623));
#245=DIRECTION('',(-0.707101661935994,0.500007886486201,-0.49999935313854));
#246=ORIENTED_EDGE('',*,*,#477,.F.);
#247=ORIENTED_EDGE('',*,*,#478,.F.);
#248=ORIENTED_EDGE('',*,*,#479,.T.);
#249=ORIENTED_EDGE('',*,*,#480,.T.);
#250=CARTESIAN_POINT('',(0.0633339260338542,0.000699160016712294,0.200445148251378));
#251=DIRECTION('',(1.87756532543611E-10,-1.29343783589083E-06,0.999999999999164));
#252=DIRECTION('',(0.707099541355585,-0.707114020942793,-9.14740791535125E-07));
#253=ORIENTED_EDGE('',*,*,#481,.F.);
#254=ORIENTED_EDGE('',*,*,#482,.T.);
#255=ORIENTED_EDGE('',*,*,#483,.T.);
#256=ORIENTED_EDGE('',*,*,#471,.T.);
#257=CARTESIAN_POINT('',(0.0633339596967222,0.00398697658682261,0.201345152503965));
#258=DIRECTION('',(1.02386147239024E-05,0.999999999946749,1.29343783390067E-06));
#259=DIRECTION('',(0.707106781016718,-6.32519523624838E-06,-0.707106781328087));
#260=ORIENTED_EDGE('',*,*,#484,.F.);
#261=ORIENTED_EDGE('',*,*,#485,.F.);
#262=ORIENTED_EDGE('',*,*,#486,.T.);
#263=ORIENTED_EDGE('',*,*,#487,.T.);
#264=CARTESIAN_POINT('',(-0.0656660739593844,0.000700480798011541,0.200445148277307));
#265=DIRECTION('',(1.87756532543712E-10,-1.29343783589083E-06,0.999999999999164));
#266=DIRECTION('',(-0.707114020943374,-0.707099541355004,-9.14456535253697E-07));
#267=ORIENTED_EDGE('',*,*,#488,.F.);
#268=ORIENTED_EDGE('',*,*,#489,.T.);
#269=ORIENTED_EDGE('',*,*,#490,.T.);
#270=ORIENTED_EDGE('',*,*,#491,.T.);
#271=CARTESIAN_POINT('',(-0.0656660402965163,0.00398829736812188,0.201345152529894));
#272=DIRECTION('',(1.02386147229112E-05,0.999999999946749,1.29343783390067E-06));
#273=DIRECTION('',(-0.707106781282248,8.15439256515079E-06,-0.707106781043829));
#274=ORIENTED_EDGE('',*,*,#492,.F.);
#275=ORIENTED_EDGE('',*,*,#493,.T.);
#276=ORIENTED_EDGE('',*,*,#494,.F.);
#277=ORIENTED_EDGE('',*,*,#495,.F.);
#278=CARTESIAN_POINT('',(0.0583339930665926,0.00575616059862584,0.204345154793236));
#279=DIRECTION('',(1.87756532543659E-10,-1.29343783589083E-06,0.999999999999163));
#280=DIRECTION('',(1.0,-3.73153843956279E-32,-1.87756532543816E-10));
#281=ORIENTED_EDGE('',*,*,#496,.F.);
#282=ORIENTED_EDGE('',*,*,#497,.T.);
#283=ORIENTED_EDGE('',*,*,#498,.F.);
#284=ORIENTED_EDGE('',*,*,#499,.T.);
#285=ORIENTED_EDGE('',*,*,#500,.T.);
#286=CARTESIAN_POINT('',(0.0583339930665926,0.00575616059862584,0.204345154793236));
#287=DIRECTION('',(1.87756532543659E-10,-1.29343783589083E-06,0.999999999999163));
#288=DIRECTION('',(-1.0,-4.84499837107044E-21,1.87756532543816E-10));
#289=ORIENTED_EDGE('',*,*,#501,.F.);
#290=ORIENTED_EDGE('',*,*,#502,.T.);
#291=ORIENTED_EDGE('',*,*,#503,.F.);
#292=ORIENTED_EDGE('',*,*,#504,.T.);
#293=ORIENTED_EDGE('',*,*,#505,.T.);
#294=CARTESIAN_POINT('',(-0.0606660069271701,0.0062473789937775,0.204345155450939));
#295=DIRECTION('',(1.87756532543659E-10,-1.29343783589083E-06,0.999999999999163));
#296=DIRECTION('',(-1.0,-4.84499837107044E-21,1.87756532543816E-10));
#297=ORIENTED_EDGE('',*,*,#506,.F.);
#298=ORIENTED_EDGE('',*,*,#507,.T.);
#299=ORIENTED_EDGE('',*,*,#508,.F.);
#300=ORIENTED_EDGE('',*,*,#509,.F.);
#301=CARTESIAN_POINT('',(-0.0606660069271701,0.0062473789937775,0.204345155450939));
#302=DIRECTION('',(1.87756532543659E-10,-1.29343783589083E-06,0.999999999999163));
#303=DIRECTION('',(1.0,-3.73153843956279E-32,-1.87756532543816E-10));
#304=ORIENTED_EDGE('',*,*,#506,.T.);
#305=ORIENTED_EDGE('',*,*,#502,.F.);
#306=ORIENTED_EDGE('',*,*,#508,.T.);
#307=ORIENTED_EDGE('',*,*,#510,.T.);
#308=ORIENTED_EDGE('',*,*,#511,.T.);
#309=CARTESIAN_POINT('',(-0.0606660069271701,0.0062473789937775,0.204345155450939));
#310=DIRECTION('',(1.87756532543659E-10,-1.29343783589083E-06,0.999999999999163));
#311=DIRECTION('',(1.0,-3.73153843956279E-32,-1.87756532543816E-10));
#312=ORIENTED_EDGE('',*,*,#501,.T.);
#313=ORIENTED_EDGE('',*,*,#512,.T.);
#314=ORIENTED_EDGE('',*,*,#503,.T.);
#315=ORIENTED_EDGE('',*,*,#509,.T.);
#316=CARTESIAN_POINT('',(-0.0606660069271701,0.0062473789937775,0.204345155450939));
#317=DIRECTION('',(1.87756532543659E-10,-1.29343783589083E-06,0.999999999999163));
#318=DIRECTION('',(-1.0,-4.84499837107044E-21,1.87756532543816E-10));
#319=ORIENTED_EDGE('',*,*,#496,.T.);
#320=ORIENTED_EDGE('',*,*,#513,.T.);
#321=ORIENTED_EDGE('',*,*,#498,.T.);
#322=ORIENTED_EDGE('',*,*,#495,.T.);
#323=CARTESIAN_POINT('',(0.0583339930665926,0.00575616059862584,0.204345154793236));
#324=DIRECTION('',(1.87756532543659E-10,-1.29343783589083E-06,0.999999999999163));
#325=DIRECTION('',(-1.0,-4.84499837107044E-21,1.87756532543816E-10));
#326=ORIENTED_EDGE('',*,*,#492,.T.);
#327=ORIENTED_EDGE('',*,*,#497,.F.);
#328=ORIENTED_EDGE('',*,*,#494,.T.);
#329=ORIENTED_EDGE('',*,*,#514,.T.);
#330=ORIENTED_EDGE('',*,*,#515,.T.);
#331=CARTESIAN_POINT('',(0.0583339930665926,0.00575616059862584,0.204345154793236));
#332=DIRECTION('',(1.87756532543659E-10,-1.29343783589083E-06,0.999999999999163));
#333=DIRECTION('',(1.0,-3.73153843956279E-32,-1.87756532543816E-10));
#334=ORIENTED_EDGE('',*,*,#488,.T.);
#335=ORIENTED_EDGE('',*,*,#476,.T.);
#336=ORIENTED_EDGE('',*,*,#516,.T.);
#337=ORIENTED_EDGE('',*,*,#485,.T.);
#338=CARTESIAN_POINT('',(-0.0656660402965163,0.00398829736812188,0.201345152529894));
#339=DIRECTION('',(1.02386147229112E-05,0.999999999946749,1.29343783390067E-06));
#340=DIRECTION('',(-0.707106781282248,8.15439256515079E-06,-0.707106781043829));
#341=ORIENTED_EDGE('',*,*,#484,.T.);
#342=ORIENTED_EDGE('',*,*,#517,.T.);
#343=ORIENTED_EDGE('',*,*,#518,.T.);
#344=ORIENTED_EDGE('',*,*,#489,.F.);
#345=CARTESIAN_POINT('',(-0.0656660739593844,0.000700480798011541,0.200445148277307));
#346=DIRECTION('',(1.87756532543712E-10,-1.29343783589083E-06,0.999999999999164));
#347=DIRECTION('',(-0.707114020943374,-0.707099541355004,-9.14456535253697E-07));
#348=ORIENTED_EDGE('',*,*,#511,.F.);
#349=ORIENTED_EDGE('',*,*,#510,.F.);
#350=ORIENTED_EDGE('',*,*,#507,.F.);
#351=ORIENTED_EDGE('',*,*,#515,.F.);
#352=ORIENTED_EDGE('',*,*,#514,.F.);
#353=ORIENTED_EDGE('',*,*,#493,.F.);
#354=ORIENTED_EDGE('',*,*,#516,.F.);
#355=ORIENTED_EDGE('',*,*,#519,.T.);
#356=ORIENTED_EDGE('',*,*,#483,.F.);
#357=ORIENTED_EDGE('',*,*,#520,.T.);
#358=CARTESIAN_POINT('',(0.000333980177066012,0.00598762291288151,0.200345155103504));
#359=DIRECTION('',(1.87756532543659E-10,-1.29343783589083E-06,0.999999999999164));
#360=DIRECTION('',(1.02386147230997E-05,0.999999999946749,1.29343783390067E-06));
#361=ORIENTED_EDGE('',*,*,#481,.T.);
#362=ORIENTED_EDGE('',*,*,#521,.T.);
#363=ORIENTED_EDGE('',*,*,#522,.T.);
#364=ORIENTED_EDGE('',*,*,#478,.T.);
#365=CARTESIAN_POINT('',(0.0633339596967222,0.00398697658682261,0.201345152503965));
#366=DIRECTION('',(1.02386147239024E-05,0.999999999946749,1.29343783390067E-06));
#367=DIRECTION('',(0.707106781016718,-6.32519523624838E-06,-0.707106781328087));
#368=ORIENTED_EDGE('',*,*,#477,.T.);
#369=ORIENTED_EDGE('',*,*,#523,.T.);
#370=ORIENTED_EDGE('',*,*,#524,.T.);
#371=ORIENTED_EDGE('',*,*,#482,.F.);
#372=CARTESIAN_POINT('',(0.0633339260338542,0.000699160016712294,0.200445148251378));
#373=DIRECTION('',(1.87756532543611E-10,-1.29343783589083E-06,0.999999999999164));
#374=DIRECTION('',(0.707099541355585,-0.707114020942793,-9.14740791535125E-07));
#375=ORIENTED_EDGE('',*,*,#473,.T.);
#376=ORIENTED_EDGE('',*,*,#491,.F.);
#377=ORIENTED_EDGE('',*,*,#525,.T.);
#378=ORIENTED_EDGE('',*,*,#467,.T.);
#379=CARTESIAN_POINT('',(-0.0656659912244349,0.00878119406977015,0.198652265510392));
#380=DIRECTION('',(-7.23992666442185E-06,-0.707105866550225,-0.707107695784623));
#381=DIRECTION('',(-0.707101661935994,0.500007886486201,-0.49999935313854));
#382=ORIENTED_EDGE('',*,*,#490,.F.);
#383=ORIENTED_EDGE('',*,*,#518,.F.);
#384=ORIENTED_EDGE('',*,*,#526,.T.);
#385=ORIENTED_EDGE('',*,*,#468,.F.);
#386=ORIENTED_EDGE('',*,*,#525,.F.);
#387=CARTESIAN_POINT('',(-0.0666660607738623,0.00198830877093716,0.20044514994322));
#388=DIRECTION('',(-0.999999999947585,1.02386147226598E-05,2.00999544203383E-10));
#389=DIRECTION('',(-1.02386147229112E-05,-0.999999999946749,-1.29343783302919E-06));
#390=ORIENTED_EDGE('',*,*,#486,.F.);
#391=ORIENTED_EDGE('',*,*,#520,.F.);
#392=ORIENTED_EDGE('',*,*,#524,.F.);
#393=ORIENTED_EDGE('',*,*,#527,.T.);
#394=CARTESIAN_POINT('',(0.000833915798515343,-0.000300200069814277,0.200445146970502));
#395=DIRECTION('',(-1.02386147231022E-05,-0.999999999946749,-1.29343783390067E-06));
#396=DIRECTION('',(0.999999999947585,-1.02386147228508E-05,-2.0099947347555E-10));
#397=ORIENTED_EDGE('',*,*,#522,.F.);
#398=ORIENTED_EDGE('',*,*,#528,.F.);
#399=ORIENTED_EDGE('',*,*,#529,.F.);
#400=ORIENTED_EDGE('',*,*,#530,.T.);
#401=ORIENTED_EDGE('',*,*,#479,.F.);
#402=CARTESIAN_POINT('',(0.0643339392192714,0.00198696751240847,0.200445149916889));
#403=DIRECTION('',(0.999999999947585,-1.0238614723651E-05,-2.00999544204665E-10));
#404=DIRECTION('',(1.02386147239024E-05,0.999999999946749,1.29343783302919E-06));
#405=ORIENTED_EDGE('',*,*,#470,.T.);
#406=ORIENTED_EDGE('',*,*,#531,.T.);
#407=ORIENTED_EDGE('',*,*,#528,.T.);
#408=ORIENTED_EDGE('',*,*,#521,.F.);
#409=CARTESIAN_POINT('',(0.0633340087688037,0.00877987328847088,0.198652265484463));
#410=DIRECTION('',(7.23992666521594E-06,0.707105866550225,0.707107695784623));
#411=DIRECTION('',(0.707111900362959,0.499993406898401,-0.499999353422797));
#412=ORIENTED_EDGE('',*,*,#472,.F.);
#413=ORIENTED_EDGE('',*,*,#519,.F.);
#414=ORIENTED_EDGE('',*,*,#475,.F.);
#415=ORIENTED_EDGE('',*,*,#532,.T.);
#416=CARTESIAN_POINT('',(0.000834041608746917,0.0119876176639109,0.200445162864031));
#417=DIRECTION('',(7.23966113675804E-06,0.707107695747562,-0.707105866587289));
#418=DIRECTION('',(-0.999999999947585,1.02386147228163E-05,2.00999490830515E-10));
#419=ORIENTED_EDGE('',*,*,#505,.F.);
#420=ORIENTED_EDGE('',*,*,#504,.F.);
#421=ORIENTED_EDGE('',*,*,#512,.F.);
#422=ORIENTED_EDGE('',*,*,#500,.F.);
#423=ORIENTED_EDGE('',*,*,#499,.F.);
#424=ORIENTED_EDGE('',*,*,#513,.F.);
#425=ORIENTED_EDGE('',*,*,#469,.F.);
#426=ORIENTED_EDGE('',*,*,#526,.F.);
#427=ORIENTED_EDGE('',*,*,#517,.F.);
#428=ORIENTED_EDGE('',*,*,#487,.F.);
#429=ORIENTED_EDGE('',*,*,#527,.F.);
#430=ORIENTED_EDGE('',*,*,#523,.F.);
#431=ORIENTED_EDGE('',*,*,#480,.F.);
#432=ORIENTED_EDGE('',*,*,#530,.F.);
#433=ORIENTED_EDGE('',*,*,#533,.F.);
#434=ORIENTED_EDGE('',*,*,#465,.F.);
#435=ORIENTED_EDGE('',*,*,#534,.T.);
#436=ORIENTED_EDGE('',*,*,#535,.F.);
#437=CARTESIAN_POINT('',(0.000333980177817038,0.00598761773913017,0.204345155103501));
#438=DIRECTION('',(1.87756532543659E-10,-1.29343783589083E-06,0.999999999999164));
#439=DIRECTION('',(1.02386147230997E-05,0.999999999946749,1.29343783390067E-06));
#440=ORIENTED_EDGE('',*,*,#466,.T.);
#441=ORIENTED_EDGE('',*,*,#535,.T.);
#442=ORIENTED_EDGE('',*,*,#536,.T.);
#443=ORIENTED_EDGE('',*,*,#474,.F.);
#444=CARTESIAN_POINT('',(-0.0656659398955815,0.0137943874960261,0.202121687996665));
#445=DIRECTION('',(1.87756532539471E-10,-1.29343783629318E-06,0.999999999999164));
#446=DIRECTION('',(-0.707099541355585,0.707114020942793,9.14740791819627E-07));
#447=ORIENTED_EDGE('',*,*,#536,.F.);
#448=ORIENTED_EDGE('',*,*,#534,.F.);
#449=ORIENTED_EDGE('',*,*,#464,.F.);
#450=ORIENTED_EDGE('',*,*,#532,.F.);
#451=CARTESIAN_POINT('',(0.0633340703365866,0.0147930645461955,0.203798212047375));
#452=DIRECTION('',(1.02386147239024E-05,0.999999999946749,1.29343783430302E-06));
#453=DIRECTION('',(0.0,-1.29343783437081E-06,0.999999999999164));
#454=ORIENTED_EDGE('',*,*,#462,.T.);
#455=ORIENTED_EDGE('',*,*,#533,.T.);
#456=ORIENTED_EDGE('',*,*,#529,.T.);
#457=ORIENTED_EDGE('',*,*,#531,.F.);
#458=CARTESIAN_POINT('',(0.063334060097657,0.0137930667147268,0.202121687970736));
#459=DIRECTION('',(1.87756532539572E-10,-1.29343783629318E-06,0.999999999999164));
#460=DIRECTION('',(0.707114020943394,0.707099541354984,9.14456535538173E-07));
#461=COLOUR_RGB('',0.560784339904785,0.686274528503418,0.686274528503418);
#462=EDGE_CURVE('',#537,#538,#539,.T.);
#463=EDGE_CURVE('2:1520',#540,#537,#541,.T.);
#464=EDGE_CURVE('2:1538',#540,#542,#543,.T.);
#465=EDGE_CURVE('2:1529',#542,#538,#544,.T.);
#466=EDGE_CURVE('',#545,#546,#547,.T.);
#467=EDGE_CURVE('2:1493',#548,#545,#549,.T.);
#468=EDGE_CURVE('2:1502',#548,#550,#551,.T.);
#469=EDGE_CURVE('2:1526',#550,#546,#552,.T.);
#470=EDGE_CURVE('',#553,#537,#554,.T.);
#471=EDGE_CURVE('2:1472',#555,#553,#556,.T.);
#472=EDGE_CURVE('2:1517',#555,#540,#557,.T.);
#473=EDGE_CURVE('',#545,#558,#559,.T.);
#474=EDGE_CURVE('2:1493',#545,#560,#561,.T.);
#475=EDGE_CURVE('2:1496',#560,#562,#563,.T.);
#476=EDGE_CURVE('2:1442',#558,#562,#564,.T.);
#477=EDGE_CURVE('',#565,#566,#567,.T.);
#478=EDGE_CURVE('2:1478',#568,#565,#569,.T.);
#479=EDGE_CURVE('2:1481',#568,#570,#571,.T.);
#480=EDGE_CURVE('2:1484',#570,#566,#572,.T.);
#481=EDGE_CURVE('',#565,#553,#573,.T.);
#482=EDGE_CURVE('2:1478',#565,#574,#575,.T.);
#483=EDGE_CURVE('2:1466',#574,#555,#576,.T.);
#484=EDGE_CURVE('',#577,#578,#579,.T.);
#485=EDGE_CURVE('2:1448',#580,#577,#581,.T.);
#486=EDGE_CURVE('2:1454',#580,#582,#583,.T.);
#487=EDGE_CURVE('2:1457',#582,#578,#584,.T.);
#488=EDGE_CURVE('',#577,#558,#585,.T.);
#489=EDGE_CURVE('2:1448',#577,#586,#587,.T.);
#490=EDGE_CURVE('2:1451',#586,#588,#589,.T.);
#491=EDGE_CURVE('2:1442',#588,#558,#590,.T.);
#492=EDGE_CURVE('',#591,#592,#593,.T.);
#493=EDGE_CURVE('2:1439',#591,#594,#595,.F.);
#494=EDGE_CURVE('',#596,#594,#597,.T.);
#495=EDGE_CURVE('2:1436',#592,#596,#598,.T.);
#496=EDGE_CURVE('',#596,#599,#600,.T.);
#497=EDGE_CURVE('2:1436',#596,#592,#601,.T.);
#498=EDGE_CURVE('',#602,#592,#603,.T.);
#499=EDGE_CURVE('2:1433',#602,#604,#605,.T.);
#500=EDGE_CURVE('2:1433',#604,#599,#606,.T.);
#501=EDGE_CURVE('',#607,#608,#609,.T.);
#502=EDGE_CURVE('2:1427',#607,#610,#611,.T.);
#503=EDGE_CURVE('',#612,#610,#613,.T.);
#504=EDGE_CURVE('2:1430',#612,#614,#615,.T.);
#505=EDGE_CURVE('2:1430',#614,#608,#616,.T.);
#506=EDGE_CURVE('',#617,#610,#618,.T.);
#507=EDGE_CURVE('2:1424',#617,#619,#620,.F.);
#508=EDGE_CURVE('',#607,#619,#621,.T.);
#509=EDGE_CURVE('2:1427',#610,#607,#622,.T.);
#510=EDGE_CURVE('2:1424',#619,#623,#624,.F.);
#511=EDGE_CURVE('2:1424',#623,#617,#625,.F.);
#512=EDGE_CURVE('2:1430',#608,#612,#626,.T.);
#513=EDGE_CURVE('2:1433',#599,#602,#627,.T.);
#514=EDGE_CURVE('2:1439',#594,#628,#629,.F.);
#515=EDGE_CURVE('2:1439',#628,#591,#630,.F.);
#516=EDGE_CURVE('2:1445',#562,#580,#631,.T.);
#517=EDGE_CURVE('2:1457',#578,#632,#633,.T.);
#518=EDGE_CURVE('2:1460',#632,#586,#634,.T.);
#519=EDGE_CURVE('2:1463',#562,#555,#635,.F.);
#520=EDGE_CURVE('2:1469',#574,#580,#636,.F.);
#521=EDGE_CURVE('2:1472',#553,#637,#638,.T.);
#522=EDGE_CURVE('2:1475',#637,#568,#639,.T.);
#523=EDGE_CURVE('2:1484',#566,#640,#641,.T.);
#524=EDGE_CURVE('2:1487',#640,#574,#642,.T.);
#525=EDGE_CURVE('2:1490',#588,#548,#643,.T.);
#526=EDGE_CURVE('2:1499',#632,#550,#644,.T.);
#527=EDGE_CURVE('2:1505',#640,#582,#645,.T.);
#528=EDGE_CURVE('2:1508',#646,#637,#647,.T.);
#529=EDGE_CURVE('2:1511',#648,#646,#649,.T.);
#530=EDGE_CURVE('2:1514',#648,#570,#650,.T.);
#531=EDGE_CURVE('2:1520',#537,#646,#651,.T.);
#532=EDGE_CURVE('2:1523',#560,#540,#652,.T.);
#533=EDGE_CURVE('2:1529',#538,#648,#653,.T.);
#534=EDGE_CURVE('2:1532',#542,#654,#655,.T.);
#535=EDGE_CURVE('2:1526',#546,#654,#656,.T.);
#536=EDGE_CURVE('2:1535',#654,#560,#657,.T.);
#537=VERTEX_POINT('',#658);
#538=VERTEX_POINT('',#659);
#539=LINE('',#660,#661);
#540=VERTEX_POINT('',#662);
#541=ELLIPSE('',#663,0.0010823922002924,0.001);
#542=VERTEX_POINT('',#664);
#543=LINE('',#665,#666);
#544=CIRCLE('',#667,0.001);
#545=VERTEX_POINT('',#668);
#546=VERTEX_POINT('',#669);
#547=LINE('',#670,#671);
#548=VERTEX_POINT('',#672);
#549=ELLIPSE('',#673,0.0010823922002924,0.001);
#550=VERTEX_POINT('',#674);
#551=LINE('',#675,#676);
#552=CIRCLE('',#677,0.001);
#553=VERTEX_POINT('',#678);
#554=LINE('',#679,#680);
#555=VERTEX_POINT('',#681);
#556=ELLIPSE('',#682,0.0010823922002924,0.001);
#557=LINE('',#683,#684);
#558=VERTEX_POINT('',#685);
#559=LINE('',#686,#687);
#560=VERTEX_POINT('',#688);
#561=ELLIPSE('',#689,0.0010823922002924,0.001);
#562=VERTEX_POINT('',#690);
#563=LINE('',#691,#692);
#564=ELLIPSE('',#693,0.00108239220029239,0.001);
#565=VERTEX_POINT('',#694);
#566=VERTEX_POINT('',#695);
#567=LINE('',#696,#697);
#568=VERTEX_POINT('',#698);
#569=ELLIPSE('',#699,0.0014142135623731,0.001);
#570=VERTEX_POINT('',#700);
#571=LINE('',#701,#702);
#572=CIRCLE('',#703,0.001);
#573=LINE('',#704,#705);
#574=VERTEX_POINT('',#706);
#575=ELLIPSE('',#707,0.0014142135623731,0.001);
#576=LINE('',#708,#709);
#577=VERTEX_POINT('',#710);
#578=VERTEX_POINT('',#711);
#579=LINE('',#712,#713);
#580=VERTEX_POINT('',#714);
#581=ELLIPSE('',#715,0.0014142135623731,0.001);
#582=VERTEX_POINT('',#716);
#583=LINE('',#717,#718);
#584=CIRCLE('',#719,0.001);
#585=LINE('',#720,#721);
#586=VERTEX_POINT('',#722);
#587=ELLIPSE('',#723,0.0014142135623731,0.001);
#588=VERTEX_POINT('',#724);
#589=LINE('',#725,#726);
#590=ELLIPSE('',#727,0.00108239220029239,0.001);
#591=VERTEX_POINT('',#728);
#592=VERTEX_POINT('',#729);
#593=LINE('',#730,#731);
#594=VERTEX_POINT('',#732);
#595=CIRCLE('',#733,0.00175);
#596=VERTEX_POINT('',#734);
#597=LINE('',#735,#736);
#598=CIRCLE('',#737,0.00175);
#599=VERTEX_POINT('',#738);
#600=LINE('',#739,#740);
#601=CIRCLE('',#741,0.00175);
#602=VERTEX_POINT('',#742);
#603=LINE('',#743,#744);
#604=VERTEX_POINT('',#745);
#605=CIRCLE('',#746,0.00355);
#606=CIRCLE('',#747,0.00355);
#607=VERTEX_POINT('',#748);
#608=VERTEX_POINT('',#749);
#609=LINE('',#750,#751);
#610=VERTEX_POINT('',#752);
#611=CIRCLE('',#753,0.00175);
#612=VERTEX_POINT('',#754);
#613=LINE('',#755,#756);
#614=VERTEX_POINT('',#757);
#615=CIRCLE('',#758,0.00355);
#616=CIRCLE('',#759,0.00355);
#617=VERTEX_POINT('',#760);
#618=LINE('',#761,#762);
#619=VERTEX_POINT('',#763);
#620=CIRCLE('',#764,0.00175);
#621=LINE('',#765,#766);
#622=CIRCLE('',#767,0.00175);
#623=VERTEX_POINT('',#768);
#624=CIRCLE('',#769,0.00175);
#625=CIRCLE('',#770,0.00175);
#626=CIRCLE('',#771,0.00355);
#627=CIRCLE('',#772,0.00355);
#628=VERTEX_POINT('',#773);
#629=CIRCLE('',#774,0.00175);
#630=CIRCLE('',#775,0.00175);
#631=LINE('',#776,#777);
#632=VERTEX_POINT('',#778);
#633=CIRCLE('',#779,0.001);
#634=LINE('',#780,#781);
#635=LINE('',#782,#783);
#636=LINE('',#784,#785);
#637=VERTEX_POINT('',#786);
#638=ELLIPSE('',#787,0.0010823922002924,0.001);
#639=LINE('',#788,#789);
#640=VERTEX_POINT('',#790);
#641=CIRCLE('',#791,0.001);
#642=LINE('',#792,#793);
#643=LINE('',#794,#795);
#644=LINE('',#796,#797);
#645=LINE('',#798,#799);
#646=VERTEX_POINT('',#800);
#647=LINE('',#801,#802);
#648=VERTEX_POINT('',#803);
#649=LINE('',#804,#805);
#650=LINE('',#806,#807);
#651=ELLIPSE('',#808,0.0010823922002924,0.001);
#652=LINE('',#809,#810);
#653=CIRCLE('',#811,0.001);
#654=VERTEX_POINT('',#812);
#655=LINE('',#813,#814);
#656=CIRCLE('',#815,0.001);
#657=LINE('',#816,#817);
#658=CARTESIAN_POINT('',(0.0640411741188353,0.014500164638135,0.203372577578359));
#659=CARTESIAN_POINT('',(0.0640411741190179,0.0145001633801522,0.204345166101988));
#660=CARTESIAN_POINT('',(0.0640411741189152,0.0145001640876029,0.203798212315213));
#661=VECTOR('',#818,1.0);
#662=CARTESIAN_POINT('',(0.0633340703364839,0.0147930652536471,0.203251257613781));
#663=AXIS2_PLACEMENT_3D('',#819,#820,#821);
#664=CARTESIAN_POINT('',(0.0633340703366893,0.014793063838744,0.204345166480969));
#665=CARTESIAN_POINT('',(0.0633340703362718,0.0147930667146735,0.202121689264174));
#666=VECTOR('',#822,1.0);
#667=AXIS2_PLACEMENT_3D('',#823,#824,#825);
#668=CARTESIAN_POINT('',(-0.0663730394367022,0.0145014998990222,0.203372577604572));
#669=CARTESIAN_POINT('',(-0.0663730394365196,0.0145014986410394,0.204345166128201));
#670=CARTESIAN_POINT('',(-0.0663730394366223,0.0145014993484901,0.203798212341225));
#671=VECTOR('',#826,1.0);
#672=CARTESIAN_POINT('',(-0.0666659398952392,0.0137943957378549,0.203665469908845));
#673=AXIS2_PLACEMENT_3D('',#827,#828,#829);
#674=CARTESIAN_POINT('',(-0.0666659398951116,0.0137943948587113,0.204345165213661));
#675=CARTESIAN_POINT('',(-0.066665939895529,0.0137943977346409,0.202121687996866));
#676=VECTOR('',#830,1.0);
#677=AXIS2_PLACEMENT_3D('',#831,#832,#833);
#678=CARTESIAN_POINT('',(0.064041146120643,0.0117656499176536,0.200638055783875));
#679=CARTESIAN_POINT('',(0.0640411601197353,0.0131329068990403,0.202005316302262));
#680=VECTOR('',#834,1.0);
#681=CARTESIAN_POINT('',(0.0633340405815908,0.0118869778798398,0.200345162722124));
#682=AXIS2_PLACEMENT_3D('',#835,#836,#837);
#683=CARTESIAN_POINT('',(0.0633340160084648,0.00948698098421843,0.197945159617876));
#684=VECTOR('',#838,1.0);
#685=CARTESIAN_POINT('',(-0.0663730674348945,0.0117669851785406,0.200638055810088));
#686=CARTESIAN_POINT('',(-0.0663730534358022,0.0131342421599558,0.202005316328504));
#687=VECTOR('',#839,1.0);
#688=CARTESIAN_POINT('',(-0.0656659296567547,0.0147943860349464,0.20325125763971));
#689=AXIS2_PLACEMENT_3D('',#840,#841,#842);
#690=CARTESIAN_POINT('',(-0.0656659594116478,0.0118882986611391,0.200345162748053));
#691=CARTESIAN_POINT('',(-0.0656659839847737,0.00948830176551771,0.197945159643805));
#692=VECTOR('',#843,1.0);
#693=AXIS2_PLACEMENT_3D('',#844,#845,#846);
#694=CARTESIAN_POINT('',(0.064041025575246,-7.95425372590607E-06,0.20063804055545));
#695=CARTESIAN_POINT('',(0.064041025575942,-7.95904863805483E-06,0.204345147336634));
#696=CARTESIAN_POINT('',(0.0640410255755665,-7.95646176238835E-06,0.202345147336636));
#697=VECTOR('',#847,1.0);
#698=CARTESIAN_POINT('',(0.0643339260339707,0.000699148614003518,0.201345148251176));
#699=AXIS2_PLACEMENT_3D('',#848,#849,#850);
#700=CARTESIAN_POINT('',(0.064333926034534,0.00069914473369001,0.204345148251173));
#701=CARTESIAN_POINT('',(0.0643339260338017,0.00069914977809757,0.200445148251177));
#702=VECTOR('',#851,1.0);
#703=AXIS2_PLACEMENT_3D('',#852,#853,#854);
#704=CARTESIAN_POINT('',(0.0640410664777389,0.00398697026162737,0.200638045722637));
#705=VECTOR('',#855,1.0);
#706=CARTESIAN_POINT('',(0.0633339157952207,-0.000300839853890672,0.20034514695794));
#707=AXIS2_PLACEMENT_3D('',#856,#857,#858);
#708=CARTESIAN_POINT('',(0.0633339596965345,0.00398697788026045,0.200345152503966));
#709=VECTOR('',#859,1.0);
#710=CARTESIAN_POINT('',(-0.0663731879802915,-6.61899283886159E-06,0.200638040581663));
#711=CARTESIAN_POINT('',(-0.0663731879795955,-6.62378775102769E-06,0.204345147362847));
#712=CARTESIAN_POINT('',(-0.066373187979971,-6.62120087535027E-06,0.202345147362849));
#713=VECTOR('',#860,1.0);
#714=CARTESIAN_POINT('',(-0.0656660841980179,-0.000299519072591424,0.200345146983869));
#715=AXIS2_PLACEMENT_3D('',#861,#862,#863);
#716=CARTESIAN_POINT('',(-0.0656660841972668,-0.000299524246342769,0.204345146983866));
#717=CARTESIAN_POINT('',(-0.0656660841979991,-0.000299519201935208,0.200445146983869));
#718=VECTOR('',#864,1.0);
#719=AXIS2_PLACEMENT_3D('',#865,#866,#867);
#720=CARTESIAN_POINT('',(-0.0663731470777986,0.00398830552251444,0.20063804574885));
#721=VECTOR('',#868,1.0);
#722=CARTESIAN_POINT('',(-0.066666073959163,0.000700489872532212,0.201345148277507));
#723=AXIS2_PLACEMENT_3D('',#869,#870,#871);
#724=CARTESIAN_POINT('',(-0.0666659636523807,0.0114740940439649,0.201345162212494));
#725=CARTESIAN_POINT('',(-0.0666660402964639,0.0039883076067366,0.201345152530095));
#726=VECTOR('',#872,1.0);
#727=AXIS2_PLACEMENT_3D('',#873,#874,#875);
#728=CARTESIAN_POINT('',(0.0600839930658415,0.00575616577237718,0.20034515479291));
#729=CARTESIAN_POINT('',(0.0600839930662546,0.00575616292681394,0.202545154792909));
#730=CARTESIAN_POINT('',(0.0600839930660481,0.00575616434959556,0.201445154792909));
#731=VECTOR('',#876,1.0);
#732=CARTESIAN_POINT('',(0.0565839930658415,0.00575616577237718,0.200345154793567));
#733=AXIS2_PLACEMENT_3D('',#877,#878,#879);
#734=CARTESIAN_POINT('',(0.0565839930662546,0.00575616292681394,0.202545154793566));
#735=CARTESIAN_POINT('',(0.0565839930660481,0.00575616434959556,0.201445154793567));
#736=VECTOR('',#880,1.0);
#737=AXIS2_PLACEMENT_3D('',#881,#882,#883);
#738=CARTESIAN_POINT('',(0.0547839930665926,0.00575616059862584,0.204345154793902));
#739=CARTESIAN_POINT('',(0.0547839930665926,0.00575616059862584,0.204345154793902));
#740=VECTOR('',#884,1.0);
#741=AXIS2_PLACEMENT_3D('',#885,#886,#887);
#742=CARTESIAN_POINT('',(0.0618839930665926,0.00575616059862584,0.204345154792569));
#743=CARTESIAN_POINT('',(0.0618839930665926,0.00575616059862584,0.204345154792569));
#744=VECTOR('',#888,1.0);
#745=CARTESIAN_POINT('',(0.0618486054207506,0.00625616059862542,0.204345155439295));
#746=AXIS2_PLACEMENT_3D('',#889,#890,#891);
#747=AXIS2_PLACEMENT_3D('',#892,#893,#894);
#748=CARTESIAN_POINT('',(-0.0624160069275081,0.0062473813219656,0.202545155451269));
#749=CARTESIAN_POINT('',(-0.0642160069271702,0.0062473789937775,0.204345155451606));
#750=CARTESIAN_POINT('',(-0.0642160069271702,0.0062473789937775,0.204345155451606));
#751=VECTOR('',#895,1.0);
#752=CARTESIAN_POINT('',(-0.0589160069275081,0.0062473813219656,0.202545155450612));
#753=AXIS2_PLACEMENT_3D('',#896,#897,#898);
#754=CARTESIAN_POINT('',(-0.0571160069271701,0.0062473789937775,0.204345155450273));
#755=CARTESIAN_POINT('',(-0.0571160069271701,0.0062473789937775,0.204345155450273));
#756=VECTOR('',#899,1.0);
#757=CARTESIAN_POINT('',(-0.0571513945730121,0.0067473789937771,0.204345156096998));
#758=AXIS2_PLACEMENT_3D('',#900,#901,#902);
#759=AXIS2_PLACEMENT_3D('',#903,#904,#905);
#760=CARTESIAN_POINT('',(-0.0589160069279212,0.00624738416752884,0.200345155450614));
#761=CARTESIAN_POINT('',(-0.0589160069277146,0.00624738274474722,0.201445155450613));
#762=VECTOR('',#906,1.0);
#763=CARTESIAN_POINT('',(-0.0624160069279212,0.00624738416752884,0.200345155451271));
#764=AXIS2_PLACEMENT_3D('',#907,#908,#909);
#765=CARTESIAN_POINT('',(-0.0624160069277146,0.00624738274474722,0.20144515545127));
#766=VECTOR('',#910,1.0);
#767=AXIS2_PLACEMENT_3D('',#911,#912,#913);
#768=CARTESIAN_POINT('',(-0.062343057911046,0.00674738416752842,0.200345156097976));
#769=AXIS2_PLACEMENT_3D('',#914,#915,#916);
#770=AXIS2_PLACEMENT_3D('',#917,#918,#919);
#771=AXIS2_PLACEMENT_3D('',#920,#921,#922);
#772=AXIS2_PLACEMENT_3D('',#923,#924,#925);
#773=CARTESIAN_POINT('',(0.0566569420827167,0.00625616577237676,0.200345155440273));
#774=AXIS2_PLACEMENT_3D('',#926,#927,#928);
#775=AXIS2_PLACEMENT_3D('',#929,#930,#931);
#776=CARTESIAN_POINT('',(-0.0656660402967041,0.00398829866155971,0.200345152529895));
#777=VECTOR('',#932,1.0);
#778=CARTESIAN_POINT('',(-0.0666660739585997,0.000700485992218704,0.204345148277504));
#779=AXIS2_PLACEMENT_3D('',#933,#934,#935);
#780=CARTESIAN_POINT('',(-0.0666660739593319,0.000700491036626264,0.200445148277508));
#781=VECTOR('',#936,1.0);
#782=CARTESIAN_POINT('',(0.000584040584879774,0.0118876203529137,0.200345162734737));
#783=VECTOR('',#937,0.999999999999999);
#784=CARTESIAN_POINT('',(0.000583915798509674,-0.000300197380816812,0.200345146970553));
#785=VECTOR('',#938,1.0);
#786=CARTESIAN_POINT('',(0.064334036340753,0.0114727527854362,0.201345162186163));
#787=AXIS2_PLACEMENT_3D('',#939,#940,#941);
#788=CARTESIAN_POINT('',(0.0643339596966698,0.00398696634820789,0.201345152503764));
#789=VECTOR('',#942,1.0);
#790=CARTESIAN_POINT('',(0.0633339157959717,-0.000300845027642016,0.204345146957937));
#791=AXIS2_PLACEMENT_3D('',#943,#944,#945);
#792=CARTESIAN_POINT('',(0.0633339157952394,-0.000300839983234455,0.20044514695794));
#793=VECTOR('',#946,1.0);
#794=CARTESIAN_POINT('',(-0.0666659912243824,0.00878120430838487,0.198652265510593));
#795=VECTOR('',#947,1.0);
#796=CARTESIAN_POINT('',(-0.0666660402959006,0.00398830372642309,0.204345152530092));
#797=VECTOR('',#948,1.0);
#798=CARTESIAN_POINT('',(0.0005839157992607,-0.000300202554568157,0.204345146970549));
#799=VECTOR('',#949,1.0);
#800=CARTESIAN_POINT('',(0.0643340600978945,0.0137930544793261,0.203665469882514));
#801=CARTESIAN_POINT('',(0.0643340087687513,0.00877986304985616,0.198652265484262));
#802=VECTOR('',#950,1.0);
#803=CARTESIAN_POINT('',(0.0643340600980221,0.0137930536001825,0.204345165187331));
#804=CARTESIAN_POINT('',(0.0643340600976046,0.0137930564761121,0.202121687970535));
#805=VECTOR('',#951,1.0);
#806=CARTESIAN_POINT('',(0.0643339596972331,0.00398696246789438,0.204345152503761));
#807=VECTOR('',#952,1.0);
#808=AXIS2_PLACEMENT_3D('',#953,#954,#955);
#809=CARTESIAN_POINT('',(0.0320840703381218,0.0147933852103572,0.203251257620062));
#810=VECTOR('',#956,0.999999999999999);
#811=AXIS2_PLACEMENT_3D('',#957,#958,#959);
#812=CARTESIAN_POINT('',(-0.0656659296565493,0.0147943846200433,0.204345166506898));
#813=CARTESIAN_POINT('',(0.0318340703383403,0.0147933863551078,0.204345166487301));
#814=VECTOR('',#960,1.0);
#815=AXIS2_PLACEMENT_3D('',#961,#962,#963);
#816=CARTESIAN_POINT('',(-0.0656659296569668,0.0147943874959729,0.202121689290103));
#817=VECTOR('',#964,1.0);
#818=DIRECTION('',(1.8775653253954E-10,-1.29343783629318E-06,0.999999999999164));
#819=CARTESIAN_POINT('',(0.0633340600979469,0.0137930647179409,0.203665469882715));
#820=DIRECTION('',(-3.91832169538285E-06,-0.382682237363953,-0.92388002748775));
#821=DIRECTION('',(9.45917471724915E-06,0.923880027439326,-0.382682237384013));
#822=DIRECTION('',(1.8775653253954E-10,-1.29343783629318E-06,0.999999999999164));
#823=CARTESIAN_POINT('',(0.0633340600980745,0.0137930638387972,0.204345165187532));
#824=DIRECTION('',(-1.87756532543712E-10,1.29343783589083E-06,-0.999999999999164));
#825=DIRECTION('',(0.707114020943394,0.707099541354984,9.14456535253671E-07));
#826=DIRECTION('',(1.8775653253954E-10,-1.29343783629318E-06,0.999999999999164));
#827=CARTESIAN_POINT('',(-0.0656659398952916,0.0137943854992402,0.203665469908644));
#828=DIRECTION('',(-3.91832169538286E-06,-0.382682237363952,-0.92388002748775));
#829=DIRECTION('',(9.45917472055467E-06,0.923880027439326,-0.382682237384012));
#830=DIRECTION('',(1.8775653253954E-10,-1.29343783629318E-06,0.999999999999164));
#831=CARTESIAN_POINT('',(-0.065665939895164,0.0137943846200966,0.20434516521346));
#832=DIRECTION('',(-1.87756532543611E-10,1.29343783589083E-06,-0.999999999999164));
#833=DIRECTION('',(-0.707099541355585,0.707114020942793,9.14740791535125E-07));
#834=DIRECTION('',(7.23992666514519E-06,0.707105866550225,0.707107695784623));
#835=CARTESIAN_POINT('',(0.0633340363408054,0.011472763024051,0.201345162186364));
#836=DIRECTION('',(-9.4593184381949E-06,-0.923879037484857,-0.382684627345516));
#837=DIRECTION('',(3.91797475463594E-06,0.38268462732546,-0.923879037533282));
#838=DIRECTION('',(7.23992666514519E-06,0.707105866550225,0.707107695784623));
#839=DIRECTION('',(-7.23992666444425E-06,-0.707105866550225,-0.707107695784623));
#840=CARTESIAN_POINT('',(-0.0656659398952916,0.0137943854992402,0.203665469908644));
#841=DIRECTION('',(-3.91832169538286E-06,-0.382682237363952,-0.92388002748775));
#842=DIRECTION('',(9.45917472055467E-06,0.923880027439326,-0.382682237384012));
#843=DIRECTION('',(-7.23992666444425E-06,-0.707105866550225,-0.707107695784623));
#844=CARTESIAN_POINT('',(-0.0656659636524331,0.0114740838053502,0.201345162212293));
#845=DIRECTION('',(-9.45931843819503E-06,-0.923879037484866,-0.382684627345494));
#846=DIRECTION('',(3.91797475553748E-06,0.382684627325438,-0.923879037533291));
#847=DIRECTION('',(1.87756532543659E-10,-1.29343783589083E-06,0.999999999999164));
#848=CARTESIAN_POINT('',(0.0633339260340231,0.00069915885261823,0.201345148251377));
#849=DIRECTION('',(7.23966113265868E-06,0.707107695747558,-0.707105866587293));
#850=DIRECTION('',(-7.23992666975098E-06,-0.707105866550229,-0.707107695784619));
#851=DIRECTION('',(1.87756532543659E-10,-1.29343783589083E-06,0.999999999999164));
#852=CARTESIAN_POINT('',(0.0633339260345864,0.000699154972304734,0.204345148251374));
#853=DIRECTION('',(-1.87756532543712E-10,1.29343783589083E-06,-0.999999999999164));
#854=DIRECTION('',(0.707099541355585,-0.707114020942793,-9.14740791535125E-07));
#855=DIRECTION('',(1.02386147239024E-05,0.999999999946749,1.29343783390067E-06));
#856=CARTESIAN_POINT('',(0.0633339260340231,0.00069915885261823,0.201345148251377));
#857=DIRECTION('',(7.23966113265868E-06,0.707107695747558,-0.707105866587293));
#858=DIRECTION('',(-7.23992666975098E-06,-0.707105866550229,-0.707107695784619));
#859=DIRECTION('',(1.02386147239024E-05,0.999999999946749,1.29343783390067E-06));
#860=DIRECTION('',(1.87756532543659E-10,-1.29343783589083E-06,0.999999999999164));
#861=CARTESIAN_POINT('',(-0.0656660739592154,0.000700479633917476,0.201345148277306));
#862=DIRECTION('',(7.23966113204538E-06,0.707107695747558,-0.707105866587293));
#863=DIRECTION('',(-7.23992666867767E-06,-0.707105866550229,-0.707107695784619));
#864=DIRECTION('',(1.87756532543659E-10,-1.29343783589083E-06,0.999999999999164));
#865=CARTESIAN_POINT('',(-0.0656660739586521,0.000700475753603981,0.204345148277303));
#866=DIRECTION('',(-1.87756532543712E-10,1.29343783589083E-06,-0.999999999999164));
#867=DIRECTION('',(-0.707114020943374,-0.707099541355004,-9.14456535253697E-07));
#868=DIRECTION('',(1.02386147229112E-05,0.999999999946749,1.29343783390067E-06));
#869=CARTESIAN_POINT('',(-0.0656660739592154,0.000700479633917476,0.201345148277306));
#870=DIRECTION('',(7.23966113204538E-06,0.707107695747558,-0.707105866587293));
#871=DIRECTION('',(-7.23992666867767E-06,-0.707105866550229,-0.707107695784619));
#872=DIRECTION('',(1.02386147229112E-05,0.999999999946749,1.29343783390067E-06));
#873=CARTESIAN_POINT('',(-0.0656659636524331,0.0114740838053502,0.201345162212293));
#874=DIRECTION('',(-9.45931843819503E-06,-0.923879037484866,-0.382684627345494));
#875=DIRECTION('',(3.91797475553748E-06,0.382684627325438,-0.923879037533291));
#876=DIRECTION('',(1.87756532543659E-10,-1.29343783589083E-06,0.999999999999164));
#877=CARTESIAN_POINT('',(0.0583339930658415,0.00575616577237718,0.200345154793239));
#878=DIRECTION('',(1.87756532543659E-10,-1.29343783589083E-06,0.999999999999163));
#879=DIRECTION('',(1.0,0.0,-1.87756532543816E-10));
#880=DIRECTION('',(-1.87756532543659E-10,1.29343783589083E-06,-0.999999999999164));
#881=CARTESIAN_POINT('',(0.0583339930662546,0.00575616292681394,0.202545154793237));
#882=DIRECTION('',(-1.87756532543659E-10,1.29343783589083E-06,-0.999999999999164));
#883=DIRECTION('',(-1.0,2.14491600995555E-16,1.87756532544094E-10));
#884=DIRECTION('',(-0.707106781053785,-9.14598664628897E-07,0.707106781318719));
#885=CARTESIAN_POINT('',(0.0583339930662546,0.00575616292681394,0.202545154793237));
#886=DIRECTION('',(-1.87756532543659E-10,1.29343783589083E-06,-0.999999999999164));
#887=DIRECTION('',(-1.0,2.14491600995555E-16,1.87756532544094E-10));
#888=DIRECTION('',(-0.70710678131931,9.14598664974425E-07,-0.707106781053194));
#889=CARTESIAN_POINT('',(0.0583339930665926,0.00575616059862584,0.204345154793236));
#890=DIRECTION('',(1.87756532543659E-10,-1.29343783589083E-06,0.999999999999163));
#891=DIRECTION('',(-1.0,-4.84499837107044E-21,1.87756532543816E-10));
#892=CARTESIAN_POINT('',(0.0583339930665926,0.00575616059862584,0.204345154793236));
#893=DIRECTION('',(1.87756532543659E-10,-1.29343783589083E-06,0.999999999999163));
#894=DIRECTION('',(-1.0,-4.84499837107044E-21,1.87756532543816E-10));
#895=DIRECTION('',(-0.707106781053785,-9.14598664628896E-07,0.707106781318718));
#896=CARTESIAN_POINT('',(-0.0606660069275081,0.0062473813219656,0.202545155450941));
#897=DIRECTION('',(-1.87756532543659E-10,1.29343783589083E-06,-0.999999999999164));
#898=DIRECTION('',(-1.0,2.14491600995555E-16,1.87756532544094E-10));
#899=DIRECTION('',(-0.70710678131931,9.14598664974425E-07,-0.707106781053194));
#900=CARTESIAN_POINT('',(-0.0606660069271701,0.0062473789937775,0.204345155450939));
#901=DIRECTION('',(1.87756532543659E-10,-1.29343783589083E-06,0.999999999999163));
#902=DIRECTION('',(-1.0,-4.84499837107044E-21,1.87756532543816E-10));
#903=CARTESIAN_POINT('',(-0.0606660069271701,0.0062473789937775,0.204345155450939));
#904=DIRECTION('',(1.87756532543659E-10,-1.29343783589083E-06,0.999999999999163));
#905=DIRECTION('',(-1.0,-4.84499837107044E-21,1.87756532543816E-10));
#906=DIRECTION('',(1.87756532543659E-10,-1.29343783589083E-06,0.999999999999164));
#907=CARTESIAN_POINT('',(-0.0606660069279212,0.00624738416752884,0.200345155450942));
#908=DIRECTION('',(1.87756532543659E-10,-1.29343783589083E-06,0.999999999999163));
#909=DIRECTION('',(1.0,0.0,-1.87756532543816E-10));
#910=DIRECTION('',(-1.87756532543659E-10,1.29343783589083E-06,-0.999999999999164));
#911=CARTESIAN_POINT('',(-0.0606660069275081,0.0062473813219656,0.202545155450941));
#912=DIRECTION('',(-1.87756532543659E-10,1.29343783589083E-06,-0.999999999999164));
#913=DIRECTION('',(-1.0,2.14491600995555E-16,1.87756532544094E-10));
#914=CARTESIAN_POINT('',(-0.0606660069279212,0.00624738416752884,0.200345155450942));
#915=DIRECTION('',(1.87756532543659E-10,-1.29343783589083E-06,0.999999999999163));
#916=DIRECTION('',(1.0,0.0,-1.87756532543816E-10));
#917=CARTESIAN_POINT('',(-0.0606660069279212,0.00624738416752884,0.200345155450942));
#918=DIRECTION('',(1.87756532543659E-10,-1.29343783589083E-06,0.999999999999163));
#919=DIRECTION('',(1.0,0.0,-1.87756532543816E-10));
#920=CARTESIAN_POINT('',(-0.0606660069271701,0.0062473789937775,0.204345155450939));
#921=DIRECTION('',(1.87756532543659E-10,-1.29343783589083E-06,0.999999999999163));
#922=DIRECTION('',(-1.0,-4.84499837107044E-21,1.87756532543816E-10));
#923=CARTESIAN_POINT('',(0.0583339930665926,0.00575616059862584,0.204345154793236));
#924=DIRECTION('',(1.87756532543659E-10,-1.29343783589083E-06,0.999999999999163));
#925=DIRECTION('',(-1.0,-4.84499837107044E-21,1.87756532543816E-10));
#926=CARTESIAN_POINT('',(0.0583339930658415,0.00575616577237718,0.200345154793239));
#927=DIRECTION('',(1.87756532543659E-10,-1.29343783589083E-06,0.999999999999163));
#928=DIRECTION('',(1.0,0.0,-1.87756532543816E-10));
#929=CARTESIAN_POINT('',(0.0583339930658415,0.00575616577237718,0.200345154793239));
#930=DIRECTION('',(1.87756532543659E-10,-1.29343783589083E-06,0.999999999999163));
#931=DIRECTION('',(1.0,0.0,-1.87756532543816E-10));
#932=DIRECTION('',(-1.02386147229112E-05,-0.999999999946749,-1.29343783390067E-06));
#933=CARTESIAN_POINT('',(-0.0656660739586521,0.000700475753603981,0.204345148277303));
#934=DIRECTION('',(-1.87756532543712E-10,1.29343783589083E-06,-0.999999999999164));
#935=DIRECTION('',(-0.707114020943374,-0.707099541355004,-9.14456535253697E-07));
#936=DIRECTION('',(-1.87756532543659E-10,1.29343783589083E-06,-0.999999999999164));
#937=DIRECTION('',(-0.999999999947585,1.02386147228697E-05,2.00999544203655E-10));
#938=DIRECTION('',(0.999999999947585,-1.02386147228508E-05,-2.0099954420363E-10));
#939=CARTESIAN_POINT('',(0.0633340363408054,0.011472763024051,0.201345162186364));
#940=DIRECTION('',(-9.4593184381949E-06,-0.923879037484857,-0.382684627345516));
#941=DIRECTION('',(3.91797475463594E-06,0.38268462732546,-0.923879037533282));
#942=DIRECTION('',(-1.02386147239024E-05,-0.999999999946749,-1.29343783390067E-06));
#943=CARTESIAN_POINT('',(0.0633339260345864,0.000699154972304734,0.204345148251374));
#944=DIRECTION('',(-1.87756532543712E-10,1.29343783589083E-06,-0.999999999999164));
#945=DIRECTION('',(0.707099541355585,-0.707114020942793,-9.14740791535125E-07));
#946=DIRECTION('',(-1.87756532543659E-10,1.29343783589083E-06,-0.999999999999164));
#947=DIRECTION('',(7.23992666444425E-06,0.707105866550225,0.707107695784623));
#948=DIRECTION('',(1.02386147229112E-05,0.999999999946749,1.29343783390067E-06));
#949=DIRECTION('',(-0.999999999947585,1.02386147228508E-05,2.0099954420363E-10));
#950=DIRECTION('',(-7.23992666514519E-06,-0.707105866550225,-0.707107695784623));
#951=DIRECTION('',(-1.8775653253954E-10,1.29343783629318E-06,-0.999999999999164));
#952=DIRECTION('',(-1.02386147239024E-05,-0.999999999946749,-1.29343783390067E-06));
#953=CARTESIAN_POINT('',(0.0633340600979469,0.0137930647179409,0.203665469882715));
#954=DIRECTION('',(-3.91832169538285E-06,-0.382682237363953,-0.92388002748775));
#955=DIRECTION('',(9.45917471724915E-06,0.923880027439326,-0.382682237384013));
#956=DIRECTION('',(0.999999999947585,-1.0238614723651E-05,-2.01000325530075E-10));
#957=CARTESIAN_POINT('',(0.0633340600980745,0.0137930638387972,0.204345165187532));
#958=DIRECTION('',(-1.87756532543712E-10,1.29343783589083E-06,-0.999999999999164));
#959=DIRECTION('',(0.707114020943394,0.707099541354984,9.14456535253671E-07));
#960=DIRECTION('',(-0.999999999947585,1.0238614723651E-05,2.00999544204665E-10));
#961=CARTESIAN_POINT('',(-0.065665939895164,0.0137943846200966,0.20434516521346));
#962=DIRECTION('',(-1.87756532543611E-10,1.29343783589083E-06,-0.999999999999164));
#963=DIRECTION('',(-0.707099541355585,0.707114020942793,9.14740791535125E-07));
#964=DIRECTION('',(-1.8775653253954E-10,1.29343783629318E-06,-0.999999999999164));
#965=PRESENTATION_LAYER_ASSIGNMENT('9','Layer0',(#25));
ENDSEC;
END-ISO-10303-21;
