ISO-10303-21;
HEADER;
FILE_DESCRIPTION(('STEP AP214'),'1');
FILE_NAME('PCB_back_panel.stp','2026-09-05T10:38:18',(' '),(' '),'Spatial InterOp 3D',' ',' ');
FILE_SCHEMA(('AUTOMOTIVE_DESIGN { 1 0 10303 214 1 1 1 1 }'));
ENDSEC;
DATA;
#1=MECHANICAL_DESIGN_GEOMETRIC_PRESENTATION_REPRESENTATION(' ',(#10),#6);
#2=PRODUCT_DEFINITION_CONTEXT('',#11,'design');
#3=APPLICATION_PROTOCOL_DEFINITION('INTERNATIONAL STANDARD','automotive_design',1994,#11);
#4=PRODUCT_CATEGORY_RELATIONSHIP('NONE','NONE',#12,#13);
#5=SHAPE_DEFINITION_REPRESENTATION(#14,#15);
#6= (GEOMETRIC_REPRESENTATION_CONTEXT(3)GLOBAL_UNCERTAINTY_ASSIGNED_CONTEXT((#18))GLOBAL_UNIT_ASSIGNED_CONTEXT((#20,#21,#22))REPRESENTATION_CONTEXT('NONE','WORKSPACE'));
#10=STYLED_ITEM('',(#24),#25);
#11=APPLICATION_CONTEXT(' ');
#12=PRODUCT_CATEGORY('part','NONE');
#13=PRODUCT_RELATED_PRODUCT_CATEGORY('detail',' ',(#26));
#14=PRODUCT_DEFINITION_SHAPE('NONE','NONE',#27);
#15=ADVANCED_BREP_SHAPE_REPRESENTATION('PCB_back_panel',(#25,#28),#6);
#18=UNCERTAINTY_MEASURE_WITH_UNIT(LENGTH_MEASURE(1.0E-08),#20,'','');
#20= (CONVERSION_BASED_UNIT('METRE',#31)LENGTH_UNIT()NAMED_UNIT(#34));
#21= (NAMED_UNIT(#36)PLANE_ANGLE_UNIT()SI_UNIT($,.RADIAN.));
#22= (NAMED_UNIT(#36)SOLID_ANGLE_UNIT()SI_UNIT($,.STERADIAN.));
#24=PRESENTATION_STYLE_ASSIGNMENT((#42));
#25=MANIFOLD_SOLID_BREP('PCB_back_panel',#43);
#26=PRODUCT('PCB_back_panel','','PART--DESC',(#44));
#27=PRODUCT_DEFINITION('','NONE',#45,#2);
#28=AXIS2_PLACEMENT_3D('',#46,#47,#48);
#31=LENGTH_MEASURE_WITH_UNIT(LENGTH_MEASURE(1.0),#49);
#34=DIMENSIONAL_EXPONENTS(1.0,0.0,0.0,0.0,0.0,0.0,0.0);
#36=DIMENSIONAL_EXPONENTS(0.0,0.0,0.0,0.0,0.0,0.0,0.0);
#42=SURFACE_STYLE_USAGE(.BOTH.,#50);
#43=CLOSED_SHELL('',(#51,#52,#53,#54,#55,#56,#57,#58,#59,#60,#61,#62,#63,#64,#65,#66,#67,#68,#69,#70,#71,#72,#73,#74,#75,#76,#77,#78,#79,#80,#81,#82,#83,#84,#85,#86,#87,#88));
#44=PRODUCT_CONTEXT('',#11,'mechanical');
#45=PRODUCT_DEFINITION_FORMATION_WITH_SPECIFIED_SOURCE(' ','NONE',#26,.NOT_KNOWN.);
#46=CARTESIAN_POINT('',(0.0,0.0,0.0));
#47=DIRECTION('',(0.0,0.0,1.0));
#48=DIRECTION('',(1.0,0.0,0.0));
#49= (NAMED_UNIT(#34)LENGTH_UNIT()SI_UNIT($,.METRE.));
#50=SURFACE_SIDE_STYLE('',(#90));
#51=ADVANCED_FACE('1:198342',(#91),#92,.T.);
#52=ADVANCED_FACE('1:198336',(#93),#94,.T.);
#53=ADVANCED_FACE('1:198333',(#95),#96,.F.);
#54=ADVANCED_FACE('1:198327',(#97),#98,.F.);
#55=ADVANCED_FACE('1:198324',(#99),#100,.T.);
#56=ADVANCED_FACE('1:198321',(#101),#102,.T.);
#57=ADVANCED_FACE('1:198315',(#103),#104,.F.);
#58=ADVANCED_FACE('1:198309',(#105),#106,.F.);
#59=ADVANCED_FACE('1:198285',(#107),#108,.T.);
#60=ADVANCED_FACE('1:198282',(#109),#110,.T.);
#61=ADVANCED_FACE('1:198279',(#111),#112,.T.);
#62=ADVANCED_FACE('1:198276',(#113),#114,.T.);
#63=ADVANCED_FACE('1:198276',(#115),#116,.T.);
#64=ADVANCED_FACE('1:198279',(#117),#118,.T.);
#65=ADVANCED_FACE('1:198282',(#119),#120,.T.);
#66=ADVANCED_FACE('1:198285',(#121),#122,.T.);
#67=ADVANCED_FACE('1:198288',(#123),#124,.T.);
#68=ADVANCED_FACE('1:198291',(#125),#126,.T.);
#69=ADVANCED_FACE('1:198294',(#127),#128,.F.);
#70=ADVANCED_FACE('1:198297',(#129),#130,.F.);
#71=ADVANCED_FACE('1:198300',(#131),#132,.T.);
#72=ADVANCED_FACE('1:198303',(#133),#134,.F.);
#73=ADVANCED_FACE('1:198306',(#135),#136,.F.);
#74=ADVANCED_FACE('1:198309',(#137),#138,.F.);
#75=ADVANCED_FACE('1:198312',(#139),#140,.T.);
#76=ADVANCED_FACE('1:198315',(#141),#142,.F.);
#77=ADVANCED_FACE('1:198318',(#143),#144,.T.);
#78=ADVANCED_FACE('1:198321',(#145),#146,.T.);
#79=ADVANCED_FACE('1:198324',(#147),#148,.T.);
#80=ADVANCED_FACE('1:198327',(#149),#150,.F.);
#81=ADVANCED_FACE('1:198330',(#151),#152,.F.);
#82=ADVANCED_FACE('1:198333',(#153),#154,.F.);
#83=ADVANCED_FACE('1:198336',(#155),#156,.T.);
#84=ADVANCED_FACE('1:198339',(#157),#158,.T.);
#85=ADVANCED_FACE('1:198342',(#159),#160,.T.);
#86=ADVANCED_FACE('1:198345',(#161),#162,.T.);
#87=ADVANCED_FACE('1:198348',(#163),#164,.T.);
#88=ADVANCED_FACE('1:198351',(#165),#166,.F.);
#90=SURFACE_STYLE_FILL_AREA(#167);
#91=FACE_OUTER_BOUND('',#168,.T.);
#92=CYLINDRICAL_SURFACE('',#169,0.002);
#93=FACE_OUTER_BOUND('',#170,.T.);
#94=CYLINDRICAL_SURFACE('',#171,0.002);
#95=FACE_OUTER_BOUND('',#172,.T.);
#96=CYLINDRICAL_SURFACE('',#173,0.002);
#97=FACE_OUTER_BOUND('',#174,.T.);
#98=CYLINDRICAL_SURFACE('',#175,0.002);
#99=FACE_OUTER_BOUND('',#176,.T.);
#100=CYLINDRICAL_SURFACE('',#177,0.002);
#101=FACE_OUTER_BOUND('',#178,.T.);
#102=CYLINDRICAL_SURFACE('',#179,0.002);
#103=FACE_OUTER_BOUND('',#180,.T.);
#104=CYLINDRICAL_SURFACE('',#181,0.002);
#105=FACE_OUTER_BOUND('',#182,.T.);
#106=CYLINDRICAL_SURFACE('',#183,0.002);
#107=FACE_OUTER_BOUND('',#184,.T.);
#108=CYLINDRICAL_SURFACE('',#185,0.002);
#109=FACE_OUTER_BOUND('',#186,.T.);
#110=CYLINDRICAL_SURFACE('',#187,0.002);
#111=FACE_OUTER_BOUND('',#188,.T.);
#112=CYLINDRICAL_SURFACE('',#189,0.002);
#113=FACE_OUTER_BOUND('',#190,.T.);
#114=CYLINDRICAL_SURFACE('',#191,0.002);
#115=FACE_OUTER_BOUND('',#192,.T.);
#116=CYLINDRICAL_SURFACE('',#193,0.002);
#117=FACE_OUTER_BOUND('',#194,.T.);
#118=CYLINDRICAL_SURFACE('',#195,0.002);
#119=FACE_OUTER_BOUND('',#196,.T.);
#120=CYLINDRICAL_SURFACE('',#197,0.002);
#121=FACE_OUTER_BOUND('',#198,.T.);
#122=CYLINDRICAL_SURFACE('',#199,0.002);
#123=FACE_OUTER_BOUND('',#200,.T.);
#124=PLANE('',#201);
#125=FACE_OUTER_BOUND('',#202,.T.);
#126=PLANE('',#203);
#127=FACE_OUTER_BOUND('',#204,.T.);
#128=PLANE('',#205);
#129=FACE_OUTER_BOUND('',#206,.T.);
#130=PLANE('',#207);
#131=FACE_OUTER_BOUND('',#208,.T.);
#132=PLANE('',#209);
#133=FACE_OUTER_BOUND('',#210,.T.);
#134=PLANE('',#211);
#135=FACE_OUTER_BOUND('',#212,.T.);
#136=PLANE('',#213);
#137=FACE_OUTER_BOUND('',#214,.T.);
#138=CYLINDRICAL_SURFACE('',#215,0.002);
#139=FACE_OUTER_BOUND('',#216,.T.);
#140=PLANE('',#217);
#141=FACE_OUTER_BOUND('',#218,.T.);
#142=CYLINDRICAL_SURFACE('',#219,0.002);
#143=FACE_OUTER_BOUND('',#220,.T.);
#144=PLANE('',#221);
#145=FACE_OUTER_BOUND('',#222,.T.);
#146=CYLINDRICAL_SURFACE('',#223,0.002);
#147=FACE_OUTER_BOUND('',#224,.T.);
#148=CYLINDRICAL_SURFACE('',#225,0.002);
#149=FACE_OUTER_BOUND('',#226,.T.);
#150=CYLINDRICAL_SURFACE('',#227,0.002);
#151=FACE_OUTER_BOUND('',#228,.T.);
#152=PLANE('',#229);
#153=FACE_OUTER_BOUND('',#230,.T.);
#154=CYLINDRICAL_SURFACE('',#231,0.002);
#155=FACE_OUTER_BOUND('',#232,.T.);
#156=CYLINDRICAL_SURFACE('',#233,0.002);
#157=FACE_OUTER_BOUND('',#234,.T.);
#158=PLANE('',#235);
#159=FACE_OUTER_BOUND('',#236,.T.);
#160=CYLINDRICAL_SURFACE('',#237,0.002);
#161=FACE_OUTER_BOUND('',#238,.T.);
#162=PLANE('',#239);
#163=FACE_OUTER_BOUND('',#240,.T.);
#164=PLANE('',#241);
#165=FACE_OUTER_BOUND('',#242,.T.);
#166=PLANE('',#243);
#167=FILL_AREA_STYLE('',(#244));
#168=EDGE_LOOP('',(#245,#246,#247,#248));
#169=AXIS2_PLACEMENT_3D('',#249,#250,#251);
#170=EDGE_LOOP('',(#252,#253,#254,#255));
#171=AXIS2_PLACEMENT_3D('',#256,#257,#258);
#172=EDGE_LOOP('',(#259,#260,#261,#262));
#173=AXIS2_PLACEMENT_3D('',#263,#264,#265);
#174=EDGE_LOOP('',(#266,#267,#268,#269));
#175=AXIS2_PLACEMENT_3D('',#270,#271,#272);
#176=EDGE_LOOP('',(#273,#274,#275,#276));
#177=AXIS2_PLACEMENT_3D('',#277,#278,#279);
#178=EDGE_LOOP('',(#280,#281,#282,#283));
#179=AXIS2_PLACEMENT_3D('',#284,#285,#286);
#180=EDGE_LOOP('',(#287,#288,#289,#290));
#181=AXIS2_PLACEMENT_3D('',#291,#292,#293);
#182=EDGE_LOOP('',(#294,#295,#296,#297));
#183=AXIS2_PLACEMENT_3D('',#298,#299,#300);
#184=EDGE_LOOP('',(#301,#302,#303,#304));
#185=AXIS2_PLACEMENT_3D('',#305,#306,#307);
#186=EDGE_LOOP('',(#308,#309,#310,#311));
#187=AXIS2_PLACEMENT_3D('',#312,#313,#314);
#188=EDGE_LOOP('',(#315,#316,#317,#318));
#189=AXIS2_PLACEMENT_3D('',#319,#320,#321);
#190=EDGE_LOOP('',(#322,#323,#324,#325));
#191=AXIS2_PLACEMENT_3D('',#326,#327,#328);
#192=EDGE_LOOP('',(#329,#330,#331,#332));
#193=AXIS2_PLACEMENT_3D('',#333,#334,#335);
#194=EDGE_LOOP('',(#336,#337,#338,#339));
#195=AXIS2_PLACEMENT_3D('',#340,#341,#342);
#196=EDGE_LOOP('',(#343,#344,#345,#346));
#197=AXIS2_PLACEMENT_3D('',#347,#348,#349);
#198=EDGE_LOOP('',(#350,#351,#352,#353));
#199=AXIS2_PLACEMENT_3D('',#354,#355,#356);
#200=EDGE_LOOP('',(#357,#358,#359,#360));
#201=AXIS2_PLACEMENT_3D('',#361,#362,#363);
#202=EDGE_LOOP('',(#364,#365,#366,#367));
#203=AXIS2_PLACEMENT_3D('',#368,#369,#370);
#204=EDGE_LOOP('',(#371,#372,#373,#374,#375,#376,#377,#378,#379,#380,#381,#382,#383,#384,#385,#386,#387,#388,#389,#390,#391,#392,#393,#394,#395,#396,#397,#398,#399,#400,#401,#402,#403,#404,#405,#406));
#205=AXIS2_PLACEMENT_3D('',#407,#408,#409);
#206=EDGE_LOOP('',(#410,#411,#412,#413));
#207=AXIS2_PLACEMENT_3D('',#414,#415,#416);
#208=EDGE_LOOP('',(#417,#418,#419,#420,#421,#422,#423,#424,#425,#426,#427,#428,#429,#430,#431,#432,#433,#434,#435,#436,#437,#438,#439,#440,#441,#442,#443,#444,#445,#446,#447,#448,#449,#450,#451,#452));
#209=AXIS2_PLACEMENT_3D('',#453,#454,#455);
#210=EDGE_LOOP('',(#456,#457,#458,#459));
#211=AXIS2_PLACEMENT_3D('',#460,#461,#462);
#212=EDGE_LOOP('',(#463,#464,#465,#466));
#213=AXIS2_PLACEMENT_3D('',#467,#468,#469);
#214=EDGE_LOOP('',(#470,#471,#472,#473));
#215=AXIS2_PLACEMENT_3D('',#474,#475,#476);
#216=EDGE_LOOP('',(#477,#478,#479,#480));
#217=AXIS2_PLACEMENT_3D('',#481,#482,#483);
#218=EDGE_LOOP('',(#484,#485,#486,#487));
#219=AXIS2_PLACEMENT_3D('',#488,#489,#490);
#220=EDGE_LOOP('',(#491,#492,#493,#494));
#221=AXIS2_PLACEMENT_3D('',#495,#496,#497);
#222=EDGE_LOOP('',(#498,#499,#500,#501));
#223=AXIS2_PLACEMENT_3D('',#502,#503,#504);
#224=EDGE_LOOP('',(#505,#506,#507,#508));
#225=AXIS2_PLACEMENT_3D('',#509,#510,#511);
#226=EDGE_LOOP('',(#512,#513,#514,#515));
#227=AXIS2_PLACEMENT_3D('',#516,#517,#518);
#228=EDGE_LOOP('',(#519,#520,#521,#522));
#229=AXIS2_PLACEMENT_3D('',#523,#524,#525);
#230=EDGE_LOOP('',(#526,#527,#528,#529));
#231=AXIS2_PLACEMENT_3D('',#530,#531,#532);
#232=EDGE_LOOP('',(#533,#534,#535,#536));
#233=AXIS2_PLACEMENT_3D('',#537,#538,#539);
#234=EDGE_LOOP('',(#540,#541,#542,#543));
#235=AXIS2_PLACEMENT_3D('',#544,#545,#546);
#236=EDGE_LOOP('',(#547,#548,#549,#550));
#237=AXIS2_PLACEMENT_3D('',#551,#552,#553);
#238=EDGE_LOOP('',(#554,#555,#556,#557));
#239=AXIS2_PLACEMENT_3D('',#558,#559,#560);
#240=EDGE_LOOP('',(#561,#562,#563,#564));
#241=AXIS2_PLACEMENT_3D('',#565,#566,#567);
#242=EDGE_LOOP('',(#568,#569,#570,#571));
#243=AXIS2_PLACEMENT_3D('',#572,#573,#574);
#244=FILL_AREA_STYLE_COLOUR('',#575);
#245=ORIENTED_EDGE('',*,*,#576,.F.);
#246=ORIENTED_EDGE('',*,*,#577,.T.);
#247=ORIENTED_EDGE('',*,*,#578,.T.);
#248=ORIENTED_EDGE('',*,*,#579,.T.);
#249=CARTESIAN_POINT('',(-0.0930947210945561,0.0836359145367553,0.136185070750899));
#250=DIRECTION('',(1.6014808646383E-06,0.156435165403758,-0.9876882296669));
#251=DIRECTION('',(-0.706947502800723,0.698558503964274,0.110640159178377));
#252=ORIENTED_EDGE('',*,*,#580,.F.);
#253=ORIENTED_EDGE('',*,*,#581,.T.);
#254=ORIENTED_EDGE('',*,*,#582,.T.);
#255=ORIENTED_EDGE('',*,*,#583,.T.);
#256=CARTESIAN_POINT('',(0.0933252780846051,0.0835547895619219,0.13617252402773));
#257=DIRECTION('',(-1.6014808646383E-06,-0.156435165403758,0.9876882296669));
#258=DIRECTION('',(0.707266023700599,0.698243550320584,0.110592568260482));
#259=ORIENTED_EDGE('',*,*,#584,.F.);
#260=ORIENTED_EDGE('',*,*,#585,.T.);
#261=ORIENTED_EDGE('',*,*,#586,.T.);
#262=ORIENTED_EDGE('',*,*,#587,.T.);
#263=CARTESIAN_POINT('',(0.0225428077464454,0.0194848999924802,0.107141061531515));
#264=DIRECTION('',(-1.60148677385777E-06,-0.15643574254537,0.987688138256056));
#265=DIRECTION('',(0.707113931830279,0.698393740427865,0.110616774237453));
#266=ORIENTED_EDGE('',*,*,#588,.F.);
#267=ORIENTED_EDGE('',*,*,#589,.T.);
#268=ORIENTED_EDGE('',*,*,#590,.T.);
#269=ORIENTED_EDGE('',*,*,#591,.T.);
#270=CARTESIAN_POINT('',(-0.0184571922514057,0.0194853197756839,0.107141061539756));
#271=DIRECTION('',(-1.60148677385778E-06,-0.15643574254537,0.987688138256056));
#272=DIRECTION('',(-0.707099630468692,0.698408220015668,0.110616774521707));
#273=ORIENTED_EDGE('',*,*,#592,.F.);
#274=ORIENTED_EDGE('',*,*,#593,.T.);
#275=ORIENTED_EDGE('',*,*,#594,.T.);
#276=ORIENTED_EDGE('',*,*,#595,.T.);
#277=CARTESIAN_POINT('',(-0.0930953107285964,0.0260471647145367,0.111217639355732));
#278=DIRECTION('',(1.6014867737519E-06,0.15643574254537,-0.987688138256056));
#279=DIRECTION('',(-0.707113931830281,-0.698393740427863,-0.110616774237453));
#280=ORIENTED_EDGE('',*,*,#596,.F.);
#281=ORIENTED_EDGE('',*,*,#597,.T.);
#282=ORIENTED_EDGE('',*,*,#598,.T.);
#283=ORIENTED_EDGE('',*,*,#599,.T.);
#284=CARTESIAN_POINT('',(0.0933246892616325,0.02604525603198,0.111217639318262));
#285=DIRECTION('',(1.6014867737519E-06,0.15643574254537,-0.987688138256056));
#286=DIRECTION('',(0.707099630468695,-0.698408220015664,-0.110616774521707));
#287=ORIENTED_EDGE('',*,*,#600,.F.);
#288=ORIENTED_EDGE('',*,*,#601,.T.);
#289=ORIENTED_EDGE('',*,*,#602,.T.);
#290=ORIENTED_EDGE('',*,*,#603,.T.);
#291=CARTESIAN_POINT('',(-0.0762934717606856,0.0223308941233869,0.109110361802102));
#292=DIRECTION('',(1.6014867737519E-06,0.15643574254537,-0.987688138256056));
#293=DIRECTION('',(0.707113931830278,0.698393740427866,0.110616774237453));
#294=ORIENTED_EDGE('',*,*,#604,.F.);
#295=ORIENTED_EDGE('',*,*,#605,.T.);
#296=ORIENTED_EDGE('',*,*,#606,.T.);
#297=ORIENTED_EDGE('',*,*,#607,.T.);
#298=CARTESIAN_POINT('',(0.0759624595208567,0.0223293348577724,0.109110364144153));
#299=DIRECTION('',(1.60148677376513E-06,0.15643574254537,-0.987688138256056));
#300=DIRECTION('',(-0.707099630468693,0.698408220015667,0.110616774521707));
#301=ORIENTED_EDGE('',*,*,#608,.F.);
#302=ORIENTED_EDGE('',*,*,#609,.T.);
#303=ORIENTED_EDGE('',*,*,#610,.T.);
#304=ORIENTED_EDGE('',*,*,#611,.T.);
#305=CARTESIAN_POINT('',(-0.0224572683662717,0.0120509328888743,0.122895796217774));
#306=DIRECTION('',(-1.6014867737916E-06,-0.15643574254537,0.987688138256056));
#307=DIRECTION('',(0.707099630468689,-0.69840822001567,-0.110616774521708));
#308=ORIENTED_EDGE('',*,*,#612,.F.);
#309=ORIENTED_EDGE('',*,*,#613,.T.);
#310=ORIENTED_EDGE('',*,*,#614,.T.);
#311=ORIENTED_EDGE('',*,*,#615,.T.);
#312=CARTESIAN_POINT('',(-0.0722935770050394,0.0120514435194324,0.122895793855137));
#313=DIRECTION('',(-1.6014867737519E-06,-0.15643574254537,0.987688138256056));
#314=DIRECTION('',(-0.70711393183028,-0.698393740427864,-0.110616774237453));
#315=ORIENTED_EDGE('',*,*,#616,.F.);
#316=ORIENTED_EDGE('',*,*,#617,.T.);
#317=ORIENTED_EDGE('',*,*,#618,.T.);
#318=ORIENTED_EDGE('',*,*,#619,.T.);
#319=CARTESIAN_POINT('',(0.02654273163116,0.0120504311967529,0.122895796207925));
#320=DIRECTION('',(1.6014867737916E-06,0.15643574254537,-0.987688138256056));
#321=DIRECTION('',(-0.707113931830279,-0.698393740427865,-0.110616774237453));
#322=ORIENTED_EDGE('',*,*,#620,.F.);
#323=ORIENTED_EDGE('',*,*,#621,.T.);
#324=ORIENTED_EDGE('',*,*,#622,.T.);
#325=ORIENTED_EDGE('',*,*,#623,.T.);
#326=CARTESIAN_POINT('',(0.0719623542769222,0.0120499661627357,0.122895796198796));
#327=DIRECTION('',(1.60148677373866E-06,0.15643574254537,-0.987688138256056));
#328=DIRECTION('',(0.70709963046869,-0.698408220015669,-0.110616774521708));
#329=ORIENTED_EDGE('',*,*,#620,.T.);
#330=ORIENTED_EDGE('',*,*,#624,.T.);
#331=ORIENTED_EDGE('',*,*,#625,.T.);
#332=ORIENTED_EDGE('',*,*,#626,.T.);
#333=CARTESIAN_POINT('',(0.0719623542769222,0.0120499661627357,0.122895796198796));
#334=DIRECTION('',(1.60148677373866E-06,0.15643574254537,-0.987688138256056));
#335=DIRECTION('',(0.70709963046869,-0.698408220015669,-0.110616774521708));
#336=ORIENTED_EDGE('',*,*,#616,.T.);
#337=ORIENTED_EDGE('',*,*,#627,.T.);
#338=ORIENTED_EDGE('',*,*,#628,.T.);
#339=ORIENTED_EDGE('',*,*,#629,.T.);
#340=CARTESIAN_POINT('',(0.02654273163116,0.0120504311967529,0.122895796207925));
#341=DIRECTION('',(1.6014867737916E-06,0.15643574254537,-0.987688138256056));
#342=DIRECTION('',(-0.707113931830279,-0.698393740427865,-0.110616774237453));
#343=ORIENTED_EDGE('',*,*,#612,.T.);
#344=ORIENTED_EDGE('',*,*,#630,.T.);
#345=ORIENTED_EDGE('',*,*,#631,.T.);
#346=ORIENTED_EDGE('',*,*,#632,.T.);
#347=CARTESIAN_POINT('',(-0.0722935770050394,0.0120514435194324,0.122895793855137));
#348=DIRECTION('',(-1.6014867737519E-06,-0.15643574254537,0.987688138256056));
#349=DIRECTION('',(-0.70711393183028,-0.698393740427864,-0.110616774237453));
#350=ORIENTED_EDGE('',*,*,#608,.T.);
#351=ORIENTED_EDGE('',*,*,#633,.T.);
#352=ORIENTED_EDGE('',*,*,#634,.T.);
#353=ORIENTED_EDGE('',*,*,#635,.T.);
#354=CARTESIAN_POINT('',(-0.0224572683662717,0.0120509328888743,0.122895796217774));
#355=DIRECTION('',(-1.6014867737916E-06,-0.15643574254537,0.987688138256056));
#356=DIRECTION('',(0.707099630468689,-0.69840822001567,-0.110616774521708));
#357=ORIENTED_EDGE('',*,*,#625,.F.);
#358=ORIENTED_EDGE('',*,*,#636,.F.);
#359=ORIENTED_EDGE('',*,*,#606,.F.);
#360=ORIENTED_EDGE('',*,*,#637,.T.);
#361=CARTESIAN_POINT('',(0.0739626403827209,0.0399940010981522,0.110389494598911));
#362=DIRECTION('',(0.999999999947585,-1.02386147236608E-05,-2.0099805153606E-10));
#363=DIRECTION('',(1.0112589758013E-05,0.987688138204286,0.156435742553567));
#364=ORIENTED_EDGE('',*,*,#631,.F.);
#365=ORIENTED_EDGE('',*,*,#638,.T.);
#366=ORIENTED_EDGE('',*,*,#639,.F.);
#367=ORIENTED_EDGE('',*,*,#640,.F.);
#368=CARTESIAN_POINT('',(-0.0742932908987205,0.0399955497493573,0.110389494629313));
#369=DIRECTION('',(-0.999999999947585,1.02386147219954E-05,2.00997773980304E-10));
#370=DIRECTION('',(-1.01125897563247E-05,-0.987688138204286,-0.156435742553567));
#371=ORIENTED_EDGE('',*,*,#626,.F.);
#372=ORIENTED_EDGE('',*,*,#637,.F.);
#373=ORIENTED_EDGE('',*,*,#605,.F.);
#374=ORIENTED_EDGE('',*,*,#641,.F.);
#375=ORIENTED_EDGE('',*,*,#642,.T.);
#376=ORIENTED_EDGE('',*,*,#597,.F.);
#377=ORIENTED_EDGE('',*,*,#643,.F.);
#378=ORIENTED_EDGE('',*,*,#644,.T.);
#379=ORIENTED_EDGE('',*,*,#645,.F.);
#380=ORIENTED_EDGE('',*,*,#583,.F.);
#381=ORIENTED_EDGE('',*,*,#646,.T.);
#382=ORIENTED_EDGE('',*,*,#577,.F.);
#383=ORIENTED_EDGE('',*,*,#647,.F.);
#384=ORIENTED_EDGE('',*,*,#648,.T.);
#385=ORIENTED_EDGE('',*,*,#593,.F.);
#386=ORIENTED_EDGE('',*,*,#649,.F.);
#387=ORIENTED_EDGE('',*,*,#650,.T.);
#388=ORIENTED_EDGE('',*,*,#601,.F.);
#389=ORIENTED_EDGE('',*,*,#651,.F.);
#390=ORIENTED_EDGE('',*,*,#638,.F.);
#391=ORIENTED_EDGE('',*,*,#630,.F.);
#392=ORIENTED_EDGE('',*,*,#615,.F.);
#393=ORIENTED_EDGE('',*,*,#652,.T.);
#394=ORIENTED_EDGE('',*,*,#633,.F.);
#395=ORIENTED_EDGE('',*,*,#611,.F.);
#396=ORIENTED_EDGE('',*,*,#653,.T.);
#397=ORIENTED_EDGE('',*,*,#654,.F.);
#398=ORIENTED_EDGE('',*,*,#591,.F.);
#399=ORIENTED_EDGE('',*,*,#655,.T.);
#400=ORIENTED_EDGE('',*,*,#656,.F.);
#401=ORIENTED_EDGE('',*,*,#587,.F.);
#402=ORIENTED_EDGE('',*,*,#657,.T.);
#403=ORIENTED_EDGE('',*,*,#617,.F.);
#404=ORIENTED_EDGE('',*,*,#629,.F.);
#405=ORIENTED_EDGE('',*,*,#658,.T.);
#406=ORIENTED_EDGE('',*,*,#621,.F.);
#407=CARTESIAN_POINT('',(-0.0866349978899076,0.056601823319951,0.116057072845035));
#408=DIRECTION('',(1.60148677375016E-06,0.15643574254537,-0.987688138256056));
#409=DIRECTION('',(-1.01125897577908E-05,-0.987688138204286,-0.156435742553568));
#410=ORIENTED_EDGE('',*,*,#610,.F.);
#411=ORIENTED_EDGE('',*,*,#659,.F.);
#412=ORIENTED_EDGE('',*,*,#660,.F.);
#413=ORIENTED_EDGE('',*,*,#653,.F.);
#414=CARTESIAN_POINT('',(-0.0204572437157495,0.0144588508306882,0.106344937161634));
#415=DIRECTION('',(-0.999999999947585,1.02386147235713E-05,2.00997940513758E-10));
#416=DIRECTION('',(-1.01125897579072E-05,-0.987688138204286,-0.156435742553569));
#417=ORIENTED_EDGE('',*,*,#623,.F.);
#418=ORIENTED_EDGE('',*,*,#661,.T.);
#419=ORIENTED_EDGE('',*,*,#627,.F.);
#420=ORIENTED_EDGE('',*,*,#619,.F.);
#421=ORIENTED_EDGE('',*,*,#662,.T.);
#422=ORIENTED_EDGE('',*,*,#585,.F.);
#423=ORIENTED_EDGE('',*,*,#663,.F.);
#424=ORIENTED_EDGE('',*,*,#664,.T.);
#425=ORIENTED_EDGE('',*,*,#589,.F.);
#426=ORIENTED_EDGE('',*,*,#665,.F.);
#427=ORIENTED_EDGE('',*,*,#659,.T.);
#428=ORIENTED_EDGE('',*,*,#609,.F.);
#429=ORIENTED_EDGE('',*,*,#635,.F.);
#430=ORIENTED_EDGE('',*,*,#666,.T.);
#431=ORIENTED_EDGE('',*,*,#613,.F.);
#432=ORIENTED_EDGE('',*,*,#632,.F.);
#433=ORIENTED_EDGE('',*,*,#640,.T.);
#434=ORIENTED_EDGE('',*,*,#667,.F.);
#435=ORIENTED_EDGE('',*,*,#603,.F.);
#436=ORIENTED_EDGE('',*,*,#668,.F.);
#437=ORIENTED_EDGE('',*,*,#669,.F.);
#438=ORIENTED_EDGE('',*,*,#595,.F.);
#439=ORIENTED_EDGE('',*,*,#670,.F.);
#440=ORIENTED_EDGE('',*,*,#671,.F.);
#441=ORIENTED_EDGE('',*,*,#579,.F.);
#442=ORIENTED_EDGE('',*,*,#672,.T.);
#443=ORIENTED_EDGE('',*,*,#581,.F.);
#444=ORIENTED_EDGE('',*,*,#673,.F.);
#445=ORIENTED_EDGE('',*,*,#674,.F.);
#446=ORIENTED_EDGE('',*,*,#675,.F.);
#447=ORIENTED_EDGE('',*,*,#599,.F.);
#448=ORIENTED_EDGE('',*,*,#676,.F.);
#449=ORIENTED_EDGE('',*,*,#677,.F.);
#450=ORIENTED_EDGE('',*,*,#607,.F.);
#451=ORIENTED_EDGE('',*,*,#636,.T.);
#452=ORIENTED_EDGE('',*,*,#624,.F.);
#453=CARTESIAN_POINT('',(-0.0866349930854473,0.0570711305475871,0.113094008430267));
#454=DIRECTION('',(1.60148677375016E-06,0.15643574254537,-0.987688138256056));
#455=DIRECTION('',(-1.01125897577908E-05,-0.987688138204286,-0.156435742553568));
#456=ORIENTED_EDGE('',*,*,#618,.F.);
#457=ORIENTED_EDGE('',*,*,#657,.F.);
#458=ORIENTED_EDGE('',*,*,#586,.F.);
#459=ORIENTED_EDGE('',*,*,#662,.F.);
#460=CARTESIAN_POINT('',(0.0245427562818919,0.0144583900930256,0.106344937152589));
#461=DIRECTION('',(0.999999999947585,-1.02386147230166E-05,-2.00997885002607E-10));
#462=DIRECTION('',(1.01125897573507E-05,0.987688138204286,0.156435742553569));
#463=ORIENTED_EDGE('',*,*,#622,.F.);
#464=ORIENTED_EDGE('',*,*,#658,.F.);
#465=ORIENTED_EDGE('',*,*,#628,.F.);
#466=ORIENTED_EDGE('',*,*,#661,.F.);
#467=CARTESIAN_POINT('',(0.101086241980801,0.00745809556827944,0.139100798706563));
#468=DIRECTION('',(1.01125897577768E-05,0.987688138204287,0.156435742553567));
#469=DIRECTION('',(-0.999993902015144,0.000556301198453792,-0.00344767479660602));
#470=ORIENTED_EDGE('',*,*,#604,.T.);
#471=ORIENTED_EDGE('',*,*,#677,.T.);
#472=ORIENTED_EDGE('',*,*,#678,.T.);
#473=ORIENTED_EDGE('',*,*,#641,.T.);
#474=CARTESIAN_POINT('',(0.0759624595208567,0.0223293348577724,0.109110364144153));
#475=DIRECTION('',(1.60148677376513E-06,0.15643574254537,-0.987688138256056));
#476=DIRECTION('',(-0.707099630468693,0.698408220015667,0.110616774521707));
#477=ORIENTED_EDGE('',*,*,#678,.F.);
#478=ORIENTED_EDGE('',*,*,#676,.T.);
#479=ORIENTED_EDGE('',*,*,#598,.F.);
#480=ORIENTED_EDGE('',*,*,#642,.F.);
#481=CARTESIAN_POINT('',(0.000364669041325434,0.0240708315371961,0.110904767851839));
#482=DIRECTION('',(-1.01125897577631E-05,-0.987688138204286,-0.156435742553567));
#483=DIRECTION('',(-0.999999999947585,1.02386147234178E-05,2.00997988310778E-10));
#484=ORIENTED_EDGE('',*,*,#600,.T.);
#485=ORIENTED_EDGE('',*,*,#667,.T.);
#486=ORIENTED_EDGE('',*,*,#639,.T.);
#487=ORIENTED_EDGE('',*,*,#651,.T.);
#488=CARTESIAN_POINT('',(-0.0762934717606856,0.0223308941233869,0.109110361802102));
#489=DIRECTION('',(1.6014867737519E-06,0.15643574254537,-0.987688138256056));
#490=DIRECTION('',(0.707113931830278,0.698393740427866,0.110616774237453));
#491=ORIENTED_EDGE('',*,*,#602,.F.);
#492=ORIENTED_EDGE('',*,*,#650,.F.);
#493=ORIENTED_EDGE('',*,*,#679,.F.);
#494=ORIENTED_EDGE('',*,*,#668,.T.);
#495=CARTESIAN_POINT('',(0.00036466904132542,0.0240708315371961,0.110904767851839));
#496=DIRECTION('',(-1.01125897577631E-05,-0.987688138204286,-0.156435742553567));
#497=DIRECTION('',(-0.999999999947585,1.02386147234178E-05,2.00997988310778E-10));
#498=ORIENTED_EDGE('',*,*,#596,.T.);
#499=ORIENTED_EDGE('',*,*,#675,.T.);
#500=ORIENTED_EDGE('',*,*,#680,.T.);
#501=ORIENTED_EDGE('',*,*,#643,.T.);
#502=CARTESIAN_POINT('',(0.0933246892616325,0.02604525603198,0.111217639318262));
#503=DIRECTION('',(1.6014867737519E-06,0.15643574254537,-0.987688138256056));
#504=DIRECTION('',(0.707099630468695,-0.698408220015664,-0.110616774521707));
#505=ORIENTED_EDGE('',*,*,#592,.T.);
#506=ORIENTED_EDGE('',*,*,#669,.T.);
#507=ORIENTED_EDGE('',*,*,#679,.T.);
#508=ORIENTED_EDGE('',*,*,#649,.T.);
#509=CARTESIAN_POINT('',(-0.0930953107285964,0.0260471647145367,0.111217639355732));
#510=DIRECTION('',(1.6014867737519E-06,0.15643574254537,-0.987688138256056));
#511=DIRECTION('',(-0.707113931830281,-0.698393740427863,-0.110616774237453));
#512=ORIENTED_EDGE('',*,*,#588,.T.);
#513=ORIENTED_EDGE('',*,*,#654,.T.);
#514=ORIENTED_EDGE('',*,*,#660,.T.);
#515=ORIENTED_EDGE('',*,*,#665,.T.);
#516=CARTESIAN_POINT('',(-0.0184571922514057,0.0194853197756839,0.107141061539756));
#517=DIRECTION('',(-1.60148677385778E-06,-0.15643574254537,0.987688138256056));
#518=DIRECTION('',(-0.707099630468692,0.698408220015668,0.110616774521707));
#519=ORIENTED_EDGE('',*,*,#590,.F.);
#520=ORIENTED_EDGE('',*,*,#664,.F.);
#521=ORIENTED_EDGE('',*,*,#681,.F.);
#522=ORIENTED_EDGE('',*,*,#655,.F.);
#523=CARTESIAN_POINT('',(0.00204282797269937,0.0214604861604906,0.107453933020742));
#524=DIRECTION('',(1.0112589757777E-05,0.987688138204286,0.156435742553567));
#525=DIRECTION('',(-0.999999999947585,1.02386147234752E-05,2.0099771444729E-10));
#526=ORIENTED_EDGE('',*,*,#584,.T.);
#527=ORIENTED_EDGE('',*,*,#656,.T.);
#528=ORIENTED_EDGE('',*,*,#681,.T.);
#529=ORIENTED_EDGE('',*,*,#663,.T.);
#530=CARTESIAN_POINT('',(0.0225428077464454,0.0194848999924802,0.107141061531515));
#531=DIRECTION('',(-1.60148677385777E-06,-0.15643574254537,0.987688138256056));
#532=DIRECTION('',(0.707113931830279,0.698393740427865,0.110616774237453));
#533=ORIENTED_EDGE('',*,*,#580,.T.);
#534=ORIENTED_EDGE('',*,*,#645,.T.);
#535=ORIENTED_EDGE('',*,*,#682,.T.);
#536=ORIENTED_EDGE('',*,*,#673,.T.);
#537=CARTESIAN_POINT('',(0.0933252780846051,0.0835547895619219,0.13617252402773));
#538=DIRECTION('',(-1.6014808646383E-06,-0.156435165403758,0.9876882296669));
#539=DIRECTION('',(0.707266023700599,0.698243550320584,0.110592568260482));
#540=ORIENTED_EDGE('',*,*,#680,.F.);
#541=ORIENTED_EDGE('',*,*,#674,.T.);
#542=ORIENTED_EDGE('',*,*,#682,.F.);
#543=ORIENTED_EDGE('',*,*,#644,.F.);
#544=CARTESIAN_POINT('',(0.0953250577197987,0.0620322450617395,0.116917469392506));
#545=DIRECTION('',(0.999999999947585,-1.02386147234803E-05,-2.00997996025121E-10));
#546=DIRECTION('',(-1.01125897578261E-05,-0.987688138204286,-0.156435742553567));
#547=ORIENTED_EDGE('',*,*,#576,.T.);
#548=ORIENTED_EDGE('',*,*,#671,.T.);
#549=ORIENTED_EDGE('',*,*,#683,.T.);
#550=ORIENTED_EDGE('',*,*,#647,.T.);
#551=CARTESIAN_POINT('',(-0.0930947210945561,0.0836359145367553,0.136185070750899));
#552=DIRECTION('',(1.6014808646383E-06,0.156435165403758,-0.9876882296669));
#553=DIRECTION('',(-0.706947502800723,0.698558503964274,0.110640159178377));
#554=ORIENTED_EDGE('',*,*,#594,.F.);
#555=ORIENTED_EDGE('',*,*,#648,.F.);
#556=ORIENTED_EDGE('',*,*,#683,.F.);
#557=ORIENTED_EDGE('',*,*,#670,.T.);
#558=CARTESIAN_POINT('',(-0.0950949422702205,0.0620341946987552,0.11691746943078));
#559=DIRECTION('',(-0.999999999947585,1.02386147236469E-05,2.00997996025333E-10));
#560=DIRECTION('',(1.01125897579906E-05,0.987688138204286,0.156435742553567));
#561=ORIENTED_EDGE('',*,*,#582,.F.);
#562=ORIENTED_EDGE('',*,*,#672,.F.);
#563=ORIENTED_EDGE('',*,*,#578,.F.);
#564=ORIENTED_EDGE('',*,*,#646,.F.);
#565=CARTESIAN_POINT('',(-0.0025507128878828,0.0831235046848648,0.151950265511224));
#566=DIRECTION('',(0.000440343975388335,0.987688133800078,0.156435150933868));
#567=DIRECTION('',(0.999996218046371,-1.02350187454712E-05,-0.00275023420820295));
#568=ORIENTED_EDGE('',*,*,#614,.F.);
#569=ORIENTED_EDGE('',*,*,#666,.F.);
#570=ORIENTED_EDGE('',*,*,#634,.F.);
#571=ORIENTED_EDGE('',*,*,#652,.F.);
#572=CARTESIAN_POINT('',(0.101086241980801,0.00745809556827944,0.139100798706563));
#573=DIRECTION('',(1.01125897577768E-05,0.987688138204287,0.156435742553567));
#574=DIRECTION('',(-0.999993902015144,0.000556301198453792,-0.00344767479660602));
#575=COLOUR_RGB('',0.752941191196442,0.752941191196442,0.752941191196442);
#576=EDGE_CURVE('',#684,#685,#686,.T.);
#577=EDGE_CURVE('1:198438',#684,#687,#688,.T.);
#578=EDGE_CURVE('1:198567',#687,#689,#690,.T.);
#579=EDGE_CURVE('1:198510',#689,#685,#691,.T.);
#580=EDGE_CURVE('',#692,#693,#694,.T.);
#581=EDGE_CURVE('1:198516',#692,#695,#696,.T.);
#582=EDGE_CURVE('1:198561',#695,#697,#698,.T.);
#583=EDGE_CURVE('1:198432',#697,#693,#699,.T.);
#584=EDGE_CURVE('',#700,#701,#702,.T.);
#585=EDGE_CURVE('1:198486',#700,#703,#704,.T.);
#586=EDGE_CURVE('1:198531',#703,#705,#706,.T.);
#587=EDGE_CURVE('1:198465',#705,#701,#707,.T.);
#588=EDGE_CURVE('',#708,#709,#710,.T.);
#589=EDGE_CURVE('1:198492',#708,#711,#712,.T.);
#590=EDGE_CURVE('1:198552',#711,#713,#714,.T.);
#591=EDGE_CURVE('1:198459',#713,#709,#715,.T.);
#592=EDGE_CURVE('',#716,#717,#718,.T.);
#593=EDGE_CURVE('1:198444',#716,#719,#720,.T.);
#594=EDGE_CURVE('1:198549',#719,#721,#722,.T.);
#595=EDGE_CURVE('1:198504',#721,#717,#723,.T.);
#596=EDGE_CURVE('',#724,#725,#726,.T.);
#597=EDGE_CURVE('1:198426',#724,#727,#728,.T.);
#598=EDGE_CURVE('1:198537',#727,#729,#730,.T.);
#599=EDGE_CURVE('1:198522',#729,#725,#731,.T.);
#600=EDGE_CURVE('',#732,#733,#734,.T.);
#601=EDGE_CURVE('1:198450',#732,#735,#736,.T.);
#602=EDGE_CURVE('1:198540',#735,#737,#738,.T.);
#603=EDGE_CURVE('1:198498',#737,#733,#739,.T.);
#604=EDGE_CURVE('',#740,#741,#742,.T.);
#605=EDGE_CURVE('1:198420',#740,#743,#744,.T.);
#606=EDGE_CURVE('1:198405',#743,#745,#746,.T.);
#607=EDGE_CURVE('1:198528',#745,#741,#747,.T.);
#608=EDGE_CURVE('',#748,#749,#750,.T.);
#609=EDGE_CURVE('1:198396',#748,#751,#752,.T.);
#610=EDGE_CURVE('1:198399',#751,#753,#754,.T.);
#611=EDGE_CURVE('1:198390',#753,#749,#755,.T.);
#612=EDGE_CURVE('',#756,#757,#758,.T.);
#613=EDGE_CURVE('1:198384',#756,#759,#760,.T.);
#614=EDGE_CURVE('1:198387',#759,#761,#762,.T.);
#615=EDGE_CURVE('1:198378',#761,#757,#763,.T.);
#616=EDGE_CURVE('',#764,#765,#766,.T.);
#617=EDGE_CURVE('1:198372',#764,#767,#768,.T.);
#618=EDGE_CURVE('1:198375',#767,#769,#770,.T.);
#619=EDGE_CURVE('1:198366',#769,#765,#771,.T.);
#620=EDGE_CURVE('',#772,#773,#774,.T.);
#621=EDGE_CURVE('1:198360',#772,#775,#776,.T.);
#622=EDGE_CURVE('1:198363',#775,#777,#778,.T.);
#623=EDGE_CURVE('1:198354',#777,#773,#779,.T.);
#624=EDGE_CURVE('1:198354',#773,#780,#781,.T.);
#625=EDGE_CURVE('1:198357',#780,#782,#783,.T.);
#626=EDGE_CURVE('1:198360',#782,#772,#784,.T.);
#627=EDGE_CURVE('1:198366',#765,#785,#786,.T.);
#628=EDGE_CURVE('1:198369',#785,#787,#788,.T.);
#629=EDGE_CURVE('1:198372',#787,#764,#789,.T.);
#630=EDGE_CURVE('1:198378',#757,#790,#791,.T.);
#631=EDGE_CURVE('1:198381',#790,#792,#793,.T.);
#632=EDGE_CURVE('1:198384',#792,#756,#794,.T.);
#633=EDGE_CURVE('1:198390',#749,#795,#796,.T.);
#634=EDGE_CURVE('1:198393',#795,#797,#798,.T.);
#635=EDGE_CURVE('1:198396',#797,#748,#799,.T.);
#636=EDGE_CURVE('1:198402',#745,#780,#800,.F.);
#637=EDGE_CURVE('1:198408',#743,#782,#801,.F.);
#638=EDGE_CURVE('1:198411',#790,#802,#803,.F.);
#639=EDGE_CURVE('1:198414',#804,#802,#805,.T.);
#640=EDGE_CURVE('1:198417',#792,#804,#806,.F.);
#641=EDGE_CURVE('1:198420',#807,#740,#808,.T.);
#642=EDGE_CURVE('1:198423',#807,#727,#809,.T.);
#643=EDGE_CURVE('1:198426',#810,#724,#811,.T.);
#644=EDGE_CURVE('1:198429',#810,#812,#813,.T.);
#645=EDGE_CURVE('1:198432',#693,#812,#814,.T.);
#646=EDGE_CURVE('1:198435',#697,#687,#815,.T.);
#647=EDGE_CURVE('1:198438',#816,#684,#817,.T.);
#648=EDGE_CURVE('1:198441',#816,#719,#818,.T.);
#649=EDGE_CURVE('1:198444',#819,#716,#820,.T.);
#650=EDGE_CURVE('1:198447',#819,#735,#821,.T.);
#651=EDGE_CURVE('1:198450',#802,#732,#822,.T.);
#652=EDGE_CURVE('1:198453',#761,#795,#823,.T.);
#653=EDGE_CURVE('1:198456',#753,#824,#825,.F.);
#654=EDGE_CURVE('1:198459',#709,#824,#826,.T.);
#655=EDGE_CURVE('1:198462',#713,#827,#828,.F.);
#656=EDGE_CURVE('1:198465',#701,#827,#829,.T.);
#657=EDGE_CURVE('1:198468',#705,#767,#830,.F.);
#658=EDGE_CURVE('1:198471',#787,#775,#831,.T.);
#659=EDGE_CURVE('1:198474',#832,#751,#833,.T.);
#660=EDGE_CURVE('1:198477',#824,#832,#834,.T.);
#661=EDGE_CURVE('1:198480',#777,#785,#835,.F.);
#662=EDGE_CURVE('1:198483',#769,#703,#836,.T.);
#663=EDGE_CURVE('1:198486',#837,#700,#838,.T.);
#664=EDGE_CURVE('1:198489',#837,#711,#839,.T.);
#665=EDGE_CURVE('1:198492',#832,#708,#840,.T.);
#666=EDGE_CURVE('1:198495',#797,#759,#841,.F.);
#667=EDGE_CURVE('1:198498',#733,#804,#842,.T.);
#668=EDGE_CURVE('1:198501',#843,#737,#844,.T.);
#669=EDGE_CURVE('1:198504',#717,#843,#845,.T.);
#670=EDGE_CURVE('1:198507',#846,#721,#847,.T.);
#671=EDGE_CURVE('1:198510',#685,#846,#848,.T.);
#672=EDGE_CURVE('1:198513',#689,#695,#849,.F.);
#673=EDGE_CURVE('1:198516',#850,#692,#851,.T.);
#674=EDGE_CURVE('1:198519',#852,#850,#853,.T.);
#675=EDGE_CURVE('1:198522',#725,#852,#854,.T.);
#676=EDGE_CURVE('1:198525',#855,#729,#856,.T.);
#677=EDGE_CURVE('1:198528',#741,#855,#857,.T.);
#678=EDGE_CURVE('1:198534',#855,#807,#858,.T.);
#679=EDGE_CURVE('1:198543',#843,#819,#859,.T.);
#680=EDGE_CURVE('1:198546',#852,#810,#860,.T.);
#681=EDGE_CURVE('1:198555',#827,#837,#861,.T.);
#682=EDGE_CURVE('1:198558',#812,#850,#862,.T.);
#683=EDGE_CURVE('1:198564',#846,#816,#863,.T.);
#684=VERTEX_POINT('',#864);
#685=VERTEX_POINT('',#865);
#686=LINE('',#866,#867);
#687=VERTEX_POINT('',#868);
#688=CIRCLE('',#869,0.00200000000000017);
#689=VERTEX_POINT('',#870);
#690=LINE('',#871,#872);
#691=CIRCLE('',#873,0.00200000000000017);
#692=VERTEX_POINT('',#874);
#693=VERTEX_POINT('',#875);
#694=LINE('',#876,#877);
#695=VERTEX_POINT('',#878);
#696=CIRCLE('',#879,0.00200000000000017);
#697=VERTEX_POINT('',#880);
#698=LINE('',#881,#882);
#699=CIRCLE('',#883,0.00200000000000017);
#700=VERTEX_POINT('',#884);
#701=VERTEX_POINT('',#885);
#702=LINE('',#886,#887);
#703=VERTEX_POINT('',#888);
#704=CIRCLE('',#889,0.002);
#705=VERTEX_POINT('',#890);
#706=LINE('',#891,#892);
#707=CIRCLE('',#893,0.002);
#708=VERTEX_POINT('',#894);
#709=VERTEX_POINT('',#895);
#710=LINE('',#896,#897);
#711=VERTEX_POINT('',#898);
#712=CIRCLE('',#899,0.002);
#713=VERTEX_POINT('',#900);
#714=LINE('',#901,#902);
#715=CIRCLE('',#903,0.002);
#716=VERTEX_POINT('',#904);
#717=VERTEX_POINT('',#905);
#718=LINE('',#906,#907);
#719=VERTEX_POINT('',#908);
#720=CIRCLE('',#909,0.002);
#721=VERTEX_POINT('',#910);
#722=LINE('',#911,#912);
#723=CIRCLE('',#913,0.002);
#724=VERTEX_POINT('',#914);
#725=VERTEX_POINT('',#915);
#726=LINE('',#916,#917);
#727=VERTEX_POINT('',#918);
#728=CIRCLE('',#919,0.002);
#729=VERTEX_POINT('',#920);
#730=LINE('',#921,#922);
#731=CIRCLE('',#923,0.002);
#732=VERTEX_POINT('',#924);
#733=VERTEX_POINT('',#925);
#734=LINE('',#926,#927);
#735=VERTEX_POINT('',#928);
#736=CIRCLE('',#929,0.002);
#737=VERTEX_POINT('',#930);
#738=LINE('',#931,#932);
#739=CIRCLE('',#933,0.002);
#740=VERTEX_POINT('',#934);
#741=VERTEX_POINT('',#935);
#742=LINE('',#936,#937);
#743=VERTEX_POINT('',#938);
#744=CIRCLE('',#939,0.002);
#745=VERTEX_POINT('',#940);
#746=LINE('',#941,#942);
#747=CIRCLE('',#943,0.002);
#748=VERTEX_POINT('',#944);
#749=VERTEX_POINT('',#945);
#750=LINE('',#946,#947);
#751=VERTEX_POINT('',#948);
#752=CIRCLE('',#949,0.002);
#753=VERTEX_POINT('',#950);
#754=LINE('',#951,#952);
#755=CIRCLE('',#953,0.002);
#756=VERTEX_POINT('',#954);
#757=VERTEX_POINT('',#955);
#758=LINE('',#956,#957);
#759=VERTEX_POINT('',#958);
#760=CIRCLE('',#959,0.002);
#761=VERTEX_POINT('',#960);
#762=LINE('',#961,#962);
#763=CIRCLE('',#963,0.002);
#764=VERTEX_POINT('',#964);
#765=VERTEX_POINT('',#965);
#766=LINE('',#966,#967);
#767=VERTEX_POINT('',#968);
#768=CIRCLE('',#969,0.002);
#769=VERTEX_POINT('',#970);
#770=LINE('',#971,#972);
#771=CIRCLE('',#973,0.002);
#772=VERTEX_POINT('',#974);
#773=VERTEX_POINT('',#975);
#774=LINE('',#976,#977);
#775=VERTEX_POINT('',#978);
#776=CIRCLE('',#979,0.002);
#777=VERTEX_POINT('',#980);
#778=LINE('',#981,#982);
#779=CIRCLE('',#983,0.002);
#780=VERTEX_POINT('',#984);
#781=CIRCLE('',#985,0.002);
#782=VERTEX_POINT('',#986);
#783=LINE('',#987,#988);
#784=CIRCLE('',#989,0.002);
#785=VERTEX_POINT('',#990);
#786=CIRCLE('',#991,0.002);
#787=VERTEX_POINT('',#992);
#788=LINE('',#993,#994);
#789=CIRCLE('',#995,0.002);
#790=VERTEX_POINT('',#996);
#791=CIRCLE('',#997,0.002);
#792=VERTEX_POINT('',#998);
#793=LINE('',#999,#1000);
#794=CIRCLE('',#1001,0.002);
#795=VERTEX_POINT('',#1002);
#796=CIRCLE('',#1003,0.002);
#797=VERTEX_POINT('',#1004);
#798=LINE('',#1005,#1006);
#799=CIRCLE('',#1007,0.002);
#800=LINE('',#1008,#1009);
#801=LINE('',#1010,#1011);
#802=VERTEX_POINT('',#1012);
#803=LINE('',#1013,#1014);
#804=VERTEX_POINT('',#1015);
#805=LINE('',#1016,#1017);
#806=LINE('',#1018,#1019);
#807=VERTEX_POINT('',#1020);
#808=CIRCLE('',#1021,0.002);
#809=LINE('',#1022,#1023);
#810=VERTEX_POINT('',#1024);
#811=CIRCLE('',#1025,0.002);
#812=VERTEX_POINT('',#1026);
#813=LINE('',#1027,#1028);
#814=CIRCLE('',#1029,0.00200000000000017);
#815=LINE('',#1030,#1031);
#816=VERTEX_POINT('',#1032);
#817=CIRCLE('',#1033,0.00200000000000017);
#818=LINE('',#1034,#1035);
#819=VERTEX_POINT('',#1036);
#820=CIRCLE('',#1037,0.002);
#821=LINE('',#1038,#1039);
#822=CIRCLE('',#1040,0.002);
#823=LINE('',#1041,#1042);
#824=VERTEX_POINT('',#1043);
#825=LINE('',#1044,#1045);
#826=CIRCLE('',#1046,0.002);
#827=VERTEX_POINT('',#1047);
#828=LINE('',#1048,#1049);
#829=CIRCLE('',#1050,0.002);
#830=LINE('',#1051,#1052);
#831=LINE('',#1053,#1054);
#832=VERTEX_POINT('',#1055);
#833=LINE('',#1056,#1057);
#834=LINE('',#1058,#1059);
#835=LINE('',#1060,#1061);
#836=LINE('',#1062,#1063);
#837=VERTEX_POINT('',#1064);
#838=CIRCLE('',#1065,0.002);
#839=LINE('',#1066,#1067);
#840=CIRCLE('',#1068,0.002);
#841=LINE('',#1069,#1070);
#842=CIRCLE('',#1071,0.002);
#843=VERTEX_POINT('',#1072);
#844=LINE('',#1073,#1074);
#845=CIRCLE('',#1075,0.002);
#846=VERTEX_POINT('',#1076);
#847=LINE('',#1077,#1078);
#848=CIRCLE('',#1079,0.00200000000000017);
#849=LINE('',#1080,#1081);
#850=VERTEX_POINT('',#1082);
#851=CIRCLE('',#1083,0.00200000000000017);
#852=VERTEX_POINT('',#1084);
#853=LINE('',#1085,#1086);
#854=CIRCLE('',#1087,0.002);
#855=VERTEX_POINT('',#1088);
#856=LINE('',#1089,#1090);
#857=CIRCLE('',#1091,0.002);
#858=LINE('',#1092,#1093);
#859=LINE('',#1094,#1095);
#860=LINE('',#1096,#1097);
#861=LINE('',#1098,#1099);
#862=LINE('',#1100,#1101);
#863=LINE('',#1102,#1103);
#864=CARTESIAN_POINT('',(-0.0945085910352266,0.0874814133617766,0.120947947607147));
#865=CARTESIAN_POINT('',(-0.094508586230784,0.087950718857988,0.117984882918146));
#866=CARTESIAN_POINT('',(-0.0945085886330049,0.0877160661478827,0.119466415022723));
#867=VECTOR('',#1104,1.0);
#868=CARTESIAN_POINT('',(-0.0930938153416749,0.0880596725679289,0.121039537928565));
#869=AXIS2_PLACEMENT_3D('',#1105,#1106,#1107);
#870=CARTESIAN_POINT('',(-0.0930938105372323,0.0885289780641403,0.118076473239563));
#871=CARTESIAN_POINT('',(-0.0930938404066053,0.0856112908043554,0.136497941052767));
#872=VECTOR('',#1108,1.0);
#873=AXIS2_PLACEMENT_3D('',#1109,#1110,#1111);
#874=CARTESIAN_POINT('',(0.09473984000138,0.0878689639832543,0.117972240966501));
#875=CARTESIAN_POINT('',(0.0947398351969374,0.0873996584870429,0.120935305655503));
#876=CARTESIAN_POINT('',(0.0947398375991591,0.0876343112729843,0.119453773072118));
#877=VECTOR('',#1112,1.0);
#878=CARTESIAN_POINT('',(0.093326188641929,0.0884478530966384,0.118063926470105));
#879=AXIS2_PLACEMENT_3D('',#1113,#1114,#1115);
#880=CARTESIAN_POINT('',(0.0933261838374864,0.087978547600427,0.121026991159107));
#881=CARTESIAN_POINT('',(0.0933261587725559,0.085530165829522,0.136485394329598));
#882=VECTOR('',#1116,1.0);
#883=AXIS2_PLACEMENT_3D('',#1117,#1118,#1119);
#884=CARTESIAN_POINT('',(0.0239570356101059,0.0208816874733359,0.10736229507999));
#885=CARTESIAN_POINT('',(0.0239570308056456,0.0204123802456998,0.110325359494758));
#886=CARTESIAN_POINT('',(0.0239570332078758,0.0206470338595179,0.108843827287374));
#887=VECTOR('',#1120,1.0);
#888=CARTESIAN_POINT('',(0.0245428077463406,0.0194848795152507,0.107141061531113));
#889=AXIS2_PLACEMENT_3D('',#1121,#1122,#1123);
#890=CARTESIAN_POINT('',(0.0245428029418803,0.0190155722876146,0.110104125945881));
#891=CARTESIAN_POINT('',(0.0245428077463405,0.0194848795152507,0.107141061531113));
#892=VECTOR('',#1124,1.0);
#893=AXIS2_PLACEMENT_3D('',#1125,#1126,#1127);
#894=CARTESIAN_POINT('',(-0.0198713915123431,0.0208821362157152,0.107362295088799));
#895=CARTESIAN_POINT('',(-0.0198713963168034,0.0204128289880791,0.110325359503567));
#896=CARTESIAN_POINT('',(-0.0198713915123431,0.0208821362157152,0.107362295088799));
#897=VECTOR('',#1128,1.0);
#898=CARTESIAN_POINT('',(-0.0184571720262262,0.0214606960520924,0.107453933024863));
#899=AXIS2_PLACEMENT_3D('',#1129,#1130,#1131);
#900=CARTESIAN_POINT('',(-0.0184571768306865,0.0209913888244563,0.110416997439631));
#901=CARTESIAN_POINT('',(-0.0184571720262262,0.0214606960520924,0.107453933024863));
#902=VECTOR('',#1132,1.0);
#903=AXIS2_PLACEMENT_3D('',#1133,#1134,#1135);
#904=CARTESIAN_POINT('',(-0.094509538592257,0.024650377233681,0.110996405807257));
#905=CARTESIAN_POINT('',(-0.0945095337877967,0.0251196844613171,0.108033341392489));
#906=CARTESIAN_POINT('',(-0.0945095361900268,0.024885030847499,0.109514873599873));
#907=VECTOR('',#1136,1.0);
#908=CARTESIAN_POINT('',(-0.0950953107284916,0.0260471851917662,0.111217639356134));
#909=AXIS2_PLACEMENT_3D('',#1137,#1138,#1139);
#910=CARTESIAN_POINT('',(-0.0950953059240313,0.0265164924194023,0.108254574941366));
#911=CARTESIAN_POINT('',(-0.0950953107284916,0.0260471851917662,0.111217639356134));
#912=VECTOR('',#1140,1.0);
#913=AXIS2_PLACEMENT_3D('',#1141,#1142,#1143);
#914=CARTESIAN_POINT('',(0.0947388885225699,0.0246484395919486,0.110996405769218));
#915=CARTESIAN_POINT('',(0.0947388933270302,0.0251177468195847,0.10803334135445));
#916=CARTESIAN_POINT('',(0.0947388885225699,0.0246484395919486,0.110996405769218));
#917=VECTOR('',#1144,1.0);
#918=CARTESIAN_POINT('',(0.093324669036453,0.0240698797555714,0.110904767833155));
#919=AXIS2_PLACEMENT_3D('',#1145,#1146,#1147);
#920=CARTESIAN_POINT('',(0.0933246738409133,0.0245391869832075,0.107941703418387));
#921=CARTESIAN_POINT('',(0.093324669036453,0.0240698797555714,0.110904767833155));
#922=VECTOR('',#1148,1.0);
#923=AXIS2_PLACEMENT_3D('',#1149,#1150,#1151);
#924=CARTESIAN_POINT('',(-0.074879246299259,0.0234930276146299,0.110813129930615));
#925=CARTESIAN_POINT('',(-0.0748792414947987,0.023962334842266,0.107850065515847));
#926=CARTESIAN_POINT('',(-0.0748792438970289,0.023727681228448,0.109331597723231));
#927=VECTOR('',#1152,1.0);
#928=CARTESIAN_POINT('',(-0.0762934539377401,0.0240716164101827,0.110904767867248));
#929=AXIS2_PLACEMENT_3D('',#1153,#1154,#1155);
#930=CARTESIAN_POINT('',(-0.0762934491332797,0.0245409236378188,0.107941703452479));
#931=CARTESIAN_POINT('',(-0.076293451535506,0.0243062703997955,0.109423233287209));
#932=VECTOR('',#1156,1.0);
#933=AXIS2_PLACEMENT_3D('',#1157,#1158,#1159);
#934=CARTESIAN_POINT('',(0.0745482578576892,0.0234914976839856,0.110813129900581));
#935=CARTESIAN_POINT('',(0.0745482626621495,0.0239608049116218,0.107850065485813));
#936=CARTESIAN_POINT('',(0.0745482602599193,0.0237261512978037,0.109331597693197));
#937=VECTOR('',#1160,1.0);
#938=CARTESIAN_POINT('',(0.0739624571187314,0.0220947017211838,0.110591896351939));
#939=AXIS2_PLACEMENT_3D('',#1161,#1162,#1163);
#940=CARTESIAN_POINT('',(0.0739624619231918,0.0225640089488199,0.107628831937171));
#941=CARTESIAN_POINT('',(0.0739624595209616,0.0223293553350018,0.109110364144555));
#942=VECTOR('',#1164,1.0);
#943=AXIS2_PLACEMENT_3D('',#1165,#1166,#1167);
#944=CARTESIAN_POINT('',(-0.0210430423224302,0.0132703125781438,0.106156688670002));
#945=CARTESIAN_POINT('',(-0.0210430471268905,0.0128010053505077,0.10911975308477));
#946=CARTESIAN_POINT('',(-0.0210430447246603,0.0130356589643245,0.107638220877394));
#947=VECTOR('',#1168,1.0);
#948=CARTESIAN_POINT('',(-0.0204572415834724,0.0146671085409457,0.106377922218644));
#949=AXIS2_PLACEMENT_3D('',#1169,#1170,#1171);
#950=CARTESIAN_POINT('',(-0.0204572463879327,0.0141978013133096,0.109340986633412));
#951=CARTESIAN_POINT('',(-0.0204572683663765,0.0120509124116448,0.122895796217372));
#952=VECTOR('',#1172,1.0);
#953=AXIS2_PLACEMENT_3D('',#1173,#1174,#1175);
#954=CARTESIAN_POINT('',(-0.0737077780857996,0.0132708517920829,0.106156688680588));
#955=CARTESIAN_POINT('',(-0.0737077828902599,0.0128015445644468,0.109119753095356));
#956=CARTESIAN_POINT('',(-0.0737077804880298,0.0130361981782648,0.107638220887972));
#957=VECTOR('',#1176,1.0);
#958=CARTESIAN_POINT('',(-0.0722935704473185,0.01269226299653,0.106065050743955));
#959=AXIS2_PLACEMENT_3D('',#1177,#1178,#1179);
#960=CARTESIAN_POINT('',(-0.0722935752517789,0.0122229557688939,0.109028115158724));
#961=CARTESIAN_POINT('',(-0.0722935972302189,0.0100760672430238,0.122582922370029));
#962=VECTOR('',#1180,1.0);
#963=AXIS2_PLACEMENT_3D('',#1181,#1182,#1183);
#964=CARTESIAN_POINT('',(0.0251285257459433,0.0128005326175619,0.10911975307549));
#965=CARTESIAN_POINT('',(0.0251285305504036,0.013269839845198,0.106156688660722));
#966=CARTESIAN_POINT('',(0.0251285281481735,0.01303518623138,0.107638220868106));
#967=VECTOR('',#1184,1.0);
#968=CARTESIAN_POINT('',(0.0245427536097087,0.0141973405756471,0.109340986624367));
#969=AXIS2_PLACEMENT_3D('',#1185,#1186,#1187);
#970=CARTESIAN_POINT('',(0.024542758414169,0.0146666478032832,0.106377922209599));
#971=CARTESIAN_POINT('',(0.0245427316312649,0.0120504516739823,0.122895796208327));
#972=VECTOR('',#1188,1.0);
#973=AXIS2_PLACEMENT_3D('',#1189,#1190,#1191);
#974=CARTESIAN_POINT('',(0.0733765755163034,0.0128000386243691,0.109119753065792));
#975=CARTESIAN_POINT('',(0.0733765803207638,0.0132693458520052,0.106156688651024));
#976=CARTESIAN_POINT('',(0.0733765779185336,0.0130346922381859,0.107638220858416));
#977=VECTOR('',#1192,1.0);
#978=CARTESIAN_POINT('',(0.0719623560301866,0.0122214787879919,0.109028115129728));
#979=AXIS2_PLACEMENT_3D('',#1193,#1194,#1195);
#980=CARTESIAN_POINT('',(0.0719623608346469,0.012690786015628,0.10606505071496));
#981=CARTESIAN_POINT('',(0.0719623340517427,0.0100745898863271,0.122582924713688));
#982=VECTOR('',#1196,1.0);
#983=AXIS2_PLACEMENT_3D('',#1197,#1198,#1199);
#984=CARTESIAN_POINT('',(0.0739623810597216,0.0146661418148071,0.106377922199665));
#985=AXIS2_PLACEMENT_3D('',#1200,#1201,#1202);
#986=CARTESIAN_POINT('',(0.0739623762552613,0.014196834587171,0.109340986614434));
#987=CARTESIAN_POINT('',(0.0739623542768174,0.0120499456855062,0.122895796198394));
#988=VECTOR('',#1203,1.0);
#989=AXIS2_PLACEMENT_3D('',#1204,#1205,#1206);
#990=CARTESIAN_POINT('',(0.0265427381888847,0.0126912510496452,0.10606505072409));
#991=AXIS2_PLACEMENT_3D('',#1207,#1208,#1209);
#992=CARTESIAN_POINT('',(0.0265427333844243,0.0122219438220091,0.109028115138858));
#993=CARTESIAN_POINT('',(0.0265427114059805,0.0100750549203443,0.122582924722818));
#994=VECTOR('',#1210,1.0);
#995=AXIS2_PLACEMENT_3D('',#1211,#1212,#1213);
#996=CARTESIAN_POINT('',(-0.0742935550264945,0.0141983525225319,0.109340986644233));
#997=AXIS2_PLACEMENT_3D('',#1214,#1215,#1216);
#998=CARTESIAN_POINT('',(-0.0742935502220342,0.014667659750168,0.106377922229465));
#999=CARTESIAN_POINT('',(-0.0742935770049345,0.0120514639966618,0.122895793855539));
#1000=VECTOR('',#1217,1.0);
#1001=AXIS2_PLACEMENT_3D('',#1218,#1219,#1220);
#1002=CARTESIAN_POINT('',(-0.0224572666130074,0.0122224455141305,0.109028115148707));
#1003=AXIS2_PLACEMENT_3D('',#1221,#1222,#1223);
#1004=CARTESIAN_POINT('',(-0.022457261808547,0.0126917527417666,0.106065050733938));
#1005=CARTESIAN_POINT('',(-0.0224572885914512,0.0100755566124657,0.122582924732667));
#1006=VECTOR('',#1224,1.0);
#1007=AXIS2_PLACEMENT_3D('',#1225,#1226,#1227);
#1008=CARTESIAN_POINT('',(0.0739627277976495,0.0485317436733273,0.111741751498449));
#1009=VECTOR('',#1228,1.0);
#1010=CARTESIAN_POINT('',(0.0739627229931892,0.0480624364456912,0.114704815913217));
#1011=VECTOR('',#1229,1.0);
#1012=CARTESIAN_POINT('',(-0.0742934741630244,0.0220962196565447,0.110591896381739));
#1013=CARTESIAN_POINT('',(-0.0742932082884133,0.0480639693631796,0.114704818315972));
#1014=VECTOR('',#1230,1.0);
#1015=CARTESIAN_POINT('',(-0.0742934693585641,0.0225655268841808,0.10762883196697));
#1016=CARTESIAN_POINT('',(-0.0742934717607904,0.0223308736461575,0.1091103618017));
#1017=VECTOR('',#1231,1.0);
#1018=CARTESIAN_POINT('',(-0.0742932034839529,0.0485332765908157,0.111741753901204));
#1019=VECTOR('',#1232,1.0);
#1020=CARTESIAN_POINT('',(0.075962477343806,0.0240700575203629,0.110904767836645));
#1021=AXIS2_PLACEMENT_3D('',#1233,#1234,#1235);
#1022=CARTESIAN_POINT('',(-0.0431353309563945,0.0240712769169365,0.110904767860583));
#1023=VECTOR('',#1236,1.0);
#1024=CARTESIAN_POINT('',(0.0953246892615277,0.0260452355547505,0.11121763931786));
#1025=AXIS2_PLACEMENT_3D('',#1237,#1238,#1239);
#1026=CARTESIAN_POINT('',(0.0953253031494327,0.0860031510384187,0.120714119702554));
#1027=CARTESIAN_POINT('',(0.0953250299101769,0.0593161026816777,0.116487271100484));
#1028=VECTOR('',#1240,1.0);
#1029=AXIS2_PLACEMENT_3D('',#1241,#1242,#1243);
#1030=CARTESIAN_POINT('',(-0.0445858184813285,0.0880385631929359,0.121036273157316));
#1031=VECTOR('',#1244,1.0);
#1032=CARTESIAN_POINT('',(-0.095094696029519,0.0860843169603795,0.120726666472816));
#1033=AXIS2_PLACEMENT_3D('',#1245,#1246,#1247);
#1034=CARTESIAN_POINT('',(-0.0950949700798423,0.0593180523186934,0.116487271138758));
#1035=VECTOR('',#1248,1.0);
#1036=CARTESIAN_POINT('',(-0.0930953309537759,0.0240717884381282,0.110904767870625));
#1037=AXIS2_PLACEMENT_3D('',#1249,#1250,#1251);
#1038=CARTESIAN_POINT('',(-0.0431353309563945,0.0240712769169366,0.110904767860583));
#1039=VECTOR('',#1252,1.0);
#1040=AXIS2_PLACEMENT_3D('',#1253,#1254,#1255);
#1041=CARTESIAN_POINT('',(0.00722541923710275,0.0122221416045461,0.10902811514274));
#1042=VECTOR('',#1256,1.0);
#1043=CARTESIAN_POINT('',(-0.0204571970557612,0.0190160330252772,0.110104125954926));
#1044=CARTESIAN_POINT('',(-0.0204570303776429,0.0352953446750285,0.112682537204068));
#1045=VECTOR('',#1257,1.0);
#1046=AXIS2_PLACEMENT_3D('',#1258,#1259,#1260);
#1047=CARTESIAN_POINT('',(0.0225428231671646,0.0209909690412526,0.11041699743139));
#1048=CARTESIAN_POINT('',(-0.0422962696585871,0.0209916329037431,0.110416997444423));
#1049=VECTOR('',#1261,1.0);
#1050=AXIS2_PLACEMENT_3D('',#1262,#1263,#1264);
#1051=CARTESIAN_POINT('',(0.0245429696199985,0.035294883937366,0.112682537195023));
#1052=VECTOR('',#1265,1.0);
#1053=CARTESIAN_POINT('',(0.00722541923710275,0.0122221416045461,0.10902811514274));
#1054=VECTOR('',#1266,1.0);
#1055=CARTESIAN_POINT('',(-0.0204571922513008,0.0194853402529133,0.107141061540158));
#1056=CARTESIAN_POINT('',(-0.0204570255731826,0.0357646519026646,0.109719472789299));
#1057=VECTOR('',#1267,1.0);
#1058=CARTESIAN_POINT('',(-0.0204571922513008,0.0194853402529133,0.107141061540158));
#1059=VECTOR('',#1268,1.0);
#1060=CARTESIAN_POINT('',(0.00722542404156307,0.0126914488321822,0.106065050727972));
#1061=VECTOR('',#1269,1.0);
#1062=CARTESIAN_POINT('',(0.0245429744244588,0.0357641911650021,0.109719472780255));
#1063=VECTOR('',#1270,1.0);
#1064=CARTESIAN_POINT('',(0.0225428279716249,0.0214602762688887,0.107453933016622));
#1065=AXIS2_PLACEMENT_3D('',#1271,#1272,#1273);
#1066=CARTESIAN_POINT('',(-0.0422962648541267,0.0214609401313792,0.107453933029654));
#1067=VECTOR('',#1274,1.0);
#1068=AXIS2_PLACEMENT_3D('',#1275,#1276,#1277);
#1069=CARTESIAN_POINT('',(0.00722542404156307,0.0126914488321822,0.106065050727972));
#1070=VECTOR('',#1278,1.0);
#1071=AXIS2_PLACEMENT_3D('',#1279,#1280,#1281);
#1072=CARTESIAN_POINT('',(-0.0930953261493156,0.0245410956657643,0.107941703455857));
#1073=CARTESIAN_POINT('',(-0.0431353261519342,0.0245405841445727,0.107941703445815));
#1074=VECTOR('',#1282,1.0);
#1075=AXIS2_PLACEMENT_3D('',#1283,#1284,#1285);
#1076=CARTESIAN_POINT('',(-0.0950946912250764,0.0865536224565909,0.117763601783814));
#1077=CARTESIAN_POINT('',(-0.095094965275382,0.0597873595463295,0.11352420672399));
#1078=VECTOR('',#1286,1.0);
#1079=AXIS2_PLACEMENT_3D('',#1287,#1288,#1289);
#1080=CARTESIAN_POINT('',(-0.0445858136776401,0.0885078686891475,0.118073208468315));
#1081=VECTOR('',#1290,1.0);
#1082=CARTESIAN_POINT('',(0.0953253079538753,0.0864724565346301,0.117751055013552));
#1083=AXIS2_PLACEMENT_3D('',#1291,#1292,#1293);
#1084=CARTESIAN_POINT('',(0.095324694065988,0.0265145427823866,0.108254574903092));
#1085=CARTESIAN_POINT('',(0.0953252781246726,0.0835590633958911,0.11728961500898));
#1086=VECTOR('',#1294,1.0);
#1087=AXIS2_PLACEMENT_3D('',#1295,#1296,#1297);
#1088=CARTESIAN_POINT('',(0.0759624821482664,0.024539364747999,0.107941703421876));
#1089=CARTESIAN_POINT('',(-0.0431353261519342,0.0245405841445727,0.107941703445815));
#1090=VECTOR('',#1298,1.0);
#1091=AXIS2_PLACEMENT_3D('',#1299,#1300,#1301);
#1092=CARTESIAN_POINT('',(0.0759624797460362,0.024304711134181,0.10942323562926));
#1093=VECTOR('',#1302,1.0);
#1094=CARTESIAN_POINT('',(-0.0930953309537759,0.0240717884381281,0.110904767870625));
#1095=VECTOR('',#1303,1.0);
#1096=CARTESIAN_POINT('',(0.0953246892615277,0.0260452355547505,0.11121763931786));
#1097=VECTOR('',#1304,1.0);
#1098=CARTESIAN_POINT('',(0.0225428279716249,0.0214602762688888,0.107453933016622));
#1099=VECTOR('',#1305,1.0);
#1100=CARTESIAN_POINT('',(0.0953252780845003,0.0835547690846924,0.136172524027328));
#1101=VECTOR('',#1306,1.0);
#1102=CARTESIAN_POINT('',(-0.0950947210944513,0.0836359350139847,0.136185070751301));
#1103=VECTOR('',#1307,1.0);
#1104=DIRECTION('',(1.60148086464362E-06,0.156435165403758,-0.9876882296669));
#1105=CARTESIAN_POINT('',(-0.0930946960296238,0.0860842964831501,0.120726666472414));
#1106=DIRECTION('',(1.60148677373839E-06,0.15643574254537,-0.987688138256056));
#1107=DIRECTION('',(-0.706947502801325,0.698558439313203,0.110640567366913));
#1108=DIRECTION('',(1.60148086464362E-06,0.156435165403758,-0.9876882296669));
#1109=CARTESIAN_POINT('',(-0.0930946912251812,0.0865536019793614,0.117763601783412));
#1110=DIRECTION('',(-1.60148677373839E-06,-0.15643574254537,0.987688138256056));
#1111=DIRECTION('',(-0.706947502801325,0.698558439313203,0.110640567366913));
#1112=DIRECTION('',(-1.60148086464362E-06,-0.156435165403758,0.9876882296669));
#1113=CARTESIAN_POINT('',(0.0933253079539801,0.0864724770118595,0.117751055013954));
#1114=DIRECTION('',(-1.60148677373839E-06,-0.15643574254537,0.987688138256056));
#1115=DIRECTION('',(-0.706947502801325,0.698558439313203,0.110640567366913));
#1116=DIRECTION('',(-1.60148086464362E-06,-0.156435165403758,0.9876882296669));
#1117=CARTESIAN_POINT('',(0.0933253031495375,0.0860031715156482,0.120714119702956));
#1118=DIRECTION('',(1.60148677373839E-06,0.15643574254537,-0.987688138256056));
#1119=DIRECTION('',(-0.706947502801325,0.698558439313203,0.110640567366913));
#1120=DIRECTION('',(-1.60148677386118E-06,-0.15643574254537,0.987688138256056));
#1121=CARTESIAN_POINT('',(0.0225428077464454,0.0194848999924802,0.107141061531515));
#1122=DIRECTION('',(1.6014867737519E-06,0.15643574254537,-0.987688138256056));
#1123=DIRECTION('',(0.707113931830279,0.698393740427865,0.110616774237453));
#1124=DIRECTION('',(-1.60148677369465E-06,-0.15643574254537,0.987688138256056));
#1125=CARTESIAN_POINT('',(0.022542802941985,0.0190155927648441,0.110104125946283));
#1126=DIRECTION('',(-1.6014867737519E-06,-0.15643574254537,0.987688138256056));
#1127=DIRECTION('',(0.707113931830279,0.698393740427865,0.110616774237453));
#1128=DIRECTION('',(-1.60148677386118E-06,-0.15643574254537,0.987688138256056));
#1129=CARTESIAN_POINT('',(-0.0184571922514057,0.0194853197756838,0.107141061539756));
#1130=DIRECTION('',(1.6014867737519E-06,0.15643574254537,-0.987688138256056));
#1131=DIRECTION('',(-0.707099630468692,0.698408220015668,0.110616774521708));
#1132=DIRECTION('',(-1.60148677375016E-06,-0.15643574254537,0.987688138256056));
#1133=CARTESIAN_POINT('',(-0.018457197055866,0.0190160125480477,0.110104125954524));
#1134=DIRECTION('',(-1.6014867737519E-06,-0.15643574254537,0.987688138256056));
#1135=DIRECTION('',(-0.707099630468692,0.698408220015668,0.110616774521708));
#1136=DIRECTION('',(1.60148677375016E-06,0.15643574254537,-0.987688138256056));
#1137=CARTESIAN_POINT('',(-0.0930953107285964,0.0260471647145367,0.111217639355732));
#1138=DIRECTION('',(1.6014867737519E-06,0.15643574254537,-0.987688138256056));
#1139=DIRECTION('',(-0.707113931830281,-0.698393740427863,-0.110616774237453));
#1140=DIRECTION('',(1.60148677380567E-06,0.15643574254537,-0.987688138256056));
#1141=CARTESIAN_POINT('',(-0.0930953059241361,0.0265164719421728,0.108254574940964));
#1142=DIRECTION('',(-1.6014867737519E-06,-0.15643574254537,0.987688138256056));
#1143=DIRECTION('',(-0.707113931830281,-0.698393740427863,-0.110616774237453));
#1144=DIRECTION('',(1.60148677375016E-06,0.15643574254537,-0.987688138256056));
#1145=CARTESIAN_POINT('',(0.0933246892616325,0.02604525603198,0.111217639318262));
#1146=DIRECTION('',(1.60148677373866E-06,0.15643574254537,-0.987688138256056));
#1147=DIRECTION('',(0.707099630468695,-0.698408220015664,-0.110616774521707));
#1148=DIRECTION('',(1.60148677380567E-06,0.15643574254537,-0.987688138256056));
#1149=CARTESIAN_POINT('',(0.0933246940660928,0.0265145632596161,0.108254574903494));
#1150=DIRECTION('',(-1.60148677373866E-06,-0.15643574254537,0.987688138256056));
#1151=DIRECTION('',(0.707099630468695,-0.698408220015664,-0.110616774521707));
#1152=DIRECTION('',(1.60148677375016E-06,0.15643574254537,-0.987688138256056));
#1153=CARTESIAN_POINT('',(-0.0762934741629196,0.0220962401337742,0.110591896382141));
#1154=DIRECTION('',(-1.6014867737519E-06,-0.15643574254537,0.987688138256056));
#1155=DIRECTION('',(0.707113931830278,0.698393740427866,0.110616774237454));
#1156=DIRECTION('',(1.60148677375016E-06,0.15643574254537,-0.987688138256056));
#1157=CARTESIAN_POINT('',(-0.0762934693584592,0.0225655473614103,0.107628831967372));
#1158=DIRECTION('',(1.6014867737519E-06,0.15643574254537,-0.987688138256056));
#1159=DIRECTION('',(0.707113931830278,0.698393740427866,0.110616774237454));
#1160=DIRECTION('',(1.60148677375016E-06,0.15643574254537,-0.987688138256056));
#1161=CARTESIAN_POINT('',(0.0759624571186266,0.0220946812439543,0.110591896351537));
#1162=DIRECTION('',(-1.6014867737519E-06,-0.15643574254537,0.987688138256056));
#1163=DIRECTION('',(-0.707099630468693,0.698408220015667,0.110616774521707));
#1164=DIRECTION('',(1.60148677380567E-06,0.15643574254537,-0.987688138256056));
#1165=CARTESIAN_POINT('',(0.0759624619230869,0.0225639884715904,0.107628831936769));
#1166=DIRECTION('',(1.6014867737519E-06,0.15643574254537,-0.987688138256056));
#1167=DIRECTION('',(-0.707099630468693,0.698408220015667,0.110616774521707));
#1168=DIRECTION('',(-1.60148677380567E-06,-0.15643574254537,0.987688138256056));
#1169=CARTESIAN_POINT('',(-0.0224572415833675,0.0146671290181752,0.106377922219046));
#1170=DIRECTION('',(-1.6014867737519E-06,-0.15643574254537,0.987688138256056));
#1171=DIRECTION('',(0.707099630468689,-0.69840822001567,-0.110616774521708));
#1172=DIRECTION('',(-1.60148677391669E-06,-0.15643574254537,0.987688138256056));
#1173=CARTESIAN_POINT('',(-0.0224572463878279,0.0141978217905391,0.109340986633814));
#1174=DIRECTION('',(1.6014867737519E-06,0.15643574254537,-0.987688138256056));
#1175=DIRECTION('',(0.707099630468689,-0.69840822001567,-0.110616774521708));
#1176=DIRECTION('',(-1.60148677375016E-06,-0.15643574254537,0.987688138256056));
#1177=CARTESIAN_POINT('',(-0.072293550222139,0.0146676392729386,0.106377922229063));
#1178=DIRECTION('',(-1.60148677373866E-06,-0.15643574254537,0.987688138256056));
#1179=DIRECTION('',(-0.70711393183028,-0.698393740427864,-0.110616774237453));
#1180=DIRECTION('',(-1.60148677375016E-06,-0.15643574254537,0.987688138256056));
#1181=CARTESIAN_POINT('',(-0.0722935550265994,0.0141983320453025,0.109340986643831));
#1182=DIRECTION('',(1.60148677373866E-06,0.15643574254537,-0.987688138256056));
#1183=DIRECTION('',(-0.70711393183028,-0.698393740427864,-0.110616774237453));
#1184=DIRECTION('',(1.60148677380567E-06,0.15643574254537,-0.987688138256056));
#1185=CARTESIAN_POINT('',(0.0265427536096039,0.0141973200984176,0.109340986623965));
#1186=DIRECTION('',(1.60148677373866E-06,0.15643574254537,-0.987688138256056));
#1187=DIRECTION('',(-0.707113931830279,-0.698393740427865,-0.110616774237453));
#1188=DIRECTION('',(1.60148677386118E-06,0.15643574254537,-0.987688138256056));
#1189=CARTESIAN_POINT('',(0.0265427584140642,0.0146666273260537,0.106377922209197));
#1190=DIRECTION('',(-1.60148677373866E-06,-0.15643574254537,0.987688138256056));
#1191=DIRECTION('',(-0.707113931830279,-0.698393740427865,-0.110616774237453));
#1192=DIRECTION('',(1.60148677375016E-06,0.15643574254537,-0.987688138256056));
#1193=CARTESIAN_POINT('',(0.0719623762553661,0.0141968550644005,0.109340986614836));
#1194=DIRECTION('',(1.6014867737519E-06,0.15643574254537,-0.987688138256056));
#1195=DIRECTION('',(0.70709963046869,-0.698408220015669,-0.110616774521708));
#1196=DIRECTION('',(1.60148677375016E-06,0.15643574254537,-0.987688138256056));
#1197=CARTESIAN_POINT('',(0.0719623810598264,0.0146661622920366,0.106377922200067));
#1198=DIRECTION('',(-1.6014867737519E-06,-0.15643574254537,0.987688138256056));
#1199=DIRECTION('',(0.70709963046869,-0.698408220015669,-0.110616774521708));
#1200=CARTESIAN_POINT('',(0.0719623810598264,0.0146661622920366,0.106377922200067));
#1201=DIRECTION('',(-1.6014867737519E-06,-0.15643574254537,0.987688138256056));
#1202=DIRECTION('',(0.70709963046869,-0.698408220015669,-0.110616774521708));
#1203=DIRECTION('',(-1.60148677380567E-06,-0.15643574254537,0.987688138256056));
#1204=CARTESIAN_POINT('',(0.0719623762553661,0.0141968550644005,0.109340986614836));
#1205=DIRECTION('',(1.6014867737519E-06,0.15643574254537,-0.987688138256056));
#1206=DIRECTION('',(0.70709963046869,-0.698408220015669,-0.110616774521708));
#1207=CARTESIAN_POINT('',(0.0265427584140642,0.0146666273260537,0.106377922209197));
#1208=DIRECTION('',(-1.60148677373866E-06,-0.15643574254537,0.987688138256056));
#1209=DIRECTION('',(-0.707113931830279,-0.698393740427865,-0.110616774237453));
#1210=DIRECTION('',(-1.60148677386118E-06,-0.15643574254537,0.987688138256056));
#1211=CARTESIAN_POINT('',(0.0265427536096039,0.0141973200984176,0.109340986623965));
#1212=DIRECTION('',(1.60148677373866E-06,0.15643574254537,-0.987688138256056));
#1213=DIRECTION('',(-0.707113931830279,-0.698393740427865,-0.110616774237453));
#1214=CARTESIAN_POINT('',(-0.0722935550265994,0.0141983320453025,0.109340986643831));
#1215=DIRECTION('',(1.60148677373866E-06,0.15643574254537,-0.987688138256056));
#1216=DIRECTION('',(-0.70711393183028,-0.698393740427864,-0.110616774237453));
#1217=DIRECTION('',(1.60148677375016E-06,0.15643574254537,-0.987688138256056));
#1218=CARTESIAN_POINT('',(-0.072293550222139,0.0146676392729386,0.106377922229063));
#1219=DIRECTION('',(-1.60148677373866E-06,-0.15643574254537,0.987688138256056));
#1220=DIRECTION('',(-0.70711393183028,-0.698393740427864,-0.110616774237453));
#1221=CARTESIAN_POINT('',(-0.0224572463878279,0.0141978217905391,0.109340986633814));
#1222=DIRECTION('',(1.6014867737519E-06,0.15643574254537,-0.987688138256056));
#1223=DIRECTION('',(0.707099630468689,-0.69840822001567,-0.110616774521708));
#1224=DIRECTION('',(1.60148677386118E-06,0.15643574254537,-0.987688138256056));
#1225=CARTESIAN_POINT('',(-0.0224572415833675,0.0146671290181752,0.106377922219046));
#1226=DIRECTION('',(-1.6014867737519E-06,-0.15643574254537,0.987688138256056));
#1227=DIRECTION('',(0.707099630468689,-0.69840822001567,-0.110616774521708));
#1228=DIRECTION('',(1.01125897579712E-05,0.987688138204286,0.156435742553568));
#1229=DIRECTION('',(1.01125897579712E-05,0.987688138204286,0.156435742553568));
#1230=DIRECTION('',(-1.01125897563059E-05,-0.987688138204286,-0.156435742553568));
#1231=DIRECTION('',(-1.60148677375016E-06,-0.15643574254537,0.987688138256056));
#1232=DIRECTION('',(-1.01125897563059E-05,-0.987688138204286,-0.156435742553568));
#1233=CARTESIAN_POINT('',(0.0759624571186266,0.0220946812439543,0.110591896351537));
#1234=DIRECTION('',(-1.6014867737519E-06,-0.15643574254537,0.987688138256056));
#1235=DIRECTION('',(-0.707099630468693,0.698408220015667,0.110616774521707));
#1236=DIRECTION('',(0.999999999947585,-1.02386147234387E-05,-2.00998107047212E-10));
#1237=CARTESIAN_POINT('',(0.0933246892616325,0.02604525603198,0.111217639318262));
#1238=DIRECTION('',(1.60148677373866E-06,0.15643574254537,-0.987688138256056));
#1239=DIRECTION('',(0.707099630468695,-0.698408220015664,-0.110616774521707));
#1240=DIRECTION('',(1.01125897578186E-05,0.987688138204286,0.156435742553567));
#1241=CARTESIAN_POINT('',(0.0933253031495375,0.0860031715156482,0.120714119702956));
#1242=DIRECTION('',(1.60148677373839E-06,0.15643574254537,-0.987688138256056));
#1243=DIRECTION('',(-0.706947502801325,0.698558439313203,0.110640567366913));
#1244=DIRECTION('',(-0.999999903047305,0.000435173050068806,6.73037672825338E-05));
#1245=CARTESIAN_POINT('',(-0.0930946960296238,0.0860842964831501,0.120726666472414));
#1246=DIRECTION('',(1.60148677373839E-06,0.15643574254537,-0.987688138256056));
#1247=DIRECTION('',(-0.706947502801325,0.698558439313203,0.110640567366913));
#1248=DIRECTION('',(-1.01125897579851E-05,-0.987688138204286,-0.156435742553567));
#1249=CARTESIAN_POINT('',(-0.0930953107285964,0.0260471647145367,0.111217639355732));
#1250=DIRECTION('',(1.6014867737519E-06,0.15643574254537,-0.987688138256056));
#1251=DIRECTION('',(-0.707113931830281,-0.698393740427863,-0.110616774237453));
#1252=DIRECTION('',(0.999999999947585,-1.02386147234387E-05,-2.00998107047212E-10));
#1253=CARTESIAN_POINT('',(-0.0762934741629196,0.0220962401337742,0.110591896382141));
#1254=DIRECTION('',(-1.6014867737519E-06,-0.15643574254537,0.987688138256056));
#1255=DIRECTION('',(0.707113931830278,0.698393740427866,0.110616774237454));
#1256=DIRECTION('',(0.999999999947585,-1.02386147234387E-05,-2.00998107047212E-10));
#1257=DIRECTION('',(-1.01125897578741E-05,-0.987688138204286,-0.156435742553568));
#1258=CARTESIAN_POINT('',(-0.018457197055866,0.0190160125480477,0.110104125954524));
#1259=DIRECTION('',(-1.6014867737519E-06,-0.15643574254537,0.987688138256056));
#1260=DIRECTION('',(-0.707099630468692,0.698408220015668,0.110616774521708));
#1261=DIRECTION('',(-0.999999999947585,1.02386147234387E-05,2.00998107047212E-10));
#1262=CARTESIAN_POINT('',(0.022542802941985,0.0190155927648441,0.110104125946283));
#1263=DIRECTION('',(-1.6014867737519E-06,-0.15643574254537,0.987688138256056));
#1264=DIRECTION('',(0.707113931830279,0.698393740427865,0.110616774237453));
#1265=DIRECTION('',(1.0112589757319E-05,0.987688138204286,0.156435742553568));
#1266=DIRECTION('',(0.999999999947585,-1.02386147234387E-05,-2.00998107047212E-10));
#1267=DIRECTION('',(-1.01125897578741E-05,-0.987688138204286,-0.156435742553568));
#1268=DIRECTION('',(1.60148677375016E-06,0.15643574254537,-0.987688138256056));
#1269=DIRECTION('',(0.999999999947585,-1.02386147234387E-05,-2.00998107047212E-10));
#1270=DIRECTION('',(1.0112589757319E-05,0.987688138204286,0.156435742553568));
#1271=CARTESIAN_POINT('',(0.0225428077464454,0.0194848999924802,0.107141061531515));
#1272=DIRECTION('',(1.6014867737519E-06,0.15643574254537,-0.987688138256056));
#1273=DIRECTION('',(0.707113931830279,0.698393740427865,0.110616774237453));
#1274=DIRECTION('',(-0.999999999947585,1.02386147234387E-05,2.00998107047212E-10));
#1275=CARTESIAN_POINT('',(-0.0184571922514057,0.0194853197756838,0.107141061539756));
#1276=DIRECTION('',(1.6014867737519E-06,0.15643574254537,-0.987688138256056));
#1277=DIRECTION('',(-0.707099630468692,0.698408220015668,0.110616774521708));
#1278=DIRECTION('',(0.999999999947585,-1.02386147234387E-05,-2.00998107047212E-10));
#1279=CARTESIAN_POINT('',(-0.0762934693584592,0.0225655473614103,0.107628831967372));
#1280=DIRECTION('',(1.6014867737519E-06,0.15643574254537,-0.987688138256056));
#1281=DIRECTION('',(0.707113931830278,0.698393740427866,0.110616774237454));
#1282=DIRECTION('',(0.999999999947585,-1.02386147234387E-05,-2.00998107047212E-10));
#1283=CARTESIAN_POINT('',(-0.0930953059241361,0.0265164719421728,0.108254574940964));
#1284=DIRECTION('',(-1.6014867737519E-06,-0.15643574254537,0.987688138256056));
#1285=DIRECTION('',(-0.707113931830281,-0.698393740427863,-0.110616774237453));
#1286=DIRECTION('',(-1.01125897579851E-05,-0.987688138204286,-0.156435742553567));
#1287=CARTESIAN_POINT('',(-0.0930946912251812,0.0865536019793614,0.117763601783412));
#1288=DIRECTION('',(-1.60148677373839E-06,-0.15643574254537,0.987688138256056));
#1289=DIRECTION('',(-0.706947502801325,0.698558439313203,0.110640567366913));
#1290=DIRECTION('',(-0.999999903047305,0.000435173050068806,6.73037672825338E-05));
#1291=CARTESIAN_POINT('',(0.0933253079539801,0.0864724770118595,0.117751055013954));
#1292=DIRECTION('',(-1.60148677373839E-06,-0.15643574254537,0.987688138256056));
#1293=DIRECTION('',(-0.706947502801325,0.698558439313203,0.110640567366913));
#1294=DIRECTION('',(1.01125897579574E-05,0.987688138204286,0.156435742553567));
#1295=CARTESIAN_POINT('',(0.0933246940660928,0.0265145632596161,0.108254574903494));
#1296=DIRECTION('',(-1.60148677373866E-06,-0.15643574254537,0.987688138256056));
#1297=DIRECTION('',(0.707099630468695,-0.698408220015664,-0.110616774521707));
#1298=DIRECTION('',(0.999999999947585,-1.02386147234387E-05,-2.00998107047212E-10));
#1299=CARTESIAN_POINT('',(0.0759624619230869,0.0225639884715904,0.107628831936769));
#1300=DIRECTION('',(1.6014867737519E-06,0.15643574254537,-0.987688138256056));
#1301=DIRECTION('',(-0.707099630468693,0.698408220015667,0.110616774521707));
#1302=DIRECTION('',(-1.60148677375016E-06,-0.15643574254537,0.987688138256056));
#1303=DIRECTION('',(-1.60148677380567E-06,-0.15643574254537,0.987688138256056));
#1304=DIRECTION('',(-1.60148677380567E-06,-0.15643574254537,0.987688138256056));
#1305=DIRECTION('',(1.60148677375016E-06,0.15643574254537,-0.987688138256056));
#1306=DIRECTION('',(1.60148086464362E-06,0.156435165403758,-0.9876882296669));
#1307=DIRECTION('',(-1.60148086464362E-06,-0.156435165403758,0.9876882296669));
#1308=PRESENTATION_LAYER_ASSIGNMENT('9','Layer0',(#25));
ENDSEC;
END-ISO-10303-21;
