ISO-10303-21;
HEADER;
FILE_DESCRIPTION(('STEP AP214'),'1');
FILE_NAME('PCB_cover.stp','2026-08-23T10:49:08',(' '),(' '),'Spatial InterOp 3D',' ',' ');
FILE_SCHEMA(('AUTOMOTIVE_DESIGN { 1 0 10303 214 1 1 1 1 }'));
ENDSEC;
DATA;
#1=MECHANICAL_DESIGN_GEOMETRIC_PRESENTATION_REPRESENTATION(' ',(#10),#6);
#2=PRODUCT_DEFINITION_CONTEXT('',#11,'design');
#3=APPLICATION_PROTOCOL_DEFINITION('INTERNATIONAL STANDARD','automotive_design',1994,#11);
#4=PRODUCT_CATEGORY_RELATIONSHIP('NONE','NONE',#12,#13);
#5=SHAPE_DEFINITION_REPRESENTATION(#14,#15);
#6= (GEOMETRIC_REPRESENTATION_CONTEXT(3)GLOBAL_UNCERTAINTY_ASSIGNED_CONTEXT((#18))GLOBAL_UNIT_ASSIGNED_CONTEXT((#20,#21,#22))REPRESENTATION_CONTEXT('NONE','WORKSPACE'));
#10=STYLED_ITEM('',(#24),#25);
#11=APPLICATION_CONTEXT(' ');
#12=PRODUCT_CATEGORY('part','NONE');
#13=PRODUCT_RELATED_PRODUCT_CATEGORY('detail',' ',(#26));
#14=PRODUCT_DEFINITION_SHAPE('NONE','NONE',#27);
#15=ADVANCED_BREP_SHAPE_REPRESENTATION('PCB_cover',(#25,#28),#6);
#18=UNCERTAINTY_MEASURE_WITH_UNIT(LENGTH_MEASURE(1.0E-08),#20,'','');
#20= (CONVERSION_BASED_UNIT('METRE',#31)LENGTH_UNIT()NAMED_UNIT(#34));
#21= (NAMED_UNIT(#36)PLANE_ANGLE_UNIT()SI_UNIT($,.RADIAN.));
#22= (NAMED_UNIT(#36)SOLID_ANGLE_UNIT()SI_UNIT($,.STERADIAN.));
#24=PRESENTATION_STYLE_ASSIGNMENT((#42));
#25=MANIFOLD_SOLID_BREP('PCB_cover',#43);
#26=PRODUCT('PCB_cover','','PART--DESC',(#44));
#27=PRODUCT_DEFINITION('','NONE',#45,#2);
#28=AXIS2_PLACEMENT_3D('',#46,#47,#48);
#31=LENGTH_MEASURE_WITH_UNIT(LENGTH_MEASURE(1.0),#49);
#34=DIMENSIONAL_EXPONENTS(1.0,0.0,0.0,0.0,0.0,0.0,0.0);
#36=DIMENSIONAL_EXPONENTS(0.0,0.0,0.0,0.0,0.0,0.0,0.0);
#42=SURFACE_STYLE_USAGE(.BOTH.,#50);
#43=CLOSED_SHELL('',(#51,#52,#53,#54,#55,#56,#57,#58,#59,#60,#61,#62,#63,#64,#65,#66,#67,#68,#69,#70,#71,#72,#73,#74,#75));
#44=PRODUCT_CONTEXT('',#11,'mechanical');
#45=PRODUCT_DEFINITION_FORMATION_WITH_SPECIFIED_SOURCE(' ','NONE',#26,.NOT_KNOWN.);
#46=CARTESIAN_POINT('',(0.0,0.0,0.0));
#47=DIRECTION('',(0.0,0.0,1.0));
#48=DIRECTION('',(1.0,0.0,0.0));
#49= (NAMED_UNIT(#34)LENGTH_UNIT()SI_UNIT($,.METRE.));
#50=SURFACE_SIDE_STYLE('',(#77));
#51=ADVANCED_FACE('2:254070',(#78),#79,.T.);
#52=ADVANCED_FACE('2:254067',(#80),#81,.T.);
#53=ADVANCED_FACE('2:254064',(#82),#83,.F.);
#54=ADVANCED_FACE('2:254061',(#84),#85,.F.);
#55=ADVANCED_FACE('2:254058',(#86),#87,.F.);
#56=ADVANCED_FACE('2:254055',(#88),#89,.F.);
#57=ADVANCED_FACE('2:254049',(#90),#91,.F.);
#58=ADVANCED_FACE('2:254031',(#92),#93,.T.);
#59=ADVANCED_FACE('2:254028',(#94),#95,.T.);
#60=ADVANCED_FACE('2:254028',(#96),#97,.T.);
#61=ADVANCED_FACE('2:254031',(#98),#99,.T.);
#62=ADVANCED_FACE('2:254034',(#100),#101,.F.);
#63=ADVANCED_FACE('2:254037',(#102,#103,#104,#105),#106,.T.);
#64=ADVANCED_FACE('2:254040',(#107,#108,#109),#110,.F.);
#65=ADVANCED_FACE('2:254043',(#111),#112,.T.);
#66=ADVANCED_FACE('2:254046',(#113),#114,.T.);
#67=ADVANCED_FACE('2:254049',(#115),#116,.F.);
#68=ADVANCED_FACE('2:254052',(#117),#118,.T.);
#69=ADVANCED_FACE('2:254055',(#119),#120,.F.);
#70=ADVANCED_FACE('2:254058',(#121),#122,.F.);
#71=ADVANCED_FACE('2:254061',(#123),#124,.F.);
#72=ADVANCED_FACE('2:254064',(#125),#126,.F.);
#73=ADVANCED_FACE('2:254067',(#127),#128,.T.);
#74=ADVANCED_FACE('2:254070',(#129),#130,.T.);
#75=ADVANCED_FACE('2:254073',(#131),#132,.T.);
#77=SURFACE_STYLE_FILL_AREA(#133);
#78=FACE_OUTER_BOUND('',#134,.T.);
#79=CYLINDRICAL_SURFACE('',#135,0.002);
#80=FACE_OUTER_BOUND('',#136,.T.);
#81=CYLINDRICAL_SURFACE('',#137,0.002);
#82=FACE_OUTER_BOUND('',#138,.T.);
#83=CYLINDRICAL_SURFACE('',#139,0.00235);
#84=FACE_OUTER_BOUND('',#140,.T.);
#85=CONICAL_SURFACE('',#141,0.00435,0.785398163397448);
#86=FACE_OUTER_BOUND('',#142,.T.);
#87=CYLINDRICAL_SURFACE('',#143,0.00235);
#88=FACE_OUTER_BOUND('',#144,.T.);
#89=CONICAL_SURFACE('',#145,0.00435,0.785398163397448);
#90=FACE_OUTER_BOUND('',#146,.T.);
#91=CONICAL_SURFACE('',#147,0.0036,0.785398163397448);
#92=FACE_OUTER_BOUND('',#148,.T.);
#93=CYLINDRICAL_SURFACE('',#149,0.002);
#94=FACE_OUTER_BOUND('',#150,.T.);
#95=CYLINDRICAL_SURFACE('',#151,0.002);
#96=FACE_OUTER_BOUND('',#152,.T.);
#97=CYLINDRICAL_SURFACE('',#153,0.002);
#98=FACE_OUTER_BOUND('',#154,.T.);
#99=CYLINDRICAL_SURFACE('',#155,0.002);
#100=FACE_OUTER_BOUND('',#156,.T.);
#101=PLANE('',#157);
#102=FACE_BOUND('',#158,.T.);
#103=FACE_BOUND('',#159,.T.);
#104=FACE_BOUND('',#160,.T.);
#105=FACE_OUTER_BOUND('',#161,.T.);
#106=PLANE('',#162);
#107=FACE_OUTER_BOUND('',#163,.T.);
#108=FACE_BOUND('',#164,.T.);
#109=FACE_BOUND('',#165,.T.);
#110=PLANE('',#166);
#111=FACE_OUTER_BOUND('',#167,.T.);
#112=PLANE('',#168);
#113=FACE_OUTER_BOUND('',#169,.T.);
#114=PLANE('',#170);
#115=FACE_OUTER_BOUND('',#171,.T.);
#116=CONICAL_SURFACE('',#172,0.0036,0.785398163397448);
#117=FACE_OUTER_BOUND('',#173,.T.);
#118=PLANE('',#174);
#119=FACE_OUTER_BOUND('',#175,.T.);
#120=CONICAL_SURFACE('',#176,0.00435,0.785398163397448);
#121=FACE_OUTER_BOUND('',#177,.T.);
#122=CYLINDRICAL_SURFACE('',#178,0.00235);
#123=FACE_OUTER_BOUND('',#179,.T.);
#124=CONICAL_SURFACE('',#180,0.00435,0.785398163397448);
#125=FACE_OUTER_BOUND('',#181,.T.);
#126=CYLINDRICAL_SURFACE('',#182,0.00235);
#127=FACE_OUTER_BOUND('',#183,.T.);
#128=CYLINDRICAL_SURFACE('',#184,0.002);
#129=FACE_OUTER_BOUND('',#185,.T.);
#130=CYLINDRICAL_SURFACE('',#186,0.002);
#131=FACE_OUTER_BOUND('',#187,.T.);
#132=PLANE('',#188);
#133=FILL_AREA_STYLE('',(#189));
#134=EDGE_LOOP('',(#190,#191,#192,#193));
#135=AXIS2_PLACEMENT_3D('',#194,#195,#196);
#136=EDGE_LOOP('',(#197,#198,#199,#200));
#137=AXIS2_PLACEMENT_3D('',#201,#202,#203);
#138=EDGE_LOOP('',(#204,#205,#206,#207));
#139=AXIS2_PLACEMENT_3D('',#208,#209,#210);
#140=EDGE_LOOP('',(#211,#212,#213,#214));
#141=AXIS2_PLACEMENT_3D('',#215,#216,#217);
#142=EDGE_LOOP('',(#218,#219,#220,#221));
#143=AXIS2_PLACEMENT_3D('',#222,#223,#224);
#144=EDGE_LOOP('',(#225,#226,#227,#228));
#145=AXIS2_PLACEMENT_3D('',#229,#230,#231);
#146=EDGE_LOOP('',(#232,#233,#234,#235));
#147=AXIS2_PLACEMENT_3D('',#236,#237,#238);
#148=EDGE_LOOP('',(#239,#240,#241,#242));
#149=AXIS2_PLACEMENT_3D('',#243,#244,#245);
#150=EDGE_LOOP('',(#246,#247,#248,#249));
#151=AXIS2_PLACEMENT_3D('',#250,#251,#252);
#152=EDGE_LOOP('',(#253,#254,#255,#256));
#153=AXIS2_PLACEMENT_3D('',#257,#258,#259);
#154=EDGE_LOOP('',(#260,#261,#262,#263));
#155=AXIS2_PLACEMENT_3D('',#264,#265,#266);
#156=EDGE_LOOP('',(#267,#268,#269,#270));
#157=AXIS2_PLACEMENT_3D('',#271,#272,#273);
#158=EDGE_LOOP('',(#274,#275));
#159=EDGE_LOOP('',(#276,#277));
#160=EDGE_LOOP('',(#278,#279));
#161=EDGE_LOOP('',(#280,#281,#282,#283,#284,#285,#286,#287,#288,#289,#290,#291));
#162=AXIS2_PLACEMENT_3D('',#292,#293,#294);
#163=EDGE_LOOP('',(#295,#296,#297,#298,#299,#300,#301,#302,#303,#304,#305,#306));
#164=EDGE_LOOP('',(#307,#308));
#165=EDGE_LOOP('',(#309,#310));
#166=AXIS2_PLACEMENT_3D('',#311,#312,#313);
#167=EDGE_LOOP('',(#314,#315,#316,#317));
#168=AXIS2_PLACEMENT_3D('',#318,#319,#320);
#169=EDGE_LOOP('',(#321,#322,#323,#324));
#170=AXIS2_PLACEMENT_3D('',#325,#326,#327);
#171=EDGE_LOOP('',(#328,#329,#330,#331));
#172=AXIS2_PLACEMENT_3D('',#332,#333,#334);
#173=EDGE_LOOP('',(#335,#336));
#174=AXIS2_PLACEMENT_3D('',#337,#338,#339);
#175=EDGE_LOOP('',(#340,#341,#342,#343));
#176=AXIS2_PLACEMENT_3D('',#344,#345,#346);
#177=EDGE_LOOP('',(#347,#348,#349,#350));
#178=AXIS2_PLACEMENT_3D('',#351,#352,#353);
#179=EDGE_LOOP('',(#354,#355,#356,#357));
#180=AXIS2_PLACEMENT_3D('',#358,#359,#360);
#181=EDGE_LOOP('',(#361,#362,#363,#364));
#182=AXIS2_PLACEMENT_3D('',#365,#366,#367);
#183=EDGE_LOOP('',(#368,#369,#370,#371));
#184=AXIS2_PLACEMENT_3D('',#372,#373,#374);
#185=EDGE_LOOP('',(#375,#376,#377,#378));
#186=AXIS2_PLACEMENT_3D('',#379,#380,#381);
#187=EDGE_LOOP('',(#382,#383,#384,#385));
#188=AXIS2_PLACEMENT_3D('',#386,#387,#388);
#189=FILL_AREA_STYLE_COLOUR('',#389);
#190=ORIENTED_EDGE('',*,*,#390,.F.);
#191=ORIENTED_EDGE('',*,*,#391,.T.);
#192=ORIENTED_EDGE('',*,*,#392,.T.);
#193=ORIENTED_EDGE('',*,*,#393,.T.);
#194=CARTESIAN_POINT('',(-0.0980966293178343,0.0891138752275609,0.116810899674906));
#195=DIRECTION('',(8.86682007763306E-06,0.866027369484064,-0.499996595214299));
#196=DIRECTION('',(-0.707110400980758,-0.353543743315841,-0.612373825687426));
#197=ORIENTED_EDGE('',*,*,#394,.F.);
#198=ORIENTED_EDGE('',*,*,#395,.T.);
#199=ORIENTED_EDGE('',*,*,#396,.T.);
#200=ORIENTED_EDGE('',*,*,#397,.T.);
#201=CARTESIAN_POINT('',(0.0977662918180896,0.0891118698853017,0.116810899674906));
#202=DIRECTION('',(8.86682007760659E-06,0.866027369484064,-0.499996595214299));
#203=DIRECTION('',(0.707103161318211,-0.35355822273953,-0.612373825687428));
#204=ORIENTED_EDGE('',*,*,#398,.F.);
#205=ORIENTED_EDGE('',*,*,#399,.F.);
#206=ORIENTED_EDGE('',*,*,#400,.F.);
#207=ORIENTED_EDGE('',*,*,#401,.F.);
#208=CARTESIAN_POINT('',(0.091266478729258,0.107366910838353,0.142429689055324));
#209=DIRECTION('',(-8.86682007758543E-06,-0.866027369484064,0.499996595214299));
#210=DIRECTION('',(0.999999999947587,-1.02384986743985E-05,5.3306582032174E-15));
#211=ORIENTED_EDGE('',*,*,#402,.F.);
#212=ORIENTED_EDGE('',*,*,#403,.T.);
#213=ORIENTED_EDGE('',*,*,#404,.F.);
#214=ORIENTED_EDGE('',*,*,#405,.T.);
#215=CARTESIAN_POINT('',(0.091266478729258,0.107366910838353,0.142429689055324));
#216=DIRECTION('',(8.8668200776687E-06,0.866027369484064,-0.499996595214299));
#217=DIRECTION('',(-0.999999999947587,1.02384986741174E-05,-5.98396082347427E-15));
#218=ORIENTED_EDGE('',*,*,#406,.F.);
#219=ORIENTED_EDGE('',*,*,#407,.F.);
#220=ORIENTED_EDGE('',*,*,#408,.F.);
#221=ORIENTED_EDGE('',*,*,#409,.F.);
#222=CARTESIAN_POINT('',(-0.0915923587470387,0.107645173340284,0.142908415447571));
#223=DIRECTION('',(-8.86682007758543E-06,-0.866027369484064,0.499996595214299));
#224=DIRECTION('',(0.999999999947587,-1.02384986774897E-05,-2.36065179556491E-17));
#225=ORIENTED_EDGE('',*,*,#410,.F.);
#226=ORIENTED_EDGE('',*,*,#411,.T.);
#227=ORIENTED_EDGE('',*,*,#412,.F.);
#228=ORIENTED_EDGE('',*,*,#413,.T.);
#229=CARTESIAN_POINT('',(-0.0915923587470387,0.107645173340284,0.142908415447571));
#230=DIRECTION('',(8.8668200776687E-06,0.866027369484064,-0.499996595214299));
#231=DIRECTION('',(-0.999999999947587,1.02384986773757E-05,-3.40475213410659E-16));
#232=ORIENTED_EDGE('',*,*,#414,.F.);
#233=ORIENTED_EDGE('',*,*,#415,.F.);
#234=ORIENTED_EDGE('',*,*,#416,.F.);
#235=ORIENTED_EDGE('',*,*,#417,.T.);
#236=CARTESIAN_POINT('',(0.0617664935087519,0.108811296093269,0.144930937271304));
#237=DIRECTION('',(8.8668200776687E-06,0.866027369484064,-0.499996595214299));
#238=DIRECTION('',(0.999999999947586,-1.02384986778998E-05,-5.67349246578059E-16));
#239=ORIENTED_EDGE('',*,*,#418,.F.);
#240=ORIENTED_EDGE('',*,*,#419,.T.);
#241=ORIENTED_EDGE('',*,*,#420,.T.);
#242=ORIENTED_EDGE('',*,*,#421,.T.);
#243=CARTESIAN_POINT('',(-0.0980969230192991,0.0604278858055102,0.177808334746196));
#244=DIRECTION('',(8.86679306792289E-06,0.866024731420373,-0.500001164488295));
#245=DIRECTION('',(-0.707103161203074,0.353561453745185,0.612371960365765));
#246=ORIENTED_EDGE('',*,*,#422,.F.);
#247=ORIENTED_EDGE('',*,*,#423,.T.);
#248=ORIENTED_EDGE('',*,*,#424,.T.);
#249=ORIENTED_EDGE('',*,*,#425,.T.);
#250=CARTESIAN_POINT('',(0.0977659981166246,0.0604258804405216,0.177808334706828));
#251=DIRECTION('',(-8.86679306789642E-06,-0.866024731420373,0.500001164488295));
#252=DIRECTION('',(0.707110401095897,0.353546974239438,0.612371960223635));
#253=ORIENTED_EDGE('',*,*,#422,.T.);
#254=ORIENTED_EDGE('',*,*,#426,.T.);
#255=ORIENTED_EDGE('',*,*,#427,.T.);
#256=ORIENTED_EDGE('',*,*,#428,.T.);
#257=CARTESIAN_POINT('',(0.0977659981166246,0.0604258804405216,0.177808334706828));
#258=DIRECTION('',(-8.86679306789642E-06,-0.866024731420373,0.500001164488295));
#259=DIRECTION('',(0.707110401095897,0.353546974239438,0.612371960223635));
#260=ORIENTED_EDGE('',*,*,#418,.T.);
#261=ORIENTED_EDGE('',*,*,#429,.T.);
#262=ORIENTED_EDGE('',*,*,#430,.T.);
#263=ORIENTED_EDGE('',*,*,#431,.T.);
#264=CARTESIAN_POINT('',(-0.0980969230192991,0.0604278858055102,0.177808334746196));
#265=DIRECTION('',(8.86679306792289E-06,0.866024731420373,-0.500001164488295));
#266=DIRECTION('',(-0.707103161203074,0.353561453745185,0.612371960365765));
#267=ORIENTED_EDGE('',*,*,#424,.F.);
#268=ORIENTED_EDGE('',*,*,#432,.F.);
#269=ORIENTED_EDGE('',*,*,#420,.F.);
#270=ORIENTED_EDGE('',*,*,#433,.F.);
#271=CARTESIAN_POINT('',(0.100995517662946,0.0134987588760616,0.207211188884539));
#272=DIRECTION('',(-5.11949335624262E-06,-0.500001164462086,-0.866024731465764));
#273=DIRECTION('',(-0.999999999947116,1.02842947684566E-05,-2.61724672566798E-08));
#274=ORIENTED_EDGE('',*,*,#417,.F.);
#275=ORIENTED_EDGE('',*,*,#434,.F.);
#276=ORIENTED_EDGE('',*,*,#405,.F.);
#277=ORIENTED_EDGE('',*,*,#435,.F.);
#278=ORIENTED_EDGE('',*,*,#413,.F.);
#279=ORIENTED_EDGE('',*,*,#436,.F.);
#280=ORIENTED_EDGE('',*,*,#428,.F.);
#281=ORIENTED_EDGE('',*,*,#437,.F.);
#282=ORIENTED_EDGE('',*,*,#438,.F.);
#283=ORIENTED_EDGE('',*,*,#397,.F.);
#284=ORIENTED_EDGE('',*,*,#439,.F.);
#285=ORIENTED_EDGE('',*,*,#440,.F.);
#286=ORIENTED_EDGE('',*,*,#393,.F.);
#287=ORIENTED_EDGE('',*,*,#441,.F.);
#288=ORIENTED_EDGE('',*,*,#429,.F.);
#289=ORIENTED_EDGE('',*,*,#421,.F.);
#290=ORIENTED_EDGE('',*,*,#432,.T.);
#291=ORIENTED_EDGE('',*,*,#423,.F.);
#292=CARTESIAN_POINT('',(-0.0940983445776301,0.0920508761084334,0.115898010656735));
#293=DIRECTION('',(8.8668200776687E-06,0.866027369484064,-0.499996595214299));
#294=DIRECTION('',(-0.999999999947587,1.02384986776028E-05,5.30108214990399E-17));
#295=ORIENTED_EDGE('',*,*,#425,.F.);
#296=ORIENTED_EDGE('',*,*,#433,.T.);
#297=ORIENTED_EDGE('',*,*,#419,.F.);
#298=ORIENTED_EDGE('',*,*,#431,.F.);
#299=ORIENTED_EDGE('',*,*,#442,.T.);
#300=ORIENTED_EDGE('',*,*,#391,.F.);
#301=ORIENTED_EDGE('',*,*,#443,.F.);
#302=ORIENTED_EDGE('',*,*,#444,.T.);
#303=ORIENTED_EDGE('',*,*,#395,.F.);
#304=ORIENTED_EDGE('',*,*,#445,.F.);
#305=ORIENTED_EDGE('',*,*,#446,.T.);
#306=ORIENTED_EDGE('',*,*,#426,.F.);
#307=ORIENTED_EDGE('',*,*,#447,.T.);
#308=ORIENTED_EDGE('',*,*,#399,.T.);
#309=ORIENTED_EDGE('',*,*,#448,.T.);
#310=ORIENTED_EDGE('',*,*,#407,.T.);
#311=CARTESIAN_POINT('',(-0.0940983711780904,0.0894527939999812,0.117398000442378));
#312=DIRECTION('',(8.8668200776687E-06,0.866027369484064,-0.499996595214299));
#313=DIRECTION('',(-0.999999999947587,1.02384986775788E-05,1.13764220454868E-17));
#314=ORIENTED_EDGE('',*,*,#430,.F.);
#315=ORIENTED_EDGE('',*,*,#441,.T.);
#316=ORIENTED_EDGE('',*,*,#392,.F.);
#317=ORIENTED_EDGE('',*,*,#442,.F.);
#318=CARTESIAN_POINT('',(-0.100096547513404,0.0971037708156967,0.130649894963994));
#319=DIRECTION('',(-0.999999999947587,1.02384986773002E-05,-4.99601208114268E-16));
#320=DIRECTION('',(5.11921447832354E-06,0.499996595188093,0.866027369529456));
#321=ORIENTED_EDGE('',*,*,#427,.F.);
#322=ORIENTED_EDGE('',*,*,#446,.F.);
#323=ORIENTED_EDGE('',*,*,#449,.F.);
#324=ORIENTED_EDGE('',*,*,#437,.T.);
#325=CARTESIAN_POINT('',(0.0997663736223105,0.0971017245194428,0.130649894963994));
#326=DIRECTION('',(0.999999999947587,-1.02384986775564E-05,5.55111512312578E-17));
#327=DIRECTION('',(-5.11921447883625E-06,-0.499996595188093,-0.866027369529456));
#328=ORIENTED_EDGE('',*,*,#414,.T.);
#329=ORIENTED_EDGE('',*,*,#434,.T.);
#330=ORIENTED_EDGE('',*,*,#416,.T.);
#331=ORIENTED_EDGE('',*,*,#450,.F.);
#332=CARTESIAN_POINT('',(0.0617664935087519,0.108811296093269,0.144930937271304));
#333=DIRECTION('',(8.8668200776687E-06,0.866027369484064,-0.499996595214299));
#334=DIRECTION('',(0.999999999947586,-1.02384986778998E-05,-5.67349246578059E-16));
#335=ORIENTED_EDGE('',*,*,#415,.T.);
#336=ORIENTED_EDGE('',*,*,#450,.T.);
#337=CARTESIAN_POINT('',(-0.000165050249879097,0.100686834427935,0.132057739009623));
#338=DIRECTION('',(8.86682007758543E-06,0.866027369484064,-0.499996595214299));
#339=DIRECTION('',(-0.999999999947587,1.02384986775428E-05,1.15463454965993E-16));
#340=ORIENTED_EDGE('',*,*,#410,.T.);
#341=ORIENTED_EDGE('',*,*,#436,.T.);
#342=ORIENTED_EDGE('',*,*,#412,.T.);
#343=ORIENTED_EDGE('',*,*,#409,.T.);
#344=CARTESIAN_POINT('',(-0.0915923587470387,0.107645173340284,0.142908415447571));
#345=DIRECTION('',(8.8668200776687E-06,0.866027369484064,-0.499996595214299));
#346=DIRECTION('',(-0.999999999947587,1.02384986773757E-05,-3.40475213410659E-16));
#347=ORIENTED_EDGE('',*,*,#406,.T.);
#348=ORIENTED_EDGE('',*,*,#411,.F.);
#349=ORIENTED_EDGE('',*,*,#408,.T.);
#350=ORIENTED_EDGE('',*,*,#448,.F.);
#351=CARTESIAN_POINT('',(-0.0915923587470387,0.107645173340284,0.142908415447571));
#352=DIRECTION('',(-8.86682007758543E-06,-0.866027369484064,0.499996595214299));
#353=DIRECTION('',(0.999999999947587,-1.02384986774897E-05,-2.36065179556491E-17));
#354=ORIENTED_EDGE('',*,*,#402,.T.);
#355=ORIENTED_EDGE('',*,*,#435,.T.);
#356=ORIENTED_EDGE('',*,*,#404,.T.);
#357=ORIENTED_EDGE('',*,*,#401,.T.);
#358=CARTESIAN_POINT('',(0.091266478729258,0.107366910838353,0.142429689055324));
#359=DIRECTION('',(8.8668200776687E-06,0.866027369484064,-0.499996595214299));
#360=DIRECTION('',(-0.999999999947587,1.02384986741174E-05,-5.98396082347427E-15));
#361=ORIENTED_EDGE('',*,*,#398,.T.);
#362=ORIENTED_EDGE('',*,*,#403,.F.);
#363=ORIENTED_EDGE('',*,*,#400,.T.);
#364=ORIENTED_EDGE('',*,*,#447,.F.);
#365=CARTESIAN_POINT('',(0.091266478729258,0.107366910838353,0.142429689055324));
#366=DIRECTION('',(-8.86682007758543E-06,-0.866027369484064,0.499996595214299));
#367=DIRECTION('',(0.999999999947587,-1.02384986743985E-05,5.3306582032174E-15));
#368=ORIENTED_EDGE('',*,*,#394,.T.);
#369=ORIENTED_EDGE('',*,*,#438,.T.);
#370=ORIENTED_EDGE('',*,*,#449,.T.);
#371=ORIENTED_EDGE('',*,*,#445,.T.);
#372=CARTESIAN_POINT('',(0.0977662918180896,0.0891118698853017,0.116810899674906));
#373=DIRECTION('',(8.86682007760659E-06,0.866027369484064,-0.499996595214299));
#374=DIRECTION('',(0.707103161318211,-0.35355822273953,-0.612373825687428));
#375=ORIENTED_EDGE('',*,*,#390,.T.);
#376=ORIENTED_EDGE('',*,*,#440,.T.);
#377=ORIENTED_EDGE('',*,*,#451,.T.);
#378=ORIENTED_EDGE('',*,*,#443,.T.);
#379=CARTESIAN_POINT('',(-0.0980966293178343,0.0891138752275609,0.116810899674906));
#380=DIRECTION('',(8.86682007763306E-06,0.866027369484064,-0.499996595214299));
#381=DIRECTION('',(-0.707110400980758,-0.353543743315841,-0.612373825687426));
#382=ORIENTED_EDGE('',*,*,#396,.F.);
#383=ORIENTED_EDGE('',*,*,#444,.F.);
#384=ORIENTED_EDGE('',*,*,#451,.F.);
#385=ORIENTED_EDGE('',*,*,#439,.T.);
#386=CARTESIAN_POINT('',(8.36002663395057E-05,0.088112876818929,0.115078844935847));
#387=DIRECTION('',(-5.11921447893249E-06,-0.499996595188093,-0.866027369529456));
#388=DIRECTION('',(-0.999999999947587,1.0238498677551E-05,5.87696190686375E-17));
#389=COLOUR_RGB('',0.560784339904785,0.686274528503418,0.560784339904785);
#390=EDGE_CURVE('',#452,#453,#454,.T.);
#391=EDGE_CURVE('2:254133',#452,#455,#456,.T.);
#392=EDGE_CURVE('2:254151',#455,#457,#458,.T.);
#393=EDGE_CURVE('2:254124',#457,#453,#459,.T.);
#394=EDGE_CURVE('',#460,#461,#462,.T.);
#395=EDGE_CURVE('2:254139',#460,#463,#464,.T.);
#396=EDGE_CURVE('2:254166',#463,#465,#466,.T.);
#397=EDGE_CURVE('2:254118',#465,#461,#467,.T.);
#398=EDGE_CURVE('',#468,#469,#470,.T.);
#399=EDGE_CURVE('2:254145',#471,#468,#472,.T.);
#400=EDGE_CURVE('',#473,#471,#474,.T.);
#401=EDGE_CURVE('2:254163',#469,#473,#475,.T.);
#402=EDGE_CURVE('',#473,#476,#477,.T.);
#403=EDGE_CURVE('2:254163',#473,#469,#478,.T.);
#404=EDGE_CURVE('',#479,#469,#480,.T.);
#405=EDGE_CURVE('2:254109',#479,#476,#481,.T.);
#406=EDGE_CURVE('',#482,#483,#484,.T.);
#407=EDGE_CURVE('2:254148',#485,#482,#486,.T.);
#408=EDGE_CURVE('',#487,#485,#488,.T.);
#409=EDGE_CURVE('2:254160',#483,#487,#489,.T.);
#410=EDGE_CURVE('',#487,#490,#491,.T.);
#411=EDGE_CURVE('2:254160',#487,#483,#492,.T.);
#412=EDGE_CURVE('',#493,#483,#494,.T.);
#413=EDGE_CURVE('2:254112',#493,#490,#495,.T.);
#414=EDGE_CURVE('',#496,#497,#498,.T.);
#415=EDGE_CURVE('2:254157',#499,#496,#500,.T.);
#416=EDGE_CURVE('',#501,#499,#502,.T.);
#417=EDGE_CURVE('2:254106',#501,#497,#503,.T.);
#418=EDGE_CURVE('',#504,#505,#506,.T.);
#419=EDGE_CURVE('2:254094',#504,#507,#508,.T.);
#420=EDGE_CURVE('2:254097',#507,#509,#510,.T.);
#421=EDGE_CURVE('2:254088',#509,#505,#511,.T.);
#422=EDGE_CURVE('',#512,#513,#514,.T.);
#423=EDGE_CURVE('2:254082',#512,#515,#516,.T.);
#424=EDGE_CURVE('2:254085',#515,#517,#518,.T.);
#425=EDGE_CURVE('2:254076',#517,#513,#519,.T.);
#426=EDGE_CURVE('2:254076',#513,#520,#521,.T.);
#427=EDGE_CURVE('2:254079',#520,#522,#523,.T.);
#428=EDGE_CURVE('2:254082',#522,#512,#524,.T.);
#429=EDGE_CURVE('2:254088',#505,#525,#526,.T.);
#430=EDGE_CURVE('2:254091',#525,#527,#528,.T.);
#431=EDGE_CURVE('2:254094',#527,#504,#529,.T.);
#432=EDGE_CURVE('2:254100',#509,#515,#530,.F.);
#433=EDGE_CURVE('2:254103',#517,#507,#531,.T.);
#434=EDGE_CURVE('2:254106',#497,#501,#532,.T.);
#435=EDGE_CURVE('2:254109',#476,#479,#533,.T.);
#436=EDGE_CURVE('2:254112',#490,#493,#534,.T.);
#437=EDGE_CURVE('2:254115',#535,#522,#536,.T.);
#438=EDGE_CURVE('2:254118',#461,#535,#537,.T.);
#439=EDGE_CURVE('2:254121',#538,#465,#539,.T.);
#440=EDGE_CURVE('2:254124',#453,#538,#540,.T.);
#441=EDGE_CURVE('2:254127',#525,#457,#541,.T.);
#442=EDGE_CURVE('2:254130',#527,#455,#542,.T.);
#443=EDGE_CURVE('2:254133',#543,#452,#544,.T.);
#444=EDGE_CURVE('2:254136',#543,#463,#545,.T.);
#445=EDGE_CURVE('2:254139',#546,#460,#547,.T.);
#446=EDGE_CURVE('2:254142',#546,#520,#548,.T.);
#447=EDGE_CURVE('2:254145',#468,#471,#549,.T.);
#448=EDGE_CURVE('2:254148',#482,#485,#550,.T.);
#449=EDGE_CURVE('2:254154',#535,#546,#551,.T.);
#450=EDGE_CURVE('2:254157',#496,#499,#552,.T.);
#451=EDGE_CURVE('2:254169',#538,#543,#553,.T.);
#452=VERTEX_POINT('',#554);
#453=VERTEX_POINT('',#555);
#454=LINE('',#556,#557);
#455=VERTEX_POINT('',#558);
#456=CIRCLE('',#559,0.002);
#457=VERTEX_POINT('',#560);
#458=LINE('',#561,#562);
#459=CIRCLE('',#563,0.002);
#460=VERTEX_POINT('',#564);
#461=VERTEX_POINT('',#565);
#462=LINE('',#566,#567);
#463=VERTEX_POINT('',#568);
#464=CIRCLE('',#569,0.002);
#465=VERTEX_POINT('',#570);
#466=LINE('',#571,#572);
#467=CIRCLE('',#573,0.002);
#468=VERTEX_POINT('',#574);
#469=VERTEX_POINT('',#575);
#470=LINE('',#576,#577);
#471=VERTEX_POINT('',#578);
#472=CIRCLE('',#579,0.00235);
#473=VERTEX_POINT('',#580);
#474=LINE('',#581,#582);
#475=CIRCLE('',#583,0.00235);
#476=VERTEX_POINT('',#584);
#477=LINE('',#585,#586);
#478=CIRCLE('',#587,0.00235);
#479=VERTEX_POINT('',#588);
#480=LINE('',#589,#590);
#481=CIRCLE('',#591,0.00435);
#482=VERTEX_POINT('',#592);
#483=VERTEX_POINT('',#593);
#484=LINE('',#594,#595);
#485=VERTEX_POINT('',#596);
#486=CIRCLE('',#597,0.00235);
#487=VERTEX_POINT('',#598);
#488=LINE('',#599,#600);
#489=CIRCLE('',#601,0.00235);
#490=VERTEX_POINT('',#602);
#491=LINE('',#603,#604);
#492=CIRCLE('',#605,0.00235);
#493=VERTEX_POINT('',#606);
#494=LINE('',#607,#608);
#495=CIRCLE('',#609,0.00435);
#496=VERTEX_POINT('',#610);
#497=VERTEX_POINT('',#611);
#498=LINE('',#612,#613);
#499=VERTEX_POINT('',#614);
#500=CIRCLE('',#615,0.003);
#501=VERTEX_POINT('',#616);
#502=LINE('',#617,#618);
#503=CIRCLE('',#619,0.0036);
#504=VERTEX_POINT('',#620);
#505=VERTEX_POINT('',#621);
#506=LINE('',#622,#623);
#507=VERTEX_POINT('',#624);
#508=CIRCLE('',#625,0.00200000000001392);
#509=VERTEX_POINT('',#626);
#510=LINE('',#627,#628);
#511=CIRCLE('',#629,0.00200000000001392);
#512=VERTEX_POINT('',#630);
#513=VERTEX_POINT('',#631);
#514=LINE('',#632,#633);
#515=VERTEX_POINT('',#634);
#516=CIRCLE('',#635,0.00200000000001392);
#517=VERTEX_POINT('',#636);
#518=LINE('',#637,#638);
#519=CIRCLE('',#639,0.00200000000001392);
#520=VERTEX_POINT('',#640);
#521=CIRCLE('',#641,0.00200000000001392);
#522=VERTEX_POINT('',#642);
#523=LINE('',#643,#644);
#524=CIRCLE('',#645,0.00200000000001392);
#525=VERTEX_POINT('',#646);
#526=CIRCLE('',#647,0.00200000000001392);
#527=VERTEX_POINT('',#648);
#528=LINE('',#649,#650);
#529=CIRCLE('',#651,0.00200000000001392);
#530=LINE('',#652,#653);
#531=LINE('',#654,#655);
#532=CIRCLE('',#656,0.0036);
#533=CIRCLE('',#657,0.00435);
#534=CIRCLE('',#658,0.00435);
#535=VERTEX_POINT('',#659);
#536=LINE('',#660,#661);
#537=CIRCLE('',#662,0.002);
#538=VERTEX_POINT('',#663);
#539=LINE('',#664,#665);
#540=CIRCLE('',#666,0.002);
#541=LINE('',#667,#668);
#542=LINE('',#669,#670);
#543=VERTEX_POINT('',#671);
#544=CIRCLE('',#672,0.002);
#545=LINE('',#673,#674);
#546=VERTEX_POINT('',#675);
#547=CIRCLE('',#676,0.002);
#548=LINE('',#677,#678);
#549=CIRCLE('',#679,0.00235);
#550=CIRCLE('',#680,0.00235);
#551=LINE('',#681,#682);
#552=CIRCLE('',#683,0.003);
#553=LINE('',#684,#685);
#554=CARTESIAN_POINT('',(-0.0995108501197958,0.0884067877409292,0.115586152023531));
#555=CARTESIAN_POINT('',(-0.0995108235193356,0.0910048698493814,0.114086162237888));
#556=CARTESIAN_POINT('',(-0.0995108501197958,0.0884067877409292,0.115586152023531));
#557=VECTOR('',#686,1.0);
#558=CARTESIAN_POINT('',(-0.100096629317729,0.0891138957045582,0.116810899674906));
#559=AXIS2_PLACEMENT_3D('',#687,#688,#689);
#560=CARTESIAN_POINT('',(-0.100096602717269,0.0917119778130104,0.115310909889263));
#561=CARTESIAN_POINT('',(-0.100096629317729,0.0891138957045582,0.116810899674906));
#562=VECTOR('',#690,1.0);
#563=AXIS2_PLACEMENT_3D('',#691,#692,#693);
#564=CARTESIAN_POINT('',(0.099180498140726,0.0884047534398227,0.115586152023531));
#565=CARTESIAN_POINT('',(0.0991805247411862,0.0910028355482748,0.114086162237888));
#566=CARTESIAN_POINT('',(0.099180498140726,0.0884047534398227,0.115586152023531));
#567=VECTOR('',#694,1.0);
#568=CARTESIAN_POINT('',(0.0977662815796606,0.0881118766949255,0.115078844935847));
#569=AXIS2_PLACEMENT_3D('',#695,#696,#697);
#570=CARTESIAN_POINT('',(0.0977663081801208,0.0907099588033777,0.113578855150204));
#571=CARTESIAN_POINT('',(0.0977662815796606,0.0881118766949255,0.115078844935847));
#572=VECTOR('',#698,1.0);
#573=AXIS2_PLACEMENT_3D('',#699,#700,#701);
#574=CARTESIAN_POINT('',(0.0936164521286746,0.104768804669429,0.143929678840967));
#575=CARTESIAN_POINT('',(0.0936164609954947,0.105634832038913,0.143429682245753));
#576=CARTESIAN_POINT('',(0.0936164565620847,0.105201818354171,0.14367968054336));
#577=VECTOR('',#702,1.0);
#578=CARTESIAN_POINT('',(0.088916452128921,0.104768852790372,0.143929678840967));
#579=AXIS2_PLACEMENT_3D('',#703,#704,#705);
#580=CARTESIAN_POINT('',(0.088916460995741,0.105634880159856,0.143429682245753));
#581=CARTESIAN_POINT('',(0.088916456562331,0.105201866475114,0.14367968054336));
#582=VECTOR('',#706,1.0);
#583=AXIS2_PLACEMENT_3D('',#707,#708,#709);
#584=CARTESIAN_POINT('',(0.086916478729486,0.107366955375822,0.142429689055324));
#585=CARTESIAN_POINT('',(0.086916478729486,0.107366955375822,0.142429689055324));
#586=VECTOR('',#710,1.0);
#587=AXIS2_PLACEMENT_3D('',#711,#712,#713);
#588=CARTESIAN_POINT('',(0.09561647872903,0.107366866300883,0.142429689055324));
#589=CARTESIAN_POINT('',(0.09561647872903,0.107366866300883,0.142429689055324));
#590=VECTOR('',#714,1.0);
#591=AXIS2_PLACEMENT_3D('',#715,#716,#717);
#592=CARTESIAN_POINT('',(-0.0892423853476222,0.10504706717136,0.144408405233214));
#593=CARTESIAN_POINT('',(-0.0892423764808021,0.105913094540844,0.143908408637999));
#594=CARTESIAN_POINT('',(-0.0892423809142121,0.105480080856102,0.144158406935606));
#595=VECTOR('',#718,1.0);
#596=CARTESIAN_POINT('',(-0.0939423853473758,0.105047115292304,0.144408405233214));
#597=AXIS2_PLACEMENT_3D('',#719,#720,#721);
#598=CARTESIAN_POINT('',(-0.0939423764805557,0.105913142661788,0.143908408637999));
#599=CARTESIAN_POINT('',(-0.0939423809139658,0.105480128977046,0.144158406935606));
#600=VECTOR('',#722,1.0);
#601=AXIS2_PLACEMENT_3D('',#723,#724,#725);
#602=CARTESIAN_POINT('',(-0.0959423587468108,0.107645217877753,0.142908415447571));
#603=CARTESIAN_POINT('',(-0.0959423587468108,0.107645217877753,0.142908415447571));
#604=VECTOR('',#726,1.0);
#605=AXIS2_PLACEMENT_3D('',#727,#728,#729);
#606=CARTESIAN_POINT('',(-0.0872423587472667,0.107645128802815,0.142908415447571));
#607=CARTESIAN_POINT('',(-0.0872423587472667,0.107645128802815,0.142908415447571));
#608=VECTOR('',#730,1.0);
#609=AXIS2_PLACEMENT_3D('',#731,#732,#733);
#610=CARTESIAN_POINT('',(0.0647664881885026,0.108291648956082,0.145230935228432));
#611=CARTESIAN_POINT('',(0.0653664935085632,0.108811259234674,0.144930937271304));
#612=CARTESIAN_POINT('',(0.0653664935085632,0.108811259234674,0.144930937271304));
#613=VECTOR('',#734,1.0);
#614=CARTESIAN_POINT('',(0.0587664881888171,0.108291710387075,0.145230935228432));
#615=AXIS2_PLACEMENT_3D('',#735,#736,#737);
#616=CARTESIAN_POINT('',(0.0581664935089406,0.108811332951864,0.144930937271304));
#617=CARTESIAN_POINT('',(0.0581664935089406,0.108811332951864,0.144930937271304));
#618=VECTOR('',#738,1.0);
#619=AXIS2_PLACEMENT_3D('',#739,#740,#741);
#620=CARTESIAN_POINT('',(-0.0995106386413681,0.109061990254264,0.151362337045337));
#621=CARTESIAN_POINT('',(-0.0995106120409889,0.111660064448562,0.149862333551851));
#622=CARTESIAN_POINT('',(-0.0995106253411591,0.110361029244141,0.150612334205823));
#623=VECTOR('',#742,1.0);
#624=CARTESIAN_POINT('',(-0.0980964220800026,0.109354866999083,0.151869644132886));
#625=AXIS2_PLACEMENT_3D('',#743,#744,#745);
#626=CARTESIAN_POINT('',(-0.0980963954796234,0.111952941193381,0.1503696406394));
#627=CARTESIAN_POINT('',(-0.0980969127803124,0.0614278881344344,0.179540384209128));
#628=VECTOR('',#746,1.0);
#629=AXIS2_PLACEMENT_3D('',#747,#748,#749);
#630=CARTESIAN_POINT('',(0.0991807362195327,0.111658030124562,0.149862333512198));
#631=CARTESIAN_POINT('',(0.0991807096191535,0.109059955930264,0.151362337005684));
#632=CARTESIAN_POINT('',(0.0991807229193625,0.110358994920066,0.150612334166214));
#633=VECTOR('',#750,1.0);
#634=CARTESIAN_POINT('',(0.0977665256563002,0.111950935828392,0.150369640600031));
#635=AXIS2_PLACEMENT_3D('',#751,#752,#753);
#636=CARTESIAN_POINT('',(0.0977664990559211,0.109352861634095,0.151869644093517));
#637=CARTESIAN_POINT('',(0.0977660083556113,0.0614258827694458,0.179540384169759));
#638=VECTOR('',#754,1.0);
#639=AXIS2_PLACEMENT_3D('',#755,#756,#757);
#640=CARTESIAN_POINT('',(0.099766488816923,0.108352847966708,0.150137589354434));
#641=AXIS2_PLACEMENT_3D('',#758,#759,#760);
#642=CARTESIAN_POINT('',(0.0997665154173022,0.110950922161005,0.148637585860948));
#643=CARTESIAN_POINT('',(0.0997659981165197,0.0604258599635242,0.177808334706828));
#644=VECTOR('',#761,1.0);
#645=AXIS2_PLACEMENT_3D('',#762,#763,#764);
#646=CARTESIAN_POINT('',(-0.100096405718412,0.110952968479988,0.148637585900317));
#647=AXIS2_PLACEMENT_3D('',#765,#766,#767);
#648=CARTESIAN_POINT('',(-0.100096432318791,0.108354894285691,0.150137589393802));
#649=CARTESIAN_POINT('',(-0.100096923019194,0.0604279062825075,0.177808334746196));
#650=VECTOR('',#768,1.0);
#651=AXIS2_PLACEMENT_3D('',#769,#770,#771);
#652=CARTESIAN_POINT('',(0.00344919243177362,0.111951901507229,0.150369640618989));
#653=VECTOR('',#772,1.0);
#654=CARTESIAN_POINT('',(0.00344916583139441,0.109353827312932,0.151869644112475));
#655=VECTOR('',#773,1.0);
#656=AXIS2_PLACEMENT_3D('',#774,#775,#776);
#657=AXIS2_PLACEMENT_3D('',#777,#778,#779);
#658=AXIS2_PLACEMENT_3D('',#780,#781,#782);
#659=CARTESIAN_POINT('',(0.099766318418445,0.0917099315167565,0.115310909889263));
#660=CARTESIAN_POINT('',(0.0997663610558271,0.0958743489265985,0.122523957917543));
#661=VECTOR('',#783,1.0);
#662=AXIS2_PLACEMENT_3D('',#784,#785,#786);
#663=CARTESIAN_POINT('',(-0.098096612955803,0.0907119641456369,0.113578855150204));
#664=CARTESIAN_POINT('',(-0.0470073657098489,0.0907114410684465,0.113578855150204));
#665=VECTOR('',#787,1.0);
#666=AXIS2_PLACEMENT_3D('',#788,#789,#790);
#667=CARTESIAN_POINT('',(-0.100096560079887,0.0958763952228524,0.122523957917543));
#668=VECTOR('',#791,1.0);
#669=CARTESIAN_POINT('',(-0.100096586680347,0.0932783131144002,0.124023947703186));
#670=VECTOR('',#792,1.0);
#671=CARTESIAN_POINT('',(-0.0980966395562632,0.0881138820371847,0.115078844935847));
#672=AXIS2_PLACEMENT_3D('',#793,#794,#795);
#673=CARTESIAN_POINT('',(-0.0470073923103092,0.0881133589599943,0.115078844935847));
#674=VECTOR('',#796,1.0);
#675=CARTESIAN_POINT('',(0.0997662918179847,0.0891118494083044,0.116810899674906));
#676=AXIS2_PLACEMENT_3D('',#797,#798,#799);
#677=CARTESIAN_POINT('',(0.0997663344553669,0.0932762668181464,0.124023947703186));
#678=VECTOR('',#800,1.0);
#679=AXIS2_PLACEMENT_3D('',#801,#802,#803);
#680=AXIS2_PLACEMENT_3D('',#804,#805,#806);
#681=CARTESIAN_POINT('',(0.0997662918179847,0.0891118494083044,0.116810899674906));
#682=VECTOR('',#807,1.0);
#683=AXIS2_PLACEMENT_3D('',#808,#809,#810);
#684=CARTESIAN_POINT('',(-0.0980966395562632,0.0881138820371847,0.115078844935847));
#685=VECTOR('',#811,1.0);
#686=DIRECTION('',(8.86682007769645E-06,0.866027369484064,-0.499996595214299));
#687=CARTESIAN_POINT('',(-0.0980966293178343,0.0891138752275609,0.116810899674906));
#688=DIRECTION('',(8.86682007765953E-06,0.866027369484064,-0.499996595214299));
#689=DIRECTION('',(-0.707110400980758,-0.353543743315841,-0.612373825687427));
#690=DIRECTION('',(8.86682007772421E-06,0.866027369484064,-0.499996595214299));
#691=CARTESIAN_POINT('',(-0.0980966027173741,0.091711957336013,0.115310909889263));
#692=DIRECTION('',(-8.86682007765953E-06,-0.866027369484064,0.499996595214299));
#693=DIRECTION('',(-0.707110400980758,-0.353543743315841,-0.612373825687427));
#694=DIRECTION('',(8.86682007769645E-06,0.866027369484064,-0.499996595214299));
#695=CARTESIAN_POINT('',(0.0977662918180896,0.0891118698853017,0.116810899674906));
#696=DIRECTION('',(8.866820077686E-06,0.866027369484064,-0.499996595214299));
#697=DIRECTION('',(0.707103161318211,-0.35355822273953,-0.612373825687428));
#698=DIRECTION('',(8.86682007769645E-06,0.866027369484064,-0.499996595214299));
#699=CARTESIAN_POINT('',(0.0977663184185498,0.0917099519937539,0.115310909889263));
#700=DIRECTION('',(-8.86682007763306E-06,-0.866027369484064,0.499996595214299));
#701=DIRECTION('',(0.707103161318211,-0.35355822273953,-0.612373825687428));
#702=DIRECTION('',(8.86682007758543E-06,0.866027369484064,-0.499996595214299));
#703=CARTESIAN_POINT('',(0.0912664521287978,0.104768828729901,0.143929678840967));
#704=DIRECTION('',(8.8668200776687E-06,0.866027369484064,-0.499996595214299));
#705=DIRECTION('',(0.999999999947587,-1.02384986744706E-05,5.37229431981803E-15));
#706=DIRECTION('',(-8.86682007758543E-06,-0.866027369484064,0.499996595214299));
#707=CARTESIAN_POINT('',(0.0912664609956179,0.105634856099385,0.143429682245753));
#708=DIRECTION('',(-8.8668200776687E-06,-0.866027369484064,0.499996595214299));
#709=DIRECTION('',(-0.999999999947587,1.023849867444E-05,-5.42516642521389E-15));
#710=DIRECTION('',(-0.707100511360883,0.612381065367169,-0.353550983046221));
#711=CARTESIAN_POINT('',(0.0912664609956179,0.105634856099385,0.143429682245753));
#712=DIRECTION('',(-8.8668200776687E-06,-0.866027369484064,0.499996595214299));
#713=DIRECTION('',(-0.999999999947587,1.023849867444E-05,-5.42516642521389E-15));
#714=DIRECTION('',(-0.707113050938091,-0.612366585943487,0.353550983046212));
#715=CARTESIAN_POINT('',(0.091266478729258,0.107366910838353,0.142429689055324));
#716=DIRECTION('',(8.8668200776687E-06,0.866027369484064,-0.499996595214299));
#717=DIRECTION('',(-0.999999999947587,1.02384986741066E-05,-6.00265247617251E-15));
#718=DIRECTION('',(8.86682007758543E-06,0.866027369484064,-0.499996595214299));
#719=CARTESIAN_POINT('',(-0.091592385347499,0.105047091231832,0.144408405233214));
#720=DIRECTION('',(8.8668200776687E-06,0.866027369484064,-0.499996595214299));
#721=DIRECTION('',(0.999999999947587,-1.02384986775618E-05,1.80288946662742E-17));
#722=DIRECTION('',(-8.86682007758543E-06,-0.866027369484064,0.499996595214299));
#723=CARTESIAN_POINT('',(-0.0915923764806789,0.105913118601316,0.143908408637999));
#724=DIRECTION('',(-8.8668200776687E-06,-0.866027369484064,0.499996595214299));
#725=DIRECTION('',(-0.999999999947587,1.02384986786053E-05,1.78931383634986E-15));
#726=DIRECTION('',(-0.707100511360882,0.612381065367173,-0.353550983046216));
#727=CARTESIAN_POINT('',(-0.0915923764806789,0.105913118601316,0.143908408637999));
#728=DIRECTION('',(-8.8668200776687E-06,-0.866027369484064,0.499996595214299));
#729=DIRECTION('',(-0.999999999947587,1.02384986786053E-05,1.78931383634986E-15));
#730=DIRECTION('',(-0.707113050938092,-0.612366585943483,0.353550983046217));
#731=CARTESIAN_POINT('',(-0.0915923587470387,0.107645173340284,0.142908415447571));
#732=DIRECTION('',(8.8668200776687E-06,0.866027369484064,-0.499996595214299));
#733=DIRECTION('',(-0.999999999947587,1.02384986773541E-05,-3.77861064649232E-16));
#734=DIRECTION('',(0.707113050938091,0.612366585943485,-0.353550983046216));
#735=CARTESIAN_POINT('',(0.0617664881886598,0.108291679671578,0.145230935228432));
#736=DIRECTION('',(8.86682007758543E-06,0.866027369484064,-0.499996595214299));
#737=DIRECTION('',(-0.999999999947586,1.02384986774867E-05,1.83191685528053E-17));
#738=DIRECTION('',(0.707100511360881,-0.612381065367174,0.353550983046216));
#739=CARTESIAN_POINT('',(0.0617664935087519,0.108811296093269,0.144930937271304));
#740=DIRECTION('',(8.8668200776687E-06,0.866027369484064,-0.499996595214299));
#741=DIRECTION('',(0.999999999947586,-1.02384986779063E-05,-5.78641597917824E-16));
#742=DIRECTION('',(8.8667930678854E-06,0.866024731420373,-0.500001164488295));
#743=CARTESIAN_POINT('',(-0.0980964323188958,0.108354873808693,0.150137589393803));
#744=DIRECTION('',(8.86682007766847E-06,0.866027369484064,-0.499996595214299));
#745=DIRECTION('',(-0.707103161231233,0.353558222783018,0.612373825762753));
#746=DIRECTION('',(8.8667930678854E-06,0.866024731420373,-0.500001164488295));
#747=CARTESIAN_POINT('',(-0.0980964057185165,0.110952948002991,0.148637585900317));
#748=DIRECTION('',(-8.86682007764199E-06,-0.866027369484064,0.499996595214299));
#749=DIRECTION('',(0.707110401057895,0.353543743277272,0.612373825620623));
#750=DIRECTION('',(-8.8667930678854E-06,-0.866024731420373,0.500001164488295));
#751=CARTESIAN_POINT('',(0.0977665154174071,0.110950942638002,0.148637585860948));
#752=DIRECTION('',(-8.86682007769492E-06,-0.866027369484064,0.499996595214299));
#753=DIRECTION('',(-0.707103161231232,0.353558222783018,0.612373825762754));
#754=DIRECTION('',(-8.86679306791315E-06,-0.866024731420373,0.500001164488295));
#755=CARTESIAN_POINT('',(0.0977664888170279,0.108352868443705,0.150137589354434));
#756=DIRECTION('',(8.86682007769493E-06,0.866027369484064,-0.499996595214299));
#757=DIRECTION('',(-0.707103161231232,0.353558222783018,0.612373825762754));
#758=CARTESIAN_POINT('',(0.0977664888170279,0.108352868443705,0.150137589354434));
#759=DIRECTION('',(8.86682007769493E-06,0.866027369484064,-0.499996595214299));
#760=DIRECTION('',(-0.707103161231232,0.353558222783018,0.612373825762754));
#761=DIRECTION('',(8.86679306791315E-06,0.866024731420373,-0.500001164488295));
#762=CARTESIAN_POINT('',(0.0977665154174071,0.110950942638002,0.148637585860948));
#763=DIRECTION('',(-8.86682007769492E-06,-0.866027369484064,0.499996595214299));
#764=DIRECTION('',(-0.707103161231232,0.353558222783018,0.612373825762754));
#765=CARTESIAN_POINT('',(-0.0980964057185165,0.110952948002991,0.148637585900317));
#766=DIRECTION('',(-8.86682007764199E-06,-0.866027369484064,0.499996595214299));
#767=DIRECTION('',(0.707110401057895,0.353543743277272,0.612373825620623));
#768=DIRECTION('',(-8.86679306794091E-06,-0.866024731420373,0.500001164488295));
#769=CARTESIAN_POINT('',(-0.0980964323188958,0.108354873808693,0.150137589393803));
#770=DIRECTION('',(8.86682007766847E-06,0.866027369484064,-0.499996595214299));
#771=DIRECTION('',(-0.707103161231233,0.353558222783018,0.612373825762753));
#772=DIRECTION('',(-0.999999999947585,1.02386147242165E-05,2.01000549537866E-10));
#773=DIRECTION('',(-0.999999999947585,1.02386147242165E-05,2.01000660560169E-10));
#774=CARTESIAN_POINT('',(0.0617664935087519,0.108811296093269,0.144930937271304));
#775=DIRECTION('',(8.8668200776687E-06,0.866027369484064,-0.499996595214299));
#776=DIRECTION('',(0.999999999947586,-1.02384986779063E-05,-5.78641597917824E-16));
#777=CARTESIAN_POINT('',(0.091266478729258,0.107366910838353,0.142429689055324));
#778=DIRECTION('',(8.8668200776687E-06,0.866027369484064,-0.499996595214299));
#779=DIRECTION('',(-0.999999999947587,1.02384986741066E-05,-6.00265247617251E-15));
#780=CARTESIAN_POINT('',(-0.0915923587470387,0.107645173340284,0.142908415447571));
#781=DIRECTION('',(8.8668200776687E-06,0.866027369484064,-0.499996595214299));
#782=DIRECTION('',(-0.999999999947587,1.02384986773541E-05,-3.77861064649232E-16));
#783=DIRECTION('',(5.11921447887697E-06,0.499996595188093,0.866027369529455));
#784=CARTESIAN_POINT('',(0.0977663184185498,0.0917099519937539,0.115310909889263));
#785=DIRECTION('',(-8.86682007763306E-06,-0.866027369484064,0.499996595214299));
#786=DIRECTION('',(0.707103161318211,-0.35355822273953,-0.612373825687428));
#787=DIRECTION('',(0.999999999947587,-1.02384986775905E-05,-1.66533453693773E-16));
#788=CARTESIAN_POINT('',(-0.0980966027173741,0.091711957336013,0.115310909889263));
#789=DIRECTION('',(-8.86682007765953E-06,-0.866027369484064,0.499996595214299));
#790=DIRECTION('',(-0.707110400980758,-0.353543743315841,-0.612373825687427));
#791=DIRECTION('',(-5.11921447832186E-06,-0.499996595188093,-0.866027369529456));
#792=DIRECTION('',(-5.11921447826635E-06,-0.499996595188093,-0.866027369529456));
#793=CARTESIAN_POINT('',(-0.0980966293178343,0.0891138752275609,0.116810899674906));
#794=DIRECTION('',(8.86682007765953E-06,0.866027369484064,-0.499996595214299));
#795=DIRECTION('',(-0.707110400980758,-0.353543743315841,-0.612373825687427));
#796=DIRECTION('',(0.999999999947587,-1.02384986775628E-05,-1.66533453693773E-16));
#797=CARTESIAN_POINT('',(0.0977662918180896,0.0891118698853017,0.116810899674906));
#798=DIRECTION('',(8.866820077686E-06,0.866027369484064,-0.499996595214299));
#799=DIRECTION('',(0.707103161318211,-0.35355822273953,-0.612373825687428));
#800=DIRECTION('',(5.11921447887697E-06,0.499996595188093,0.866027369529456));
#801=CARTESIAN_POINT('',(0.0912664521287978,0.104768828729901,0.143929678840967));
#802=DIRECTION('',(8.8668200776687E-06,0.866027369484064,-0.499996595214299));
#803=DIRECTION('',(0.999999999947587,-1.02384986744706E-05,5.37229431981803E-15));
#804=CARTESIAN_POINT('',(-0.091592385347499,0.105047091231832,0.144408405233214));
#805=DIRECTION('',(8.8668200776687E-06,0.866027369484064,-0.499996595214299));
#806=DIRECTION('',(0.999999999947587,-1.02384986775618E-05,1.80288946662742E-17));
#807=DIRECTION('',(-8.86682007769645E-06,-0.866027369484064,0.499996595214299));
#808=CARTESIAN_POINT('',(0.0617664881886598,0.108291679671578,0.145230935228432));
#809=DIRECTION('',(8.86682007758543E-06,0.866027369484064,-0.499996595214299));
#810=DIRECTION('',(-0.999999999947586,1.02384986774867E-05,1.83191685528053E-17));
#811=DIRECTION('',(-8.86682007769645E-06,-0.866027369484064,0.499996595214299));
#812=PRESENTATION_LAYER_ASSIGNMENT('9','Layer0',(#25));
ENDSEC;
END-ISO-10303-21;
