ISO-10303-21;
HEADER;
FILE_DESCRIPTION(('STEP AP214'),'1');
FILE_NAME('PCB_cover.stp','2026-09-05T10:42:37',(' '),(' '),'Spatial InterOp 3D',' ',' ');
FILE_SCHEMA(('AUTOMOTIVE_DESIGN { 1 0 10303 214 1 1 1 1 }'));
ENDSEC;
DATA;
#1=MECHANICAL_DESIGN_GEOMETRIC_PRESENTATION_REPRESENTATION(' ',(#10),#6);
#2=PRODUCT_DEFINITION_CONTEXT('',#11,'design');
#3=APPLICATION_PROTOCOL_DEFINITION('INTERNATIONAL STANDARD','automotive_design',1994,#11);
#4=PRODUCT_CATEGORY_RELATIONSHIP('NONE','NONE',#12,#13);
#5=SHAPE_DEFINITION_REPRESENTATION(#14,#15);
#6= (GEOMETRIC_REPRESENTATION_CONTEXT(3)GLOBAL_UNCERTAINTY_ASSIGNED_CONTEXT((#18))GLOBAL_UNIT_ASSIGNED_CONTEXT((#20,#21,#22))REPRESENTATION_CONTEXT('NONE','WORKSPACE'));
#10=STYLED_ITEM('',(#24),#25);
#11=APPLICATION_CONTEXT(' ');
#12=PRODUCT_CATEGORY('part','NONE');
#13=PRODUCT_RELATED_PRODUCT_CATEGORY('detail',' ',(#26));
#14=PRODUCT_DEFINITION_SHAPE('NONE','NONE',#27);
#15=ADVANCED_BREP_SHAPE_REPRESENTATION('PCB_cover',(#25,#28),#6);
#18=UNCERTAINTY_MEASURE_WITH_UNIT(LENGTH_MEASURE(1.0E-08),#20,'','');
#20= (CONVERSION_BASED_UNIT('METRE',#31)LENGTH_UNIT()NAMED_UNIT(#34));
#21= (NAMED_UNIT(#36)PLANE_ANGLE_UNIT()SI_UNIT($,.RADIAN.));
#22= (NAMED_UNIT(#36)SOLID_ANGLE_UNIT()SI_UNIT($,.STERADIAN.));
#24=PRESENTATION_STYLE_ASSIGNMENT((#42));
#25=MANIFOLD_SOLID_BREP('PCB_cover',#43);
#26=PRODUCT('PCB_cover','','PART--DESC',(#44));
#27=PRODUCT_DEFINITION('','NONE',#45,#2);
#28=AXIS2_PLACEMENT_3D('',#46,#47,#48);
#31=LENGTH_MEASURE_WITH_UNIT(LENGTH_MEASURE(1.0),#49);
#34=DIMENSIONAL_EXPONENTS(1.0,0.0,0.0,0.0,0.0,0.0,0.0);
#36=DIMENSIONAL_EXPONENTS(0.0,0.0,0.0,0.0,0.0,0.0,0.0);
#42=SURFACE_STYLE_USAGE(.BOTH.,#50);
#43=CLOSED_SHELL('',(#51,#52,#53,#54,#55,#56,#57,#58,#59,#60,#61,#62,#63,#64,#65,#66,#67,#68,#69,#70,#71,#72,#73,#74,#75,#76,#77,#78));
#44=PRODUCT_CONTEXT('',#11,'mechanical');
#45=PRODUCT_DEFINITION_FORMATION_WITH_SPECIFIED_SOURCE(' ','NONE',#26,.NOT_KNOWN.);
#46=CARTESIAN_POINT('',(0.0,0.0,0.0));
#47=DIRECTION('',(0.0,0.0,1.0));
#48=DIRECTION('',(1.0,0.0,0.0));
#49= (NAMED_UNIT(#34)LENGTH_UNIT()SI_UNIT($,.METRE.));
#50=SURFACE_SIDE_STYLE('',(#80));
#51=ADVANCED_FACE('2:4715',(#81),#82,.F.);
#52=ADVANCED_FACE('2:4712',(#83),#84,.F.);
#53=ADVANCED_FACE('2:4709',(#85),#86,.F.);
#54=ADVANCED_FACE('2:4706',(#87),#88,.F.);
#55=ADVANCED_FACE('2:4700',(#89),#90,.T.);
#56=ADVANCED_FACE('2:4697',(#91),#92,.T.);
#57=ADVANCED_FACE('2:4679',(#93),#94,.T.);
#58=ADVANCED_FACE('2:4676',(#95),#96,.T.);
#59=ADVANCED_FACE('2:4670',(#97),#98,.F.);
#60=ADVANCED_FACE('2:4664',(#99),#100,.T.);
#61=ADVANCED_FACE('2:4664',(#101),#102,.T.);
#62=ADVANCED_FACE('2:4667',(#103),#104,.T.);
#63=ADVANCED_FACE('2:4670',(#105),#106,.F.);
#64=ADVANCED_FACE('2:4673',(#107,#108),#109,.T.);
#65=ADVANCED_FACE('2:4676',(#110),#111,.T.);
#66=ADVANCED_FACE('2:4679',(#112),#113,.T.);
#67=ADVANCED_FACE('2:4682',(#114),#115,.T.);
#68=ADVANCED_FACE('2:4685',(#116,#117,#118),#119,.F.);
#69=ADVANCED_FACE('2:4688',(#120,#121,#122,#123),#124,.T.);
#70=ADVANCED_FACE('2:4691',(#125),#126,.T.);
#71=ADVANCED_FACE('2:4694',(#127),#128,.T.);
#72=ADVANCED_FACE('2:4697',(#129),#130,.T.);
#73=ADVANCED_FACE('2:4700',(#131),#132,.T.);
#74=ADVANCED_FACE('2:4703',(#133),#134,.F.);
#75=ADVANCED_FACE('2:4706',(#135),#136,.F.);
#76=ADVANCED_FACE('2:4709',(#137),#138,.F.);
#77=ADVANCED_FACE('2:4712',(#139),#140,.F.);
#78=ADVANCED_FACE('2:4715',(#141),#142,.F.);
#80=SURFACE_STYLE_FILL_AREA(#143);
#81=FACE_OUTER_BOUND('',#144,.T.);
#82=CYLINDRICAL_SURFACE('',#145,0.00235);
#83=FACE_OUTER_BOUND('',#146,.T.);
#84=CONICAL_SURFACE('',#147,0.00435,0.785398163397448);
#85=FACE_OUTER_BOUND('',#148,.T.);
#86=CYLINDRICAL_SURFACE('',#149,0.00235);
#87=FACE_OUTER_BOUND('',#150,.T.);
#88=CONICAL_SURFACE('',#151,0.00435,0.785398163397448);
#89=FACE_OUTER_BOUND('',#152,.T.);
#90=CYLINDRICAL_SURFACE('',#153,0.002);
#91=FACE_OUTER_BOUND('',#154,.T.);
#92=CYLINDRICAL_SURFACE('',#155,0.002);
#93=FACE_OUTER_BOUND('',#156,.T.);
#94=CYLINDRICAL_SURFACE('',#157,0.002);
#95=FACE_OUTER_BOUND('',#158,.T.);
#96=CYLINDRICAL_SURFACE('',#159,0.002);
#97=FACE_OUTER_BOUND('',#160,.T.);
#98=CONICAL_SURFACE('',#161,0.0036,0.785398163397448);
#99=FACE_OUTER_BOUND('',#162,.T.);
#100=CYLINDRICAL_SURFACE('',#163,0.0022);
#101=FACE_OUTER_BOUND('',#164,.T.);
#102=CYLINDRICAL_SURFACE('',#165,0.0022);
#103=FACE_OUTER_BOUND('',#166,.T.);
#104=PLANE('',#167);
#105=FACE_OUTER_BOUND('',#168,.T.);
#106=CONICAL_SURFACE('',#169,0.0036,0.785398163397448);
#107=FACE_BOUND('',#170,.T.);
#108=FACE_OUTER_BOUND('',#171,.T.);
#109=PLANE('',#172);
#110=FACE_OUTER_BOUND('',#173,.T.);
#111=CYLINDRICAL_SURFACE('',#174,0.002);
#112=FACE_OUTER_BOUND('',#175,.T.);
#113=CYLINDRICAL_SURFACE('',#176,0.002);
#114=FACE_OUTER_BOUND('',#177,.T.);
#115=PLANE('',#178);
#116=FACE_BOUND('',#179,.T.);
#117=FACE_BOUND('',#180,.T.);
#118=FACE_OUTER_BOUND('',#181,.T.);
#119=PLANE('',#182);
#120=FACE_OUTER_BOUND('',#183,.T.);
#121=FACE_BOUND('',#184,.T.);
#122=FACE_BOUND('',#185,.T.);
#123=FACE_BOUND('',#186,.T.);
#124=PLANE('',#187);
#125=FACE_OUTER_BOUND('',#188,.T.);
#126=PLANE('',#189);
#127=FACE_OUTER_BOUND('',#190,.T.);
#128=PLANE('',#191);
#129=FACE_OUTER_BOUND('',#192,.T.);
#130=CYLINDRICAL_SURFACE('',#193,0.002);
#131=FACE_OUTER_BOUND('',#194,.T.);
#132=CYLINDRICAL_SURFACE('',#195,0.002);
#133=FACE_OUTER_BOUND('',#196,.T.);
#134=PLANE('',#197);
#135=FACE_OUTER_BOUND('',#198,.T.);
#136=CONICAL_SURFACE('',#199,0.00435,0.785398163397448);
#137=FACE_OUTER_BOUND('',#200,.T.);
#138=CYLINDRICAL_SURFACE('',#201,0.00235);
#139=FACE_OUTER_BOUND('',#202,.T.);
#140=CONICAL_SURFACE('',#203,0.00435,0.785398163397448);
#141=FACE_OUTER_BOUND('',#204,.T.);
#142=CYLINDRICAL_SURFACE('',#205,0.00235);
#143=FILL_AREA_STYLE('',(#206));
#144=EDGE_LOOP('',(#207,#208,#209,#210));
#145=AXIS2_PLACEMENT_3D('',#211,#212,#213);
#146=EDGE_LOOP('',(#214,#215,#216,#217));
#147=AXIS2_PLACEMENT_3D('',#218,#219,#220);
#148=EDGE_LOOP('',(#221,#222,#223,#224));
#149=AXIS2_PLACEMENT_3D('',#225,#226,#227);
#150=EDGE_LOOP('',(#228,#229,#230,#231));
#151=AXIS2_PLACEMENT_3D('',#232,#233,#234);
#152=EDGE_LOOP('',(#235,#236,#237,#238));
#153=AXIS2_PLACEMENT_3D('',#239,#240,#241);
#154=EDGE_LOOP('',(#242,#243,#244,#245));
#155=AXIS2_PLACEMENT_3D('',#246,#247,#248);
#156=EDGE_LOOP('',(#249,#250,#251,#252));
#157=AXIS2_PLACEMENT_3D('',#253,#254,#255);
#158=EDGE_LOOP('',(#256,#257,#258,#259));
#159=AXIS2_PLACEMENT_3D('',#260,#261,#262);
#160=EDGE_LOOP('',(#263,#264,#265,#266));
#161=AXIS2_PLACEMENT_3D('',#267,#268,#269);
#162=EDGE_LOOP('',(#270,#271,#272,#273));
#163=AXIS2_PLACEMENT_3D('',#274,#275,#276);
#164=EDGE_LOOP('',(#277,#278,#279,#280));
#165=AXIS2_PLACEMENT_3D('',#281,#282,#283);
#166=EDGE_LOOP('',(#284,#285));
#167=AXIS2_PLACEMENT_3D('',#286,#287,#288);
#168=EDGE_LOOP('',(#289,#290,#291,#292));
#169=AXIS2_PLACEMENT_3D('',#293,#294,#295);
#170=EDGE_LOOP('',(#296,#297));
#171=EDGE_LOOP('',(#298,#299));
#172=AXIS2_PLACEMENT_3D('',#300,#301,#302);
#173=EDGE_LOOP('',(#303,#304,#305,#306));
#174=AXIS2_PLACEMENT_3D('',#307,#308,#309);
#175=EDGE_LOOP('',(#310,#311,#312,#313));
#176=AXIS2_PLACEMENT_3D('',#314,#315,#316);
#177=EDGE_LOOP('',(#317,#318,#319,#320));
#178=AXIS2_PLACEMENT_3D('',#321,#322,#323);
#179=EDGE_LOOP('',(#324,#325));
#180=EDGE_LOOP('',(#326,#327));
#181=EDGE_LOOP('',(#328,#329,#330,#331,#332,#333,#334,#335,#336,#337,#338,#339));
#182=AXIS2_PLACEMENT_3D('',#340,#341,#342);
#183=EDGE_LOOP('',(#343,#344,#345,#346,#347,#348,#349,#350,#351,#352,#353,#354));
#184=EDGE_LOOP('',(#355,#356));
#185=EDGE_LOOP('',(#357,#358));
#186=EDGE_LOOP('',(#359,#360));
#187=AXIS2_PLACEMENT_3D('',#361,#362,#363);
#188=EDGE_LOOP('',(#364,#365,#366,#367));
#189=AXIS2_PLACEMENT_3D('',#368,#369,#370);
#190=EDGE_LOOP('',(#371,#372,#373,#374));
#191=AXIS2_PLACEMENT_3D('',#375,#376,#377);
#192=EDGE_LOOP('',(#378,#379,#380,#381));
#193=AXIS2_PLACEMENT_3D('',#382,#383,#384);
#194=EDGE_LOOP('',(#385,#386,#387,#388));
#195=AXIS2_PLACEMENT_3D('',#389,#390,#391);
#196=EDGE_LOOP('',(#392,#393,#394,#395));
#197=AXIS2_PLACEMENT_3D('',#396,#397,#398);
#198=EDGE_LOOP('',(#399,#400,#401,#402));
#199=AXIS2_PLACEMENT_3D('',#403,#404,#405);
#200=EDGE_LOOP('',(#406,#407,#408,#409));
#201=AXIS2_PLACEMENT_3D('',#410,#411,#412);
#202=EDGE_LOOP('',(#413,#414,#415,#416));
#203=AXIS2_PLACEMENT_3D('',#417,#418,#419);
#204=EDGE_LOOP('',(#420,#421,#422,#423));
#205=AXIS2_PLACEMENT_3D('',#424,#425,#426);
#206=FILL_AREA_STYLE_COLOUR('',#427);
#207=ORIENTED_EDGE('',*,*,#428,.F.);
#208=ORIENTED_EDGE('',*,*,#429,.F.);
#209=ORIENTED_EDGE('',*,*,#430,.F.);
#210=ORIENTED_EDGE('',*,*,#431,.F.);
#211=CARTESIAN_POINT('',(0.091266478729258,0.107366910838353,0.142429689055324));
#212=DIRECTION('',(-8.86682007758543E-06,-0.866027369484064,0.499996595214299));
#213=DIRECTION('',(0.999999999947587,-1.02384986743985E-05,5.3306582032174E-15));
#214=ORIENTED_EDGE('',*,*,#432,.F.);
#215=ORIENTED_EDGE('',*,*,#433,.T.);
#216=ORIENTED_EDGE('',*,*,#434,.F.);
#217=ORIENTED_EDGE('',*,*,#435,.T.);
#218=CARTESIAN_POINT('',(0.091266478729258,0.107366910838353,0.142429689055324));
#219=DIRECTION('',(8.8668200776687E-06,0.866027369484064,-0.499996595214299));
#220=DIRECTION('',(-0.999999999947587,1.02384986741174E-05,-5.98396082347427E-15));
#221=ORIENTED_EDGE('',*,*,#436,.F.);
#222=ORIENTED_EDGE('',*,*,#437,.F.);
#223=ORIENTED_EDGE('',*,*,#438,.F.);
#224=ORIENTED_EDGE('',*,*,#439,.F.);
#225=CARTESIAN_POINT('',(-0.0915923587470387,0.107645173340284,0.142908415447571));
#226=DIRECTION('',(-8.86682007758543E-06,-0.866027369484064,0.499996595214299));
#227=DIRECTION('',(0.999999999947587,-1.02384986774897E-05,-2.36065179556491E-17));
#228=ORIENTED_EDGE('',*,*,#440,.F.);
#229=ORIENTED_EDGE('',*,*,#441,.T.);
#230=ORIENTED_EDGE('',*,*,#442,.F.);
#231=ORIENTED_EDGE('',*,*,#443,.T.);
#232=CARTESIAN_POINT('',(-0.0915923587470387,0.107645173340284,0.142908415447571));
#233=DIRECTION('',(8.8668200776687E-06,0.866027369484064,-0.499996595214299));
#234=DIRECTION('',(-0.999999999947587,1.02384986773757E-05,-3.40475213410659E-16));
#235=ORIENTED_EDGE('',*,*,#444,.F.);
#236=ORIENTED_EDGE('',*,*,#445,.T.);
#237=ORIENTED_EDGE('',*,*,#446,.T.);
#238=ORIENTED_EDGE('',*,*,#447,.T.);
#239=CARTESIAN_POINT('',(-0.0980969230192991,0.0604278858055102,0.177808334746196));
#240=DIRECTION('',(8.86679306792289E-06,0.866024731420373,-0.500001164488295));
#241=DIRECTION('',(-0.707103161203074,0.353561453745185,0.612371960365765));
#242=ORIENTED_EDGE('',*,*,#448,.F.);
#243=ORIENTED_EDGE('',*,*,#449,.T.);
#244=ORIENTED_EDGE('',*,*,#450,.T.);
#245=ORIENTED_EDGE('',*,*,#451,.T.);
#246=CARTESIAN_POINT('',(0.0977659981166246,0.0604258804405216,0.177808334706828));
#247=DIRECTION('',(-8.86679306789642E-06,-0.866024731420373,0.500001164488295));
#248=DIRECTION('',(0.707110401095897,0.353546974239438,0.612371960223635));
#249=ORIENTED_EDGE('',*,*,#452,.F.);
#250=ORIENTED_EDGE('',*,*,#453,.T.);
#251=ORIENTED_EDGE('',*,*,#454,.T.);
#252=ORIENTED_EDGE('',*,*,#455,.T.);
#253=CARTESIAN_POINT('',(-0.0980966344370487,0.0886138786323728,0.115944872305377));
#254=DIRECTION('',(8.86682007765953E-06,0.866027369484064,-0.499996595214299));
#255=DIRECTION('',(-0.707110400980758,-0.353543743315842,-0.612373825687426));
#256=ORIENTED_EDGE('',*,*,#456,.F.);
#257=ORIENTED_EDGE('',*,*,#457,.T.);
#258=ORIENTED_EDGE('',*,*,#458,.T.);
#259=ORIENTED_EDGE('',*,*,#459,.T.);
#260=CARTESIAN_POINT('',(0.0977662866988751,0.0886118732901136,0.115944872305377));
#261=DIRECTION('',(8.86682007765953E-06,0.866027369484064,-0.499996595214299));
#262=DIRECTION('',(0.707103161318215,-0.353558222739529,-0.612373825687425));
#263=ORIENTED_EDGE('',*,*,#460,.F.);
#264=ORIENTED_EDGE('',*,*,#461,.F.);
#265=ORIENTED_EDGE('',*,*,#462,.F.);
#266=ORIENTED_EDGE('',*,*,#463,.T.);
#267=CARTESIAN_POINT('',(0.0617664935087519,0.108811296093269,0.144930937271304));
#268=DIRECTION('',(8.8668200776687E-06,0.866027369484064,-0.499996595214299));
#269=DIRECTION('',(0.999999999947586,-1.02384986778998E-05,-5.67349246578059E-16));
#270=ORIENTED_EDGE('',*,*,#464,.F.);
#271=ORIENTED_EDGE('',*,*,#465,.T.);
#272=ORIENTED_EDGE('',*,*,#466,.F.);
#273=ORIENTED_EDGE('',*,*,#467,.F.);
#274=CARTESIAN_POINT('',(0.0617664935087518,0.108811296093269,0.144930937271304));
#275=DIRECTION('',(-8.86682007749437E-06,-0.866027369484065,0.499996595214299));
#276=DIRECTION('',(0.83820140732378,0.272672106027323,0.472301093959203));
#277=ORIENTED_EDGE('',*,*,#464,.T.);
#278=ORIENTED_EDGE('',*,*,#468,.F.);
#279=ORIENTED_EDGE('',*,*,#466,.T.);
#280=ORIENTED_EDGE('',*,*,#469,.T.);
#281=CARTESIAN_POINT('',(0.0617664935087518,0.108811296093269,0.144930937271304));
#282=DIRECTION('',(-8.86682007749437E-06,-0.866027369484065,0.499996595214299));
#283=DIRECTION('',(0.83820140732378,0.272672106027323,0.472301093959203));
#284=ORIENTED_EDGE('',*,*,#469,.F.);
#285=ORIENTED_EDGE('',*,*,#465,.F.);
#286=CARTESIAN_POINT('',(0.0617664935087519,0.108811296093269,0.144930937271304));
#287=DIRECTION('',(8.86682007750216E-06,0.866027369484065,-0.499996595214299));
#288=DIRECTION('',(-0.999999999947587,1.02384986775067E-05,2.19547946804961E-16));
#289=ORIENTED_EDGE('',*,*,#460,.T.);
#290=ORIENTED_EDGE('',*,*,#470,.T.);
#291=ORIENTED_EDGE('',*,*,#462,.T.);
#292=ORIENTED_EDGE('',*,*,#471,.F.);
#293=CARTESIAN_POINT('',(0.0617664935087519,0.108811296093269,0.144930937271304));
#294=DIRECTION('',(8.8668200776687E-06,0.866027369484064,-0.499996595214299));
#295=DIRECTION('',(0.999999999947586,-1.02384986778998E-05,-5.67349246578059E-16));
#296=ORIENTED_EDGE('',*,*,#468,.T.);
#297=ORIENTED_EDGE('',*,*,#467,.T.);
#298=ORIENTED_EDGE('',*,*,#461,.T.);
#299=ORIENTED_EDGE('',*,*,#471,.T.);
#300=CARTESIAN_POINT('',(-0.000165052023243111,0.100513628954038,0.132157738328666));
#301=DIRECTION('',(8.86682007758543E-06,0.866027369484064,-0.499996595214299));
#302=DIRECTION('',(-0.999999999947587,1.02384986775428E-05,1.15463454965993E-16));
#303=ORIENTED_EDGE('',*,*,#456,.T.);
#304=ORIENTED_EDGE('',*,*,#472,.T.);
#305=ORIENTED_EDGE('',*,*,#473,.T.);
#306=ORIENTED_EDGE('',*,*,#474,.T.);
#307=CARTESIAN_POINT('',(0.0977662866988751,0.0886118732901136,0.115944872305377));
#308=DIRECTION('',(8.86682007765953E-06,0.866027369484064,-0.499996595214299));
#309=DIRECTION('',(0.707103161318215,-0.353558222739529,-0.612373825687425));
#310=ORIENTED_EDGE('',*,*,#452,.T.);
#311=ORIENTED_EDGE('',*,*,#475,.T.);
#312=ORIENTED_EDGE('',*,*,#476,.T.);
#313=ORIENTED_EDGE('',*,*,#477,.T.);
#314=CARTESIAN_POINT('',(-0.0980966344370487,0.0886138786323728,0.115944872305377));
#315=DIRECTION('',(8.86682007765953E-06,0.866027369484064,-0.499996595214299));
#316=DIRECTION('',(-0.707110400980758,-0.353543743315842,-0.612373825687426));
#317=ORIENTED_EDGE('',*,*,#458,.F.);
#318=ORIENTED_EDGE('',*,*,#478,.F.);
#319=ORIENTED_EDGE('',*,*,#476,.F.);
#320=ORIENTED_EDGE('',*,*,#479,.T.);
#321=CARTESIAN_POINT('',(8.35951471250262E-05,0.087612880223741,0.114212817566318));
#322=DIRECTION('',(-5.11921447893249E-06,-0.499996595188093,-0.866027369529456));
#323=DIRECTION('',(-0.999999999947587,1.0238498677551E-05,5.87696190686375E-17));
#324=ORIENTED_EDGE('',*,*,#480,.T.);
#325=ORIENTED_EDGE('',*,*,#429,.T.);
#326=ORIENTED_EDGE('',*,*,#481,.T.);
#327=ORIENTED_EDGE('',*,*,#437,.T.);
#328=ORIENTED_EDGE('',*,*,#474,.F.);
#329=ORIENTED_EDGE('',*,*,#482,.T.);
#330=ORIENTED_EDGE('',*,*,#483,.F.);
#331=ORIENTED_EDGE('',*,*,#451,.F.);
#332=ORIENTED_EDGE('',*,*,#484,.T.);
#333=ORIENTED_EDGE('',*,*,#445,.F.);
#334=ORIENTED_EDGE('',*,*,#485,.F.);
#335=ORIENTED_EDGE('',*,*,#486,.T.);
#336=ORIENTED_EDGE('',*,*,#453,.F.);
#337=ORIENTED_EDGE('',*,*,#477,.F.);
#338=ORIENTED_EDGE('',*,*,#478,.T.);
#339=ORIENTED_EDGE('',*,*,#457,.F.);
#340=CARTESIAN_POINT('',(-0.0940983711780904,0.0894527939999812,0.117398000442378));
#341=DIRECTION('',(8.8668200776687E-06,0.866027369484064,-0.499996595214299));
#342=DIRECTION('',(-0.999999999947587,1.02384986775788E-05,1.13764220454868E-17));
#343=ORIENTED_EDGE('',*,*,#459,.F.);
#344=ORIENTED_EDGE('',*,*,#479,.F.);
#345=ORIENTED_EDGE('',*,*,#475,.F.);
#346=ORIENTED_EDGE('',*,*,#455,.F.);
#347=ORIENTED_EDGE('',*,*,#487,.F.);
#348=ORIENTED_EDGE('',*,*,#488,.F.);
#349=ORIENTED_EDGE('',*,*,#447,.F.);
#350=ORIENTED_EDGE('',*,*,#489,.T.);
#351=ORIENTED_EDGE('',*,*,#449,.F.);
#352=ORIENTED_EDGE('',*,*,#490,.F.);
#353=ORIENTED_EDGE('',*,*,#491,.F.);
#354=ORIENTED_EDGE('',*,*,#472,.F.);
#355=ORIENTED_EDGE('',*,*,#463,.F.);
#356=ORIENTED_EDGE('',*,*,#470,.F.);
#357=ORIENTED_EDGE('',*,*,#435,.F.);
#358=ORIENTED_EDGE('',*,*,#492,.F.);
#359=ORIENTED_EDGE('',*,*,#443,.F.);
#360=ORIENTED_EDGE('',*,*,#493,.F.);
#361=CARTESIAN_POINT('',(-0.0940983445776301,0.0920508761084334,0.115898010656735));
#362=DIRECTION('',(8.8668200776687E-06,0.866027369484064,-0.499996595214299));
#363=DIRECTION('',(-0.999999999947587,1.02384986776028E-05,5.30108214990399E-17));
#364=ORIENTED_EDGE('',*,*,#454,.F.);
#365=ORIENTED_EDGE('',*,*,#486,.F.);
#366=ORIENTED_EDGE('',*,*,#494,.F.);
#367=ORIENTED_EDGE('',*,*,#487,.T.);
#368=CARTESIAN_POINT('',(-0.100096547513404,0.0971037708156967,0.130649894963994));
#369=DIRECTION('',(-0.999999999947587,1.02384986773002E-05,-4.99601208114268E-16));
#370=DIRECTION('',(5.11921447832354E-06,0.499996595188093,0.866027369529456));
#371=ORIENTED_EDGE('',*,*,#473,.F.);
#372=ORIENTED_EDGE('',*,*,#491,.T.);
#373=ORIENTED_EDGE('',*,*,#495,.F.);
#374=ORIENTED_EDGE('',*,*,#482,.F.);
#375=CARTESIAN_POINT('',(0.0997663736223105,0.0971017245194428,0.130649894963994));
#376=DIRECTION('',(0.999999999947587,-1.02384986775564E-05,5.55111512312578E-17));
#377=DIRECTION('',(-5.11921447883625E-06,-0.499996595188093,-0.866027369529456));
#378=ORIENTED_EDGE('',*,*,#448,.T.);
#379=ORIENTED_EDGE('',*,*,#483,.T.);
#380=ORIENTED_EDGE('',*,*,#495,.T.);
#381=ORIENTED_EDGE('',*,*,#490,.T.);
#382=CARTESIAN_POINT('',(0.0977659981166246,0.0604258804405216,0.177808334706828));
#383=DIRECTION('',(-8.86679306789642E-06,-0.866024731420373,0.500001164488295));
#384=DIRECTION('',(0.707110401095897,0.353546974239438,0.612371960223635));
#385=ORIENTED_EDGE('',*,*,#444,.T.);
#386=ORIENTED_EDGE('',*,*,#488,.T.);
#387=ORIENTED_EDGE('',*,*,#494,.T.);
#388=ORIENTED_EDGE('',*,*,#485,.T.);
#389=CARTESIAN_POINT('',(-0.0980969230192991,0.0604278858055102,0.177808334746196));
#390=DIRECTION('',(8.86679306792289E-06,0.866024731420373,-0.500001164488295));
#391=DIRECTION('',(-0.707103161203074,0.353561453745185,0.612371960365765));
#392=ORIENTED_EDGE('',*,*,#450,.F.);
#393=ORIENTED_EDGE('',*,*,#489,.F.);
#394=ORIENTED_EDGE('',*,*,#446,.F.);
#395=ORIENTED_EDGE('',*,*,#484,.F.);
#396=CARTESIAN_POINT('',(0.100995517662946,0.0134987588760616,0.207211188884539));
#397=DIRECTION('',(-5.11949335624262E-06,-0.500001164462086,-0.866024731465764));
#398=DIRECTION('',(-0.999999999947116,1.02842947684566E-05,-2.61724672566798E-08));
#399=ORIENTED_EDGE('',*,*,#440,.T.);
#400=ORIENTED_EDGE('',*,*,#493,.T.);
#401=ORIENTED_EDGE('',*,*,#442,.T.);
#402=ORIENTED_EDGE('',*,*,#439,.T.);
#403=CARTESIAN_POINT('',(-0.0915923587470387,0.107645173340284,0.142908415447571));
#404=DIRECTION('',(8.8668200776687E-06,0.866027369484064,-0.499996595214299));
#405=DIRECTION('',(-0.999999999947587,1.02384986773757E-05,-3.40475213410659E-16));
#406=ORIENTED_EDGE('',*,*,#436,.T.);
#407=ORIENTED_EDGE('',*,*,#441,.F.);
#408=ORIENTED_EDGE('',*,*,#438,.T.);
#409=ORIENTED_EDGE('',*,*,#481,.F.);
#410=CARTESIAN_POINT('',(-0.0915923587470387,0.107645173340284,0.142908415447571));
#411=DIRECTION('',(-8.86682007758543E-06,-0.866027369484064,0.499996595214299));
#412=DIRECTION('',(0.999999999947587,-1.02384986774897E-05,-2.36065179556491E-17));
#413=ORIENTED_EDGE('',*,*,#432,.T.);
#414=ORIENTED_EDGE('',*,*,#492,.T.);
#415=ORIENTED_EDGE('',*,*,#434,.T.);
#416=ORIENTED_EDGE('',*,*,#431,.T.);
#417=CARTESIAN_POINT('',(0.091266478729258,0.107366910838353,0.142429689055324));
#418=DIRECTION('',(8.8668200776687E-06,0.866027369484064,-0.499996595214299));
#419=DIRECTION('',(-0.999999999947587,1.02384986741174E-05,-5.98396082347427E-15));
#420=ORIENTED_EDGE('',*,*,#428,.T.);
#421=ORIENTED_EDGE('',*,*,#433,.F.);
#422=ORIENTED_EDGE('',*,*,#430,.T.);
#423=ORIENTED_EDGE('',*,*,#480,.F.);
#424=CARTESIAN_POINT('',(0.091266478729258,0.107366910838353,0.142429689055324));
#425=DIRECTION('',(-8.86682007758543E-06,-0.866027369484064,0.499996595214299));
#426=DIRECTION('',(0.999999999947587,-1.02384986743985E-05,5.3306582032174E-15));
#427=COLOUR_RGB('',0.560784339904785,0.686274528503418,0.560784339904785);
#428=EDGE_CURVE('',#496,#497,#498,.T.);
#429=EDGE_CURVE('2:4760',#499,#496,#500,.T.);
#430=EDGE_CURVE('',#501,#499,#502,.T.);
#431=EDGE_CURVE('2:4817',#497,#501,#503,.T.);
#432=EDGE_CURVE('',#501,#504,#505,.T.);
#433=EDGE_CURVE('2:4817',#501,#497,#506,.T.);
#434=EDGE_CURVE('',#507,#497,#508,.T.);
#435=EDGE_CURVE('2:4796',#507,#504,#509,.T.);
#436=EDGE_CURVE('',#510,#511,#512,.T.);
#437=EDGE_CURVE('2:4763',#513,#510,#514,.T.);
#438=EDGE_CURVE('',#515,#513,#516,.T.);
#439=EDGE_CURVE('2:4814',#511,#515,#517,.T.);
#440=EDGE_CURVE('',#515,#518,#519,.T.);
#441=EDGE_CURVE('2:4814',#515,#511,#520,.T.);
#442=EDGE_CURVE('',#521,#511,#522,.T.);
#443=EDGE_CURVE('2:4799',#521,#518,#523,.T.);
#444=EDGE_CURVE('',#524,#525,#526,.T.);
#445=EDGE_CURVE('2:4775',#524,#527,#528,.T.);
#446=EDGE_CURVE('2:4811',#527,#529,#530,.T.);
#447=EDGE_CURVE('2:4784',#529,#525,#531,.T.);
#448=EDGE_CURVE('',#532,#533,#534,.T.);
#449=EDGE_CURVE('2:4790',#532,#535,#536,.T.);
#450=EDGE_CURVE('2:4808',#535,#537,#538,.T.);
#451=EDGE_CURVE('2:4769',#537,#533,#539,.T.);
#452=EDGE_CURVE('',#540,#541,#542,.T.);
#453=EDGE_CURVE('2:4748',#540,#543,#544,.T.);
#454=EDGE_CURVE('2:4751',#543,#545,#546,.T.);
#455=EDGE_CURVE('2:4742',#545,#541,#547,.T.);
#456=EDGE_CURVE('',#548,#549,#550,.T.);
#457=EDGE_CURVE('2:4736',#548,#551,#552,.T.);
#458=EDGE_CURVE('2:4739',#551,#553,#554,.T.);
#459=EDGE_CURVE('2:4730',#553,#549,#555,.T.);
#460=EDGE_CURVE('',#556,#557,#558,.T.);
#461=EDGE_CURVE('2:4724',#559,#556,#560,.F.);
#462=EDGE_CURVE('',#561,#559,#562,.T.);
#463=EDGE_CURVE('2:4727',#561,#557,#563,.T.);
#464=EDGE_CURVE('',#564,#565,#566,.T.);
#465=EDGE_CURVE('2:4718',#564,#567,#568,.T.);
#466=EDGE_CURVE('',#569,#567,#570,.T.);
#467=EDGE_CURVE('2:4721',#565,#569,#571,.T.);
#468=EDGE_CURVE('2:4721',#569,#565,#572,.T.);
#469=EDGE_CURVE('2:4718',#567,#564,#573,.T.);
#470=EDGE_CURVE('2:4727',#557,#561,#574,.T.);
#471=EDGE_CURVE('2:4724',#556,#559,#575,.F.);
#472=EDGE_CURVE('2:4730',#549,#576,#577,.T.);
#473=EDGE_CURVE('2:4733',#576,#578,#579,.T.);
#474=EDGE_CURVE('2:4736',#578,#548,#580,.T.);
#475=EDGE_CURVE('2:4742',#541,#581,#582,.T.);
#476=EDGE_CURVE('2:4745',#581,#583,#584,.T.);
#477=EDGE_CURVE('2:4748',#583,#540,#585,.T.);
#478=EDGE_CURVE('2:4754',#583,#551,#586,.T.);
#479=EDGE_CURVE('2:4757',#581,#553,#587,.T.);
#480=EDGE_CURVE('2:4760',#496,#499,#588,.T.);
#481=EDGE_CURVE('2:4763',#510,#513,#589,.T.);
#482=EDGE_CURVE('2:4766',#578,#590,#591,.T.);
#483=EDGE_CURVE('2:4769',#533,#590,#592,.T.);
#484=EDGE_CURVE('2:4772',#537,#527,#593,.T.);
#485=EDGE_CURVE('2:4775',#594,#524,#595,.T.);
#486=EDGE_CURVE('2:4778',#594,#543,#596,.T.);
#487=EDGE_CURVE('2:4781',#597,#545,#598,.T.);
#488=EDGE_CURVE('2:4784',#525,#597,#599,.T.);
#489=EDGE_CURVE('2:4787',#529,#535,#600,.F.);
#490=EDGE_CURVE('2:4790',#601,#532,#602,.T.);
#491=EDGE_CURVE('2:4793',#576,#601,#603,.T.);
#492=EDGE_CURVE('2:4796',#504,#507,#604,.T.);
#493=EDGE_CURVE('2:4799',#518,#521,#605,.T.);
#494=EDGE_CURVE('2:4802',#597,#594,#606,.T.);
#495=EDGE_CURVE('2:4805',#590,#601,#607,.T.);
#496=VERTEX_POINT('',#608);
#497=VERTEX_POINT('',#609);
#498=LINE('',#610,#611);
#499=VERTEX_POINT('',#612);
#500=CIRCLE('',#613,0.00235);
#501=VERTEX_POINT('',#614);
#502=LINE('',#615,#616);
#503=CIRCLE('',#617,0.00235);
#504=VERTEX_POINT('',#618);
#505=LINE('',#619,#620);
#506=CIRCLE('',#621,0.00235);
#507=VERTEX_POINT('',#622);
#508=LINE('',#623,#624);
#509=CIRCLE('',#625,0.00435);
#510=VERTEX_POINT('',#626);
#511=VERTEX_POINT('',#627);
#512=LINE('',#628,#629);
#513=VERTEX_POINT('',#630);
#514=CIRCLE('',#631,0.00235);
#515=VERTEX_POINT('',#632);
#516=LINE('',#633,#634);
#517=CIRCLE('',#635,0.00235);
#518=VERTEX_POINT('',#636);
#519=LINE('',#637,#638);
#520=CIRCLE('',#639,0.00235);
#521=VERTEX_POINT('',#640);
#522=LINE('',#641,#642);
#523=CIRCLE('',#643,0.00435);
#524=VERTEX_POINT('',#644);
#525=VERTEX_POINT('',#645);
#526=LINE('',#646,#647);
#527=VERTEX_POINT('',#648);
#528=CIRCLE('',#649,0.00200000000001392);
#529=VERTEX_POINT('',#650);
#530=LINE('',#651,#652);
#531=CIRCLE('',#653,0.00200000000001392);
#532=VERTEX_POINT('',#654);
#533=VERTEX_POINT('',#655);
#534=LINE('',#656,#657);
#535=VERTEX_POINT('',#658);
#536=CIRCLE('',#659,0.00200000000001392);
#537=VERTEX_POINT('',#660);
#538=LINE('',#661,#662);
#539=CIRCLE('',#663,0.00200000000001392);
#540=VERTEX_POINT('',#664);
#541=VERTEX_POINT('',#665);
#542=LINE('',#666,#667);
#543=VERTEX_POINT('',#668);
#544=CIRCLE('',#669,0.002);
#545=VERTEX_POINT('',#670);
#546=LINE('',#671,#672);
#547=CIRCLE('',#673,0.002);
#548=VERTEX_POINT('',#674);
#549=VERTEX_POINT('',#675);
#550=LINE('',#676,#677);
#551=VERTEX_POINT('',#678);
#552=CIRCLE('',#679,0.002);
#553=VERTEX_POINT('',#680);
#554=LINE('',#681,#682);
#555=CIRCLE('',#683,0.002);
#556=VERTEX_POINT('',#684);
#557=VERTEX_POINT('',#685);
#558=LINE('',#686,#687);
#559=VERTEX_POINT('',#688);
#560=CIRCLE('',#689,0.0028);
#561=VERTEX_POINT('',#690);
#562=LINE('',#691,#692);
#563=CIRCLE('',#693,0.0036);
#564=VERTEX_POINT('',#694);
#565=VERTEX_POINT('',#695);
#566=LINE('',#696,#697);
#567=VERTEX_POINT('',#698);
#568=CIRCLE('',#699,0.0022);
#569=VERTEX_POINT('',#700);
#570=LINE('',#701,#702);
#571=CIRCLE('',#703,0.0022);
#572=CIRCLE('',#704,0.0022);
#573=CIRCLE('',#705,0.0022);
#574=CIRCLE('',#706,0.0036);
#575=CIRCLE('',#707,0.0028);
#576=VERTEX_POINT('',#708);
#577=CIRCLE('',#709,0.002);
#578=VERTEX_POINT('',#710);
#579=LINE('',#711,#712);
#580=CIRCLE('',#713,0.002);
#581=VERTEX_POINT('',#714);
#582=CIRCLE('',#715,0.002);
#583=VERTEX_POINT('',#716);
#584=LINE('',#717,#718);
#585=CIRCLE('',#719,0.002);
#586=LINE('',#720,#721);
#587=LINE('',#722,#723);
#588=CIRCLE('',#724,0.00235);
#589=CIRCLE('',#725,0.00235);
#590=VERTEX_POINT('',#726);
#591=LINE('',#727,#728);
#592=CIRCLE('',#729,0.00200000000001392);
#593=LINE('',#730,#731);
#594=VERTEX_POINT('',#732);
#595=CIRCLE('',#733,0.00200000000001392);
#596=LINE('',#734,#735);
#597=VERTEX_POINT('',#736);
#598=LINE('',#737,#738);
#599=CIRCLE('',#739,0.00200000000001392);
#600=LINE('',#740,#741);
#601=VERTEX_POINT('',#742);
#602=CIRCLE('',#743,0.00200000000001392);
#603=LINE('',#744,#745);
#604=CIRCLE('',#746,0.00435);
#605=CIRCLE('',#747,0.00435);
#606=LINE('',#748,#749);
#607=LINE('',#750,#751);
#608=CARTESIAN_POINT('',(0.0936164521286746,0.104768804669429,0.143929678840967));
#609=CARTESIAN_POINT('',(0.0936164609954947,0.105634832038913,0.143429682245753));
#610=CARTESIAN_POINT('',(0.0936164565620847,0.105201818354171,0.14367968054336));
#611=VECTOR('',#752,1.0);
#612=CARTESIAN_POINT('',(0.088916452128921,0.104768852790372,0.143929678840967));
#613=AXIS2_PLACEMENT_3D('',#753,#754,#755);
#614=CARTESIAN_POINT('',(0.088916460995741,0.105634880159856,0.143429682245753));
#615=CARTESIAN_POINT('',(0.088916456562331,0.105201866475114,0.14367968054336));
#616=VECTOR('',#756,1.0);
#617=AXIS2_PLACEMENT_3D('',#757,#758,#759);
#618=CARTESIAN_POINT('',(0.086916478729486,0.107366955375822,0.142429689055324));
#619=CARTESIAN_POINT('',(0.086916478729486,0.107366955375822,0.142429689055324));
#620=VECTOR('',#760,1.0);
#621=AXIS2_PLACEMENT_3D('',#761,#762,#763);
#622=CARTESIAN_POINT('',(0.09561647872903,0.107366866300883,0.142429689055324));
#623=CARTESIAN_POINT('',(0.09561647872903,0.107366866300883,0.142429689055324));
#624=VECTOR('',#764,1.0);
#625=AXIS2_PLACEMENT_3D('',#765,#766,#767);
#626=CARTESIAN_POINT('',(-0.0892423853476222,0.10504706717136,0.144408405233214));
#627=CARTESIAN_POINT('',(-0.0892423764808021,0.105913094540844,0.143908408637999));
#628=CARTESIAN_POINT('',(-0.0892423809142121,0.105480080856102,0.144158406935606));
#629=VECTOR('',#768,1.0);
#630=CARTESIAN_POINT('',(-0.0939423853473758,0.105047115292304,0.144408405233214));
#631=AXIS2_PLACEMENT_3D('',#769,#770,#771);
#632=CARTESIAN_POINT('',(-0.0939423764805557,0.105913142661788,0.143908408637999));
#633=CARTESIAN_POINT('',(-0.0939423809139658,0.105480128977046,0.144158406935606));
#634=VECTOR('',#772,1.0);
#635=AXIS2_PLACEMENT_3D('',#773,#774,#775);
#636=CARTESIAN_POINT('',(-0.0959423587468108,0.107645217877753,0.142908415447571));
#637=CARTESIAN_POINT('',(-0.0959423587468108,0.107645217877753,0.142908415447571));
#638=VECTOR('',#776,1.0);
#639=AXIS2_PLACEMENT_3D('',#777,#778,#779);
#640=CARTESIAN_POINT('',(-0.0872423587472667,0.107645128802815,0.142908415447571));
#641=CARTESIAN_POINT('',(-0.0872423587472667,0.107645128802815,0.142908415447571));
#642=VECTOR('',#780,1.0);
#643=AXIS2_PLACEMENT_3D('',#781,#782,#783);
#644=CARTESIAN_POINT('',(-0.0995106386413681,0.109061990254264,0.151362337045337));
#645=CARTESIAN_POINT('',(-0.0995106120409889,0.111660064448562,0.149862333551851));
#646=CARTESIAN_POINT('',(-0.0995106253411591,0.110361029244141,0.150612334205823));
#647=VECTOR('',#784,1.0);
#648=CARTESIAN_POINT('',(-0.0980964220800026,0.109354866999083,0.151869644132886));
#649=AXIS2_PLACEMENT_3D('',#785,#786,#787);
#650=CARTESIAN_POINT('',(-0.0980963954796234,0.111952941193381,0.1503696406394));
#651=CARTESIAN_POINT('',(-0.0980969127803124,0.0614278881344344,0.179540384209128));
#652=VECTOR('',#788,1.0);
#653=AXIS2_PLACEMENT_3D('',#789,#790,#791);
#654=CARTESIAN_POINT('',(0.0991807362195327,0.111658030124562,0.149862333512198));
#655=CARTESIAN_POINT('',(0.0991807096191535,0.109059955930264,0.151362337005684));
#656=CARTESIAN_POINT('',(0.0991807229193625,0.110358994920066,0.150612334166214));
#657=VECTOR('',#792,1.0);
#658=CARTESIAN_POINT('',(0.0977665256563002,0.111950935828392,0.150369640600031));
#659=AXIS2_PLACEMENT_3D('',#793,#794,#795);
#660=CARTESIAN_POINT('',(0.0977664990559211,0.109352861634095,0.151869644093517));
#661=CARTESIAN_POINT('',(0.0977660083556113,0.0614258827694458,0.179540384169759));
#662=VECTOR('',#796,1.0);
#663=AXIS2_PLACEMENT_3D('',#797,#798,#799);
#664=CARTESIAN_POINT('',(-0.0995108552390103,0.0879067911457411,0.114720124654002));
#665=CARTESIAN_POINT('',(-0.09951082863855,0.0905048732541933,0.113220134868359));
#666=CARTESIAN_POINT('',(-0.0995108552390103,0.0879067911457411,0.114720124654002));
#667=VECTOR('',#800,1.0);
#668=CARTESIAN_POINT('',(-0.100096634436944,0.0886138991093701,0.115944872305377));
#669=AXIS2_PLACEMENT_3D('',#801,#802,#803);
#670=CARTESIAN_POINT('',(-0.100096607836484,0.0912119812178223,0.114444882519734));
#671=CARTESIAN_POINT('',(-0.100096634436944,0.0886138991093701,0.115944872305377));
#672=VECTOR('',#804,1.0);
#673=AXIS2_PLACEMENT_3D('',#805,#806,#807);
#674=CARTESIAN_POINT('',(0.0991804930215116,0.0879047568446346,0.114720124654002));
#675=CARTESIAN_POINT('',(0.0991805196219718,0.0905028389530868,0.113220134868359));
#676=CARTESIAN_POINT('',(0.0991804930215115,0.0879047568446346,0.114720124654002));
#677=VECTOR('',#808,1.0);
#678=CARTESIAN_POINT('',(0.0977662764604462,0.0876118800997374,0.114212817566318));
#679=AXIS2_PLACEMENT_3D('',#809,#810,#811);
#680=CARTESIAN_POINT('',(0.0977663030609063,0.0902099622081896,0.112712827780675));
#681=CARTESIAN_POINT('',(0.0977662764604461,0.0876118800997374,0.114212817566318));
#682=VECTOR('',#812,1.0);
#683=AXIS2_PLACEMENT_3D('',#813,#814,#815);
#684=CARTESIAN_POINT('',(0.0645664864151491,0.108118445529885,0.145330934547475));
#685=CARTESIAN_POINT('',(0.0653664935085632,0.108811259234674,0.144930937271304));
#686=CARTESIAN_POINT('',(0.0653664935085632,0.108811259234674,0.144930937271304));
#687=VECTOR('',#816,1.0);
#688=CARTESIAN_POINT('',(0.0589664864154426,0.108118502865478,0.145330934547475));
#689=AXIS2_PLACEMENT_3D('',#817,#818,#819);
#690=CARTESIAN_POINT('',(0.0581664935089406,0.108811332951864,0.144930937271304));
#691=CARTESIAN_POINT('',(0.0581664935089406,0.108811332951864,0.144930937271304));
#692=VECTOR('',#820,1.0);
#693=AXIS2_PLACEMENT_3D('',#821,#822,#823);
#694=CARTESIAN_POINT('',(0.0636105366048642,0.109411174726529,0.145969999678014));
#695=CARTESIAN_POINT('',(0.0636105295114081,0.108718352830942,0.146369996954185));
#696=CARTESIAN_POINT('',(0.0636105366048642,0.109411174726529,0.145969999678014));
#697=VECTOR('',#824,1.0);
#698=CARTESIAN_POINT('',(0.0599224504126395,0.108211417460009,0.143891874864593));
#699=AXIS2_PLACEMENT_3D('',#825,#826,#827);
#700=CARTESIAN_POINT('',(0.0599224433191835,0.107518595564422,0.144291872140765));
#701=CARTESIAN_POINT('',(0.0599224504126395,0.108211417460009,0.143891874864593));
#702=VECTOR('',#828,1.0);
#703=AXIS2_PLACEMENT_3D('',#829,#830,#831);
#704=AXIS2_PLACEMENT_3D('',#832,#833,#834);
#705=AXIS2_PLACEMENT_3D('',#835,#836,#837);
#706=AXIS2_PLACEMENT_3D('',#838,#839,#840);
#707=AXIS2_PLACEMENT_3D('',#841,#842,#843);
#708=CARTESIAN_POINT('',(0.0997663132992305,0.0912099349215685,0.114444882519734));
#709=AXIS2_PLACEMENT_3D('',#844,#845,#846);
#710=CARTESIAN_POINT('',(0.0997662866987703,0.0886118528131163,0.115944872305377));
#711=CARTESIAN_POINT('',(0.0997662866987703,0.0886118528131163,0.115944872305377));
#712=VECTOR('',#847,1.0);
#713=AXIS2_PLACEMENT_3D('',#848,#849,#850);
#714=CARTESIAN_POINT('',(-0.0980966180750175,0.0902119675504488,0.112712827780675));
#715=AXIS2_PLACEMENT_3D('',#851,#852,#853);
#716=CARTESIAN_POINT('',(-0.0980966446754777,0.0876138854419966,0.114212817566318));
#717=CARTESIAN_POINT('',(-0.0980966446754777,0.0876138854419966,0.114212817566318));
#718=VECTOR('',#854,1.0);
#719=AXIS2_PLACEMENT_3D('',#855,#856,#857);
#720=CARTESIAN_POINT('',(-0.0470073974295237,0.0876133623648062,0.114212817566318));
#721=VECTOR('',#858,1.0);
#722=CARTESIAN_POINT('',(-0.0470073708290634,0.0902114444732584,0.112712827780675));
#723=VECTOR('',#859,1.0);
#724=AXIS2_PLACEMENT_3D('',#860,#861,#862);
#725=AXIS2_PLACEMENT_3D('',#863,#864,#865);
#726=CARTESIAN_POINT('',(0.099766488816923,0.108352847966708,0.150137589354434));
#727=CARTESIAN_POINT('',(0.0997663344553669,0.0932762668181464,0.124023947703186));
#728=VECTOR('',#866,1.0);
#729=AXIS2_PLACEMENT_3D('',#867,#868,#869);
#730=CARTESIAN_POINT('',(0.00344916583139441,0.109353827312932,0.151869644112475));
#731=VECTOR('',#870,1.0);
#732=CARTESIAN_POINT('',(-0.100096432318791,0.108354894285691,0.150137589393802));
#733=AXIS2_PLACEMENT_3D('',#871,#872,#873);
#734=CARTESIAN_POINT('',(-0.100096586680347,0.0932783131144002,0.124023947703186));
#735=VECTOR('',#874,1.0);
#736=CARTESIAN_POINT('',(-0.100096405718412,0.110952968479988,0.148637585900317));
#737=CARTESIAN_POINT('',(-0.100096560079887,0.0958763952228524,0.122523957917543));
#738=VECTOR('',#875,1.0);
#739=AXIS2_PLACEMENT_3D('',#876,#877,#878);
#740=CARTESIAN_POINT('',(0.00344919243177362,0.111951901507229,0.150369640618989));
#741=VECTOR('',#879,1.0);
#742=CARTESIAN_POINT('',(0.0997665154173022,0.110950922161005,0.148637585860948));
#743=AXIS2_PLACEMENT_3D('',#880,#881,#882);
#744=CARTESIAN_POINT('',(0.0997663610558271,0.0958743489265985,0.122523957917543));
#745=VECTOR('',#883,1.0);
#746=AXIS2_PLACEMENT_3D('',#884,#885,#886);
#747=AXIS2_PLACEMENT_3D('',#887,#888,#889);
#748=CARTESIAN_POINT('',(-0.100096923019194,0.0604279062825075,0.177808334746196));
#749=VECTOR('',#890,1.0);
#750=CARTESIAN_POINT('',(0.0997659981165197,0.0604258599635242,0.177808334706828));
#751=VECTOR('',#891,1.0);
#752=DIRECTION('',(8.86682007758543E-06,0.866027369484064,-0.499996595214299));
#753=CARTESIAN_POINT('',(0.0912664521287978,0.104768828729901,0.143929678840967));
#754=DIRECTION('',(8.8668200776687E-06,0.866027369484064,-0.499996595214299));
#755=DIRECTION('',(0.999999999947587,-1.02384986744706E-05,5.37229431981803E-15));
#756=DIRECTION('',(-8.86682007758543E-06,-0.866027369484064,0.499996595214299));
#757=CARTESIAN_POINT('',(0.0912664609956179,0.105634856099385,0.143429682245753));
#758=DIRECTION('',(-8.8668200776687E-06,-0.866027369484064,0.499996595214299));
#759=DIRECTION('',(-0.999999999947587,1.023849867444E-05,-5.42516642521389E-15));
#760=DIRECTION('',(-0.707100511360883,0.612381065367169,-0.353550983046221));
#761=CARTESIAN_POINT('',(0.0912664609956179,0.105634856099385,0.143429682245753));
#762=DIRECTION('',(-8.8668200776687E-06,-0.866027369484064,0.499996595214299));
#763=DIRECTION('',(-0.999999999947587,1.023849867444E-05,-5.42516642521389E-15));
#764=DIRECTION('',(-0.707113050938091,-0.612366585943487,0.353550983046212));
#765=CARTESIAN_POINT('',(0.091266478729258,0.107366910838353,0.142429689055324));
#766=DIRECTION('',(8.8668200776687E-06,0.866027369484064,-0.499996595214299));
#767=DIRECTION('',(-0.999999999947587,1.02384986741066E-05,-6.00265247617251E-15));
#768=DIRECTION('',(8.86682007758543E-06,0.866027369484064,-0.499996595214299));
#769=CARTESIAN_POINT('',(-0.091592385347499,0.105047091231832,0.144408405233214));
#770=DIRECTION('',(8.8668200776687E-06,0.866027369484064,-0.499996595214299));
#771=DIRECTION('',(0.999999999947587,-1.02384986775618E-05,1.80288946662742E-17));
#772=DIRECTION('',(-8.86682007758543E-06,-0.866027369484064,0.499996595214299));
#773=CARTESIAN_POINT('',(-0.0915923764806789,0.105913118601316,0.143908408637999));
#774=DIRECTION('',(-8.8668200776687E-06,-0.866027369484064,0.499996595214299));
#775=DIRECTION('',(-0.999999999947587,1.02384986786053E-05,1.78931383634986E-15));
#776=DIRECTION('',(-0.707100511360882,0.612381065367173,-0.353550983046216));
#777=CARTESIAN_POINT('',(-0.0915923764806789,0.105913118601316,0.143908408637999));
#778=DIRECTION('',(-8.8668200776687E-06,-0.866027369484064,0.499996595214299));
#779=DIRECTION('',(-0.999999999947587,1.02384986786053E-05,1.78931383634986E-15));
#780=DIRECTION('',(-0.707113050938092,-0.612366585943483,0.353550983046217));
#781=CARTESIAN_POINT('',(-0.0915923587470387,0.107645173340284,0.142908415447571));
#782=DIRECTION('',(8.8668200776687E-06,0.866027369484064,-0.499996595214299));
#783=DIRECTION('',(-0.999999999947587,1.02384986773541E-05,-3.77861064649232E-16));
#784=DIRECTION('',(8.8667930678854E-06,0.866024731420373,-0.500001164488295));
#785=CARTESIAN_POINT('',(-0.0980964323188958,0.108354873808693,0.150137589393803));
#786=DIRECTION('',(8.86682007766847E-06,0.866027369484064,-0.499996595214299));
#787=DIRECTION('',(-0.707103161231233,0.353558222783018,0.612373825762753));
#788=DIRECTION('',(8.86679306788539E-06,0.866024731420373,-0.500001164488295));
#789=CARTESIAN_POINT('',(-0.0980964057185165,0.110952948002991,0.148637585900317));
#790=DIRECTION('',(-8.86682007764199E-06,-0.866027369484064,0.499996595214299));
#791=DIRECTION('',(0.707110401057895,0.353543743277272,0.612373825620623));
#792=DIRECTION('',(-8.8667930678854E-06,-0.866024731420373,0.500001164488295));
#793=CARTESIAN_POINT('',(0.0977665154174071,0.110950942638002,0.148637585860948));
#794=DIRECTION('',(-8.86682007769492E-06,-0.866027369484064,0.499996595214299));
#795=DIRECTION('',(-0.707103161231232,0.353558222783018,0.612373825762754));
#796=DIRECTION('',(-8.86679306788539E-06,-0.866024731420373,0.500001164488295));
#797=CARTESIAN_POINT('',(0.0977664888170279,0.108352868443705,0.150137589354434));
#798=DIRECTION('',(8.86682007769493E-06,0.866027369484064,-0.499996595214299));
#799=DIRECTION('',(-0.707103161231232,0.353558222783018,0.612373825762754));
#800=DIRECTION('',(8.86682007769646E-06,0.866027369484064,-0.499996595214299));
#801=CARTESIAN_POINT('',(-0.0980966344370487,0.0886138786323728,0.115944872305377));
#802=DIRECTION('',(8.86682007763307E-06,0.866027369484064,-0.499996595214299));
#803=DIRECTION('',(-0.707110400980758,-0.353543743315841,-0.612373825687427));
#804=DIRECTION('',(8.86682007772421E-06,0.866027369484064,-0.499996595214299));
#805=CARTESIAN_POINT('',(-0.0980966078365885,0.091211960740825,0.114444882519734));
#806=DIRECTION('',(-8.86682007765953E-06,-0.866027369484064,0.499996595214299));
#807=DIRECTION('',(-0.707110400980758,-0.353543743315841,-0.612373825687427));
#808=DIRECTION('',(8.86682007769646E-06,0.866027369484064,-0.499996595214299));
#809=CARTESIAN_POINT('',(0.0977662866988751,0.0886118732901136,0.115944872305377));
#810=DIRECTION('',(8.866820077686E-06,0.866027369484064,-0.499996595214299));
#811=DIRECTION('',(0.707103161318215,-0.353558222739528,-0.612373825687425));
#812=DIRECTION('',(8.86682007769645E-06,0.866027369484064,-0.499996595214299));
#813=CARTESIAN_POINT('',(0.0977663132993353,0.0912099553985658,0.114444882519734));
#814=DIRECTION('',(-8.86682007765953E-06,-0.866027369484064,0.499996595214299));
#815=DIRECTION('',(0.707103161318215,-0.353558222739528,-0.612373825687425));
#816=DIRECTION('',(0.70711305093809,0.612366585943486,-0.353550983046216));
#817=CARTESIAN_POINT('',(0.0617664864152958,0.108118474197682,0.145330934547475));
#818=DIRECTION('',(-8.86682007758543E-06,-0.866027369484065,0.499996595214299));
#819=DIRECTION('',(0.999999999947587,-1.02384986778277E-05,-6.0898549307952E-16));
#820=DIRECTION('',(0.70710051136088,-0.612381065367176,0.353550983046215));
#821=CARTESIAN_POINT('',(0.0617664935087519,0.108811296093269,0.144930937271304));
#822=DIRECTION('',(8.8668200776687E-06,0.866027369484064,-0.499996595214299));
#823=DIRECTION('',(0.999999999947586,-1.02384986779063E-05,-5.78641597917824E-16));
#824=DIRECTION('',(-8.86682007750217E-06,-0.866027369484064,0.499996595214299));
#825=CARTESIAN_POINT('',(0.0617664935087518,0.108811296093269,0.144930937271304));
#826=DIRECTION('',(-8.86682007753812E-06,-0.866027369484064,0.499996595214299));
#827=DIRECTION('',(0.83820140732378,0.272672106027323,0.472301093959203));
#828=DIRECTION('',(8.86682007750217E-06,0.866027369484064,-0.499996595214299));
#829=CARTESIAN_POINT('',(0.0617664864152958,0.108118474197682,0.145330934547475));
#830=DIRECTION('',(-8.86682007762562E-06,-0.866027369484064,0.499996595214299));
#831=DIRECTION('',(0.83820140732378,0.272672106027323,0.472301093959203));
#832=CARTESIAN_POINT('',(0.0617664864152958,0.108118474197682,0.145330934547475));
#833=DIRECTION('',(-8.86682007762562E-06,-0.866027369484064,0.499996595214299));
#834=DIRECTION('',(0.83820140732378,0.272672106027323,0.472301093959203));
#835=CARTESIAN_POINT('',(0.0617664935087518,0.108811296093269,0.144930937271304));
#836=DIRECTION('',(-8.86682007753812E-06,-0.866027369484064,0.499996595214299));
#837=DIRECTION('',(0.83820140732378,0.272672106027323,0.472301093959203));
#838=CARTESIAN_POINT('',(0.0617664935087519,0.108811296093269,0.144930937271304));
#839=DIRECTION('',(8.8668200776687E-06,0.866027369484064,-0.499996595214299));
#840=DIRECTION('',(0.999999999947586,-1.02384986779063E-05,-5.78641597917824E-16));
#841=CARTESIAN_POINT('',(0.0617664864152958,0.108118474197682,0.145330934547475));
#842=DIRECTION('',(-8.86682007758543E-06,-0.866027369484065,0.499996595214299));
#843=DIRECTION('',(0.999999999947587,-1.02384986778277E-05,-6.0898549307952E-16));
#844=CARTESIAN_POINT('',(0.0977663132993353,0.0912099553985658,0.114444882519734));
#845=DIRECTION('',(-8.86682007765953E-06,-0.866027369484064,0.499996595214299));
#846=DIRECTION('',(0.707103161318215,-0.353558222739528,-0.612373825687425));
#847=DIRECTION('',(-8.86682007769645E-06,-0.866027369484064,0.499996595214299));
#848=CARTESIAN_POINT('',(0.0977662866988751,0.0886118732901136,0.115944872305377));
#849=DIRECTION('',(8.866820077686E-06,0.866027369484064,-0.499996595214299));
#850=DIRECTION('',(0.707103161318215,-0.353558222739528,-0.612373825687425));
#851=CARTESIAN_POINT('',(-0.0980966078365885,0.091211960740825,0.114444882519734));
#852=DIRECTION('',(-8.86682007765953E-06,-0.866027369484064,0.499996595214299));
#853=DIRECTION('',(-0.707110400980758,-0.353543743315841,-0.612373825687427));
#854=DIRECTION('',(-8.86682007769646E-06,-0.866027369484064,0.499996595214299));
#855=CARTESIAN_POINT('',(-0.0980966344370487,0.0886138786323728,0.115944872305377));
#856=DIRECTION('',(8.86682007763307E-06,0.866027369484064,-0.499996595214299));
#857=DIRECTION('',(-0.707110400980758,-0.353543743315841,-0.612373825687427));
#858=DIRECTION('',(0.999999999947587,-1.02384986775905E-05,-5.55111512312578E-17));
#859=DIRECTION('',(0.999999999947587,-1.02384986775905E-05,-1.66533453693773E-16));
#860=CARTESIAN_POINT('',(0.0912664521287978,0.104768828729901,0.143929678840967));
#861=DIRECTION('',(8.8668200776687E-06,0.866027369484064,-0.499996595214299));
#862=DIRECTION('',(0.999999999947587,-1.02384986744706E-05,5.37229431981803E-15));
#863=CARTESIAN_POINT('',(-0.091592385347499,0.105047091231832,0.144408405233214));
#864=DIRECTION('',(8.8668200776687E-06,0.866027369484064,-0.499996595214299));
#865=DIRECTION('',(0.999999999947587,-1.02384986775618E-05,1.80288946662742E-17));
#866=DIRECTION('',(5.11921447887697E-06,0.499996595188093,0.866027369529456));
#867=CARTESIAN_POINT('',(0.0977664888170279,0.108352868443705,0.150137589354434));
#868=DIRECTION('',(8.86682007769493E-06,0.866027369484064,-0.499996595214299));
#869=DIRECTION('',(-0.707103161231232,0.353558222783018,0.612373825762754));
#870=DIRECTION('',(-0.999999999947585,1.02386147242165E-05,2.01000660560169E-10));
#871=CARTESIAN_POINT('',(-0.0980964323188958,0.108354873808693,0.150137589393803));
#872=DIRECTION('',(8.86682007766847E-06,0.866027369484064,-0.499996595214299));
#873=DIRECTION('',(-0.707103161231233,0.353558222783018,0.612373825762753));
#874=DIRECTION('',(-5.11921447826635E-06,-0.499996595188093,-0.866027369529456));
#875=DIRECTION('',(-5.11921447832186E-06,-0.499996595188093,-0.866027369529456));
#876=CARTESIAN_POINT('',(-0.0980964057185165,0.110952948002991,0.148637585900317));
#877=DIRECTION('',(-8.86682007764199E-06,-0.866027369484064,0.499996595214299));
#878=DIRECTION('',(0.707110401057895,0.353543743277272,0.612373825620623));
#879=DIRECTION('',(-0.999999999947585,1.02386147242165E-05,2.01000549537866E-10));
#880=CARTESIAN_POINT('',(0.0977665154174071,0.110950942638002,0.148637585860948));
#881=DIRECTION('',(-8.86682007769492E-06,-0.866027369484064,0.499996595214299));
#882=DIRECTION('',(-0.707103161231232,0.353558222783018,0.612373825762754));
#883=DIRECTION('',(5.11921447887697E-06,0.499996595188093,0.866027369529455));
#884=CARTESIAN_POINT('',(0.091266478729258,0.107366910838353,0.142429689055324));
#885=DIRECTION('',(8.8668200776687E-06,0.866027369484064,-0.499996595214299));
#886=DIRECTION('',(-0.999999999947587,1.02384986741066E-05,-6.00265247617251E-15));
#887=CARTESIAN_POINT('',(-0.0915923587470387,0.107645173340284,0.142908415447571));
#888=DIRECTION('',(8.8668200776687E-06,0.866027369484064,-0.499996595214299));
#889=DIRECTION('',(-0.999999999947587,1.02384986773541E-05,-3.77861064649232E-16));
#890=DIRECTION('',(-8.86679306794091E-06,-0.866024731420373,0.500001164488295));
#891=DIRECTION('',(8.86679306791315E-06,0.866024731420373,-0.500001164488295));
#892=PRESENTATION_LAYER_ASSIGNMENT('9','Layer0',(#25));
ENDSEC;
END-ISO-10303-21;
