ISO-10303-21;
HEADER;
FILE_DESCRIPTION(('STEP AP214'),'1');
FILE_NAME('Label_neutral.stp','2026-09-06T08:06:40',(' '),(' '),'Spatial InterOp 3D',' ',' ');
FILE_SCHEMA(('AUTOMOTIVE_DESIGN { 1 0 10303 214 1 1 1 1 }'));
ENDSEC;
DATA;
#1=MECHANICAL_DESIGN_GEOMETRIC_PRESENTATION_REPRESENTATION(' ',(#10),#6);
#2=PRODUCT_DEFINITION_CONTEXT('',#11,'design');
#3=APPLICATION_PROTOCOL_DEFINITION('INTERNATIONAL STANDARD','automotive_design',1994,#11);
#4=PRODUCT_CATEGORY_RELATIONSHIP('NONE','NONE',#12,#13);
#5=SHAPE_DEFINITION_REPRESENTATION(#14,#15);
#6= (GEOMETRIC_REPRESENTATION_CONTEXT(3)GLOBAL_UNCERTAINTY_ASSIGNED_CONTEXT((#18))GLOBAL_UNIT_ASSIGNED_CONTEXT((#20,#21,#22))REPRESENTATION_CONTEXT('NONE','WORKSPACE'));
#10=STYLED_ITEM('',(#24),#25);
#11=APPLICATION_CONTEXT(' ');
#12=PRODUCT_CATEGORY('part','NONE');
#13=PRODUCT_RELATED_PRODUCT_CATEGORY('detail',' ',(#26));
#14=PRODUCT_DEFINITION_SHAPE('NONE','NONE',#27);
#15=ADVANCED_BREP_SHAPE_REPRESENTATION('Label_neutral',(#25,#28),#6);
#18=UNCERTAINTY_MEASURE_WITH_UNIT(LENGTH_MEASURE(1.0E-08),#20,'','');
#20= (CONVERSION_BASED_UNIT('METRE',#31)LENGTH_UNIT()NAMED_UNIT(#34));
#21= (NAMED_UNIT(#36)PLANE_ANGLE_UNIT()SI_UNIT($,.RADIAN.));
#22= (NAMED_UNIT(#36)SOLID_ANGLE_UNIT()SI_UNIT($,.STERADIAN.));
#24=PRESENTATION_STYLE_ASSIGNMENT((#42));
#25=MANIFOLD_SOLID_BREP('Label_neutral',#43);
#26=PRODUCT('Label_neutral','','PART--DESC',(#44));
#27=PRODUCT_DEFINITION('','NONE',#45,#2);
#28=AXIS2_PLACEMENT_3D('',#46,#47,#48);
#31=LENGTH_MEASURE_WITH_UNIT(LENGTH_MEASURE(1.0),#49);
#34=DIMENSIONAL_EXPONENTS(1.0,0.0,0.0,0.0,0.0,0.0,0.0);
#36=DIMENSIONAL_EXPONENTS(0.0,0.0,0.0,0.0,0.0,0.0,0.0);
#42=SURFACE_STYLE_USAGE(.BOTH.,#50);
#43=CLOSED_SHELL('',(#51,#52,#53,#54,#55,#56,#57,#58,#59,#60,#61,#62,#63,#64,#65,#66,#67,#68,#69,#70,#71,#72,#73,#74,#75,#76,#77,#78,#79,#80));
#44=PRODUCT_CONTEXT('',#11,'mechanical');
#45=PRODUCT_DEFINITION_FORMATION_WITH_SPECIFIED_SOURCE(' ','NONE',#26,.NOT_KNOWN.);
#46=CARTESIAN_POINT('',(0.0,0.0,0.0));
#47=DIRECTION('',(0.0,0.0,1.0));
#48=DIRECTION('',(1.0,0.0,0.0));
#49= (NAMED_UNIT(#34)LENGTH_UNIT()SI_UNIT($,.METRE.));
#50=SURFACE_SIDE_STYLE('',(#82));
#51=ADVANCED_FACE('1:5510',(#83),#84,.T.);
#52=ADVANCED_FACE('1:5498',(#85),#86,.F.);
#53=ADVANCED_FACE('1:5495',(#87),#88,.F.);
#54=ADVANCED_FACE('1:5492',(#89),#90,.F.);
#55=ADVANCED_FACE('1:5486',(#91),#92,.F.);
#56=ADVANCED_FACE('1:5480',(#93),#94,.T.);
#57=ADVANCED_FACE('1:5477',(#95),#96,.T.);
#58=ADVANCED_FACE('1:5474',(#97),#98,.T.);
#59=ADVANCED_FACE('1:5465',(#99),#100,.T.);
#60=ADVANCED_FACE('1:5456',(#101),#102,.T.);
#61=ADVANCED_FACE('1:5456',(#103),#104,.T.);
#62=ADVANCED_FACE('1:5459',(#105,#106,#107),#108,.F.);
#63=ADVANCED_FACE('1:5462',(#109),#110,.F.);
#64=ADVANCED_FACE('1:5465',(#111),#112,.T.);
#65=ADVANCED_FACE('1:5468',(#113),#114,.T.);
#66=ADVANCED_FACE('1:5471',(#115),#116,.T.);
#67=ADVANCED_FACE('1:5474',(#117),#118,.T.);
#68=ADVANCED_FACE('1:5477',(#119),#120,.T.);
#69=ADVANCED_FACE('1:5480',(#121),#122,.T.);
#70=ADVANCED_FACE('1:5483',(#123),#124,.T.);
#71=ADVANCED_FACE('1:5486',(#125),#126,.F.);
#72=ADVANCED_FACE('1:5489',(#127,#128,#129),#130,.T.);
#73=ADVANCED_FACE('1:5492',(#131),#132,.F.);
#74=ADVANCED_FACE('1:5495',(#133),#134,.F.);
#75=ADVANCED_FACE('1:5498',(#135),#136,.F.);
#76=ADVANCED_FACE('1:5501',(#137),#138,.T.);
#77=ADVANCED_FACE('1:5504',(#139),#140,.T.);
#78=ADVANCED_FACE('1:5507',(#141),#142,.T.);
#79=ADVANCED_FACE('1:5510',(#143),#144,.T.);
#80=ADVANCED_FACE('1:5513',(#145),#146,.T.);
#82=SURFACE_STYLE_FILL_AREA(#147);
#83=FACE_OUTER_BOUND('',#148,.T.);
#84=CYLINDRICAL_SURFACE('',#149,0.001);
#85=FACE_OUTER_BOUND('',#150,.T.);
#86=CYLINDRICAL_SURFACE('',#151,0.00185);
#87=FACE_OUTER_BOUND('',#152,.T.);
#88=CONICAL_SURFACE('',#153,0.00385000000000001,0.785398163397448);
#89=FACE_OUTER_BOUND('',#154,.T.);
#90=CYLINDRICAL_SURFACE('',#155,0.00184999999999999);
#91=FACE_OUTER_BOUND('',#156,.T.);
#92=CONICAL_SURFACE('',#157,0.00385,0.785398163397448);
#93=FACE_OUTER_BOUND('',#158,.T.);
#94=CYLINDRICAL_SURFACE('',#159,0.001);
#95=FACE_OUTER_BOUND('',#160,.T.);
#96=CYLINDRICAL_SURFACE('',#161,0.003);
#97=FACE_OUTER_BOUND('',#162,.T.);
#98=CYLINDRICAL_SURFACE('',#163,0.003);
#99=FACE_OUTER_BOUND('',#164,.T.);
#100=CYLINDRICAL_SURFACE('',#165,0.001);
#101=FACE_OUTER_BOUND('',#166,.T.);
#102=CYLINDRICAL_SURFACE('',#167,0.001);
#103=FACE_OUTER_BOUND('',#168,.T.);
#104=CYLINDRICAL_SURFACE('',#169,0.001);
#105=FACE_BOUND('',#170,.T.);
#106=FACE_OUTER_BOUND('',#171,.T.);
#107=FACE_BOUND('',#172,.T.);
#108=PLANE('',#173);
#109=FACE_OUTER_BOUND('',#174,.T.);
#110=PLANE('',#175);
#111=FACE_OUTER_BOUND('',#176,.T.);
#112=CYLINDRICAL_SURFACE('',#177,0.001);
#113=FACE_OUTER_BOUND('',#178,.T.);
#114=CYLINDRICAL_SURFACE('',#179,0.001);
#115=FACE_OUTER_BOUND('',#180,.T.);
#116=PLANE('',#181);
#117=FACE_OUTER_BOUND('',#182,.T.);
#118=CYLINDRICAL_SURFACE('',#183,0.003);
#119=FACE_OUTER_BOUND('',#184,.T.);
#120=CYLINDRICAL_SURFACE('',#185,0.003);
#121=FACE_OUTER_BOUND('',#186,.T.);
#122=CYLINDRICAL_SURFACE('',#187,0.001);
#123=FACE_OUTER_BOUND('',#188,.T.);
#124=PLANE('',#189);
#125=FACE_OUTER_BOUND('',#190,.T.);
#126=CONICAL_SURFACE('',#191,0.00385,0.785398163397448);
#127=FACE_BOUND('',#192,.T.);
#128=FACE_OUTER_BOUND('',#193,.T.);
#129=FACE_BOUND('',#194,.T.);
#130=PLANE('',#195);
#131=FACE_OUTER_BOUND('',#196,.T.);
#132=CYLINDRICAL_SURFACE('',#197,0.00184999999999999);
#133=FACE_OUTER_BOUND('',#198,.T.);
#134=CONICAL_SURFACE('',#199,0.00385000000000001,0.785398163397448);
#135=FACE_OUTER_BOUND('',#200,.T.);
#136=CYLINDRICAL_SURFACE('',#201,0.00185);
#137=FACE_OUTER_BOUND('',#202,.T.);
#138=TOROIDAL_SURFACE('',#203,0.002,0.001);
#139=FACE_OUTER_BOUND('',#204,.T.);
#140=CYLINDRICAL_SURFACE('',#205,0.001);
#141=FACE_OUTER_BOUND('',#206,.T.);
#142=TOROIDAL_SURFACE('',#207,0.002,0.001);
#143=FACE_OUTER_BOUND('',#208,.T.);
#144=CYLINDRICAL_SURFACE('',#209,0.001);
#145=FACE_OUTER_BOUND('',#210,.T.);
#146=PLANE('',#211);
#147=FILL_AREA_STYLE('',(#212));
#148=EDGE_LOOP('',(#213,#214,#215,#216));
#149=AXIS2_PLACEMENT_3D('',#217,#218,#219);
#150=EDGE_LOOP('',(#220,#221,#222,#223));
#151=AXIS2_PLACEMENT_3D('',#224,#225,#226);
#152=EDGE_LOOP('',(#227,#228,#229,#230));
#153=AXIS2_PLACEMENT_3D('',#231,#232,#233);
#154=EDGE_LOOP('',(#234,#235,#236,#237));
#155=AXIS2_PLACEMENT_3D('',#238,#239,#240);
#156=EDGE_LOOP('',(#241,#242,#243,#244));
#157=AXIS2_PLACEMENT_3D('',#245,#246,#247);
#158=EDGE_LOOP('',(#248,#249,#250,#251));
#159=AXIS2_PLACEMENT_3D('',#252,#253,#254);
#160=EDGE_LOOP('',(#255,#256,#257,#258));
#161=AXIS2_PLACEMENT_3D('',#259,#260,#261);
#162=EDGE_LOOP('',(#262,#263,#264,#265));
#163=AXIS2_PLACEMENT_3D('',#266,#267,#268);
#164=EDGE_LOOP('',(#269,#270,#271,#272,#273,#274));
#165=AXIS2_PLACEMENT_3D('',#275,#276,#277);
#166=EDGE_LOOP('',(#278,#279,#280,#281));
#167=AXIS2_PLACEMENT_3D('',#282,#283,#284);
#168=EDGE_LOOP('',(#285,#286,#287,#288,#289));
#169=AXIS2_PLACEMENT_3D('',#290,#291,#292);
#170=EDGE_LOOP('',(#293,#294));
#171=EDGE_LOOP('',(#295,#296,#297,#298,#299,#300,#301,#302,#303,#304,#305,#306));
#172=EDGE_LOOP('',(#307,#308));
#173=AXIS2_PLACEMENT_3D('',#309,#310,#311);
#174=EDGE_LOOP('',(#312,#313,#314,#315));
#175=AXIS2_PLACEMENT_3D('',#316,#317,#318);
#176=EDGE_LOOP('',(#319,#320,#321,#322,#323));
#177=AXIS2_PLACEMENT_3D('',#324,#325,#326);
#178=EDGE_LOOP('',(#327,#328,#329,#330,#331));
#179=AXIS2_PLACEMENT_3D('',#332,#333,#334);
#180=EDGE_LOOP('',(#335,#336,#337,#338));
#181=AXIS2_PLACEMENT_3D('',#339,#340,#341);
#182=EDGE_LOOP('',(#342,#343,#344,#345));
#183=AXIS2_PLACEMENT_3D('',#346,#347,#348);
#184=EDGE_LOOP('',(#349,#350,#351,#352));
#185=AXIS2_PLACEMENT_3D('',#353,#354,#355);
#186=EDGE_LOOP('',(#356,#357,#358,#359,#360));
#187=AXIS2_PLACEMENT_3D('',#361,#362,#363);
#188=EDGE_LOOP('',(#364,#365,#366,#367));
#189=AXIS2_PLACEMENT_3D('',#368,#369,#370);
#190=EDGE_LOOP('',(#371,#372,#373,#374));
#191=AXIS2_PLACEMENT_3D('',#375,#376,#377);
#192=EDGE_LOOP('',(#378,#379));
#193=EDGE_LOOP('',(#380,#381,#382,#383,#384,#385));
#194=EDGE_LOOP('',(#386,#387));
#195=AXIS2_PLACEMENT_3D('',#388,#389,#390);
#196=EDGE_LOOP('',(#391,#392,#393,#394));
#197=AXIS2_PLACEMENT_3D('',#395,#396,#397);
#198=EDGE_LOOP('',(#398,#399,#400,#401));
#199=AXIS2_PLACEMENT_3D('',#402,#403,#404);
#200=EDGE_LOOP('',(#405,#406,#407,#408));
#201=AXIS2_PLACEMENT_3D('',#409,#410,#411);
#202=EDGE_LOOP('',(#412,#413,#414,#415,#416));
#203=AXIS2_PLACEMENT_3D('',#417,#418,#419);
#204=EDGE_LOOP('',(#420,#421,#422,#423));
#205=AXIS2_PLACEMENT_3D('',#424,#425,#426);
#206=EDGE_LOOP('',(#427,#428,#429,#430,#431,#432));
#207=AXIS2_PLACEMENT_3D('',#433,#434,#435);
#208=EDGE_LOOP('',(#436,#437,#438,#439,#440));
#209=AXIS2_PLACEMENT_3D('',#441,#442,#443);
#210=EDGE_LOOP('',(#444,#445,#446,#447));
#211=AXIS2_PLACEMENT_3D('',#448,#449,#450);
#212=FILL_AREA_STYLE_COLOUR('',#451);
#213=ORIENTED_EDGE('',*,*,#452,.F.);
#214=ORIENTED_EDGE('',*,*,#453,.T.);
#215=ORIENTED_EDGE('',*,*,#454,.T.);
#216=ORIENTED_EDGE('',*,*,#455,.F.);
#217=CARTESIAN_POINT('',(0.080122127607396,0.00398690339440197,0.201386557095668));
#218=DIRECTION('',(-1.02386147239024E-05,-0.999999999946749,-1.29343783390067E-06));
#219=DIRECTION('',(0.707106781282248,-8.15439256585172E-06,0.707106781043829));
#220=ORIENTED_EDGE('',*,*,#456,.F.);
#221=ORIENTED_EDGE('',*,*,#457,.F.);
#222=ORIENTED_EDGE('',*,*,#458,.F.);
#223=ORIENTED_EDGE('',*,*,#459,.F.);
#224=CARTESIAN_POINT('',(-0.0378851663947677,0.00190065553218842,0.19838655441939));
#225=DIRECTION('',(1.87756976632869E-10,-1.29343783589084E-06,0.999999999999163));
#226=DIRECTION('',(-1.0,-1.19987464145164E-20,1.87756976633026E-10));
#227=ORIENTED_EDGE('',*,*,#460,.F.);
#228=ORIENTED_EDGE('',*,*,#461,.T.);
#229=ORIENTED_EDGE('',*,*,#462,.F.);
#230=ORIENTED_EDGE('',*,*,#463,.T.);
#231=CARTESIAN_POINT('',(-0.0378851663940166,0.00190065035843707,0.202386554419387));
#232=DIRECTION('',(1.87756532543659E-10,-1.29343783589084E-06,0.999999999999164));
#233=DIRECTION('',(1.0,1.02768660366725E-20,-1.87756532543816E-10));
#234=ORIENTED_EDGE('',*,*,#464,.F.);
#235=ORIENTED_EDGE('',*,*,#465,.F.);
#236=ORIENTED_EDGE('',*,*,#466,.F.);
#237=ORIENTED_EDGE('',*,*,#467,.F.);
#238=CARTESIAN_POINT('',(0.055073673911479,0.00189878331097357,0.198386554399515));
#239=DIRECTION('',(1.87756810099415E-10,-1.29343783589084E-06,0.999999999999163));
#240=DIRECTION('',(-1.0,-6.49749795307118E-21,1.87756810099572E-10));
#241=ORIENTED_EDGE('',*,*,#468,.F.);
#242=ORIENTED_EDGE('',*,*,#469,.T.);
#243=ORIENTED_EDGE('',*,*,#470,.F.);
#244=ORIENTED_EDGE('',*,*,#471,.T.);
#245=CARTESIAN_POINT('',(0.05507367391223,0.00189877813722222,0.202386554399511));
#246=DIRECTION('',(1.87756532543659E-10,-1.29343783589084E-06,0.999999999999164));
#247=DIRECTION('',(1.0,9.27532808379637E-23,-1.87756532543816E-10));
#248=ORIENTED_EDGE('',*,*,#472,.F.);
#249=ORIENTED_EDGE('',*,*,#473,.F.);
#250=ORIENTED_EDGE('',*,*,#474,.T.);
#251=ORIENTED_EDGE('',*,*,#475,.T.);
#252=CARTESIAN_POINT('',(0.0801222451182715,0.0154642420272615,0.195551786073683));
#253=DIRECTION('',(5.11949335530686E-06,0.500001164462084,0.866024731465765));
#254=DIRECTION('',(0.707113050918993,0.6123647204687,-0.353554214152969));
#255=ORIENTED_EDGE('',*,*,#476,.F.);
#256=ORIENTED_EDGE('',*,*,#477,.F.);
#257=ORIENTED_EDGE('',*,*,#478,.T.);
#258=ORIENTED_EDGE('',*,*,#479,.T.);
#259=CARTESIAN_POINT('',(0.0781220540126488,-0.0032009888602709,0.198486547798949));
#260=DIRECTION('',(-1.8775653254369E-10,1.29343783589084E-06,-0.999999999999164));
#261=DIRECTION('',(0.707099541355581,-0.707114020942797,-9.14740791535131E-07));
#262=ORIENTED_EDGE('',*,*,#480,.F.);
#263=ORIENTED_EDGE('',*,*,#481,.T.);
#264=ORIENTED_EDGE('',*,*,#482,.T.);
#265=ORIENTED_EDGE('',*,*,#483,.F.);
#266=CARTESIAN_POINT('',(-0.061037945980017,-0.00319956405464604,0.19848654782692));
#267=DIRECTION('',(1.8775653254369E-10,-1.29343783589083E-06,0.999999999999164));
#268=DIRECTION('',(-0.707114020943384,-0.707099541354995,-9.14456535253685E-07));
#269=ORIENTED_EDGE('',*,*,#484,.F.);
#270=ORIENTED_EDGE('',*,*,#485,.F.);
#271=ORIENTED_EDGE('',*,*,#475,.F.);
#272=ORIENTED_EDGE('',*,*,#486,.T.);
#273=ORIENTED_EDGE('',*,*,#487,.F.);
#274=ORIENTED_EDGE('',*,*,#488,.F.);
#275=CARTESIAN_POINT('',(0.042076382813177,0.0188333597320135,0.201386576305779));
#276=DIRECTION('',(-0.999999999947585,1.0238614723651E-05,2.00999716870486E-10));
#277=DIRECTION('',(8.86700108114608E-06,0.866025416538523,0.499999977830654));
#278=ORIENTED_EDGE('',*,*,#489,.F.);
#279=ORIENTED_EDGE('',*,*,#487,.T.);
#280=ORIENTED_EDGE('',*,*,#490,.T.);
#281=ORIENTED_EDGE('',*,*,#491,.T.);
#282=CARTESIAN_POINT('',(-0.0630377548741847,0.0154657077873453,0.195551786102458));
#283=DIRECTION('',(-5.11949335461865E-06,-0.500001164462084,-0.866024731465765));
#284=DIRECTION('',(-0.70710051137998,0.612379200056506,-0.353554213868715));
#285=ORIENTED_EDGE('',*,*,#489,.T.);
#286=ORIENTED_EDGE('',*,*,#492,.T.);
#287=ORIENTED_EDGE('',*,*,#493,.T.);
#288=ORIENTED_EDGE('',*,*,#494,.T.);
#289=ORIENTED_EDGE('',*,*,#488,.T.);
#290=CARTESIAN_POINT('',(-0.0630377548741847,0.0154657077873453,0.195551786102458));
#291=DIRECTION('',(-5.11949335461865E-06,-0.500001164462084,-0.866024731465765));
#292=DIRECTION('',(-0.70710051137998,0.612379200056506,-0.353554213868715));
#293=ORIENTED_EDGE('',*,*,#495,.T.);
#294=ORIENTED_EDGE('',*,*,#459,.T.);
#295=ORIENTED_EDGE('',*,*,#491,.F.);
#296=ORIENTED_EDGE('',*,*,#496,.T.);
#297=ORIENTED_EDGE('',*,*,#473,.T.);
#298=ORIENTED_EDGE('',*,*,#497,.T.);
#299=ORIENTED_EDGE('',*,*,#498,.F.);
#300=ORIENTED_EDGE('',*,*,#499,.F.);
#301=ORIENTED_EDGE('',*,*,#479,.F.);
#302=ORIENTED_EDGE('',*,*,#500,.T.);
#303=ORIENTED_EDGE('',*,*,#481,.F.);
#304=ORIENTED_EDGE('',*,*,#501,.F.);
#305=ORIENTED_EDGE('',*,*,#502,.T.);
#306=ORIENTED_EDGE('',*,*,#492,.F.);
#307=ORIENTED_EDGE('',*,*,#503,.T.);
#308=ORIENTED_EDGE('',*,*,#467,.T.);
#309=CARTESIAN_POINT('',(0.0100762512883622,0.00598762444755924,0.198386559696625));
#310=DIRECTION('',(1.87756532543659E-10,-1.29343783589084E-06,0.999999999999164));
#311=DIRECTION('',(1.02386147230997E-05,0.999999999946749,1.29343783390067E-06));
#312=ORIENTED_EDGE('',*,*,#490,.F.);
#313=ORIENTED_EDGE('',*,*,#486,.F.);
#314=ORIENTED_EDGE('',*,*,#474,.F.);
#315=ORIENTED_EDGE('',*,*,#496,.F.);
#316=CARTESIAN_POINT('',(0.0740763786730413,0.0184288840924107,0.198686578254388));
#317=DIRECTION('',(-8.86679306658089E-06,-0.866024731420374,0.500001164488293));
#318=DIRECTION('',(5.11949335135764E-06,0.500001164462084,0.866024731465765));
#319=ORIENTED_EDGE('',*,*,#484,.T.);
#320=ORIENTED_EDGE('',*,*,#504,.F.);
#321=ORIENTED_EDGE('',*,*,#505,.T.);
#322=ORIENTED_EDGE('',*,*,#453,.F.);
#323=ORIENTED_EDGE('',*,*,#506,.F.);
#324=CARTESIAN_POINT('',(0.042076382813177,0.0188333597320135,0.201386576305779));
#325=DIRECTION('',(-0.999999999947585,1.0238614723651E-05,2.00999716870486E-10));
#326=DIRECTION('',(8.86700108114608E-06,0.866025416538523,0.499999977830654));
#327=ORIENTED_EDGE('',*,*,#494,.F.);
#328=ORIENTED_EDGE('',*,*,#507,.T.);
#329=ORIENTED_EDGE('',*,*,#508,.T.);
#330=ORIENTED_EDGE('',*,*,#509,.T.);
#331=ORIENTED_EDGE('',*,*,#504,.T.);
#332=CARTESIAN_POINT('',(-0.0630378519078307,0.0059883691543792,0.201386559711318));
#333=DIRECTION('',(-1.02386147229112E-05,-0.999999999946749,-1.29343783390067E-06));
#334=DIRECTION('',(1.8775259125307E-10,-1.29343783589079E-06,0.999999999999164));
#335=ORIENTED_EDGE('',*,*,#493,.F.);
#336=ORIENTED_EDGE('',*,*,#502,.F.);
#337=ORIENTED_EDGE('',*,*,#510,.F.);
#338=ORIENTED_EDGE('',*,*,#507,.F.);
#339=CARTESIAN_POINT('',(-0.0640378928627817,0.00198838314417666,0.198486554537771));
#340=DIRECTION('',(-0.999999999947585,1.02386147226598E-05,2.00999661359447E-10));
#341=DIRECTION('',(-1.02386147229112E-05,-0.999999999946749,-1.29343783302918E-06));
#342=ORIENTED_EDGE('',*,*,#480,.T.);
#343=ORIENTED_EDGE('',*,*,#511,.F.);
#344=ORIENTED_EDGE('',*,*,#510,.T.);
#345=ORIENTED_EDGE('',*,*,#501,.T.);
#346=CARTESIAN_POINT('',(-0.061037945980017,-0.00319956405464604,0.19848654782692));
#347=DIRECTION('',(1.8775653254369E-10,-1.29343783589083E-06,0.999999999999164));
#348=DIRECTION('',(-0.707114020943384,-0.707099541354995,-9.14456535253685E-07));
#349=ORIENTED_EDGE('',*,*,#476,.T.);
#350=ORIENTED_EDGE('',*,*,#499,.T.);
#351=ORIENTED_EDGE('',*,*,#512,.T.);
#352=ORIENTED_EDGE('',*,*,#513,.F.);
#353=CARTESIAN_POINT('',(0.0781220540126488,-0.0032009888602709,0.198486547798949));
#354=DIRECTION('',(-1.8775653254369E-10,1.29343783589084E-06,-0.999999999999164));
#355=DIRECTION('',(0.707099541355581,-0.707114020942797,-9.14740791535131E-07));
#356=ORIENTED_EDGE('',*,*,#472,.T.);
#357=ORIENTED_EDGE('',*,*,#485,.T.);
#358=ORIENTED_EDGE('',*,*,#514,.F.);
#359=ORIENTED_EDGE('',*,*,#515,.T.);
#360=ORIENTED_EDGE('',*,*,#497,.F.);
#361=CARTESIAN_POINT('',(0.0801222451182715,0.0154642420272615,0.195551786073683));
#362=DIRECTION('',(5.11949335530686E-06,0.500001164462084,0.866024731465765));
#363=DIRECTION('',(0.707113050918993,0.6123647204687,-0.353554214152969));
#364=ORIENTED_EDGE('',*,*,#516,.F.);
#365=ORIENTED_EDGE('',*,*,#512,.F.);
#366=ORIENTED_EDGE('',*,*,#498,.T.);
#367=ORIENTED_EDGE('',*,*,#515,.F.);
#368=CARTESIAN_POINT('',(0.0811221071295696,0.00198689690686348,0.198486554508593));
#369=DIRECTION('',(0.999999999947585,-1.0238614723651E-05,-2.00999716870598E-10));
#370=DIRECTION('',(1.02386147239024E-05,0.999999999946749,1.29343783302919E-06));
#371=ORIENTED_EDGE('',*,*,#468,.T.);
#372=ORIENTED_EDGE('',*,*,#517,.T.);
#373=ORIENTED_EDGE('',*,*,#470,.T.);
#374=ORIENTED_EDGE('',*,*,#465,.T.);
#375=CARTESIAN_POINT('',(0.05507367391223,0.00189877813722222,0.202386554399511));
#376=DIRECTION('',(1.87756532543659E-10,-1.29343783589084E-06,0.999999999999164));
#377=DIRECTION('',(1.0,9.27532808379637E-23,-1.87756532543816E-10));
#378=ORIENTED_EDGE('',*,*,#463,.F.);
#379=ORIENTED_EDGE('',*,*,#518,.F.);
#380=ORIENTED_EDGE('',*,*,#519,.F.);
#381=ORIENTED_EDGE('',*,*,#520,.F.);
#382=ORIENTED_EDGE('',*,*,#521,.F.);
#383=ORIENTED_EDGE('',*,*,#454,.F.);
#384=ORIENTED_EDGE('',*,*,#505,.F.);
#385=ORIENTED_EDGE('',*,*,#509,.F.);
#386=ORIENTED_EDGE('',*,*,#471,.F.);
#387=ORIENTED_EDGE('',*,*,#517,.F.);
#388=CARTESIAN_POINT('',(0.0100762512891133,0.00598761927380791,0.202386559696622));
#389=DIRECTION('',(1.87756532543659E-10,-1.29343783589084E-06,0.999999999999164));
#390=DIRECTION('',(1.02386147230997E-05,0.999999999946749,1.29343783390067E-06));
#391=ORIENTED_EDGE('',*,*,#464,.T.);
#392=ORIENTED_EDGE('',*,*,#503,.F.);
#393=ORIENTED_EDGE('',*,*,#466,.T.);
#394=ORIENTED_EDGE('',*,*,#469,.F.);
#395=CARTESIAN_POINT('',(0.055073673911479,0.00189878331097357,0.198386554399515));
#396=DIRECTION('',(1.87756810099415E-10,-1.29343783589084E-06,0.999999999999163));
#397=DIRECTION('',(-1.0,-6.49749795307118E-21,1.87756810099572E-10));
#398=ORIENTED_EDGE('',*,*,#460,.T.);
#399=ORIENTED_EDGE('',*,*,#518,.T.);
#400=ORIENTED_EDGE('',*,*,#462,.T.);
#401=ORIENTED_EDGE('',*,*,#457,.T.);
#402=CARTESIAN_POINT('',(-0.0378851663940166,0.00190065035843707,0.202386554419387));
#403=DIRECTION('',(1.87756532543659E-10,-1.29343783589084E-06,0.999999999999164));
#404=DIRECTION('',(1.0,1.02768660366725E-20,-1.87756532543816E-10));
#405=ORIENTED_EDGE('',*,*,#456,.T.);
#406=ORIENTED_EDGE('',*,*,#495,.F.);
#407=ORIENTED_EDGE('',*,*,#458,.T.);
#408=ORIENTED_EDGE('',*,*,#461,.F.);
#409=CARTESIAN_POINT('',(-0.0378851663947677,0.00190065553218842,0.19838655441939));
#410=DIRECTION('',(1.87756976632869E-10,-1.29343783589084E-06,0.999999999999163));
#411=DIRECTION('',(-1.0,-1.19987464145164E-20,1.87756976633026E-10));
#412=ORIENTED_EDGE('',*,*,#508,.F.);
#413=ORIENTED_EDGE('',*,*,#511,.T.);
#414=ORIENTED_EDGE('',*,*,#483,.T.);
#415=ORIENTED_EDGE('',*,*,#522,.T.);
#416=ORIENTED_EDGE('',*,*,#519,.T.);
#417=CARTESIAN_POINT('',(-0.0610379459794726,-0.00319956780561578,0.201386547826918));
#418=DIRECTION('',(-1.87756532543659E-10,1.29343783589084E-06,-0.999999999999164));
#419=DIRECTION('',(-1.0,-2.11758257115055E-21,1.87756532543816E-10));
#420=ORIENTED_EDGE('',*,*,#522,.F.);
#421=ORIENTED_EDGE('',*,*,#523,.T.);
#422=ORIENTED_EDGE('',*,*,#524,.T.);
#423=ORIENTED_EDGE('',*,*,#520,.T.);
#424=CARTESIAN_POINT('',(0.0100761367401591,-0.00520029591541328,0.201386545225748));
#425=DIRECTION('',(0.999999999947585,-1.02386147228508E-05,-2.00999605848295E-10));
#426=DIRECTION('',(1.87756594187176E-10,-1.293437836003E-06,0.999999999999164));
#427=ORIENTED_EDGE('',*,*,#524,.F.);
#428=ORIENTED_EDGE('',*,*,#477,.T.);
#429=ORIENTED_EDGE('',*,*,#513,.T.);
#430=ORIENTED_EDGE('',*,*,#525,.T.);
#431=ORIENTED_EDGE('',*,*,#455,.T.);
#432=ORIENTED_EDGE('',*,*,#521,.T.);
#433=CARTESIAN_POINT('',(0.0781220540131933,-0.0032009926112406,0.201386547798947));
#434=DIRECTION('',(-1.87756532543659E-10,1.29343783589084E-06,-0.999999999999164));
#435=DIRECTION('',(-1.0,-2.11758257115055E-21,1.87756532543816E-10));
#436=ORIENTED_EDGE('',*,*,#452,.T.);
#437=ORIENTED_EDGE('',*,*,#525,.F.);
#438=ORIENTED_EDGE('',*,*,#516,.T.);
#439=ORIENTED_EDGE('',*,*,#514,.T.);
#440=ORIENTED_EDGE('',*,*,#506,.T.);
#441=CARTESIAN_POINT('',(0.080122127607396,0.00398690339440197,0.201386557095668));
#442=DIRECTION('',(-1.02386147239024E-05,-0.999999999946749,-1.29343783390067E-06));
#443=DIRECTION('',(0.707106781282248,-8.15439256585172E-06,0.707106781043829));
#444=ORIENTED_EDGE('',*,*,#482,.F.);
#445=ORIENTED_EDGE('',*,*,#500,.F.);
#446=ORIENTED_EDGE('',*,*,#478,.F.);
#447=ORIENTED_EDGE('',*,*,#523,.F.);
#448=CARTESIAN_POINT('',(0.0105761265009736,-0.0062002972836977,0.198486543932212));
#449=DIRECTION('',(-1.02386147231022E-05,-0.999999999946749,-1.29343783390067E-06));
#450=DIRECTION('',(0.999999999947585,-1.02386147228508E-05,-2.00999605848295E-10));
#451=COLOUR_RGB('',0.560784339904785,0.560784339904785,0.686274528503418);
#452=EDGE_CURVE('',#526,#527,#528,.T.);
#453=EDGE_CURVE('1:5570',#526,#529,#530,.T.);
#454=EDGE_CURVE('1:5630',#529,#531,#532,.T.);
#455=EDGE_CURVE('1:5645',#527,#531,#533,.T.);
#456=EDGE_CURVE('',#534,#535,#536,.T.);
#457=EDGE_CURVE('1:5633',#537,#534,#538,.T.);
#458=EDGE_CURVE('',#539,#537,#540,.T.);
#459=EDGE_CURVE('1:5531',#535,#539,#541,.T.);
#460=EDGE_CURVE('',#534,#542,#543,.T.);
#461=EDGE_CURVE('1:5633',#534,#537,#544,.T.);
#462=EDGE_CURVE('',#545,#537,#546,.T.);
#463=EDGE_CURVE('1:5618',#545,#542,#547,.T.);
#464=EDGE_CURVE('',#548,#549,#550,.T.);
#465=EDGE_CURVE('1:5615',#551,#548,#552,.T.);
#466=EDGE_CURVE('',#553,#551,#554,.T.);
#467=EDGE_CURVE('1:5555',#549,#553,#555,.T.);
#468=EDGE_CURVE('',#548,#556,#557,.T.);
#469=EDGE_CURVE('1:5615',#548,#551,#558,.T.);
#470=EDGE_CURVE('',#559,#551,#560,.T.);
#471=EDGE_CURVE('1:5612',#559,#556,#561,.T.);
#472=EDGE_CURVE('',#562,#563,#564,.T.);
#473=EDGE_CURVE('1:5537',#565,#562,#566,.F.);
#474=EDGE_CURVE('1:5561',#565,#567,#568,.T.);
#475=EDGE_CURVE('1:5573',#567,#563,#569,.T.);
#476=EDGE_CURVE('',#570,#571,#572,.T.);
#477=EDGE_CURVE('1:5594',#573,#570,#574,.T.);
#478=EDGE_CURVE('1:5597',#573,#575,#576,.T.);
#479=EDGE_CURVE('1:5543',#575,#571,#577,.T.);
#480=EDGE_CURVE('',#578,#579,#580,.T.);
#481=EDGE_CURVE('1:5549',#578,#581,#582,.T.);
#482=EDGE_CURVE('1:5588',#581,#583,#584,.T.);
#483=EDGE_CURVE('1:5591',#579,#583,#585,.T.);
#484=EDGE_CURVE('',#586,#587,#588,.T.);
#485=EDGE_CURVE('1:5573',#563,#586,#589,.T.);
#486=EDGE_CURVE('1:5558',#567,#590,#591,.T.);
#487=EDGE_CURVE('1:5525',#592,#590,#593,.T.);
#488=EDGE_CURVE('1:5525',#587,#592,#594,.T.);
#489=EDGE_CURVE('',#592,#595,#596,.T.);
#490=EDGE_CURVE('1:5528',#590,#597,#598,.T.);
#491=EDGE_CURVE('1:5516',#597,#595,#599,.T.);
#492=EDGE_CURVE('1:5516',#595,#600,#601,.T.);
#493=EDGE_CURVE('1:5519',#600,#602,#603,.T.);
#494=EDGE_CURVE('1:5522',#602,#587,#604,.T.);
#495=EDGE_CURVE('1:5531',#539,#535,#605,.T.);
#496=EDGE_CURVE('1:5534',#597,#565,#606,.F.);
#497=EDGE_CURVE('1:5537',#562,#607,#608,.F.);
#498=EDGE_CURVE('1:5540',#609,#607,#610,.F.);
#499=EDGE_CURVE('1:5543',#571,#609,#611,.T.);
#500=EDGE_CURVE('1:5546',#575,#581,#612,.T.);
#501=EDGE_CURVE('1:5549',#613,#578,#614,.T.);
#502=EDGE_CURVE('1:5552',#613,#600,#615,.F.);
#503=EDGE_CURVE('1:5555',#553,#549,#616,.T.);
#504=EDGE_CURVE('1:5564',#617,#587,#618,.T.);
#505=EDGE_CURVE('1:5567',#617,#529,#619,.T.);
#506=EDGE_CURVE('1:5570',#586,#526,#620,.T.);
#507=EDGE_CURVE('1:5576',#602,#621,#622,.T.);
#508=EDGE_CURVE('1:5579',#621,#623,#624,.T.);
#509=EDGE_CURVE('1:5582',#623,#617,#625,.T.);
#510=EDGE_CURVE('1:5585',#621,#613,#626,.T.);
#511=EDGE_CURVE('1:5591',#621,#579,#627,.T.);
#512=EDGE_CURVE('1:5600',#609,#628,#629,.T.);
#513=EDGE_CURVE('1:5594',#570,#628,#630,.T.);
#514=EDGE_CURVE('1:5603',#631,#586,#632,.T.);
#515=EDGE_CURVE('1:5606',#631,#607,#633,.T.);
#516=EDGE_CURVE('1:5609',#628,#631,#634,.T.);
#517=EDGE_CURVE('1:5612',#556,#559,#635,.T.);
#518=EDGE_CURVE('1:5618',#542,#545,#636,.T.);
#519=EDGE_CURVE('1:5621',#637,#623,#638,.T.);
#520=EDGE_CURVE('1:5624',#639,#637,#640,.T.);
#521=EDGE_CURVE('1:5627',#531,#639,#641,.T.);
#522=EDGE_CURVE('1:5636',#583,#637,#642,.T.);
#523=EDGE_CURVE('1:5639',#583,#573,#643,.T.);
#524=EDGE_CURVE('1:5642',#573,#639,#644,.T.);
#525=EDGE_CURVE('1:5645',#628,#527,#645,.T.);
#526=VERTEX_POINT('',#646);
#527=VERTEX_POINT('',#647);
#528=LINE('',#648,#649);
#529=VERTEX_POINT('',#650);
#530=ELLIPSE('',#651,0.0014142135623731,0.001);
#531=VERTEX_POINT('',#652);
#532=LINE('',#653,#654);
#533=CIRCLE('',#655,0.000999999999999985);
#534=VERTEX_POINT('',#656);
#535=VERTEX_POINT('',#657);
#536=LINE('',#658,#659);
#537=VERTEX_POINT('',#660);
#538=CIRCLE('',#661,0.00185);
#539=VERTEX_POINT('',#662);
#540=LINE('',#663,#664);
#541=CIRCLE('',#665,0.00185);
#542=VERTEX_POINT('',#666);
#543=LINE('',#667,#668);
#544=CIRCLE('',#669,0.00185);
#545=VERTEX_POINT('',#670);
#546=LINE('',#671,#672);
#547=CIRCLE('',#673,0.00385000000000001);
#548=VERTEX_POINT('',#674);
#549=VERTEX_POINT('',#675);
#550=LINE('',#676,#677);
#551=VERTEX_POINT('',#678);
#552=CIRCLE('',#679,0.00185);
#553=VERTEX_POINT('',#680);
#554=LINE('',#681,#682);
#555=CIRCLE('',#683,0.00184999999999999);
#556=VERTEX_POINT('',#684);
#557=LINE('',#685,#686);
#558=CIRCLE('',#687,0.00185);
#559=VERTEX_POINT('',#688);
#560=LINE('',#689,#690);
#561=CIRCLE('',#691,0.00385);
#562=VERTEX_POINT('',#692);
#563=VERTEX_POINT('',#693);
#564=LINE('',#694,#695);
#565=VERTEX_POINT('',#696);
#566=ELLIPSE('',#697,0.00115470229710169,0.001);
#567=VERTEX_POINT('',#698);
#568=LINE('',#699,#700);
#569=ELLIPSE('',#701,0.00141421356237309,0.001);
#570=VERTEX_POINT('',#702);
#571=VERTEX_POINT('',#703);
#572=LINE('',#704,#705);
#573=VERTEX_POINT('',#706);
#574=CIRCLE('',#707,0.003);
#575=VERTEX_POINT('',#708);
#576=LINE('',#709,#710);
#577=CIRCLE('',#711,0.003);
#578=VERTEX_POINT('',#712);
#579=VERTEX_POINT('',#713);
#580=LINE('',#714,#715);
#581=VERTEX_POINT('',#716);
#582=CIRCLE('',#717,0.003);
#583=VERTEX_POINT('',#718);
#584=LINE('',#719,#720);
#585=CIRCLE('',#721,0.003);
#586=VERTEX_POINT('',#722);
#587=VERTEX_POINT('',#723);
#588=LINE('',#724,#725);
#589=ELLIPSE('',#726,0.00141421356237309,0.001);
#590=VERTEX_POINT('',#727);
#591=LINE('',#728,#729);
#592=VERTEX_POINT('',#730);
#593=ELLIPSE('',#731,0.00141421356237311,0.001);
#594=ELLIPSE('',#732,0.00141421356237311,0.001);
#595=VERTEX_POINT('',#733);
#596=LINE('',#734,#735);
#597=VERTEX_POINT('',#736);
#598=LINE('',#737,#738);
#599=ELLIPSE('',#739,0.00115470229710169,0.001);
#600=VERTEX_POINT('',#740);
#601=ELLIPSE('',#741,0.00115470229710169,0.001);
#602=VERTEX_POINT('',#742);
#603=LINE('',#743,#744);
#604=ELLIPSE('',#745,0.00200000456928974,0.001);
#605=CIRCLE('',#746,0.00185);
#606=LINE('',#747,#748);
#607=VERTEX_POINT('',#749);
#608=ELLIPSE('',#750,0.00115470229710169,0.001);
#609=VERTEX_POINT('',#751);
#610=LINE('',#752,#753);
#611=CIRCLE('',#754,0.003);
#612=LINE('',#755,#756);
#613=VERTEX_POINT('',#757);
#614=CIRCLE('',#758,0.003);
#615=LINE('',#759,#760);
#616=CIRCLE('',#761,0.00184999999999999);
#617=VERTEX_POINT('',#762);
#618=ELLIPSE('',#763,0.00141421356237311,0.001);
#619=LINE('',#764,#765);
#620=ELLIPSE('',#766,0.0014142135623731,0.001);
#621=VERTEX_POINT('',#767);
#622=LINE('',#768,#769);
#623=VERTEX_POINT('',#770);
#624=CIRCLE('',#771,0.000999999999999999);
#625=LINE('',#772,#773);
#626=LINE('',#774,#775);
#627=CIRCLE('',#776,0.003);
#628=VERTEX_POINT('',#777);
#629=LINE('',#778,#779);
#630=CIRCLE('',#780,0.003);
#631=VERTEX_POINT('',#781);
#632=ELLIPSE('',#782,0.00200000456928968,0.001);
#633=LINE('',#783,#784);
#634=LINE('',#785,#786);
#635=CIRCLE('',#787,0.00385);
#636=CIRCLE('',#788,0.00385000000000001);
#637=VERTEX_POINT('',#789);
#638=CIRCLE('',#790,0.002);
#639=VERTEX_POINT('',#791);
#640=LINE('',#792,#793);
#641=CIRCLE('',#794,0.002);
#642=CIRCLE('',#795,0.001);
#643=LINE('',#796,#797);
#644=CIRCLE('',#798,0.001);
#645=CIRCLE('',#799,0.000999999999999985);
#646=CARTESIAN_POINT('',(0.0808293936316303,0.0195400688214907,0.202093683993775));
#647=CARTESIAN_POINT('',(0.0808291607943707,-0.00320102124286263,0.202093654579588));
#648=CARTESIAN_POINT('',(0.0808292343886782,0.0039868952400094,0.202093663876711));
#649=VECTOR('',#800,1.0);
#650=CARTESIAN_POINT('',(0.0801222796107419,0.0188329689012965,0.202386576298131));
#651=AXIS2_PLACEMENT_3D('',#801,#802,#803);
#652=CARTESIAN_POINT('',(0.0801220540132762,-0.00320101438190788,0.202386547798544));
#653=CARTESIAN_POINT('',(0.0801221276075837,0.00398690210096413,0.202386557095667));
#654=VECTOR('',#804,1.0);
#655=AXIS2_PLACEMENT_3D('',#805,#806,#807);
#656=CARTESIAN_POINT('',(-0.0360351663943921,0.00190065294531274,0.200386554419041));
#657=CARTESIAN_POINT('',(-0.0360351663947677,0.00190065553218842,0.198386554419042));
#658=CARTESIAN_POINT('',(-0.0360351663947677,0.00190065553218842,0.198386554419042));
#659=VECTOR('',#808,1.0);
#660=CARTESIAN_POINT('',(-0.0397351663943921,0.00190065294531275,0.200386554419736));
#661=AXIS2_PLACEMENT_3D('',#809,#810,#811);
#662=CARTESIAN_POINT('',(-0.0397351663947677,0.00190065553218842,0.198386554419737));
#663=CARTESIAN_POINT('',(-0.0397351663947677,0.00190065553218842,0.198386554419737));
#664=VECTOR('',#812,1.0);
#665=AXIS2_PLACEMENT_3D('',#813,#814,#815);
#666=CARTESIAN_POINT('',(-0.0340351663940166,0.00190065035843707,0.202386554418664));
#667=CARTESIAN_POINT('',(-0.0340351663940166,0.00190065035843707,0.202386554418664));
#668=VECTOR('',#816,1.0);
#669=AXIS2_PLACEMENT_3D('',#817,#818,#819);
#670=CARTESIAN_POINT('',(-0.0417351663940166,0.00190065035843708,0.202386554420109));
#671=CARTESIAN_POINT('',(-0.0417351663940166,0.00190065035843707,0.202386554420109));
#672=VECTOR('',#820,1.0);
#673=AXIS2_PLACEMENT_3D('',#821,#822,#823);
#674=CARTESIAN_POINT('',(0.0569236739118545,0.0018987807240979,0.200386554399166));
#675=CARTESIAN_POINT('',(0.056923673911479,0.00189878331097357,0.198386554399167));
#676=CARTESIAN_POINT('',(0.056923673911479,0.00189878331097357,0.198386554399167));
#677=VECTOR('',#824,1.0);
#678=CARTESIAN_POINT('',(0.0532236739118545,0.00189878072409788,0.20038655439986));
#679=AXIS2_PLACEMENT_3D('',#825,#826,#827);
#680=CARTESIAN_POINT('',(0.053223673911479,0.00189878331097356,0.198386554399862));
#681=CARTESIAN_POINT('',(0.053223673911479,0.00189878331097357,0.198386554399862));
#682=VECTOR('',#828,1.0);
#683=AXIS2_PLACEMENT_3D('',#829,#830,#831);
#684=CARTESIAN_POINT('',(0.05892367391223,0.00189877813722222,0.202386554398788));
#685=CARTESIAN_POINT('',(0.05892367391223,0.00189877813722222,0.202386554398788));
#686=VECTOR('',#832,1.0);
#687=AXIS2_PLACEMENT_3D('',#833,#834,#835);
#688=CARTESIAN_POINT('',(0.05122367391223,0.00189877813722221,0.202386554400234));
#689=CARTESIAN_POINT('',(0.05122367391223,0.00189877813722222,0.202386554400234));
#690=VECTOR('',#836,1.0);
#691=AXIS2_PLACEMENT_3D('',#837,#838,#839);
#692=CARTESIAN_POINT('',(0.0808293770170381,0.0179174032999555,0.198386575113768));
#693=CARTESIAN_POINT('',(0.0808293962815016,0.0197988891291953,0.201645394044274));
#694=CARTESIAN_POINT('',(0.0808293861825087,0.0188125594565024,0.199937026243072));
#695=VECTOR('',#840,1.0);
#696=CARTESIAN_POINT('',(0.0801222736986339,0.0182556150123008,0.198386575551357));
#697=AXIS2_PLACEMENT_3D('',#841,#842,#843);
#698=CARTESIAN_POINT('',(0.0801222884773472,0.0196989949261547,0.200886575133644));
#699=CARTESIAN_POINT('',(0.0801222539850646,0.0163302667586818,0.195051784909194));
#700=VECTOR('',#844,1.0);
#701=AXIS2_PLACEMENT_3D('',#845,#846,#847);
#702=CARTESIAN_POINT('',(0.08024335263726,-0.005322334674069,0.201386545054724));
#703=CARTESIAN_POINT('',(0.0802433526366968,-0.00532233079375551,0.198386545054727));
#704=CARTESIAN_POINT('',(0.0802433526369784,-0.00532233273391226,0.199886545054725));
#705=VECTOR('',#848,1.0);
#706=CARTESIAN_POINT('',(0.0781220232973491,-0.00620099261108083,0.201386543918633));
#707=AXIS2_PLACEMENT_3D('',#849,#850,#851);
#708=CARTESIAN_POINT('',(0.0781220232967859,-0.00620098873076734,0.198386543918636));
#709=CARTESIAN_POINT('',(0.0781220232968046,-0.00620098886011113,0.198486543918635));
#710=VECTOR('',#852,1.0);
#711=AXIS2_PLACEMENT_3D('',#853,#854,#855);
#712=CARTESIAN_POINT('',(-0.063159288042866,-0.00532086254936725,0.198386545083551));
#713=CARTESIAN_POINT('',(-0.0631592880423027,-0.00532086642968076,0.201386545083548));
#714=CARTESIAN_POINT('',(-0.0631592880425843,-0.00532086448952399,0.199886545083549));
#715=VECTOR('',#856,1.0);
#716=CARTESIAN_POINT('',(-0.06103797669588,-0.00619956392514248,0.198386543946607));
#717=AXIS2_PLACEMENT_3D('',#857,#858,#859);
#718=CARTESIAN_POINT('',(-0.0610379766953167,-0.00619956780545601,0.201386543946604));
#719=CARTESIAN_POINT('',(-0.0610379766958612,-0.00619956405448628,0.198486543946607));
#720=VECTOR('',#860,1.0);
#721=AXIS2_PLACEMENT_3D('',#861,#862,#863);
#722=CARTESIAN_POINT('',(0.0809883145408119,0.0196989867443656,0.201886576275789));
#723=CARTESIAN_POINT('',(-0.0639037375781576,0.0197004702382639,0.201886576304912));
#724=CARTESIAN_POINT('',(0.042076391680178,0.019699385148552,0.20188657628361));
#725=VECTOR('',#864,1.0);
#726=AXIS2_PLACEMENT_3D('',#865,#866,#867);
#727=CARTESIAN_POINT('',(-0.063037711515109,0.0197004606862385,0.200886575162419));
#728=CARTESIAN_POINT('',(0.04207639167997,0.0196993844634338,0.200886575141291));
#729=VECTOR('',#868,1.0);
#730=CARTESIAN_POINT('',(-0.0637448172732536,0.019800369368867,0.201645394073333));
#731=AXIS2_PLACEMENT_3D('',#869,#870,#871);
#732=AXIS2_PLACEMENT_3D('',#872,#873,#874);
#733=CARTESIAN_POINT('',(-0.0637448365377171,0.0179188835396271,0.198386575142827));
#734=CARTESIAN_POINT('',(-0.0637448273722334,0.0188140409760815,0.199937028488989));
#735=VECTOR('',#875,1.0);
#736=CARTESIAN_POINT('',(-0.0630377262938223,0.0182570807723847,0.198386575580132));
#737=CARTESIAN_POINT('',(-0.0630377460073916,0.0163317325187657,0.195051784937969));
#738=VECTOR('',#876,1.0);
#739=AXIS2_PLACEMENT_3D('',#877,#878,#879);
#740=CARTESIAN_POINT('',(-0.0640377381163219,0.0171023887139592,0.198386574086797));
#741=AXIS2_PLACEMENT_3D('',#880,#881,#882);
#742=CARTESIAN_POINT('',(-0.0640377203818496,0.0188344461934329,0.201386576327108));
#743=CARTESIAN_POINT('',(-0.0640377548741323,0.01546571802596,0.195551786102659));
#744=VECTOR('',#883,1.0);
#745=AXIS2_PLACEMENT_3D('',#884,#885,#886);
#746=AXIS2_PLACEMENT_3D('',#887,#888,#889);
#747=CARTESIAN_POINT('',(0.0420763769012567,0.01825600454958,0.198386575559004));
#748=VECTOR('',#890,1.0);
#749=CARTESIAN_POINT('',(0.0811222618760295,0.0171009024766459,0.19838657405762));
#750=AXIS2_PLACEMENT_3D('',#891,#892,#893);
#751=CARTESIAN_POINT('',(0.0811220540124728,-0.00320101944677126,0.198386547798346));
#752=CARTESIAN_POINT('',(0.0811221276067804,0.00398689703610076,0.198386557095469));
#753=VECTOR('',#894,1.0);
#754=AXIS2_PLACEMENT_3D('',#895,#896,#897);
#755=CARTESIAN_POINT('',(0.010326126500968,-0.00620029459470021,0.198386543932262));
#756=VECTOR('',#898,1.0);
#757=CARTESIAN_POINT('',(-0.0640379459798786,-0.00319953320945811,0.198386547827523));
#758=AXIS2_PLACEMENT_3D('',#899,#900,#901);
#759=CARTESIAN_POINT('',(-0.064037872385571,0.00398838327341395,0.198386557124646));
#760=VECTOR('',#902,1.0);
#761=AXIS2_PLACEMENT_3D('',#903,#904,#905);
#762=CARTESIAN_POINT('',(-0.0630377203817143,0.0188344346613803,0.202386576326906));
#763=AXIS2_PLACEMENT_3D('',#906,#907,#908);
#764=CARTESIAN_POINT('',(0.0420763828133647,0.0188333584385756,0.202386576305779));
#765=VECTOR('',#909,1.0);
#766=AXIS2_PLACEMENT_3D('',#910,#911,#912);
#767=CARTESIAN_POINT('',(-0.0640379459793939,-0.0031995524476937,0.201386547827501));
#768=CARTESIAN_POINT('',(-0.0640378519077783,0.00598837939299392,0.201386559711519));
#769=VECTOR('',#913,0.001);
#770=CARTESIAN_POINT('',(-0.0630379459792324,-0.00319955886043892,0.202386547827306));
#771=AXIS2_PLACEMENT_3D('',#914,#915,#916);
#772=CARTESIAN_POINT('',(-0.063037851907643,0.00598836786094136,0.202386559711318));
#773=VECTOR('',#917,0.001);
#774=CARTESIAN_POINT('',(-0.0640379459798598,-0.00319953333880189,0.198486547827523));
#775=VECTOR('',#918,1.0);
#776=AXIS2_PLACEMENT_3D('',#919,#920,#921);
#777=CARTESIAN_POINT('',(0.081122054013036,-0.00320102332708479,0.201386547798344));
#778=CARTESIAN_POINT('',(0.0811220540124915,-0.00320101957611506,0.198486547798346));
#779=VECTOR('',#922,1.0);
#780=AXIS2_PLACEMENT_3D('',#923,#924,#925);
#781=CARTESIAN_POINT('',(0.0811222796105017,0.0188329599561196,0.201386576297931));
#782=AXIS2_PLACEMENT_3D('',#926,#927,#928);
#783=CARTESIAN_POINT('',(0.0811222451182191,0.0154642317886468,0.195551786073482));
#784=VECTOR('',#929,1.0);
#785=CARTESIAN_POINT('',(0.0811221276073436,0.00398689315578724,0.201386557095467));
#786=VECTOR('',#930,1.0);
#787=AXIS2_PLACEMENT_3D('',#931,#932,#933);
#788=AXIS2_PLACEMENT_3D('',#934,#935,#936);
#789=CARTESIAN_POINT('',(-0.0610379664565143,-0.0051995690989471,0.202386545240041));
#790=AXIS2_PLACEMENT_3D('',#937,#938,#939);
#791=CARTESIAN_POINT('',(0.078122033536152,-0.00520099390457193,0.20238654521207));
#792=CARTESIAN_POINT('',(0.0100761367403468,-0.00520029720885112,0.202386545225747));
#793=VECTOR('',#940,0.001);
#794=AXIS2_PLACEMENT_3D('',#941,#942,#943);
#795=AXIS2_PLACEMENT_3D('',#944,#945,#946);
#796=CARTESIAN_POINT('',(0.0100761265015444,-0.00620029591536006,0.20138654393231));
#797=VECTOR('',#947,0.001);
#798=AXIS2_PLACEMENT_3D('',#948,#949,#950);
#799=AXIS2_PLACEMENT_3D('',#951,#952,#953);
#800=DIRECTION('',(-1.02386147239024E-05,-0.999999999946749,-1.29343783390067E-06));
#801=CARTESIAN_POINT('',(0.0801222796105541,0.0188329701947343,0.201386576298132));
#802=DIRECTION('',(0.707099541355588,-0.70711402094279,-9.14740788948709E-07));
#803=DIRECTION('',(0.707114020943382,0.707099541354996,9.14456537474342E-07));
#804=DIRECTION('',(-1.02386147239024E-05,-0.999999999946749,-1.29343783390067E-06));
#805=CARTESIAN_POINT('',(0.0801220540130884,-0.00320101308847005,0.201386547798545));
#806=DIRECTION('',(-1.02386147241658E-05,-0.999999999946749,-1.29343783412437E-06));
#807=DIRECTION('',(0.999999999947585,-1.02386147239143E-05,-2.01005878608483E-10));
#808=DIRECTION('',(-1.87756976632869E-10,1.29343783589084E-06,-0.999999999999164));
#809=CARTESIAN_POINT('',(-0.0378851663943921,0.00190065294531274,0.200386554419388));
#810=DIRECTION('',(-1.87756532543659E-10,1.29343783589084E-06,-0.999999999999163));
#811=DIRECTION('',(1.0,4.05636445832402E-18,-1.87756532543811E-10));
#812=DIRECTION('',(1.87756976632869E-10,-1.29343783589084E-06,0.999999999999164));
#813=CARTESIAN_POINT('',(-0.0378851663947677,0.00190065553218842,0.19838655441939));
#814=DIRECTION('',(1.87756976632869E-10,-1.29343783589084E-06,0.999999999999163));
#815=DIRECTION('',(-1.0,-1.19987464145164E-20,1.87756976633026E-10));
#816=DIRECTION('',(0.707106781319312,-9.14598664881315E-07,0.707106781053192));
#817=CARTESIAN_POINT('',(-0.0378851663943921,0.00190065294531274,0.200386554419388));
#818=DIRECTION('',(-1.87756532543659E-10,1.29343783589084E-06,-0.999999999999163));
#819=DIRECTION('',(1.0,4.05636445832402E-18,-1.87756532543811E-10));
#820=DIRECTION('',(0.707106781053783,9.14598664722011E-07,-0.70710678131872));
#821=CARTESIAN_POINT('',(-0.0378851663940166,0.00190065035843707,0.202386554419387));
#822=DIRECTION('',(1.87756532543659E-10,-1.29343783589084E-06,0.999999999999164));
#823=DIRECTION('',(1.0,9.63757350123765E-21,-1.87756532543816E-10));
#824=DIRECTION('',(-1.87756810099415E-10,1.29343783589084E-06,-0.999999999999164));
#825=CARTESIAN_POINT('',(0.0550736739118545,0.00189878072409788,0.200386554399513));
#826=DIRECTION('',(-1.87756532543659E-10,1.29343783589084E-06,-0.999999999999163));
#827=DIRECTION('',(1.0,4.03669097348495E-18,-1.87756532543811E-10));
#828=DIRECTION('',(1.87756810099415E-10,-1.29343783589084E-06,0.999999999999164));
#829=CARTESIAN_POINT('',(0.055073673911479,0.00189878331097357,0.198386554399515));
#830=DIRECTION('',(1.87756810099415E-10,-1.29343783589084E-06,0.999999999999163));
#831=DIRECTION('',(-1.0,-6.49749795307118E-21,1.87756810099572E-10));
#832=DIRECTION('',(0.707106781319312,-9.14598664881315E-07,0.707106781053192));
#833=CARTESIAN_POINT('',(0.0550736739118545,0.00189878072409788,0.200386554399513));
#834=DIRECTION('',(-1.87756532543659E-10,1.29343783589084E-06,-0.999999999999163));
#835=DIRECTION('',(1.0,4.03669097348495E-18,-1.87756532543811E-10));
#836=DIRECTION('',(0.707106781053783,9.14598664722011E-07,-0.707106781318721));
#837=CARTESIAN_POINT('',(0.05507367391223,0.00189877813722222,0.202386554399511));
#838=DIRECTION('',(1.87756532543659E-10,-1.29343783589084E-06,0.999999999999164));
#839=DIRECTION('',(1.0,-3.44669717544713E-23,-1.87756532543816E-10));
#840=DIRECTION('',(5.11949335524342E-06,0.500001164462084,0.866024731465765));
#841=CARTESIAN_POINT('',(0.0801222618760819,0.0171009127152606,0.198386574057821));
#842=DIRECTION('',(1.87756532543659E-10,-1.29343783589084E-06,0.999999999999164));
#843=DIRECTION('',(1.02386147240383E-05,0.999999999946749,1.29343783390067E-06));
#844=DIRECTION('',(5.11949335524342E-06,0.500001164462084,0.866024731465765));
#845=CARTESIAN_POINT('',(0.0801222796105541,0.0188329701947343,0.201386576298132));
#846=DIRECTION('',(0.707103161121016,-0.353561453786206,-0.612371960436834));
#847=DIRECTION('',(0.707110401177954,0.353546974198415,0.612371960152569));
#848=DIRECTION('',(-1.87756532543659E-10,1.29343783589084E-06,-0.999999999999164));
#849=CARTESIAN_POINT('',(0.0781220540131933,-0.0032009926112406,0.201386547798947));
#850=DIRECTION('',(1.8775653254369E-10,-1.29343783589084E-06,0.999999999999164));
#851=DIRECTION('',(0.356812525123515,-0.934176012276873,-1.20836559354403E-06));
#852=DIRECTION('',(-1.87756532543659E-10,1.29343783589083E-06,-0.999999999999164));
#853=CARTESIAN_POINT('',(0.07812205401263,-0.00320098873092711,0.198386547798949));
#854=DIRECTION('',(1.8775653254369E-10,-1.29343783589084E-06,0.999999999999164));
#855=DIRECTION('',(0.707099541355581,-0.707114020942797,-9.14740791535132E-07));
#856=DIRECTION('',(1.87756532543659E-10,-1.29343783589083E-06,0.999999999999164));
#857=CARTESIAN_POINT('',(-0.0610379459800358,-0.00319956392530228,0.19838654782692));
#858=DIRECTION('',(1.877565325436E-10,-1.29343783589084E-06,0.999999999999164));
#859=DIRECTION('',(-0.707114020943384,-0.707099541354995,-9.14456535253686E-07));
#860=DIRECTION('',(1.87756532543659E-10,-1.29343783589084E-06,0.999999999999164));
#861=CARTESIAN_POINT('',(-0.0610379459794726,-0.00319956780561578,0.201386547826918));
#862=DIRECTION('',(1.8775653254369E-10,-1.29343783589084E-06,0.999999999999164));
#863=DIRECTION('',(-0.934176012277655,-0.356812525123216,-4.61339422665652E-07));
#864=DIRECTION('',(-0.999999999947585,1.0238614723651E-05,2.00999716870598E-10));
#865=CARTESIAN_POINT('',(0.0801222796105541,0.0188329701947343,0.201386576298132));
#866=DIRECTION('',(0.707103161121016,-0.353561453786206,-0.612371960436834));
#867=DIRECTION('',(0.707110401177954,0.353546974198415,0.612371960152569));
#868=DIRECTION('',(-0.999999999947585,1.0238614723651E-05,2.00999716870598E-10));
#869=CARTESIAN_POINT('',(-0.0630377203819021,0.0188344359548181,0.201386576326907));
#870=DIRECTION('',(-0.707110401177959,-0.353546974198407,-0.612371960152567));
#871=DIRECTION('',(-0.707103161121011,0.353561453786212,0.612371960436836));
#872=CARTESIAN_POINT('',(-0.0630377203819021,0.0188344359548181,0.201386576326907));
#873=DIRECTION('',(-0.707110401177959,-0.353546974198407,-0.612371960152567));
#874=DIRECTION('',(-0.707103161121011,0.353561453786212,0.612371960436836));
#875=DIRECTION('',(-5.1194933546328E-06,-0.500001164462084,-0.866024731465765));
#876=DIRECTION('',(-5.11949335463279E-06,-0.500001164462084,-0.866024731465765));
#877=CARTESIAN_POINT('',(-0.0630377381163742,0.0171023784753444,0.198386574086596));
#878=DIRECTION('',(1.87756532543659E-10,-1.29343783589084E-06,0.999999999999163));
#879=DIRECTION('',(1.02386147233683E-05,0.999999999946749,1.29343783390067E-06));
#880=CARTESIAN_POINT('',(-0.0630377381163742,0.0171023784753444,0.198386574086596));
#881=DIRECTION('',(1.87756532543659E-10,-1.29343783589084E-06,0.999999999999163));
#882=DIRECTION('',(1.02386147233683E-05,0.999999999946749,1.29343783390067E-06));
#883=DIRECTION('',(5.11949335452177E-06,0.500001164462084,0.866024731465765));
#884=CARTESIAN_POINT('',(-0.0630377203819021,0.0188344359548181,0.201386576326907));
#885=DIRECTION('',(5.1191330618372E-06,0.499999977804438,-0.866025416583922));
#886=DIRECTION('',(8.86700107922708E-06,0.866025416538529,0.499999977830644));
#887=CARTESIAN_POINT('',(-0.0378851663947677,0.00190065553218842,0.19838655441939));
#888=DIRECTION('',(1.87756976632869E-10,-1.29343783589084E-06,0.999999999999163));
#889=DIRECTION('',(-1.0,-1.19987464145164E-20,1.87756976633026E-10));
#890=DIRECTION('',(-0.999999999947585,1.02386147236522E-05,2.009998278929E-10));
#891=CARTESIAN_POINT('',(0.0801222618760819,0.0171009127152606,0.198386574057821));
#892=DIRECTION('',(1.87756532543659E-10,-1.29343783589084E-06,0.999999999999164));
#893=DIRECTION('',(1.02386147240383E-05,0.999999999946749,1.29343783390067E-06));
#894=DIRECTION('',(-1.02386147239024E-05,-0.999999999946749,-1.29343783390067E-06));
#895=CARTESIAN_POINT('',(0.07812205401263,-0.00320098873092711,0.198386547798949));
#896=DIRECTION('',(1.8775653254369E-10,-1.29343783589084E-06,0.999999999999164));
#897=DIRECTION('',(0.707099541355581,-0.707114020942797,-9.14740791535132E-07));
#898=DIRECTION('',(-0.999999999947585,1.02386147228508E-05,2.00999716870598E-10));
#899=CARTESIAN_POINT('',(-0.0610379459800358,-0.00319956392530228,0.19838654782692));
#900=DIRECTION('',(1.877565325436E-10,-1.29343783589084E-06,0.999999999999164));
#901=DIRECTION('',(-0.707114020943384,-0.707099541354995,-9.14456535253686E-07));
#902=DIRECTION('',(-1.02386147229112E-05,-0.999999999946749,-1.29343783390067E-06));
#903=CARTESIAN_POINT('',(0.055073673911479,0.00189878331097357,0.198386554399515));
#904=DIRECTION('',(1.87756810099415E-10,-1.29343783589084E-06,0.999999999999163));
#905=DIRECTION('',(-1.0,-6.49749795307118E-21,1.87756810099572E-10));
#906=CARTESIAN_POINT('',(-0.0630377203819021,0.0188344359548182,0.201386576326907));
#907=DIRECTION('',(-0.707114020943387,-0.707099541354991,-9.14456538159136E-07));
#908=DIRECTION('',(-0.707099541355583,0.707114020942795,9.14740788722683E-07));
#909=DIRECTION('',(0.999999999947585,-1.0238614723651E-05,-2.00999716870598E-10));
#910=CARTESIAN_POINT('',(0.0801222796105541,0.0188329701947343,0.201386576298132));
#911=DIRECTION('',(0.707099541355588,-0.70711402094279,-9.14740788948709E-07));
#912=DIRECTION('',(0.707114020943382,0.707099541354996,9.14456537474342E-07));
#913=DIRECTION('',(-1.02386147229112E-05,-0.999999999946749,-1.29343783390067E-06));
#914=CARTESIAN_POINT('',(-0.0630379459793677,-0.00319954732838638,0.20138654782732));
#915=DIRECTION('',(1.02386147229112E-05,0.999999999946749,1.29343783390067E-06));
#916=DIRECTION('',(-0.999999999947585,1.02386147226598E-05,2.01005878546276E-10));
#917=DIRECTION('',(1.02386147229112E-05,0.999999999946749,1.29343783390067E-06));
#918=DIRECTION('',(-1.87756532543659E-10,1.29343783589084E-06,-0.999999999999164));
#919=CARTESIAN_POINT('',(-0.0610379459794726,-0.00319956780561578,0.201386547826918));
#920=DIRECTION('',(1.8775653254369E-10,-1.29343783589084E-06,0.999999999999164));
#921=DIRECTION('',(-0.934176012277655,-0.356812525123216,-4.61339422665652E-07));
#922=DIRECTION('',(1.87756532543659E-10,-1.29343783589083E-06,0.999999999999164));
#923=CARTESIAN_POINT('',(0.0781220540131933,-0.0032009926112406,0.201386547798947));
#924=DIRECTION('',(1.8775653254369E-10,-1.29343783589084E-06,0.999999999999164));
#925=DIRECTION('',(0.356812525123515,-0.934176012276873,-1.20836559354403E-06));
#926=CARTESIAN_POINT('',(0.0801222796105541,0.0188329701947343,0.201386576298132));
#927=DIRECTION('',(-5.11913305845102E-06,-0.499999977804443,0.866025416583919));
#928=DIRECTION('',(8.86700108407914E-06,0.866025416538526,0.499999977830648));
#929=DIRECTION('',(-5.11949335524342E-06,-0.500001164462084,-0.866024731465765));
#930=DIRECTION('',(1.02386147239024E-05,0.999999999946749,1.29343783390067E-06));
#931=CARTESIAN_POINT('',(0.05507367391223,0.00189877813722222,0.202386554399511));
#932=DIRECTION('',(1.87756532543659E-10,-1.29343783589084E-06,0.999999999999164));
#933=DIRECTION('',(1.0,-3.44669717544713E-23,-1.87756532543816E-10));
#934=CARTESIAN_POINT('',(-0.0378851663940166,0.00190065035843707,0.202386554419387));
#935=DIRECTION('',(1.87756532543659E-10,-1.29343783589084E-06,0.999999999999164));
#936=DIRECTION('',(1.0,9.63757350123765E-21,-1.87756532543816E-10));
#937=CARTESIAN_POINT('',(-0.0610379459792848,-0.00319956909905361,0.202386547826917));
#938=DIRECTION('',(-1.87756532543662E-10,1.29343783589084E-06,-0.999999999999164));
#939=DIRECTION('',(-0.934176012277655,-0.356812525123216,-4.61339422665652E-07));
#940=DIRECTION('',(-0.999999999947585,1.02386147228508E-05,2.00999644445893E-10));
#941=CARTESIAN_POINT('',(0.0781220540133811,-0.00320099390467844,0.202386547798946));
#942=DIRECTION('',(-1.87756532543561E-10,1.29343783589084E-06,-0.999999999999164));
#943=DIRECTION('',(0.356812525123515,-0.934176012276873,-1.20836559354403E-06));
#944=CARTESIAN_POINT('',(-0.061037966456702,-0.00519956780550926,0.201386545240042));
#945=DIRECTION('',(-0.999999999947585,1.02386147198832E-05,2.00999439314842E-10));
#946=DIRECTION('',(-1.02386147201346E-05,-0.999999999946749,-1.29343785681968E-06));
#947=DIRECTION('',(0.999999999947585,-1.02386147228508E-05,-2.00999644445893E-10));
#948=CARTESIAN_POINT('',(0.0781220335359642,-0.00520099261113408,0.201386545212071));
#949=DIRECTION('',(-0.999999999947585,1.02386147228508E-05,2.00999716870598E-10));
#950=DIRECTION('',(-1.02386147231022E-05,-0.999999999946749,-1.2934378290641E-06));
#951=CARTESIAN_POINT('',(0.0801220540130884,-0.00320101308847005,0.201386547798545));
#952=DIRECTION('',(-1.02386147241658E-05,-0.999999999946749,-1.29343783412437E-06));
#953=DIRECTION('',(0.999999999947585,-1.02386147239143E-05,-2.01005878608483E-10));
#954=PRESENTATION_LAYER_ASSIGNMENT('9','Layer0',(#25));
ENDSEC;
END-ISO-10303-21;
