ISO-10303-21;
HEADER;
FILE_DESCRIPTION(('STEP AP214'),'1');
FILE_NAME('PCB_back_cover.stp','2026-09-05T12:59:19',(' '),(' '),'Spatial InterOp 3D',' ',' ');
FILE_SCHEMA(('AUTOMOTIVE_DESIGN { 1 0 10303 214 1 1 1 1 }'));
ENDSEC;
DATA;
#1=MECHANICAL_DESIGN_GEOMETRIC_PRESENTATION_REPRESENTATION(' ',(#10),#6);
#2=PRODUCT_DEFINITION_CONTEXT('',#11,'design');
#3=APPLICATION_PROTOCOL_DEFINITION('INTERNATIONAL STANDARD','automotive_design',1994,#11);
#4=PRODUCT_CATEGORY_RELATIONSHIP('NONE','NONE',#12,#13);
#5=SHAPE_DEFINITION_REPRESENTATION(#14,#15);
#6= (GEOMETRIC_REPRESENTATION_CONTEXT(3)GLOBAL_UNCERTAINTY_ASSIGNED_CONTEXT((#18))GLOBAL_UNIT_ASSIGNED_CONTEXT((#20,#21,#22))REPRESENTATION_CONTEXT('NONE','WORKSPACE'));
#10=STYLED_ITEM('',(#24),#25);
#11=APPLICATION_CONTEXT(' ');
#12=PRODUCT_CATEGORY('part','NONE');
#13=PRODUCT_RELATED_PRODUCT_CATEGORY('detail',' ',(#26));
#14=PRODUCT_DEFINITION_SHAPE('NONE','NONE',#27);
#15=ADVANCED_BREP_SHAPE_REPRESENTATION('PCB_back_cover',(#25,#28),#6);
#18=UNCERTAINTY_MEASURE_WITH_UNIT(LENGTH_MEASURE(1.0E-08),#20,'','');
#20= (CONVERSION_BASED_UNIT('METRE',#31)LENGTH_UNIT()NAMED_UNIT(#34));
#21= (NAMED_UNIT(#36)PLANE_ANGLE_UNIT()SI_UNIT($,.RADIAN.));
#22= (NAMED_UNIT(#36)SOLID_ANGLE_UNIT()SI_UNIT($,.STERADIAN.));
#24=PRESENTATION_STYLE_ASSIGNMENT((#42));
#25=MANIFOLD_SOLID_BREP('PCB_back_cover',#43);
#26=PRODUCT('PCB_back_cover','','PART--DESC',(#44));
#27=PRODUCT_DEFINITION('','NONE',#45,#2);
#28=AXIS2_PLACEMENT_3D('',#46,#47,#48);
#31=LENGTH_MEASURE_WITH_UNIT(LENGTH_MEASURE(1.0),#49);
#34=DIMENSIONAL_EXPONENTS(1.0,0.0,0.0,0.0,0.0,0.0,0.0);
#36=DIMENSIONAL_EXPONENTS(0.0,0.0,0.0,0.0,0.0,0.0,0.0);
#42=SURFACE_STYLE_USAGE(.BOTH.,#50);
#43=CLOSED_SHELL('',(#51,#52,#53,#54,#55,#56,#57,#58,#59,#60,#61,#62,#63,#64,#65,#66,#67,#68,#69,#70,#71,#72,#73,#74,#75,#76));
#44=PRODUCT_CONTEXT('',#11,'mechanical');
#45=PRODUCT_DEFINITION_FORMATION_WITH_SPECIFIED_SOURCE(' ','NONE',#26,.NOT_KNOWN.);
#46=CARTESIAN_POINT('',(0.0,0.0,0.0));
#47=DIRECTION('',(0.0,0.0,1.0));
#48=DIRECTION('',(1.0,0.0,0.0));
#49= (NAMED_UNIT(#34)LENGTH_UNIT()SI_UNIT($,.METRE.));
#50=SURFACE_SIDE_STYLE('',(#78));
#51=ADVANCED_FACE('0:624',(#79),#80,.T.);
#52=ADVANCED_FACE('0:621',(#81),#82,.T.);
#53=ADVANCED_FACE('0:615',(#83),#84,.F.);
#54=ADVANCED_FACE('0:609',(#85),#86,.T.);
#55=ADVANCED_FACE('0:603',(#87),#88,.F.);
#56=ADVANCED_FACE('0:597',(#89),#90,.T.);
#57=ADVANCED_FACE('0:579',(#91),#92,.T.);
#58=ADVANCED_FACE('0:576',(#93),#94,.T.);
#59=ADVANCED_FACE('0:576',(#95),#96,.T.);
#60=ADVANCED_FACE('0:579',(#97),#98,.T.);
#61=ADVANCED_FACE('0:582',(#99),#100,.T.);
#62=ADVANCED_FACE('0:585',(#101),#102,.F.);
#63=ADVANCED_FACE('0:588',(#103),#104,.T.);
#64=ADVANCED_FACE('0:591',(#105),#106,.T.);
#65=ADVANCED_FACE('0:594',(#107),#108,.T.);
#66=ADVANCED_FACE('0:597',(#109),#110,.T.);
#67=ADVANCED_FACE('0:600',(#111),#112,.T.);
#68=ADVANCED_FACE('0:603',(#113),#114,.F.);
#69=ADVANCED_FACE('0:606',(#115),#116,.T.);
#70=ADVANCED_FACE('0:609',(#117),#118,.T.);
#71=ADVANCED_FACE('0:612',(#119),#120,.T.);
#72=ADVANCED_FACE('0:615',(#121),#122,.F.);
#73=ADVANCED_FACE('0:618',(#123),#124,.T.);
#74=ADVANCED_FACE('0:621',(#125),#126,.T.);
#75=ADVANCED_FACE('0:624',(#127),#128,.T.);
#76=ADVANCED_FACE('0:627',(#129),#130,.T.);
#78=SURFACE_STYLE_FILL_AREA(#131);
#79=FACE_OUTER_BOUND('',#132,.T.);
#80=CYLINDRICAL_SURFACE('',#133,0.002);
#81=FACE_OUTER_BOUND('',#134,.T.);
#82=CYLINDRICAL_SURFACE('',#135,0.002);
#83=FACE_OUTER_BOUND('',#136,.T.);
#84=CYLINDRICAL_SURFACE('',#137,0.0015);
#85=FACE_OUTER_BOUND('',#138,.T.);
#86=CYLINDRICAL_SURFACE('',#139,0.0015);
#87=FACE_OUTER_BOUND('',#140,.T.);
#88=CYLINDRICAL_SURFACE('',#141,0.0015);
#89=FACE_OUTER_BOUND('',#142,.T.);
#90=CYLINDRICAL_SURFACE('',#143,0.0015);
#91=FACE_OUTER_BOUND('',#144,.T.);
#92=CYLINDRICAL_SURFACE('',#145,0.0015);
#93=FACE_OUTER_BOUND('',#146,.T.);
#94=CYLINDRICAL_SURFACE('',#147,0.0015);
#95=FACE_OUTER_BOUND('',#148,.T.);
#96=CYLINDRICAL_SURFACE('',#149,0.0015);
#97=FACE_OUTER_BOUND('',#150,.T.);
#98=CYLINDRICAL_SURFACE('',#151,0.0015);
#99=FACE_OUTER_BOUND('',#152,.T.);
#100=PLANE('',#153);
#101=FACE_OUTER_BOUND('',#154,.T.);
#102=PLANE('',#155);
#103=FACE_OUTER_BOUND('',#156,.T.);
#104=PLANE('',#157);
#105=FACE_OUTER_BOUND('',#158,.T.);
#106=PLANE('',#159);
#107=FACE_OUTER_BOUND('',#160,.T.);
#108=PLANE('',#161);
#109=FACE_OUTER_BOUND('',#162,.T.);
#110=CYLINDRICAL_SURFACE('',#163,0.0015);
#111=FACE_OUTER_BOUND('',#164,.T.);
#112=PLANE('',#165);
#113=FACE_OUTER_BOUND('',#166,.T.);
#114=CYLINDRICAL_SURFACE('',#167,0.0015);
#115=FACE_OUTER_BOUND('',#168,.T.);
#116=PLANE('',#169);
#117=FACE_OUTER_BOUND('',#170,.T.);
#118=CYLINDRICAL_SURFACE('',#171,0.0015);
#119=FACE_OUTER_BOUND('',#172,.T.);
#120=PLANE('',#173);
#121=FACE_OUTER_BOUND('',#174,.T.);
#122=CYLINDRICAL_SURFACE('',#175,0.0015);
#123=FACE_OUTER_BOUND('',#176,.T.);
#124=PLANE('',#177);
#125=FACE_OUTER_BOUND('',#178,.T.);
#126=CYLINDRICAL_SURFACE('',#179,0.002);
#127=FACE_OUTER_BOUND('',#180,.T.);
#128=CYLINDRICAL_SURFACE('',#181,0.002);
#129=FACE_OUTER_BOUND('',#182,.T.);
#130=PLANE('',#183);
#131=FILL_AREA_STYLE('',(#184));
#132=EDGE_LOOP('',(#185,#186,#187,#188));
#133=AXIS2_PLACEMENT_3D('',#189,#190,#191);
#134=EDGE_LOOP('',(#192,#193,#194,#195));
#135=AXIS2_PLACEMENT_3D('',#196,#197,#198);
#136=EDGE_LOOP('',(#199,#200,#201,#202));
#137=AXIS2_PLACEMENT_3D('',#203,#204,#205);
#138=EDGE_LOOP('',(#206,#207,#208,#209));
#139=AXIS2_PLACEMENT_3D('',#210,#211,#212);
#140=EDGE_LOOP('',(#213,#214,#215,#216));
#141=AXIS2_PLACEMENT_3D('',#217,#218,#219);
#142=EDGE_LOOP('',(#220,#221,#222,#223));
#143=AXIS2_PLACEMENT_3D('',#224,#225,#226);
#144=EDGE_LOOP('',(#227,#228,#229,#230));
#145=AXIS2_PLACEMENT_3D('',#231,#232,#233);
#146=EDGE_LOOP('',(#234,#235,#236,#237));
#147=AXIS2_PLACEMENT_3D('',#238,#239,#240);
#148=EDGE_LOOP('',(#241,#242,#243,#244));
#149=AXIS2_PLACEMENT_3D('',#245,#246,#247);
#150=EDGE_LOOP('',(#248,#249,#250,#251));
#151=AXIS2_PLACEMENT_3D('',#252,#253,#254);
#152=EDGE_LOOP('',(#255,#256,#257,#258));
#153=AXIS2_PLACEMENT_3D('',#259,#260,#261);
#154=EDGE_LOOP('',(#262,#263,#264,#265,#266,#267,#268,#269,#270,#271,#272,#273,#274,#275,#276,#277,#278,#279,#280,#281,#282,#283,#284,#285));
#155=AXIS2_PLACEMENT_3D('',#286,#287,#288);
#156=EDGE_LOOP('',(#289,#290,#291,#292,#293,#294,#295,#296,#297,#298,#299,#300,#301,#302,#303,#304,#305,#306,#307,#308,#309,#310,#311,#312));
#157=AXIS2_PLACEMENT_3D('',#313,#314,#315);
#158=EDGE_LOOP('',(#316,#317,#318,#319));
#159=AXIS2_PLACEMENT_3D('',#320,#321,#322);
#160=EDGE_LOOP('',(#323,#324,#325,#326));
#161=AXIS2_PLACEMENT_3D('',#327,#328,#329);
#162=EDGE_LOOP('',(#330,#331,#332,#333));
#163=AXIS2_PLACEMENT_3D('',#334,#335,#336);
#164=EDGE_LOOP('',(#337,#338,#339,#340));
#165=AXIS2_PLACEMENT_3D('',#341,#342,#343);
#166=EDGE_LOOP('',(#344,#345,#346,#347));
#167=AXIS2_PLACEMENT_3D('',#348,#349,#350);
#168=EDGE_LOOP('',(#351,#352,#353,#354));
#169=AXIS2_PLACEMENT_3D('',#355,#356,#357);
#170=EDGE_LOOP('',(#358,#359,#360,#361));
#171=AXIS2_PLACEMENT_3D('',#362,#363,#364);
#172=EDGE_LOOP('',(#365,#366,#367,#368));
#173=AXIS2_PLACEMENT_3D('',#369,#370,#371);
#174=EDGE_LOOP('',(#372,#373,#374,#375));
#175=AXIS2_PLACEMENT_3D('',#376,#377,#378);
#176=EDGE_LOOP('',(#379,#380,#381,#382));
#177=AXIS2_PLACEMENT_3D('',#383,#384,#385);
#178=EDGE_LOOP('',(#386,#387,#388,#389));
#179=AXIS2_PLACEMENT_3D('',#390,#391,#392);
#180=EDGE_LOOP('',(#393,#394,#395,#396));
#181=AXIS2_PLACEMENT_3D('',#397,#398,#399);
#182=EDGE_LOOP('',(#400,#401,#402,#403));
#183=AXIS2_PLACEMENT_3D('',#404,#405,#406);
#184=FILL_AREA_STYLE_COLOUR('',#407);
#185=ORIENTED_EDGE('',*,*,#408,.F.);
#186=ORIENTED_EDGE('',*,*,#409,.T.);
#187=ORIENTED_EDGE('',*,*,#410,.T.);
#188=ORIENTED_EDGE('',*,*,#411,.T.);
#189=CARTESIAN_POINT('',(0.102035568342309,0.0840947703564699,0.134174337926139));
#190=DIRECTION('',(-1.6014867737916E-06,-0.15643574254537,0.987688138256056));
#191=DIRECTION('',(0.70711393183028,0.698393740427864,0.110616774237453));
#192=ORIENTED_EDGE('',*,*,#412,.F.);
#193=ORIENTED_EDGE('',*,*,#413,.T.);
#194=ORIENTED_EDGE('',*,*,#414,.T.);
#195=ORIENTED_EDGE('',*,*,#415,.T.);
#196=CARTESIAN_POINT('',(-0.08438443164792,0.0840966790390267,0.134174337963609));
#197=DIRECTION('',(1.6014867737916E-06,0.15643574254537,-0.987688138256056));
#198=DIRECTION('',(-0.707099630468691,0.698408220015669,0.110616774521708));
#199=ORIENTED_EDGE('',*,*,#416,.F.);
#200=ORIENTED_EDGE('',*,*,#417,.T.);
#201=ORIENTED_EDGE('',*,*,#418,.T.);
#202=ORIENTED_EDGE('',*,*,#419,.T.);
#203=CARTESIAN_POINT('',(0.0918228655745271,0.0341789706456504,0.109061011826245));
#204=DIRECTION('',(1.60148677371366E-06,0.15643574254537,-0.987688138256056));
#205=DIRECTION('',(-0.70709963046869,0.69840822001567,0.110616774521708));
#206=ORIENTED_EDGE('',*,*,#420,.F.);
#207=ORIENTED_EDGE('',*,*,#421,.T.);
#208=ORIENTED_EDGE('',*,*,#422,.T.);
#209=ORIENTED_EDGE('',*,*,#423,.T.);
#210=CARTESIAN_POINT('',(0.102535085203062,0.0369072717684416,0.111011851259136));
#211=DIRECTION('',(1.60148677379601E-06,0.15643574254537,-0.987688138256056));
#212=DIRECTION('',(0.707099630468684,-0.698408220015675,-0.110616774521709));
#213=ORIENTED_EDGE('',*,*,#424,.F.);
#214=ORIENTED_EDGE('',*,*,#425,.T.);
#215=ORIENTED_EDGE('',*,*,#426,.T.);
#216=ORIENTED_EDGE('',*,*,#427,.T.);
#217=CARTESIAN_POINT('',(-0.0747430657061117,0.034180676050047,0.109061011859724));
#218=DIRECTION('',(-1.60148677374896E-06,-0.15643574254537,0.987688138256056));
#219=DIRECTION('',(0.707113931830275,0.698393740427869,0.110616774237454));
#220=ORIENTED_EDGE('',*,*,#428,.F.);
#221=ORIENTED_EDGE('',*,*,#429,.T.);
#222=ORIENTED_EDGE('',*,*,#430,.T.);
#223=ORIENTED_EDGE('',*,*,#431,.T.);
#224=CARTESIAN_POINT('',(-0.0848849147871148,0.0369091906896131,0.111011851296807));
#225=DIRECTION('',(1.60148677378425E-06,0.15643574254537,-0.987688138256056));
#226=DIRECTION('',(-0.707113931830281,-0.698393740427863,-0.110616774237453));
#227=ORIENTED_EDGE('',*,*,#432,.F.);
#228=ORIENTED_EDGE('',*,*,#433,.T.);
#229=ORIENTED_EDGE('',*,*,#434,.T.);
#230=ORIENTED_EDGE('',*,*,#435,.T.);
#231=CARTESIAN_POINT('',(-0.0717430744352578,0.0333281221516004,0.107407286321822));
#232=DIRECTION('',(-1.60148677377248E-06,-0.15643574254537,0.987688138256056));
#233=DIRECTION('',(-0.707113931830283,-0.698393740427861,-0.110616774237453));
#234=ORIENTED_EDGE('',*,*,#436,.F.);
#235=ORIENTED_EDGE('',*,*,#437,.T.);
#236=ORIENTED_EDGE('',*,*,#438,.T.);
#237=ORIENTED_EDGE('',*,*,#439,.T.);
#238=CARTESIAN_POINT('',(0.0888228568456955,0.0333264781788922,0.107407286289549));
#239=DIRECTION('',(-1.60148677369013E-06,-0.15643574254537,0.987688138256056));
#240=DIRECTION('',(0.707099630468693,-0.698408220015667,-0.110616774521707));
#241=ORIENTED_EDGE('',*,*,#436,.T.);
#242=ORIENTED_EDGE('',*,*,#440,.T.);
#243=ORIENTED_EDGE('',*,*,#441,.T.);
#244=ORIENTED_EDGE('',*,*,#442,.T.);
#245=CARTESIAN_POINT('',(0.0888228568456955,0.0333264781788922,0.107407286289549));
#246=DIRECTION('',(-1.60148677369013E-06,-0.15643574254537,0.987688138256056));
#247=DIRECTION('',(0.707099630468693,-0.698408220015667,-0.110616774521707));
#248=ORIENTED_EDGE('',*,*,#432,.T.);
#249=ORIENTED_EDGE('',*,*,#443,.T.);
#250=ORIENTED_EDGE('',*,*,#444,.T.);
#251=ORIENTED_EDGE('',*,*,#445,.T.);
#252=CARTESIAN_POINT('',(-0.0717430744352578,0.0333281221516004,0.107407286321822));
#253=DIRECTION('',(-1.60148677377248E-06,-0.15643574254537,0.987688138256056));
#254=DIRECTION('',(-0.707113931830283,-0.698393740427861,-0.110616774237453));
#255=ORIENTED_EDGE('',*,*,#441,.F.);
#256=ORIENTED_EDGE('',*,*,#446,.T.);
#257=ORIENTED_EDGE('',*,*,#434,.F.);
#258=ORIENTED_EDGE('',*,*,#447,.F.);
#259=CARTESIAN_POINT('',(0.00839487603634187,0.031845769442539,0.107172632691884));
#260=DIRECTION('',(-1.0112589757777E-05,-0.987688138204286,-0.156435742553567));
#261=DIRECTION('',(0.999999999947585,-1.0238614723414E-05,-2.00998100931589E-10));
#262=ORIENTED_EDGE('',*,*,#439,.F.);
#263=ORIENTED_EDGE('',*,*,#448,.F.);
#264=ORIENTED_EDGE('',*,*,#417,.F.);
#265=ORIENTED_EDGE('',*,*,#449,.F.);
#266=ORIENTED_EDGE('',*,*,#450,.T.);
#267=ORIENTED_EDGE('',*,*,#421,.F.);
#268=ORIENTED_EDGE('',*,*,#451,.F.);
#269=ORIENTED_EDGE('',*,*,#452,.T.);
#270=ORIENTED_EDGE('',*,*,#453,.F.);
#271=ORIENTED_EDGE('',*,*,#411,.F.);
#272=ORIENTED_EDGE('',*,*,#454,.T.);
#273=ORIENTED_EDGE('',*,*,#413,.F.);
#274=ORIENTED_EDGE('',*,*,#455,.F.);
#275=ORIENTED_EDGE('',*,*,#456,.T.);
#276=ORIENTED_EDGE('',*,*,#429,.F.);
#277=ORIENTED_EDGE('',*,*,#457,.F.);
#278=ORIENTED_EDGE('',*,*,#458,.T.);
#279=ORIENTED_EDGE('',*,*,#459,.F.);
#280=ORIENTED_EDGE('',*,*,#427,.F.);
#281=ORIENTED_EDGE('',*,*,#460,.F.);
#282=ORIENTED_EDGE('',*,*,#443,.F.);
#283=ORIENTED_EDGE('',*,*,#435,.F.);
#284=ORIENTED_EDGE('',*,*,#446,.F.);
#285=ORIENTED_EDGE('',*,*,#440,.F.);
#286=CARTESIAN_POINT('',(-0.0779247152094575,0.056401737027832,0.11409920446941));
#287=DIRECTION('',(1.60148677375016E-06,0.15643574254537,-0.987688138256056));
#288=DIRECTION('',(-1.01125897577769E-05,-0.987688138204286,-0.156435742553568));
#289=ORIENTED_EDGE('',*,*,#442,.F.);
#290=ORIENTED_EDGE('',*,*,#447,.T.);
#291=ORIENTED_EDGE('',*,*,#433,.F.);
#292=ORIENTED_EDGE('',*,*,#445,.F.);
#293=ORIENTED_EDGE('',*,*,#461,.T.);
#294=ORIENTED_EDGE('',*,*,#425,.F.);
#295=ORIENTED_EDGE('',*,*,#462,.F.);
#296=ORIENTED_EDGE('',*,*,#463,.F.);
#297=ORIENTED_EDGE('',*,*,#464,.F.);
#298=ORIENTED_EDGE('',*,*,#431,.F.);
#299=ORIENTED_EDGE('',*,*,#465,.F.);
#300=ORIENTED_EDGE('',*,*,#466,.F.);
#301=ORIENTED_EDGE('',*,*,#415,.F.);
#302=ORIENTED_EDGE('',*,*,#467,.T.);
#303=ORIENTED_EDGE('',*,*,#409,.F.);
#304=ORIENTED_EDGE('',*,*,#468,.F.);
#305=ORIENTED_EDGE('',*,*,#469,.F.);
#306=ORIENTED_EDGE('',*,*,#470,.F.);
#307=ORIENTED_EDGE('',*,*,#423,.F.);
#308=ORIENTED_EDGE('',*,*,#471,.F.);
#309=ORIENTED_EDGE('',*,*,#472,.F.);
#310=ORIENTED_EDGE('',*,*,#419,.F.);
#311=ORIENTED_EDGE('',*,*,#473,.T.);
#312=ORIENTED_EDGE('',*,*,#437,.F.);
#313=CARTESIAN_POINT('',(-0.0779247104049972,0.0568710442554681,0.111136140054642));
#314=DIRECTION('',(1.60148677375016E-06,0.15643574254537,-0.987688138256056));
#315=DIRECTION('',(-1.01125897577769E-05,-0.987688138204286,-0.156435742553568));
#316=ORIENTED_EDGE('',*,*,#444,.F.);
#317=ORIENTED_EDGE('',*,*,#460,.T.);
#318=ORIENTED_EDGE('',*,*,#426,.F.);
#319=ORIENTED_EDGE('',*,*,#461,.F.);
#320=CARTESIAN_POINT('',(-0.0732430082180261,0.0397955111691829,0.108431626254625));
#321=DIRECTION('',(-0.999999999947585,1.02386147219954E-05,2.00997773980093E-10));
#322=DIRECTION('',(-1.01125897563247E-05,-0.987688138204286,-0.156435742553567));
#323=ORIENTED_EDGE('',*,*,#438,.F.);
#324=ORIENTED_EDGE('',*,*,#473,.F.);
#325=ORIENTED_EDGE('',*,*,#418,.F.);
#326=ORIENTED_EDGE('',*,*,#448,.T.);
#327=CARTESIAN_POINT('',(0.09032292306277,0.0397938364806306,0.108431626221748));
#328=DIRECTION('',(0.999999999947585,-1.02386147236607E-05,-2.00998107047212E-10));
#329=DIRECTION('',(1.01125897580217E-05,0.987688138204286,0.156435742553567));
#330=ORIENTED_EDGE('',*,*,#428,.T.);
#331=ORIENTED_EDGE('',*,*,#464,.T.);
#332=ORIENTED_EDGE('',*,*,#474,.T.);
#333=ORIENTED_EDGE('',*,*,#457,.T.);
#334=CARTESIAN_POINT('',(-0.0848849147871148,0.0369091906896131,0.111011851296807));
#335=DIRECTION('',(1.60148677378425E-06,0.15643574254537,-0.987688138256056));
#336=DIRECTION('',(-0.707113931830281,-0.698393740427863,-0.110616774237453));
#337=ORIENTED_EDGE('',*,*,#474,.F.);
#338=ORIENTED_EDGE('',*,*,#463,.T.);
#339=ORIENTED_EDGE('',*,*,#475,.F.);
#340=ORIENTED_EDGE('',*,*,#458,.F.);
#341=CARTESIAN_POINT('',(0.00907507003907569,0.0354266964620673,0.110777197664091));
#342=DIRECTION('',(-1.0112589757777E-05,-0.987688138204286,-0.156435742553567));
#343=DIRECTION('',(-0.999999999947585,1.02386147234315E-05,2.00997990481495E-10));
#344=ORIENTED_EDGE('',*,*,#424,.T.);
#345=ORIENTED_EDGE('',*,*,#459,.T.);
#346=ORIENTED_EDGE('',*,*,#475,.T.);
#347=ORIENTED_EDGE('',*,*,#462,.T.);
#348=CARTESIAN_POINT('',(-0.0747430657061117,0.034180676050047,0.109061011859724));
#349=DIRECTION('',(-1.60148677374896E-06,-0.15643574254537,0.987688138256056));
#350=DIRECTION('',(0.707113931830275,0.698393740427869,0.110616774237454));
#351=ORIENTED_EDGE('',*,*,#430,.F.);
#352=ORIENTED_EDGE('',*,*,#456,.F.);
#353=ORIENTED_EDGE('',*,*,#476,.F.);
#354=ORIENTED_EDGE('',*,*,#465,.T.);
#355=CARTESIAN_POINT('',(-0.0863846595897704,0.0618341084066361,0.114959601055155));
#356=DIRECTION('',(-0.999999999947585,1.02386147236469E-05,2.00997996025121E-10));
#357=DIRECTION('',(1.01125897579906E-05,0.987688138204286,0.156435742553567));
#358=ORIENTED_EDGE('',*,*,#420,.T.);
#359=ORIENTED_EDGE('',*,*,#470,.T.);
#360=ORIENTED_EDGE('',*,*,#477,.T.);
#361=ORIENTED_EDGE('',*,*,#451,.T.);
#362=CARTESIAN_POINT('',(0.102535085203062,0.0369072717684416,0.111011851259136));
#363=DIRECTION('',(1.60148677379601E-06,0.15643574254537,-0.987688138256056));
#364=DIRECTION('',(0.707099630468684,-0.698408220015675,-0.110616774521709));
#365=ORIENTED_EDGE('',*,*,#422,.F.);
#366=ORIENTED_EDGE('',*,*,#450,.F.);
#367=ORIENTED_EDGE('',*,*,#478,.F.);
#368=ORIENTED_EDGE('',*,*,#471,.T.);
#369=CARTESIAN_POINT('',(0.00907507003907569,0.0354266964620673,0.110777197664091));
#370=DIRECTION('',(-1.0112589757777E-05,-0.987688138204286,-0.156435742553567));
#371=DIRECTION('',(-0.999999999947585,1.02386147234315E-05,2.00997990481495E-10));
#372=ORIENTED_EDGE('',*,*,#416,.T.);
#373=ORIENTED_EDGE('',*,*,#472,.T.);
#374=ORIENTED_EDGE('',*,*,#478,.T.);
#375=ORIENTED_EDGE('',*,*,#449,.T.);
#376=CARTESIAN_POINT('',(0.0918228655745271,0.0341789706456504,0.109061011826245));
#377=DIRECTION('',(1.60148677371366E-06,0.15643574254537,-0.987688138256056));
#378=DIRECTION('',(-0.70709963046869,0.69840822001567,0.110616774521708));
#379=ORIENTED_EDGE('',*,*,#477,.F.);
#380=ORIENTED_EDGE('',*,*,#469,.T.);
#381=ORIENTED_EDGE('',*,*,#479,.F.);
#382=ORIENTED_EDGE('',*,*,#452,.F.);
#383=CARTESIAN_POINT('',(0.104035340400249,0.0618321587696205,0.114959601016881));
#384=DIRECTION('',(0.999999999947585,-1.02386147234803E-05,-2.00997996024909E-10));
#385=DIRECTION('',(-1.01125897578261E-05,-0.987688138204286,-0.156435742553567));
#386=ORIENTED_EDGE('',*,*,#412,.T.);
#387=ORIENTED_EDGE('',*,*,#466,.T.);
#388=ORIENTED_EDGE('',*,*,#476,.T.);
#389=ORIENTED_EDGE('',*,*,#455,.T.);
#390=CARTESIAN_POINT('',(-0.08438443164792,0.0840966790390267,0.134174337963609));
#391=DIRECTION('',(1.6014867737916E-06,0.15643574254537,-0.987688138256056));
#392=DIRECTION('',(-0.707099630468691,0.698408220015669,0.110616774521708));
#393=ORIENTED_EDGE('',*,*,#408,.T.);
#394=ORIENTED_EDGE('',*,*,#453,.T.);
#395=ORIENTED_EDGE('',*,*,#479,.T.);
#396=ORIENTED_EDGE('',*,*,#468,.T.);
#397=CARTESIAN_POINT('',(0.102035568342309,0.0840947703564699,0.134174337926139));
#398=DIRECTION('',(-1.6014867737916E-06,-0.15643574254537,0.987688138256056));
#399=DIRECTION('',(0.70711393183028,0.698393740427864,0.110616774237453));
#400=ORIENTED_EDGE('',*,*,#414,.F.);
#401=ORIENTED_EDGE('',*,*,#454,.F.);
#402=ORIENTED_EDGE('',*,*,#410,.F.);
#403=ORIENTED_EDGE('',*,*,#467,.F.);
#404=CARTESIAN_POINT('',(0.00616963167248364,0.083647077687942,0.149791933695973));
#405=DIRECTION('',(1.01125897577771E-05,0.987688138204286,0.156435742553567));
#406=DIRECTION('',(0.99999543552178,0.000462666275919143,-0.00298577888049868));
#407=COLOUR_RGB('',0.752941191196442,0.752941191196442,0.752941191196442);
#408=EDGE_CURVE('',#480,#481,#482,.T.);
#409=EDGE_CURVE('0:720',#480,#483,#484,.T.);
#410=EDGE_CURVE('0:771',#483,#485,#486,.T.);
#411=EDGE_CURVE('0:675',#485,#481,#487,.T.);
#412=EDGE_CURVE('',#488,#489,#490,.T.);
#413=EDGE_CURVE('0:681',#488,#491,#492,.T.);
#414=EDGE_CURVE('0:768',#491,#493,#494,.T.);
#415=EDGE_CURVE('0:714',#493,#489,#495,.T.);
#416=EDGE_CURVE('',#496,#497,#498,.T.);
#417=EDGE_CURVE('0:663',#496,#499,#500,.T.);
#418=EDGE_CURVE('0:741',#499,#501,#502,.T.);
#419=EDGE_CURVE('0:732',#501,#497,#503,.T.);
#420=EDGE_CURVE('',#504,#505,#506,.T.);
#421=EDGE_CURVE('0:669',#504,#507,#508,.T.);
#422=EDGE_CURVE('0:759',#507,#509,#510,.T.);
#423=EDGE_CURVE('0:726',#509,#505,#511,.T.);
#424=EDGE_CURVE('',#512,#513,#514,.T.);
#425=EDGE_CURVE('0:702',#512,#515,#516,.T.);
#426=EDGE_CURVE('0:738',#515,#517,#518,.T.);
#427=EDGE_CURVE('0:693',#517,#513,#519,.T.);
#428=EDGE_CURVE('',#520,#521,#522,.T.);
#429=EDGE_CURVE('0:687',#520,#523,#524,.T.);
#430=EDGE_CURVE('0:747',#523,#525,#526,.T.);
#431=EDGE_CURVE('0:708',#525,#521,#527,.T.);
#432=EDGE_CURVE('',#528,#529,#530,.T.);
#433=EDGE_CURVE('0:648',#528,#531,#532,.T.);
#434=EDGE_CURVE('0:651',#531,#533,#534,.T.);
#435=EDGE_CURVE('0:642',#533,#529,#535,.T.);
#436=EDGE_CURVE('',#536,#537,#538,.T.);
#437=EDGE_CURVE('0:636',#536,#539,#540,.T.);
#438=EDGE_CURVE('0:639',#539,#541,#542,.T.);
#439=EDGE_CURVE('0:630',#541,#537,#543,.T.);
#440=EDGE_CURVE('0:630',#537,#544,#545,.T.);
#441=EDGE_CURVE('0:633',#544,#546,#547,.T.);
#442=EDGE_CURVE('0:636',#546,#536,#548,.T.);
#443=EDGE_CURVE('0:642',#529,#549,#550,.T.);
#444=EDGE_CURVE('0:645',#549,#551,#552,.T.);
#445=EDGE_CURVE('0:648',#551,#528,#553,.T.);
#446=EDGE_CURVE('0:654',#544,#533,#554,.F.);
#447=EDGE_CURVE('0:657',#546,#531,#555,.F.);
#448=EDGE_CURVE('0:660',#499,#541,#556,.F.);
#449=EDGE_CURVE('0:663',#557,#496,#558,.T.);
#450=EDGE_CURVE('0:666',#557,#507,#559,.T.);
#451=EDGE_CURVE('0:669',#560,#504,#561,.T.);
#452=EDGE_CURVE('0:672',#560,#562,#563,.T.);
#453=EDGE_CURVE('0:675',#481,#562,#564,.T.);
#454=EDGE_CURVE('0:678',#485,#491,#565,.T.);
#455=EDGE_CURVE('0:681',#566,#488,#567,.T.);
#456=EDGE_CURVE('0:684',#566,#523,#568,.T.);
#457=EDGE_CURVE('0:687',#569,#520,#570,.T.);
#458=EDGE_CURVE('0:690',#569,#571,#572,.T.);
#459=EDGE_CURVE('0:693',#513,#571,#573,.T.);
#460=EDGE_CURVE('0:696',#549,#517,#574,.F.);
#461=EDGE_CURVE('0:699',#551,#515,#575,.F.);
#462=EDGE_CURVE('0:702',#576,#512,#577,.T.);
#463=EDGE_CURVE('0:705',#578,#576,#579,.T.);
#464=EDGE_CURVE('0:708',#521,#578,#580,.T.);
#465=EDGE_CURVE('0:711',#581,#525,#582,.T.);
#466=EDGE_CURVE('0:714',#489,#581,#583,.T.);
#467=EDGE_CURVE('0:717',#493,#483,#584,.F.);
#468=EDGE_CURVE('0:720',#585,#480,#586,.T.);
#469=EDGE_CURVE('0:723',#587,#585,#588,.T.);
#470=EDGE_CURVE('0:726',#505,#587,#589,.T.);
#471=EDGE_CURVE('0:729',#590,#509,#591,.T.);
#472=EDGE_CURVE('0:732',#497,#590,#592,.T.);
#473=EDGE_CURVE('0:735',#501,#539,#593,.F.);
#474=EDGE_CURVE('0:744',#578,#569,#594,.T.);
#475=EDGE_CURVE('0:750',#571,#576,#595,.T.);
#476=EDGE_CURVE('0:753',#581,#566,#596,.T.);
#477=EDGE_CURVE('0:756',#587,#560,#597,.T.);
#478=EDGE_CURVE('0:762',#590,#557,#598,.T.);
#479=EDGE_CURVE('0:765',#562,#585,#599,.T.);
#480=VERTEX_POINT('',#600);
#481=VERTEX_POINT('',#601);
#482=LINE('',#602,#603);
#483=VERTEX_POINT('',#604);
#484=CIRCLE('',#605,0.002);
#485=VERTEX_POINT('',#606);
#486=LINE('',#607,#608);
#487=CIRCLE('',#609,0.002);
#488=VERTEX_POINT('',#610);
#489=VERTEX_POINT('',#611);
#490=LINE('',#612,#613);
#491=VERTEX_POINT('',#614);
#492=CIRCLE('',#615,0.002);
#493=VERTEX_POINT('',#616);
#494=LINE('',#617,#618);
#495=CIRCLE('',#619,0.002);
#496=VERTEX_POINT('',#620);
#497=VERTEX_POINT('',#621);
#498=LINE('',#622,#623);
#499=VERTEX_POINT('',#624);
#500=CIRCLE('',#625,0.0015);
#501=VERTEX_POINT('',#626);
#502=LINE('',#627,#628);
#503=CIRCLE('',#629,0.0015);
#504=VERTEX_POINT('',#630);
#505=VERTEX_POINT('',#631);
#506=LINE('',#632,#633);
#507=VERTEX_POINT('',#634);
#508=CIRCLE('',#635,0.0015);
#509=VERTEX_POINT('',#636);
#510=LINE('',#637,#638);
#511=CIRCLE('',#639,0.0015);
#512=VERTEX_POINT('',#640);
#513=VERTEX_POINT('',#641);
#514=LINE('',#642,#643);
#515=VERTEX_POINT('',#644);
#516=CIRCLE('',#645,0.0015);
#517=VERTEX_POINT('',#646);
#518=LINE('',#647,#648);
#519=CIRCLE('',#649,0.0015);
#520=VERTEX_POINT('',#650);
#521=VERTEX_POINT('',#651);
#522=LINE('',#652,#653);
#523=VERTEX_POINT('',#654);
#524=CIRCLE('',#655,0.0015);
#525=VERTEX_POINT('',#656);
#526=LINE('',#657,#658);
#527=CIRCLE('',#659,0.0015);
#528=VERTEX_POINT('',#660);
#529=VERTEX_POINT('',#661);
#530=LINE('',#662,#663);
#531=VERTEX_POINT('',#664);
#532=CIRCLE('',#665,0.0015);
#533=VERTEX_POINT('',#666);
#534=LINE('',#667,#668);
#535=CIRCLE('',#669,0.0015);
#536=VERTEX_POINT('',#670);
#537=VERTEX_POINT('',#671);
#538=LINE('',#672,#673);
#539=VERTEX_POINT('',#674);
#540=CIRCLE('',#675,0.0015);
#541=VERTEX_POINT('',#676);
#542=LINE('',#677,#678);
#543=CIRCLE('',#679,0.0015);
#544=VERTEX_POINT('',#680);
#545=CIRCLE('',#681,0.0015);
#546=VERTEX_POINT('',#682);
#547=LINE('',#683,#684);
#548=CIRCLE('',#685,0.0015);
#549=VERTEX_POINT('',#686);
#550=CIRCLE('',#687,0.0015);
#551=VERTEX_POINT('',#688);
#552=LINE('',#689,#690);
#553=CIRCLE('',#691,0.0015);
#554=LINE('',#692,#693);
#555=LINE('',#694,#695);
#556=LINE('',#696,#697);
#557=VERTEX_POINT('',#698);
#558=CIRCLE('',#699,0.0015);
#559=LINE('',#700,#701);
#560=VERTEX_POINT('',#702);
#561=CIRCLE('',#703,0.0015);
#562=VERTEX_POINT('',#704);
#563=LINE('',#705,#706);
#564=CIRCLE('',#707,0.002);
#565=LINE('',#708,#709);
#566=VERTEX_POINT('',#710);
#567=CIRCLE('',#711,0.002);
#568=LINE('',#712,#713);
#569=VERTEX_POINT('',#714);
#570=CIRCLE('',#715,0.0015);
#571=VERTEX_POINT('',#716);
#572=LINE('',#717,#718);
#573=CIRCLE('',#719,0.0015);
#574=LINE('',#720,#721);
#575=LINE('',#722,#723);
#576=VERTEX_POINT('',#724);
#577=CIRCLE('',#725,0.0015);
#578=VERTEX_POINT('',#726);
#579=LINE('',#727,#728);
#580=CIRCLE('',#729,0.0015);
#581=VERTEX_POINT('',#730);
#582=LINE('',#731,#732);
#583=CIRCLE('',#733,0.002);
#584=LINE('',#734,#735);
#585=VERTEX_POINT('',#736);
#586=CIRCLE('',#737,0.002);
#587=VERTEX_POINT('',#738);
#588=LINE('',#739,#740);
#589=CIRCLE('',#741,0.0015);
#590=VERTEX_POINT('',#742);
#591=LINE('',#743,#744);
#592=CIRCLE('',#745,0.0015);
#593=LINE('',#746,#747);
#594=LINE('',#748,#749);
#595=LINE('',#750,#751);
#596=LINE('',#752,#753);
#597=LINE('',#754,#755);
#598=LINE('',#756,#757);
#599=LINE('',#758,#759);
#600=CARTESIAN_POINT('',(0.103449825826273,0.088384915544242,0.116127782794388));
#601=CARTESIAN_POINT('',(0.103449821021812,0.0879156083166059,0.119090847209156));
#602=CARTESIAN_POINT('',(0.103449823424042,0.0881502619304239,0.117609315001772));
#603=VECTOR('',#760,1.0);
#604=CARTESIAN_POINT('',(0.102035618187791,0.0889635043397949,0.11621942073102));
#605=AXIS2_PLACEMENT_3D('',#761,#762,#763);
#606=CARTESIAN_POINT('',(0.102035613383331,0.0884941971121587,0.119182485145789));
#607=CARTESIAN_POINT('',(0.102035588567488,0.0860701466328785,0.134487209411246));
#608=VECTOR('',#764,1.0);
#609=AXIS2_PLACEMENT_3D('',#765,#766,#767);
#610=CARTESIAN_POINT('',(-0.0857986060930147,0.0879175459583382,0.119090847247195));
#611=CARTESIAN_POINT('',(-0.0857986012885543,0.0883868531859743,0.116127782832427));
#612=CARTESIAN_POINT('',(-0.0857986036907845,0.0881521995721576,0.117609315039803));
#613=VECTOR('',#768,1.0);
#614=CARTESIAN_POINT('',(-0.0843843866068977,0.0884961057947155,0.119182485183259));
#615=AXIS2_PLACEMENT_3D('',#769,#770,#771);
#616=CARTESIAN_POINT('',(-0.0843843818024374,0.0889654130223516,0.116219420768491));
#617=CARTESIAN_POINT('',(-0.0843844114227405,0.0860720553154353,0.134487209448716));
#618=VECTOR('',#772,1.0);
#619=AXIS2_PLACEMENT_3D('',#773,#774,#775);
#620=CARTESIAN_POINT('',(0.0907622137265939,0.0349919293618559,0.110708469195411));
#621=CARTESIAN_POINT('',(0.0907622185310542,0.035461236589492,0.107745404780643));
#622=CARTESIAN_POINT('',(0.0907622161288241,0.0352265829756739,0.109226936988027));
#623=VECTOR('',#776,1.0);
#624=CARTESIAN_POINT('',(0.0903228631723756,0.0339443323897545,0.11054254403393));
#625=AXIS2_PLACEMENT_3D('',#777,#778,#779);
#626=CARTESIAN_POINT('',(0.0903228679768359,0.0344136396173906,0.107579479619162));
#627=CARTESIAN_POINT('',(0.0903228655746057,0.0341789860035725,0.109061011826546));
#628=VECTOR('',#780,1.0);
#629=AXIS2_PLACEMENT_3D('',#781,#782,#783);
#630=CARTESIAN_POINT('',(0.103595734648765,0.0358596594384181,0.110845926097354));
#631=CARTESIAN_POINT('',(0.103595739453225,0.0363289666660543,0.107882861682586));
#632=CARTESIAN_POINT('',(0.103595734648765,0.0358596594384181,0.110845926097354));
#633=VECTOR('',#784,1.0);
#634=CARTESIAN_POINT('',(0.102535070034177,0.0354257395611352,0.110777197645306));
#635=AXIS2_PLACEMENT_3D('',#785,#786,#787);
#636=CARTESIAN_POINT('',(0.102535074838637,0.0358950467887713,0.107814133230538));
#637=CARTESIAN_POINT('',(0.102535070034177,0.0354257395611352,0.110777197645306));
#638=VECTOR('',#788,1.0);
#639=AXIS2_PLACEMENT_3D('',#789,#790,#791);
#640=CARTESIAN_POINT('',(-0.0736823924061362,0.0354629202745068,0.107745404813696));
#641=CARTESIAN_POINT('',(-0.0736823972105965,0.0349936130468707,0.110708469228464));
#642=CARTESIAN_POINT('',(-0.0736823948083663,0.0352282666606888,0.10922693702108));
#643=VECTOR('',#792,1.0);
#644=CARTESIAN_POINT('',(-0.0732430633039602,0.0344153143059429,0.107579479652039));
#645=AXIS2_PLACEMENT_3D('',#793,#794,#795);
#646=CARTESIAN_POINT('',(-0.0732430681084205,0.0339460070783068,0.110542544066807));
#647=CARTESIAN_POINT('',(-0.0732430657061904,0.0341806606921249,0.109061011859423));
#648=VECTOR('',#796,1.0);
#649=AXIS2_PLACEMENT_3D('',#797,#798,#799);
#650=CARTESIAN_POINT('',(-0.0859455856848602,0.0358616000789713,0.110845926135451));
#651=CARTESIAN_POINT('',(-0.0859455808803999,0.0363309073066074,0.107882861720683));
#652=CARTESIAN_POINT('',(-0.08594558328263,0.0360962536927894,0.109364393928067));
#653=VECTOR('',#800,1.0);
#654=CARTESIAN_POINT('',(-0.0863849147870362,0.0369092060475352,0.111011851297109));
#655=AXIS2_PLACEMENT_3D('',#801,#802,#803);
#656=CARTESIAN_POINT('',(-0.0863849099825759,0.0373785132751713,0.108048786882341));
#657=CARTESIAN_POINT('',(-0.0863849147870362,0.0369092060475352,0.111011851297109));
#658=VECTOR('',#804,1.0);
#659=AXIS2_PLACEMENT_3D('',#805,#806,#807);
#660=CARTESIAN_POINT('',(-0.0728037453330032,0.0322805315409586,0.107241361160466));
#661=CARTESIAN_POINT('',(-0.0728037501374635,0.0318112243133225,0.110204425575234));
#662=CARTESIAN_POINT('',(-0.0728037477352334,0.0320458779271405,0.10872289336785));
#663=VECTOR('',#808,1.0);
#664=CARTESIAN_POINT('',(-0.0717430896041424,0.031846589944294,0.107172632707992));
#665=AXIS2_PLACEMENT_3D('',#809,#810,#811);
#666=CARTESIAN_POINT('',(-0.0717430944086028,0.0313772827166578,0.11013569712276));
#667=CARTESIAN_POINT('',(-0.0717430896041424,0.031846589944294,0.107172632707992));
#668=VECTOR('',#812,1.0);
#669=AXIS2_PLACEMENT_3D('',#813,#814,#815);
#670=CARTESIAN_POINT('',(0.0898835062913986,0.0322788658488687,0.107241361127766));
#671=CARTESIAN_POINT('',(0.0898835014869383,0.0318095586212326,0.110204425542534));
#672=CARTESIAN_POINT('',(0.0898835038891684,0.0320442122350497,0.108722893335156));
#673=VECTOR('',#816,1.0);
#674=CARTESIAN_POINT('',(0.0903228568456169,0.0333264628209701,0.107407286289247));
#675=AXIS2_PLACEMENT_3D('',#817,#818,#819);
#676=CARTESIAN_POINT('',(0.0903228520411566,0.032857155593334,0.110370350704015));
#677=CARTESIAN_POINT('',(0.0903228568456169,0.0333264628209701,0.107407286289247));
#678=VECTOR('',#820,1.0);
#679=AXIS2_PLACEMENT_3D('',#821,#822,#823);
#680=CARTESIAN_POINT('',(0.0888228368723506,0.0313756387439497,0.110135697090486));
#681=AXIS2_PLACEMENT_3D('',#824,#825,#826);
#682=CARTESIAN_POINT('',(0.0888228416768109,0.0318449459715858,0.107172632675718));
#683=CARTESIAN_POINT('',(0.0888228416768109,0.0318449459715858,0.107172632675718));
#684=VECTOR('',#827,1.0);
#685=AXIS2_PLACEMENT_3D('',#828,#829,#830);
#686=CARTESIAN_POINT('',(-0.0732430792396395,0.0328588302818864,0.110370350736892));
#687=AXIS2_PLACEMENT_3D('',#831,#832,#833);
#688=CARTESIAN_POINT('',(-0.0732430744351792,0.0333281375095225,0.107407286322123));
#689=CARTESIAN_POINT('',(-0.0732430744351792,0.0333281375095225,0.107407286322123));
#690=VECTOR('',#834,1.0);
#691=AXIS2_PLACEMENT_3D('',#835,#836,#837);
#692=CARTESIAN_POINT('',(-0.0347650500967355,0.0313769041127089,0.110135697115327));
#693=VECTOR('',#838,1.0);
#694=CARTESIAN_POINT('',(-0.0347650452922751,0.031846211340345,0.107172632700559));
#695=VECTOR('',#839,1.0);
#696=CARTESIAN_POINT('',(0.0903230056732384,0.0478622718281696,0.112746947536054));
#697=VECTOR('',#840,1.0);
#698=CARTESIAN_POINT('',(0.0918228783411816,0.0354258492391388,0.110777197647459));
#699=AXIS2_PLACEMENT_3D('',#841,#842,#843);
#700=CARTESIAN_POINT('',(-0.0344249299586443,0.0354271418418077,0.110777197672835));
#701=VECTOR('',#844,1.0);
#702=CARTESIAN_POINT('',(0.104035085202983,0.0369072564105196,0.111011851258835));
#703=AXIS2_PLACEMENT_3D('',#845,#846,#847);
#704=CARTESIAN_POINT('',(0.104035593158047,0.0865188003585207,0.118869613660279));
#705=CARTESIAN_POINT('',(0.104035312590627,0.0591160163895587,0.114529402724859));
#706=VECTOR('',#848,1.0);
#707=AXIS2_PLACEMENT_3D('',#849,#850,#851);
#708=CARTESIAN_POINT('',(-0.0358773526515336,0.0884956091498834,0.119182485173509));
#709=VECTOR('',#852,1.0);
#710=CARTESIAN_POINT('',(-0.0863844068319724,0.0865207499955363,0.118869613698554));
#711=AXIS2_PLACEMENT_3D('',#853,#854,#855);
#712=CARTESIAN_POINT('',(-0.0863846873993922,0.0591179660265743,0.114529402763133));
#713=VECTOR('',#856,1.0);
#714=CARTESIAN_POINT('',(-0.0848849299559994,0.0354276584823067,0.110777197682977));
#715=AXIS2_PLACEMENT_3D('',#857,#858,#859);
#716=CARTESIAN_POINT('',(-0.0747430529394573,0.0354275546435353,0.110777197680939));
#717=CARTESIAN_POINT('',(-0.0344249299586443,0.0354271418418077,0.110777197672835));
#718=VECTOR('',#860,1.0);
#719=AXIS2_PLACEMENT_3D('',#861,#862,#863);
#720=CARTESIAN_POINT('',(-0.0732429256075578,0.0478639465167219,0.112746947568931));
#721=VECTOR('',#864,1.0);
#722=CARTESIAN_POINT('',(-0.0732429208030975,0.048333253744358,0.109783883154163));
#723=VECTOR('',#865,1.0);
#724=CARTESIAN_POINT('',(-0.074743048134997,0.0358968618711714,0.10781413326617));
#725=AXIS2_PLACEMENT_3D('',#866,#867,#868);
#726=CARTESIAN_POINT('',(-0.0848849251515391,0.0358969657099428,0.107814133268209));
#727=CARTESIAN_POINT('',(-0.034424925154184,0.0358964490694438,0.107814133258067));
#728=VECTOR('',#869,1.0);
#729=AXIS2_PLACEMENT_3D('',#870,#871,#872);
#730=CARTESIAN_POINT('',(-0.0863844020275121,0.0869900572231725,0.115906549283785));
#731=CARTESIAN_POINT('',(-0.0863846825949319,0.0595872732542104,0.111566338348365));
#732=VECTOR('',#873,1.0);
#733=AXIS2_PLACEMENT_3D('',#874,#875,#876);
#734=CARTESIAN_POINT('',(-0.0358773478470733,0.0889649163775195,0.116219420758741));
#735=VECTOR('',#877,1.0);
#736=CARTESIAN_POINT('',(0.104035597962507,0.0869881075861568,0.115906549245511));
#737=AXIS2_PLACEMENT_3D('',#878,#879,#880);
#738=CARTESIAN_POINT('',(0.104035090007443,0.0373765636381557,0.108048786844067));
#739=CARTESIAN_POINT('',(0.104035560805123,0.083358977103772,0.115331746633355));
#740=VECTOR('',#881,1.0);
#741=AXIS2_PLACEMENT_3D('',#882,#883,#884);
#742=CARTESIAN_POINT('',(0.0918228831456419,0.0358951564667749,0.107814133232691));
#743=CARTESIAN_POINT('',(-0.034424925154184,0.0358964490694438,0.107814133258067));
#744=VECTOR('',#885,1.0);
#745=AXIS2_PLACEMENT_3D('',#886,#887,#888);
#746=CARTESIAN_POINT('',(0.0903230104776987,0.0483315790558057,0.109783883121286));
#747=VECTOR('',#889,1.0);
#748=CARTESIAN_POINT('',(-0.0848849299559994,0.0354276584823067,0.110777197682977));
#749=VECTOR('',#890,1.0);
#750=CARTESIAN_POINT('',(-0.0747430505372271,0.0356622082573534,0.109295665473555));
#751=VECTOR('',#891,1.0);
#752=CARTESIAN_POINT('',(-0.0863844316478151,0.0840966995162561,0.134174337964011));
#753=VECTOR('',#892,1.0);
#754=CARTESIAN_POINT('',(0.104035085202983,0.0369072564105196,0.111011851258835));
#755=VECTOR('',#893,1.0);
#756=CARTESIAN_POINT('',(0.0918228807434117,0.0356605028529569,0.109295665440075));
#757=VECTOR('',#894,1.0);
#758=CARTESIAN_POINT('',(0.104035568342204,0.0840947498792405,0.134174337925737));
#759=VECTOR('',#895,1.0);
#760=DIRECTION('',(-1.60148677380567E-06,-0.15643574254537,0.987688138256056));
#761=CARTESIAN_POINT('',(0.102035597962612,0.0869881280633863,0.115906549245913));
#762=DIRECTION('',(-1.6014867737519E-06,-0.15643574254537,0.987688138256056));
#763=DIRECTION('',(0.70711393183028,0.698393740427864,0.110616774237453));
#764=DIRECTION('',(-1.60148677380567E-06,-0.15643574254537,0.987688138256056));
#765=CARTESIAN_POINT('',(0.102035593158152,0.0865188208357502,0.118869613660681));
#766=DIRECTION('',(1.6014867737519E-06,0.15643574254537,-0.987688138256056));
#767=DIRECTION('',(0.70711393183028,0.698393740427864,0.110616774237453));
#768=DIRECTION('',(1.60148677380567E-06,0.15643574254537,-0.987688138256056));
#769=CARTESIAN_POINT('',(-0.0843844068320773,0.0865207295183069,0.118869613698152));
#770=DIRECTION('',(1.6014867737519E-06,0.15643574254537,-0.987688138256056));
#771=DIRECTION('',(-0.707099630468691,0.698408220015669,0.110616774521708));
#772=DIRECTION('',(1.60148677380567E-06,0.15643574254537,-0.987688138256056));
#773=CARTESIAN_POINT('',(-0.0843844020276169,0.086990036745943,0.115906549283383));
#774=DIRECTION('',(-1.6014867737519E-06,-0.15643574254537,0.987688138256056));
#775=DIRECTION('',(-0.707099630468691,0.698408220015669,0.110616774521708));
#776=DIRECTION('',(1.60148677369465E-06,0.15643574254537,-0.987688138256056));
#777=CARTESIAN_POINT('',(0.0918228631722969,0.0339443170318324,0.110542544033629));
#778=DIRECTION('',(-1.60148677374895E-06,-0.15643574254537,0.987688138256056));
#779=DIRECTION('',(-0.70709963046869,0.69840822001567,0.110616774521708));
#780=DIRECTION('',(1.60148677375016E-06,0.15643574254537,-0.987688138256056));
#781=CARTESIAN_POINT('',(0.0918228679767573,0.0344136242594685,0.107579479618861));
#782=DIRECTION('',(1.60148677374895E-06,0.15643574254537,-0.987688138256056));
#783=DIRECTION('',(-0.70709963046869,0.69840822001567,0.110616774521708));
#784=DIRECTION('',(1.60148677380567E-06,0.15643574254537,-0.987688138256056));
#785=CARTESIAN_POINT('',(0.102535085203062,0.0369072717684416,0.111011851259136));
#786=DIRECTION('',(1.60148677373719E-06,0.15643574254537,-0.987688138256056));
#787=DIRECTION('',(0.707099630468684,-0.698408220015675,-0.110616774521709));
#788=DIRECTION('',(1.60148677380567E-06,0.15643574254537,-0.987688138256056));
#789=CARTESIAN_POINT('',(0.102535090007522,0.0373765789960778,0.108048786844368));
#790=DIRECTION('',(-1.60148677373719E-06,-0.15643574254537,0.987688138256056));
#791=DIRECTION('',(0.707099630468684,-0.698408220015675,-0.110616774521709));
#792=DIRECTION('',(-1.60148677375016E-06,-0.15643574254537,0.987688138256056));
#793=CARTESIAN_POINT('',(-0.0747430633038816,0.034415329663865,0.10757947965234));
#794=DIRECTION('',(1.60148677373719E-06,0.15643574254537,-0.987688138256056));
#795=DIRECTION('',(0.707113931830275,0.698393740427869,0.110616774237454));
#796=DIRECTION('',(-1.60148677375016E-06,-0.15643574254537,0.987688138256056));
#797=CARTESIAN_POINT('',(-0.0747430681083419,0.0339460224362289,0.110542544067108));
#798=DIRECTION('',(-1.60148677373719E-06,-0.15643574254537,0.987688138256056));
#799=DIRECTION('',(0.707113931830275,0.698393740427869,0.110616774237454));
#800=DIRECTION('',(1.60148677380567E-06,0.15643574254537,-0.987688138256056));
#801=CARTESIAN_POINT('',(-0.0848849147871148,0.0369091906896131,0.111011851296807));
#802=DIRECTION('',(1.60148677374895E-06,0.15643574254537,-0.987688138256056));
#803=DIRECTION('',(-0.707113931830281,-0.698393740427863,-0.110616774237453));
#804=DIRECTION('',(1.60148677380567E-06,0.15643574254537,-0.987688138256056));
#805=CARTESIAN_POINT('',(-0.0848849099826545,0.0373784979172492,0.108048786882039));
#806=DIRECTION('',(-1.60148677374895E-06,-0.15643574254537,0.987688138256056));
#807=DIRECTION('',(-0.707113931830281,-0.698393740427863,-0.110616774237453));
#808=DIRECTION('',(-1.60148677375016E-06,-0.15643574254537,0.987688138256056));
#809=CARTESIAN_POINT('',(-0.0717430744352578,0.0333281221516004,0.107407286321822));
#810=DIRECTION('',(-1.60148677376072E-06,-0.15643574254537,0.987688138256056));
#811=DIRECTION('',(-0.707113931830283,-0.698393740427861,-0.110616774237453));
#812=DIRECTION('',(-1.60148677363914E-06,-0.15643574254537,0.987688138256056));
#813=CARTESIAN_POINT('',(-0.0717430792397181,0.0328588149239643,0.11037035073659));
#814=DIRECTION('',(1.60148677376072E-06,0.15643574254537,-0.987688138256056));
#815=DIRECTION('',(-0.707113931830283,-0.698393740427861,-0.110616774237453));
#816=DIRECTION('',(-1.60148677369465E-06,-0.15643574254537,0.987688138256056));
#817=CARTESIAN_POINT('',(0.0888228568456955,0.0333264781788922,0.107407286289548));
#818=DIRECTION('',(-1.60148677371366E-06,-0.15643574254537,0.987688138256056));
#819=DIRECTION('',(0.707099630468693,-0.698408220015667,-0.110616774521707));
#820=DIRECTION('',(-1.60148677363914E-06,-0.15643574254537,0.987688138256056));
#821=CARTESIAN_POINT('',(0.0888228520412352,0.0328571709512561,0.110370350704317));
#822=DIRECTION('',(1.60148677371366E-06,0.15643574254537,-0.987688138256056));
#823=DIRECTION('',(0.707099630468693,-0.698408220015667,-0.110616774521707));
#824=CARTESIAN_POINT('',(0.0888228520412352,0.0328571709512561,0.110370350704317));
#825=DIRECTION('',(1.60148677371366E-06,0.15643574254537,-0.987688138256056));
#826=DIRECTION('',(0.707099630468693,-0.698408220015667,-0.110616774521707));
#827=DIRECTION('',(1.60148677358363E-06,0.15643574254537,-0.987688138256056));
#828=CARTESIAN_POINT('',(0.0888228568456955,0.0333264781788922,0.107407286289548));
#829=DIRECTION('',(-1.60148677371366E-06,-0.15643574254537,0.987688138256056));
#830=DIRECTION('',(0.707099630468693,-0.698408220015667,-0.110616774521707));
#831=CARTESIAN_POINT('',(-0.0717430792397181,0.0328588149239643,0.11037035073659));
#832=DIRECTION('',(1.60148677376072E-06,0.15643574254537,-0.987688138256056));
#833=DIRECTION('',(-0.707113931830283,-0.698393740427861,-0.110616774237453));
#834=DIRECTION('',(1.60148677363914E-06,0.15643574254537,-0.987688138256056));
#835=CARTESIAN_POINT('',(-0.0717430744352578,0.0333281221516004,0.107407286321822));
#836=DIRECTION('',(-1.60148677376072E-06,-0.15643574254537,0.987688138256056));
#837=DIRECTION('',(-0.707113931830283,-0.698393740427861,-0.110616774237453));
#838=DIRECTION('',(0.999999999947585,-1.02386147234526E-05,-2.00998107047212E-10));
#839=DIRECTION('',(0.999999999947585,-1.02386147234526E-05,-2.00998107047212E-10));
#840=DIRECTION('',(1.0112589757999E-05,0.987688138204286,0.156435742553567));
#841=CARTESIAN_POINT('',(0.0918228631722969,0.0339443170318324,0.110542544033629));
#842=DIRECTION('',(-1.60148677374895E-06,-0.15643574254537,0.987688138256056));
#843=DIRECTION('',(-0.70709963046869,0.69840822001567,0.110616774521708));
#844=DIRECTION('',(0.999999999947585,-1.02386147234526E-05,-2.00998051536061E-10));
#845=CARTESIAN_POINT('',(0.102535085203062,0.0369072717684416,0.111011851259136));
#846=DIRECTION('',(1.60148677373719E-06,0.15643574254537,-0.987688138256056));
#847=DIRECTION('',(0.707099630468684,-0.698408220015675,-0.110616774521709));
#848=DIRECTION('',(1.01125897578047E-05,0.987688138204286,0.156435742553567));
#849=CARTESIAN_POINT('',(0.102035593158152,0.0865188208357502,0.118869613660681));
#850=DIRECTION('',(1.6014867737519E-06,0.15643574254537,-0.987688138256056));
#851=DIRECTION('',(0.70711393183028,0.698393740427864,0.110616774237453));
#852=DIRECTION('',(-0.999999999947585,1.02386147234526E-05,2.00998051536061E-10));
#853=CARTESIAN_POINT('',(-0.0843844068320773,0.0865207295183069,0.118869613698152));
#854=DIRECTION('',(1.6014867737519E-06,0.15643574254537,-0.987688138256056));
#855=DIRECTION('',(-0.707099630468691,0.698408220015669,0.110616774521708));
#856=DIRECTION('',(-1.01125897579851E-05,-0.987688138204286,-0.156435742553567));
#857=CARTESIAN_POINT('',(-0.0848849147871148,0.0369091906896131,0.111011851296807));
#858=DIRECTION('',(1.60148677374895E-06,0.15643574254537,-0.987688138256056));
#859=DIRECTION('',(-0.707113931830281,-0.698393740427863,-0.110616774237453));
#860=DIRECTION('',(0.999999999947585,-1.02386147234526E-05,-2.00998051536061E-10));
#861=CARTESIAN_POINT('',(-0.0747430681083419,0.0339460224362289,0.110542544067108));
#862=DIRECTION('',(-1.60148677373719E-06,-0.15643574254537,0.987688138256056));
#863=DIRECTION('',(0.707113931830275,0.698393740427869,0.110616774237454));
#864=DIRECTION('',(-1.0112589756292E-05,-0.987688138204286,-0.156435742553567));
#865=DIRECTION('',(-1.0112589756292E-05,-0.987688138204286,-0.156435742553567));
#866=CARTESIAN_POINT('',(-0.0747430633038816,0.034415329663865,0.10757947965234));
#867=DIRECTION('',(1.60148677373719E-06,0.15643574254537,-0.987688138256056));
#868=DIRECTION('',(0.707113931830275,0.698393740427869,0.110616774237454));
#869=DIRECTION('',(0.999999999947585,-1.02386147234526E-05,-2.00998051536061E-10));
#870=CARTESIAN_POINT('',(-0.0848849099826545,0.0373784979172492,0.108048786882039));
#871=DIRECTION('',(-1.60148677374895E-06,-0.15643574254537,0.987688138256056));
#872=DIRECTION('',(-0.707113931830281,-0.698393740427863,-0.110616774237453));
#873=DIRECTION('',(-1.01125897579851E-05,-0.987688138204286,-0.156435742553567));
#874=CARTESIAN_POINT('',(-0.0843844020276169,0.086990036745943,0.115906549283383));
#875=DIRECTION('',(-1.6014867737519E-06,-0.15643574254537,0.987688138256056));
#876=DIRECTION('',(-0.707099630468691,0.698408220015669,0.110616774521708));
#877=DIRECTION('',(-0.999999999947585,1.02386147234526E-05,2.00998051536061E-10));
#878=CARTESIAN_POINT('',(0.102035597962612,0.0869881280633863,0.115906549245913));
#879=DIRECTION('',(-1.6014867737519E-06,-0.15643574254537,0.987688138256056));
#880=DIRECTION('',(0.70711393183028,0.698393740427864,0.110616774237453));
#881=DIRECTION('',(1.01125897579435E-05,0.987688138204286,0.156435742553567));
#882=CARTESIAN_POINT('',(0.102535090007522,0.0373765789960778,0.108048786844368));
#883=DIRECTION('',(-1.60148677373719E-06,-0.15643574254537,0.987688138256056));
#884=DIRECTION('',(0.707099630468684,-0.698408220015675,-0.110616774521709));
#885=DIRECTION('',(0.999999999947585,-1.02386147234526E-05,-2.00998051536061E-10));
#886=CARTESIAN_POINT('',(0.0918228679767573,0.0344136242594685,0.107579479618861));
#887=DIRECTION('',(1.60148677374895E-06,0.15643574254537,-0.987688138256056));
#888=DIRECTION('',(-0.70709963046869,0.69840822001567,0.110616774521708));
#889=DIRECTION('',(1.0112589757999E-05,0.987688138204286,0.156435742553567));
#890=DIRECTION('',(-1.60148677380567E-06,-0.15643574254537,0.987688138256056));
#891=DIRECTION('',(1.60148677375016E-06,0.15643574254537,-0.987688138256056));
#892=DIRECTION('',(-1.60148677380567E-06,-0.15643574254537,0.987688138256056));
#893=DIRECTION('',(-1.60148677380567E-06,-0.15643574254537,0.987688138256056));
#894=DIRECTION('',(-1.60148677369465E-06,-0.15643574254537,0.987688138256056));
#895=DIRECTION('',(1.60148677380567E-06,0.15643574254537,-0.987688138256056));
#896=PRESENTATION_LAYER_ASSIGNMENT('9','Layer0',(#25));
ENDSEC;
END-ISO-10303-21;
