ISO-10303-21;
HEADER;
FILE_DESCRIPTION(('STEP AP214'),'1');
FILE_NAME('PCB_cover.stp','2026-09-05T11:58:28',(' '),(' '),'Spatial InterOp 3D',' ',' ');
FILE_SCHEMA(('AUTOMOTIVE_DESIGN { 1 0 10303 214 1 1 1 1 }'));
ENDSEC;
DATA;
#1=MECHANICAL_DESIGN_GEOMETRIC_PRESENTATION_REPRESENTATION(' ',(#10),#6);
#2=PRODUCT_DEFINITION_CONTEXT('',#11,'design');
#3=APPLICATION_PROTOCOL_DEFINITION('INTERNATIONAL STANDARD','automotive_design',1994,#11);
#4=PRODUCT_CATEGORY_RELATIONSHIP('NONE','NONE',#12,#13);
#5=SHAPE_DEFINITION_REPRESENTATION(#14,#15);
#6= (GEOMETRIC_REPRESENTATION_CONTEXT(3)GLOBAL_UNCERTAINTY_ASSIGNED_CONTEXT((#18))GLOBAL_UNIT_ASSIGNED_CONTEXT((#20,#21,#22))REPRESENTATION_CONTEXT('NONE','WORKSPACE'));
#10=STYLED_ITEM('',(#24),#25);
#11=APPLICATION_CONTEXT(' ');
#12=PRODUCT_CATEGORY('part','NONE');
#13=PRODUCT_RELATED_PRODUCT_CATEGORY('detail',' ',(#26));
#14=PRODUCT_DEFINITION_SHAPE('NONE','NONE',#27);
#15=ADVANCED_BREP_SHAPE_REPRESENTATION('PCB_cover',(#25,#28),#6);
#18=UNCERTAINTY_MEASURE_WITH_UNIT(LENGTH_MEASURE(1.0E-08),#20,'','');
#20= (CONVERSION_BASED_UNIT('METRE',#31)LENGTH_UNIT()NAMED_UNIT(#34));
#21= (NAMED_UNIT(#36)PLANE_ANGLE_UNIT()SI_UNIT($,.RADIAN.));
#22= (NAMED_UNIT(#36)SOLID_ANGLE_UNIT()SI_UNIT($,.STERADIAN.));
#24=PRESENTATION_STYLE_ASSIGNMENT((#42));
#25=MANIFOLD_SOLID_BREP('PCB_cover',#43);
#26=PRODUCT('PCB_cover','','PART--DESC',(#44));
#27=PRODUCT_DEFINITION('','NONE',#45,#2);
#28=AXIS2_PLACEMENT_3D('',#46,#47,#48);
#31=LENGTH_MEASURE_WITH_UNIT(LENGTH_MEASURE(1.0),#49);
#34=DIMENSIONAL_EXPONENTS(1.0,0.0,0.0,0.0,0.0,0.0,0.0);
#36=DIMENSIONAL_EXPONENTS(0.0,0.0,0.0,0.0,0.0,0.0,0.0);
#42=SURFACE_STYLE_USAGE(.BOTH.,#50);
#43=CLOSED_SHELL('',(#51,#52,#53,#54,#55,#56,#57,#58,#59,#60,#61,#62,#63,#64,#65,#66,#67,#68,#69,#70,#71,#72,#73,#74,#75,#76,#77,#78));
#44=PRODUCT_CONTEXT('',#11,'mechanical');
#45=PRODUCT_DEFINITION_FORMATION_WITH_SPECIFIED_SOURCE(' ','NONE',#26,.NOT_KNOWN.);
#46=CARTESIAN_POINT('',(0.0,0.0,0.0));
#47=DIRECTION('',(0.0,0.0,1.0));
#48=DIRECTION('',(1.0,0.0,0.0));
#49= (NAMED_UNIT(#34)LENGTH_UNIT()SI_UNIT($,.METRE.));
#50=SURFACE_SIDE_STYLE('',(#80));
#51=ADVANCED_FACE('3:104686',(#81),#82,.F.);
#52=ADVANCED_FACE('3:104683',(#83),#84,.F.);
#53=ADVANCED_FACE('3:104680',(#85),#86,.F.);
#54=ADVANCED_FACE('3:104677',(#87),#88,.F.);
#55=ADVANCED_FACE('3:104671',(#89),#90,.T.);
#56=ADVANCED_FACE('3:104668',(#91),#92,.T.);
#57=ADVANCED_FACE('3:104650',(#93),#94,.T.);
#58=ADVANCED_FACE('3:104647',(#95),#96,.T.);
#59=ADVANCED_FACE('3:104641',(#97),#98,.F.);
#60=ADVANCED_FACE('3:104635',(#99),#100,.T.);
#61=ADVANCED_FACE('3:104635',(#101),#102,.T.);
#62=ADVANCED_FACE('3:104638',(#103),#104,.T.);
#63=ADVANCED_FACE('3:104641',(#105),#106,.F.);
#64=ADVANCED_FACE('3:104644',(#107,#108),#109,.T.);
#65=ADVANCED_FACE('3:104647',(#110),#111,.T.);
#66=ADVANCED_FACE('3:104650',(#112),#113,.T.);
#67=ADVANCED_FACE('3:104653',(#114),#115,.T.);
#68=ADVANCED_FACE('3:104656',(#116,#117,#118),#119,.F.);
#69=ADVANCED_FACE('3:104659',(#120,#121,#122,#123),#124,.T.);
#70=ADVANCED_FACE('3:104662',(#125),#126,.T.);
#71=ADVANCED_FACE('3:104665',(#127),#128,.T.);
#72=ADVANCED_FACE('3:104668',(#129),#130,.T.);
#73=ADVANCED_FACE('3:104671',(#131),#132,.T.);
#74=ADVANCED_FACE('3:104674',(#133),#134,.F.);
#75=ADVANCED_FACE('3:104677',(#135),#136,.F.);
#76=ADVANCED_FACE('3:104680',(#137),#138,.F.);
#77=ADVANCED_FACE('3:104683',(#139),#140,.F.);
#78=ADVANCED_FACE('3:104686',(#141),#142,.F.);
#80=SURFACE_STYLE_FILL_AREA(#143);
#81=FACE_OUTER_BOUND('',#144,.T.);
#82=CYLINDRICAL_SURFACE('',#145,0.00235);
#83=FACE_OUTER_BOUND('',#146,.T.);
#84=CONICAL_SURFACE('',#147,0.00435,0.785398163397448);
#85=FACE_OUTER_BOUND('',#148,.T.);
#86=CYLINDRICAL_SURFACE('',#149,0.00235);
#87=FACE_OUTER_BOUND('',#150,.T.);
#88=CONICAL_SURFACE('',#151,0.00435,0.785398163397448);
#89=FACE_OUTER_BOUND('',#152,.T.);
#90=CYLINDRICAL_SURFACE('',#153,0.002);
#91=FACE_OUTER_BOUND('',#154,.T.);
#92=CYLINDRICAL_SURFACE('',#155,0.002);
#93=FACE_OUTER_BOUND('',#156,.T.);
#94=CYLINDRICAL_SURFACE('',#157,0.002);
#95=FACE_OUTER_BOUND('',#158,.T.);
#96=CYLINDRICAL_SURFACE('',#159,0.002);
#97=FACE_OUTER_BOUND('',#160,.T.);
#98=CONICAL_SURFACE('',#161,0.0036,0.785398163397448);
#99=FACE_OUTER_BOUND('',#162,.T.);
#100=CYLINDRICAL_SURFACE('',#163,0.00219999999999999);
#101=FACE_OUTER_BOUND('',#164,.T.);
#102=CYLINDRICAL_SURFACE('',#165,0.00219999999999999);
#103=FACE_OUTER_BOUND('',#166,.T.);
#104=PLANE('',#167);
#105=FACE_OUTER_BOUND('',#168,.T.);
#106=CONICAL_SURFACE('',#169,0.0036,0.785398163397448);
#107=FACE_BOUND('',#170,.T.);
#108=FACE_OUTER_BOUND('',#171,.T.);
#109=PLANE('',#172);
#110=FACE_OUTER_BOUND('',#173,.T.);
#111=CYLINDRICAL_SURFACE('',#174,0.002);
#112=FACE_OUTER_BOUND('',#175,.T.);
#113=CYLINDRICAL_SURFACE('',#176,0.002);
#114=FACE_OUTER_BOUND('',#177,.T.);
#115=PLANE('',#178);
#116=FACE_BOUND('',#179,.T.);
#117=FACE_BOUND('',#180,.T.);
#118=FACE_OUTER_BOUND('',#181,.T.);
#119=PLANE('',#182);
#120=FACE_OUTER_BOUND('',#183,.T.);
#121=FACE_BOUND('',#184,.T.);
#122=FACE_BOUND('',#185,.T.);
#123=FACE_BOUND('',#186,.T.);
#124=PLANE('',#187);
#125=FACE_OUTER_BOUND('',#188,.T.);
#126=PLANE('',#189);
#127=FACE_OUTER_BOUND('',#190,.T.);
#128=PLANE('',#191);
#129=FACE_OUTER_BOUND('',#192,.T.);
#130=CYLINDRICAL_SURFACE('',#193,0.002);
#131=FACE_OUTER_BOUND('',#194,.T.);
#132=CYLINDRICAL_SURFACE('',#195,0.002);
#133=FACE_OUTER_BOUND('',#196,.T.);
#134=PLANE('',#197);
#135=FACE_OUTER_BOUND('',#198,.T.);
#136=CONICAL_SURFACE('',#199,0.00435,0.785398163397448);
#137=FACE_OUTER_BOUND('',#200,.T.);
#138=CYLINDRICAL_SURFACE('',#201,0.00235);
#139=FACE_OUTER_BOUND('',#202,.T.);
#140=CONICAL_SURFACE('',#203,0.00435,0.785398163397448);
#141=FACE_OUTER_BOUND('',#204,.T.);
#142=CYLINDRICAL_SURFACE('',#205,0.00235);
#143=FILL_AREA_STYLE('',(#206));
#144=EDGE_LOOP('',(#207,#208,#209,#210));
#145=AXIS2_PLACEMENT_3D('',#211,#212,#213);
#146=EDGE_LOOP('',(#214,#215,#216,#217));
#147=AXIS2_PLACEMENT_3D('',#218,#219,#220);
#148=EDGE_LOOP('',(#221,#222,#223,#224));
#149=AXIS2_PLACEMENT_3D('',#225,#226,#227);
#150=EDGE_LOOP('',(#228,#229,#230,#231));
#151=AXIS2_PLACEMENT_3D('',#232,#233,#234);
#152=EDGE_LOOP('',(#235,#236,#237,#238));
#153=AXIS2_PLACEMENT_3D('',#239,#240,#241);
#154=EDGE_LOOP('',(#242,#243,#244,#245));
#155=AXIS2_PLACEMENT_3D('',#246,#247,#248);
#156=EDGE_LOOP('',(#249,#250,#251,#252));
#157=AXIS2_PLACEMENT_3D('',#253,#254,#255);
#158=EDGE_LOOP('',(#256,#257,#258,#259));
#159=AXIS2_PLACEMENT_3D('',#260,#261,#262);
#160=EDGE_LOOP('',(#263,#264,#265,#266));
#161=AXIS2_PLACEMENT_3D('',#267,#268,#269);
#162=EDGE_LOOP('',(#270,#271,#272,#273));
#163=AXIS2_PLACEMENT_3D('',#274,#275,#276);
#164=EDGE_LOOP('',(#277,#278,#279,#280));
#165=AXIS2_PLACEMENT_3D('',#281,#282,#283);
#166=EDGE_LOOP('',(#284,#285));
#167=AXIS2_PLACEMENT_3D('',#286,#287,#288);
#168=EDGE_LOOP('',(#289,#290,#291,#292));
#169=AXIS2_PLACEMENT_3D('',#293,#294,#295);
#170=EDGE_LOOP('',(#296,#297));
#171=EDGE_LOOP('',(#298,#299));
#172=AXIS2_PLACEMENT_3D('',#300,#301,#302);
#173=EDGE_LOOP('',(#303,#304,#305,#306));
#174=AXIS2_PLACEMENT_3D('',#307,#308,#309);
#175=EDGE_LOOP('',(#310,#311,#312,#313));
#176=AXIS2_PLACEMENT_3D('',#314,#315,#316);
#177=EDGE_LOOP('',(#317,#318,#319,#320));
#178=AXIS2_PLACEMENT_3D('',#321,#322,#323);
#179=EDGE_LOOP('',(#324,#325));
#180=EDGE_LOOP('',(#326,#327));
#181=EDGE_LOOP('',(#328,#329,#330,#331,#332,#333,#334,#335,#336,#337,#338,#339));
#182=AXIS2_PLACEMENT_3D('',#340,#341,#342);
#183=EDGE_LOOP('',(#343,#344,#345,#346,#347,#348,#349,#350,#351,#352,#353,#354));
#184=EDGE_LOOP('',(#355,#356));
#185=EDGE_LOOP('',(#357,#358));
#186=EDGE_LOOP('',(#359,#360));
#187=AXIS2_PLACEMENT_3D('',#361,#362,#363);
#188=EDGE_LOOP('',(#364,#365,#366,#367));
#189=AXIS2_PLACEMENT_3D('',#368,#369,#370);
#190=EDGE_LOOP('',(#371,#372,#373,#374));
#191=AXIS2_PLACEMENT_3D('',#375,#376,#377);
#192=EDGE_LOOP('',(#378,#379,#380,#381));
#193=AXIS2_PLACEMENT_3D('',#382,#383,#384);
#194=EDGE_LOOP('',(#385,#386,#387,#388));
#195=AXIS2_PLACEMENT_3D('',#389,#390,#391);
#196=EDGE_LOOP('',(#392,#393,#394,#395));
#197=AXIS2_PLACEMENT_3D('',#396,#397,#398);
#198=EDGE_LOOP('',(#399,#400,#401,#402));
#199=AXIS2_PLACEMENT_3D('',#403,#404,#405);
#200=EDGE_LOOP('',(#406,#407,#408,#409));
#201=AXIS2_PLACEMENT_3D('',#410,#411,#412);
#202=EDGE_LOOP('',(#413,#414,#415,#416));
#203=AXIS2_PLACEMENT_3D('',#417,#418,#419);
#204=EDGE_LOOP('',(#420,#421,#422,#423));
#205=AXIS2_PLACEMENT_3D('',#424,#425,#426);
#206=FILL_AREA_STYLE_COLOUR('',#427);
#207=ORIENTED_EDGE('',*,*,#428,.F.);
#208=ORIENTED_EDGE('',*,*,#429,.F.);
#209=ORIENTED_EDGE('',*,*,#430,.F.);
#210=ORIENTED_EDGE('',*,*,#431,.F.);
#211=CARTESIAN_POINT('',(-0.0828820714683679,0.107895087929247,0.141383565554382));
#212=DIRECTION('',(-8.86682007758543E-06,-0.866027369484065,0.499996595214299));
#213=DIRECTION('',(0.999999999947587,-1.02384986774897E-05,-2.36051099982367E-17));
#214=ORIENTED_EDGE('',*,*,#432,.F.);
#215=ORIENTED_EDGE('',*,*,#433,.T.);
#216=ORIENTED_EDGE('',*,*,#434,.F.);
#217=ORIENTED_EDGE('',*,*,#435,.T.);
#218=CARTESIAN_POINT('',(-0.0828820714683679,0.107895087929247,0.141383565554382));
#219=DIRECTION('',(8.8668200776687E-06,0.866027369484064,-0.499996595214299));
#220=DIRECTION('',(-0.999999999947587,1.02384986773757E-05,-3.40474452789988E-16));
#221=ORIENTED_EDGE('',*,*,#436,.F.);
#222=ORIENTED_EDGE('',*,*,#437,.F.);
#223=ORIENTED_EDGE('',*,*,#438,.F.);
#224=ORIENTED_EDGE('',*,*,#439,.F.);
#225=CARTESIAN_POINT('',(0.0999767660079288,0.107616825427316,0.140904839162136));
#226=DIRECTION('',(-8.86682007758544E-06,-0.866027369484064,0.499996595214299));
#227=DIRECTION('',(0.999999999947587,-1.02384986743985E-05,5.33065890719611E-15));
#228=ORIENTED_EDGE('',*,*,#440,.F.);
#229=ORIENTED_EDGE('',*,*,#441,.T.);
#230=ORIENTED_EDGE('',*,*,#442,.F.);
#231=ORIENTED_EDGE('',*,*,#443,.T.);
#232=CARTESIAN_POINT('',(0.0999767660079288,0.107616825427316,0.140904839162136));
#233=DIRECTION('',(8.8668200776687E-06,0.866027369484064,-0.499996595214299));
#234=DIRECTION('',(-0.999999999947587,1.02384986741174E-05,-5.98395930223293E-15));
#235=ORIENTED_EDGE('',*,*,#444,.F.);
#236=ORIENTED_EDGE('',*,*,#445,.T.);
#237=ORIENTED_EDGE('',*,*,#446,.T.);
#238=ORIENTED_EDGE('',*,*,#447,.T.);
#239=CARTESIAN_POINT('',(-0.0893866357406314,0.0606778000956117,0.176283479059185));
#240=DIRECTION('',(8.86679306794936E-06,0.866024731420373,-0.500001164488295));
#241=DIRECTION('',(-0.707103161203073,0.353561453745186,0.612371960365766));
#242=ORIENTED_EDGE('',*,*,#448,.F.);
#243=ORIENTED_EDGE('',*,*,#449,.T.);
#244=ORIENTED_EDGE('',*,*,#450,.T.);
#245=ORIENTED_EDGE('',*,*,#451,.T.);
#246=CARTESIAN_POINT('',(0.106476285395292,0.0606757947306231,0.176283479019816));
#247=DIRECTION('',(-8.86679306794936E-06,-0.866024731420373,0.500001164488295));
#248=DIRECTION('',(0.707110401095894,0.35354697423944,0.612371960223638));
#249=ORIENTED_EDGE('',*,*,#452,.F.);
#250=ORIENTED_EDGE('',*,*,#453,.T.);
#251=ORIENTED_EDGE('',*,*,#454,.T.);
#252=ORIENTED_EDGE('',*,*,#455,.T.);
#253=CARTESIAN_POINT('',(-0.0893863471584044,0.0888637906378371,0.114420017937397));
#254=DIRECTION('',(8.866820077686E-06,0.866027369484064,-0.499996595214299));
#255=DIRECTION('',(-0.70711040098076,-0.353543743315841,-0.612373825687425));
#256=ORIENTED_EDGE('',*,*,#456,.F.);
#257=ORIENTED_EDGE('',*,*,#457,.T.);
#258=ORIENTED_EDGE('',*,*,#458,.T.);
#259=ORIENTED_EDGE('',*,*,#459,.T.);
#260=CARTESIAN_POINT('',(0.106476573977519,0.088861785295578,0.114420017937397));
#261=DIRECTION('',(8.86682007765953E-06,0.866027369484064,-0.499996595214299));
#262=DIRECTION('',(0.707103161318215,-0.353558222739529,-0.612373825687425));
#263=ORIENTED_EDGE('',*,*,#460,.F.);
#264=ORIENTED_EDGE('',*,*,#461,.F.);
#265=ORIENTED_EDGE('',*,*,#462,.F.);
#266=ORIENTED_EDGE('',*,*,#463,.T.);
#267=CARTESIAN_POINT('',(0.0704767782277889,0.108811209801139,0.142973069218559));
#268=DIRECTION('',(8.8668200776687E-06,0.866027369484064,-0.499996595214299));
#269=DIRECTION('',(0.999999999947586,-1.02384986778998E-05,-5.67349246578059E-16));
#270=ORIENTED_EDGE('',*,*,#464,.F.);
#271=ORIENTED_EDGE('',*,*,#465,.T.);
#272=ORIENTED_EDGE('',*,*,#466,.F.);
#273=ORIENTED_EDGE('',*,*,#467,.F.);
#274=CARTESIAN_POINT('',(0.0704767782277889,0.108811209801139,0.142973069218559));
#275=DIRECTION('',(-8.86682007744666E-06,-0.866027369484064,0.499996595214299));
#276=DIRECTION('',(-0.999999999947586,1.02384986773265E-05,1.84587856630335E-17));
#277=ORIENTED_EDGE('',*,*,#464,.T.);
#278=ORIENTED_EDGE('',*,*,#468,.F.);
#279=ORIENTED_EDGE('',*,*,#466,.T.);
#280=ORIENTED_EDGE('',*,*,#469,.T.);
#281=CARTESIAN_POINT('',(0.0704767782277889,0.108811209801139,0.142973069218559));
#282=DIRECTION('',(-8.86682007744666E-06,-0.866027369484064,0.499996595214299));
#283=DIRECTION('',(-0.999999999947586,1.02384986773265E-05,1.84587856630335E-17));
#284=ORIENTED_EDGE('',*,*,#465,.F.);
#285=ORIENTED_EDGE('',*,*,#469,.F.);
#286=CARTESIAN_POINT('',(0.0704767782277889,0.108811209801139,0.142973069218559));
#287=DIRECTION('',(8.86682007744666E-06,0.866027369484065,-0.499996595214299));
#288=DIRECTION('',(-0.999999999947587,1.02384986774947E-05,3.09751731748072E-16));
#289=ORIENTED_EDGE('',*,*,#460,.T.);
#290=ORIENTED_EDGE('',*,*,#470,.T.);
#291=ORIENTED_EDGE('',*,*,#462,.T.);
#292=ORIENTED_EDGE('',*,*,#471,.F.);
#293=CARTESIAN_POINT('',(0.0704767782277889,0.108811209801139,0.142973069218559));
#294=DIRECTION('',(8.8668200776687E-06,0.866027369484064,-0.499996595214299));
#295=DIRECTION('',(0.999999999947586,-1.02384986778998E-05,-5.67349246578059E-16));
#296=ORIENTED_EDGE('',*,*,#468,.T.);
#297=ORIENTED_EDGE('',*,*,#467,.T.);
#298=ORIENTED_EDGE('',*,*,#461,.T.);
#299=ORIENTED_EDGE('',*,*,#471,.T.);
#300=CARTESIAN_POINT('',(0.00854523269579394,0.100513542661908,0.130199870275921));
#301=DIRECTION('',(8.86682007758543E-06,0.866027369484064,-0.499996595214299));
#302=DIRECTION('',(-0.999999999947587,1.02384986775428E-05,1.15463454965993E-16));
#303=ORIENTED_EDGE('',*,*,#456,.T.);
#304=ORIENTED_EDGE('',*,*,#472,.T.);
#305=ORIENTED_EDGE('',*,*,#473,.T.);
#306=ORIENTED_EDGE('',*,*,#474,.T.);
#307=CARTESIAN_POINT('',(0.106476573977519,0.088861785295578,0.114420017937397));
#308=DIRECTION('',(8.86682007765953E-06,0.866027369484064,-0.499996595214299));
#309=DIRECTION('',(0.707103161318215,-0.353558222739529,-0.612373825687425));
#310=ORIENTED_EDGE('',*,*,#452,.T.);
#311=ORIENTED_EDGE('',*,*,#475,.T.);
#312=ORIENTED_EDGE('',*,*,#476,.T.);
#313=ORIENTED_EDGE('',*,*,#477,.T.);
#314=CARTESIAN_POINT('',(-0.0893863471584044,0.0888637906378371,0.114420017937397));
#315=DIRECTION('',(8.866820077686E-06,0.866027369484064,-0.499996595214299));
#316=DIRECTION('',(-0.70711040098076,-0.353543743315841,-0.612373825687425));
#317=ORIENTED_EDGE('',*,*,#458,.F.);
#318=ORIENTED_EDGE('',*,*,#478,.F.);
#319=ORIENTED_EDGE('',*,*,#476,.F.);
#320=ORIENTED_EDGE('',*,*,#479,.T.);
#321=CARTESIAN_POINT('',(0.00879388242576932,0.0878627922292053,0.112687963198338));
#322=DIRECTION('',(-5.11921447893249E-06,-0.499996595188093,-0.866027369529456));
#323=DIRECTION('',(-0.999999999947587,1.0238498677551E-05,5.87674184074919E-17));
#324=ORIENTED_EDGE('',*,*,#437,.T.);
#325=ORIENTED_EDGE('',*,*,#480,.T.);
#326=ORIENTED_EDGE('',*,*,#429,.T.);
#327=ORIENTED_EDGE('',*,*,#481,.T.);
#328=ORIENTED_EDGE('',*,*,#474,.F.);
#329=ORIENTED_EDGE('',*,*,#482,.T.);
#330=ORIENTED_EDGE('',*,*,#483,.F.);
#331=ORIENTED_EDGE('',*,*,#451,.F.);
#332=ORIENTED_EDGE('',*,*,#484,.T.);
#333=ORIENTED_EDGE('',*,*,#445,.F.);
#334=ORIENTED_EDGE('',*,*,#485,.F.);
#335=ORIENTED_EDGE('',*,*,#486,.T.);
#336=ORIENTED_EDGE('',*,*,#453,.F.);
#337=ORIENTED_EDGE('',*,*,#477,.F.);
#338=ORIENTED_EDGE('',*,*,#478,.T.);
#339=ORIENTED_EDGE('',*,*,#457,.F.);
#340=CARTESIAN_POINT('',(-0.0853880864590533,0.0894527077078516,0.115440132389633));
#341=DIRECTION('',(8.8668200776687E-06,0.866027369484064,-0.499996595214299));
#342=DIRECTION('',(-0.999999999947587,1.02384986775788E-05,1.13764220454868E-17));
#343=ORIENTED_EDGE('',*,*,#459,.F.);
#344=ORIENTED_EDGE('',*,*,#479,.F.);
#345=ORIENTED_EDGE('',*,*,#475,.F.);
#346=ORIENTED_EDGE('',*,*,#455,.F.);
#347=ORIENTED_EDGE('',*,*,#487,.F.);
#348=ORIENTED_EDGE('',*,*,#488,.F.);
#349=ORIENTED_EDGE('',*,*,#447,.F.);
#350=ORIENTED_EDGE('',*,*,#489,.T.);
#351=ORIENTED_EDGE('',*,*,#449,.F.);
#352=ORIENTED_EDGE('',*,*,#490,.F.);
#353=ORIENTED_EDGE('',*,*,#491,.F.);
#354=ORIENTED_EDGE('',*,*,#472,.F.);
#355=ORIENTED_EDGE('',*,*,#463,.F.);
#356=ORIENTED_EDGE('',*,*,#470,.F.);
#357=ORIENTED_EDGE('',*,*,#443,.F.);
#358=ORIENTED_EDGE('',*,*,#492,.F.);
#359=ORIENTED_EDGE('',*,*,#435,.F.);
#360=ORIENTED_EDGE('',*,*,#493,.F.);
#361=CARTESIAN_POINT('',(-0.0853880598585931,0.0920507898163038,0.11394014260399));
#362=DIRECTION('',(8.8668200776687E-06,0.866027369484064,-0.499996595214299));
#363=DIRECTION('',(-0.999999999947587,1.02384986776028E-05,5.30108214990399E-17));
#364=ORIENTED_EDGE('',*,*,#454,.F.);
#365=ORIENTED_EDGE('',*,*,#486,.F.);
#366=ORIENTED_EDGE('',*,*,#494,.F.);
#367=ORIENTED_EDGE('',*,*,#487,.T.);
#368=CARTESIAN_POINT('',(-0.0913862627943666,0.097103684523567,0.12869202691125));
#369=DIRECTION('',(-0.999999999947587,1.02384986773002E-05,-4.99601208114268E-16));
#370=DIRECTION('',(5.11921447832354E-06,0.499996595188093,0.866027369529456));
#371=ORIENTED_EDGE('',*,*,#473,.F.);
#372=ORIENTED_EDGE('',*,*,#491,.T.);
#373=ORIENTED_EDGE('',*,*,#495,.F.);
#374=ORIENTED_EDGE('',*,*,#482,.F.);
#375=CARTESIAN_POINT('',(0.108476658341348,0.0971016382273131,0.12869202691125));
#376=DIRECTION('',(0.999999999947587,-1.02384986775564E-05,5.55111512312578E-17));
#377=DIRECTION('',(-5.11921447883625E-06,-0.499996595188093,-0.866027369529456));
#378=ORIENTED_EDGE('',*,*,#448,.T.);
#379=ORIENTED_EDGE('',*,*,#483,.T.);
#380=ORIENTED_EDGE('',*,*,#495,.T.);
#381=ORIENTED_EDGE('',*,*,#490,.T.);
#382=CARTESIAN_POINT('',(0.106476285395292,0.0606757947306231,0.176283479019816));
#383=DIRECTION('',(-8.86679306794936E-06,-0.866024731420373,0.500001164488295));
#384=DIRECTION('',(0.707110401095894,0.35354697423944,0.612371960223638));
#385=ORIENTED_EDGE('',*,*,#444,.T.);
#386=ORIENTED_EDGE('',*,*,#488,.T.);
#387=ORIENTED_EDGE('',*,*,#494,.T.);
#388=ORIENTED_EDGE('',*,*,#485,.T.);
#389=CARTESIAN_POINT('',(-0.0893866357406314,0.0606778000956117,0.176283479059185));
#390=DIRECTION('',(8.86679306794936E-06,0.866024731420373,-0.500001164488295));
#391=DIRECTION('',(-0.707103161203073,0.353561453745186,0.612371960365766));
#392=ORIENTED_EDGE('',*,*,#450,.F.);
#393=ORIENTED_EDGE('',*,*,#489,.F.);
#394=ORIENTED_EDGE('',*,*,#446,.F.);
#395=ORIENTED_EDGE('',*,*,#484,.F.);
#396=CARTESIAN_POINT('',(0.10970580494173,0.0137486731661632,0.205686333197528));
#397=DIRECTION('',(-5.11949335624262E-06,-0.500001164462086,-0.866024731465764));
#398=DIRECTION('',(-0.999999999947116,1.02842947684566E-05,-2.61724672566812E-08));
#399=ORIENTED_EDGE('',*,*,#440,.T.);
#400=ORIENTED_EDGE('',*,*,#492,.T.);
#401=ORIENTED_EDGE('',*,*,#442,.T.);
#402=ORIENTED_EDGE('',*,*,#439,.T.);
#403=CARTESIAN_POINT('',(0.0999767660079288,0.107616825427316,0.140904839162136));
#404=DIRECTION('',(8.8668200776687E-06,0.866027369484064,-0.499996595214299));
#405=DIRECTION('',(-0.999999999947587,1.02384986741174E-05,-5.98395930223293E-15));
#406=ORIENTED_EDGE('',*,*,#436,.T.);
#407=ORIENTED_EDGE('',*,*,#441,.F.);
#408=ORIENTED_EDGE('',*,*,#438,.T.);
#409=ORIENTED_EDGE('',*,*,#480,.F.);
#410=CARTESIAN_POINT('',(0.0999767660079288,0.107616825427316,0.140904839162136));
#411=DIRECTION('',(-8.86682007758544E-06,-0.866027369484064,0.499996595214299));
#412=DIRECTION('',(0.999999999947587,-1.02384986743985E-05,5.33065890719611E-15));
#413=ORIENTED_EDGE('',*,*,#432,.T.);
#414=ORIENTED_EDGE('',*,*,#493,.T.);
#415=ORIENTED_EDGE('',*,*,#434,.T.);
#416=ORIENTED_EDGE('',*,*,#431,.T.);
#417=CARTESIAN_POINT('',(-0.0828820714683679,0.107895087929247,0.141383565554382));
#418=DIRECTION('',(8.8668200776687E-06,0.866027369484064,-0.499996595214299));
#419=DIRECTION('',(-0.999999999947587,1.02384986773757E-05,-3.40474452789988E-16));
#420=ORIENTED_EDGE('',*,*,#428,.T.);
#421=ORIENTED_EDGE('',*,*,#433,.F.);
#422=ORIENTED_EDGE('',*,*,#430,.T.);
#423=ORIENTED_EDGE('',*,*,#481,.F.);
#424=CARTESIAN_POINT('',(-0.0828820714683679,0.107895087929247,0.141383565554382));
#425=DIRECTION('',(-8.86682007758543E-06,-0.866027369484065,0.499996595214299));
#426=DIRECTION('',(0.999999999947587,-1.02384986774897E-05,-2.36051099982367E-17));
#427=COLOUR_RGB('',0.623529434204102,0.560784339904785,0.686274528503418);
#428=EDGE_CURVE('',#496,#497,#498,.T.);
#429=EDGE_CURVE('3:104734',#499,#496,#500,.F.);
#430=EDGE_CURVE('',#501,#499,#502,.T.);
#431=EDGE_CURVE('3:104788',#497,#501,#503,.T.);
#432=EDGE_CURVE('',#501,#504,#505,.T.);
#433=EDGE_CURVE('3:104788',#501,#497,#506,.T.);
#434=EDGE_CURVE('',#507,#497,#508,.T.);
#435=EDGE_CURVE('3:104770',#507,#504,#509,.T.);
#436=EDGE_CURVE('',#510,#511,#512,.T.);
#437=EDGE_CURVE('3:104731',#513,#510,#514,.F.);
#438=EDGE_CURVE('',#515,#513,#516,.T.);
#439=EDGE_CURVE('3:104785',#511,#515,#517,.T.);
#440=EDGE_CURVE('',#515,#518,#519,.T.);
#441=EDGE_CURVE('3:104785',#515,#511,#520,.T.);
#442=EDGE_CURVE('',#521,#511,#522,.T.);
#443=EDGE_CURVE('3:104767',#521,#518,#523,.T.);
#444=EDGE_CURVE('',#524,#525,#526,.T.);
#445=EDGE_CURVE('3:104746',#524,#527,#528,.T.);
#446=EDGE_CURVE('3:104782',#527,#529,#530,.T.);
#447=EDGE_CURVE('3:104755',#529,#525,#531,.T.);
#448=EDGE_CURVE('',#532,#533,#534,.T.);
#449=EDGE_CURVE('3:104761',#532,#535,#536,.T.);
#450=EDGE_CURVE('3:104779',#535,#537,#538,.T.);
#451=EDGE_CURVE('3:104740',#537,#533,#539,.T.);
#452=EDGE_CURVE('',#540,#541,#542,.T.);
#453=EDGE_CURVE('3:104719',#540,#543,#544,.T.);
#454=EDGE_CURVE('3:104722',#543,#545,#546,.T.);
#455=EDGE_CURVE('3:104713',#545,#541,#547,.T.);
#456=EDGE_CURVE('',#548,#549,#550,.T.);
#457=EDGE_CURVE('3:104707',#548,#551,#552,.T.);
#458=EDGE_CURVE('3:104710',#551,#553,#554,.T.);
#459=EDGE_CURVE('3:104701',#553,#549,#555,.T.);
#460=EDGE_CURVE('',#556,#557,#558,.T.);
#461=EDGE_CURVE('3:104695',#559,#556,#560,.F.);
#462=EDGE_CURVE('',#561,#559,#562,.T.);
#463=EDGE_CURVE('3:104698',#561,#557,#563,.T.);
#464=EDGE_CURVE('',#564,#565,#566,.T.);
#465=EDGE_CURVE('3:104689',#564,#567,#568,.T.);
#466=EDGE_CURVE('',#569,#567,#570,.T.);
#467=EDGE_CURVE('3:104692',#565,#569,#571,.T.);
#468=EDGE_CURVE('3:104692',#569,#565,#572,.T.);
#469=EDGE_CURVE('3:104689',#567,#564,#573,.T.);
#470=EDGE_CURVE('3:104698',#557,#561,#574,.T.);
#471=EDGE_CURVE('3:104695',#556,#559,#575,.F.);
#472=EDGE_CURVE('3:104701',#549,#576,#577,.T.);
#473=EDGE_CURVE('3:104704',#576,#578,#579,.T.);
#474=EDGE_CURVE('3:104707',#578,#548,#580,.T.);
#475=EDGE_CURVE('3:104713',#541,#581,#582,.T.);
#476=EDGE_CURVE('3:104716',#581,#583,#584,.T.);
#477=EDGE_CURVE('3:104719',#583,#540,#585,.T.);
#478=EDGE_CURVE('3:104725',#583,#551,#586,.T.);
#479=EDGE_CURVE('3:104728',#581,#553,#587,.T.);
#480=EDGE_CURVE('3:104731',#510,#513,#588,.F.);
#481=EDGE_CURVE('3:104734',#496,#499,#589,.F.);
#482=EDGE_CURVE('3:104737',#578,#590,#591,.T.);
#483=EDGE_CURVE('3:104740',#533,#590,#592,.T.);
#484=EDGE_CURVE('3:104743',#537,#527,#593,.T.);
#485=EDGE_CURVE('3:104746',#594,#524,#595,.T.);
#486=EDGE_CURVE('3:104749',#594,#543,#596,.T.);
#487=EDGE_CURVE('3:104752',#597,#545,#598,.T.);
#488=EDGE_CURVE('3:104755',#525,#597,#599,.T.);
#489=EDGE_CURVE('3:104758',#529,#535,#600,.F.);
#490=EDGE_CURVE('3:104761',#601,#532,#602,.T.);
#491=EDGE_CURVE('3:104764',#576,#601,#603,.T.);
#492=EDGE_CURVE('3:104767',#518,#521,#604,.T.);
#493=EDGE_CURVE('3:104770',#504,#507,#605,.T.);
#494=EDGE_CURVE('3:104773',#597,#594,#606,.T.);
#495=EDGE_CURVE('3:104776',#590,#601,#607,.T.);
#496=VERTEX_POINT('',#608);
#497=VERTEX_POINT('',#609);
#498=LINE('',#610,#611);
#499=VERTEX_POINT('',#612);
#500=CIRCLE('',#613,0.00235);
#501=VERTEX_POINT('',#614);
#502=LINE('',#615,#616);
#503=CIRCLE('',#617,0.00235);
#504=VERTEX_POINT('',#618);
#505=LINE('',#619,#620);
#506=CIRCLE('',#621,0.00235);
#507=VERTEX_POINT('',#622);
#508=LINE('',#623,#624);
#509=CIRCLE('',#625,0.00435);
#510=VERTEX_POINT('',#626);
#511=VERTEX_POINT('',#627);
#512=LINE('',#628,#629);
#513=VERTEX_POINT('',#630);
#514=CIRCLE('',#631,0.00235);
#515=VERTEX_POINT('',#632);
#516=LINE('',#633,#634);
#517=CIRCLE('',#635,0.00235);
#518=VERTEX_POINT('',#636);
#519=LINE('',#637,#638);
#520=CIRCLE('',#639,0.00235);
#521=VERTEX_POINT('',#640);
#522=LINE('',#641,#642);
#523=CIRCLE('',#643,0.00435);
#524=VERTEX_POINT('',#644);
#525=VERTEX_POINT('',#645);
#526=LINE('',#646,#647);
#527=VERTEX_POINT('',#648);
#528=CIRCLE('',#649,0.00200000000001392);
#529=VERTEX_POINT('',#650);
#530=LINE('',#651,#652);
#531=CIRCLE('',#653,0.00200000000001392);
#532=VERTEX_POINT('',#654);
#533=VERTEX_POINT('',#655);
#534=LINE('',#656,#657);
#535=VERTEX_POINT('',#658);
#536=CIRCLE('',#659,0.00200000000001392);
#537=VERTEX_POINT('',#660);
#538=LINE('',#661,#662);
#539=CIRCLE('',#663,0.00200000000001392);
#540=VERTEX_POINT('',#664);
#541=VERTEX_POINT('',#665);
#542=LINE('',#666,#667);
#543=VERTEX_POINT('',#668);
#544=CIRCLE('',#669,0.002);
#545=VERTEX_POINT('',#670);
#546=LINE('',#671,#672);
#547=CIRCLE('',#673,0.002);
#548=VERTEX_POINT('',#674);
#549=VERTEX_POINT('',#675);
#550=LINE('',#676,#677);
#551=VERTEX_POINT('',#678);
#552=CIRCLE('',#679,0.002);
#553=VERTEX_POINT('',#680);
#554=LINE('',#681,#682);
#555=CIRCLE('',#683,0.002);
#556=VERTEX_POINT('',#684);
#557=VERTEX_POINT('',#685);
#558=LINE('',#686,#687);
#559=VERTEX_POINT('',#688);
#560=CIRCLE('',#689,0.0028);
#561=VERTEX_POINT('',#690);
#562=LINE('',#691,#692);
#563=CIRCLE('',#693,0.0036);
#564=VERTEX_POINT('',#694);
#565=VERTEX_POINT('',#695);
#566=LINE('',#696,#697);
#567=VERTEX_POINT('',#698);
#568=CIRCLE('',#699,0.00219999999999999);
#569=VERTEX_POINT('',#700);
#570=LINE('',#701,#702);
#571=CIRCLE('',#703,0.00219999999999999);
#572=CIRCLE('',#704,0.00219999999999999);
#573=CIRCLE('',#705,0.00219999999999999);
#574=CIRCLE('',#706,0.0036);
#575=CIRCLE('',#707,0.0028);
#576=VERTEX_POINT('',#708);
#577=CIRCLE('',#709,0.002);
#578=VERTEX_POINT('',#710);
#579=LINE('',#711,#712);
#580=CIRCLE('',#713,0.002);
#581=VERTEX_POINT('',#714);
#582=CIRCLE('',#715,0.002);
#583=VERTEX_POINT('',#716);
#584=LINE('',#717,#718);
#585=CIRCLE('',#719,0.002);
#586=LINE('',#720,#721);
#587=LINE('',#722,#723);
#588=CIRCLE('',#724,0.00235);
#589=CIRCLE('',#725,0.00235);
#590=VERTEX_POINT('',#726);
#591=LINE('',#727,#728);
#592=CIRCLE('',#729,0.00200000000001392);
#593=LINE('',#730,#731);
#594=VERTEX_POINT('',#732);
#595=CIRCLE('',#733,0.00200000000001392);
#596=LINE('',#734,#735);
#597=VERTEX_POINT('',#736);
#598=LINE('',#737,#738);
#599=CIRCLE('',#739,0.00200000000001392);
#600=LINE('',#740,#741);
#601=VERTEX_POINT('',#742);
#602=CIRCLE('',#743,0.00200000000001392);
#603=LINE('',#744,#745);
#604=CIRCLE('',#746,0.00435);
#605=CIRCLE('',#747,0.00435);
#606=LINE('',#748,#749);
#607=LINE('',#750,#751);
#608=CARTESIAN_POINT('',(-0.0805320980689514,0.105296981760323,0.142883555340025));
#609=CARTESIAN_POINT('',(-0.0805320892021313,0.106163009129807,0.142383558744811));
#610=CARTESIAN_POINT('',(-0.0805320936355413,0.105729995445065,0.142633557042418));
#611=VECTOR('',#752,1.0);
#612=CARTESIAN_POINT('',(-0.085232098068705,0.105297029881267,0.142883555340025));
#613=AXIS2_PLACEMENT_3D('',#753,#754,#755);
#614=CARTESIAN_POINT('',(-0.0852320892018849,0.106163057250751,0.142383558744811));
#615=CARTESIAN_POINT('',(-0.085232093635295,0.105730043566009,0.142633557042418));
#616=VECTOR('',#756,1.0);
#617=AXIS2_PLACEMENT_3D('',#757,#758,#759);
#618=CARTESIAN_POINT('',(-0.0872320714681399,0.107895132466716,0.141383565554382));
#619=CARTESIAN_POINT('',(-0.0872320714681399,0.107895132466716,0.141383565554382));
#620=VECTOR('',#760,1.0);
#621=AXIS2_PLACEMENT_3D('',#761,#762,#763);
#622=CARTESIAN_POINT('',(-0.0785320714685959,0.107895043391778,0.141383565554382));
#623=CARTESIAN_POINT('',(-0.0785320714685959,0.107895043391778,0.141383565554382));
#624=VECTOR('',#764,1.0);
#625=AXIS2_PLACEMENT_3D('',#765,#766,#767);
#626=CARTESIAN_POINT('',(0.102326739407345,0.105018719258392,0.142404828947779));
#627=CARTESIAN_POINT('',(0.102326748274165,0.105884746627876,0.141904832352565));
#628=CARTESIAN_POINT('',(0.102326743840755,0.105451732943134,0.142154830650172));
#629=VECTOR('',#768,1.0);
#630=CARTESIAN_POINT('',(0.0976267394075918,0.105018767379335,0.142404828947779));
#631=AXIS2_PLACEMENT_3D('',#769,#770,#771);
#632=CARTESIAN_POINT('',(0.0976267482744118,0.105884794748819,0.141904832352565));
#633=CARTESIAN_POINT('',(0.0976267438410018,0.105451781064077,0.142154830650172));
#634=VECTOR('',#772,1.0);
#635=AXIS2_PLACEMENT_3D('',#773,#774,#775);
#636=CARTESIAN_POINT('',(0.0956267660081568,0.107616869964785,0.140904839162136));
#637=CARTESIAN_POINT('',(0.0956267660081568,0.107616869964785,0.140904839162136));
#638=VECTOR('',#776,1.0);
#639=AXIS2_PLACEMENT_3D('',#777,#778,#779);
#640=CARTESIAN_POINT('',(0.104326766007701,0.107616780889846,0.140904839162136));
#641=CARTESIAN_POINT('',(0.104326766007701,0.107616780889846,0.140904839162136));
#642=VECTOR('',#780,1.0);
#643=AXIS2_PLACEMENT_3D('',#781,#782,#783);
#644=CARTESIAN_POINT('',(-0.0908003513627238,0.109311902259732,0.149837482677363));
#645=CARTESIAN_POINT('',(-0.0908003247623445,0.11190997645403,0.148337479183877));
#646=CARTESIAN_POINT('',(-0.0908003380625148,0.110610941249609,0.14908747983785));
#647=VECTOR('',#784,1.0);
#648=CARTESIAN_POINT('',(-0.0893861348013583,0.109604779004552,0.150344789764912));
#649=AXIS2_PLACEMENT_3D('',#785,#786,#787);
#650=CARTESIAN_POINT('',(-0.0893861082009791,0.112202853198849,0.148844786271426));
#651=CARTESIAN_POINT('',(-0.0893866255016447,0.0616778024245359,0.178015528522116));
#652=VECTOR('',#788,1.0);
#653=AXIS2_PLACEMENT_3D('',#789,#790,#791);
#654=CARTESIAN_POINT('',(0.107891023498177,0.11190794213003,0.148337479144224));
#655=CARTESIAN_POINT('',(0.107890996897798,0.109309867935732,0.14983748263771));
#656=CARTESIAN_POINT('',(0.107891010198007,0.110608906925534,0.149087479798241));
#657=VECTOR('',#792,1.0);
#658=CARTESIAN_POINT('',(0.106476812934945,0.11220084783386,0.148844786232058));
#659=AXIS2_PLACEMENT_3D('',#793,#794,#795);
#660=CARTESIAN_POINT('',(0.106476786334565,0.109602773639563,0.150344789725543));
#661=CARTESIAN_POINT('',(0.106476295634279,0.0616757970595473,0.178015528482748));
#662=VECTOR('',#796,1.0);
#663=AXIS2_PLACEMENT_3D('',#797,#798,#799);
#664=CARTESIAN_POINT('',(-0.090800567960366,0.0881567031512055,0.113195270286022));
#665=CARTESIAN_POINT('',(-0.0908005413599057,0.0907547852596576,0.111695280500379));
#666=CARTESIAN_POINT('',(-0.090800567960366,0.0881567031512055,0.113195270286022));
#667=VECTOR('',#800,1.0);
#668=CARTESIAN_POINT('',(-0.0913863471582996,0.0888638111148345,0.114420017937397));
#669=AXIS2_PLACEMENT_3D('',#801,#802,#803);
#670=CARTESIAN_POINT('',(-0.0913863205578394,0.0914618932232867,0.112920028151754));
#671=CARTESIAN_POINT('',(-0.0913863471582996,0.0888638111148345,0.114420017937397));
#672=VECTOR('',#804,1.0);
#673=AXIS2_PLACEMENT_3D('',#805,#806,#807);
#674=CARTESIAN_POINT('',(0.107890780300156,0.0881546688500989,0.113195270286022));
#675=CARTESIAN_POINT('',(0.107890806900616,0.0907527509585511,0.111695280500379));
#676=CARTESIAN_POINT('',(0.107890780300156,0.0881546688500989,0.113195270286022));
#677=VECTOR('',#808,1.0);
#678=CARTESIAN_POINT('',(0.10647656373909,0.0878617921052018,0.112687963198338));
#679=AXIS2_PLACEMENT_3D('',#809,#810,#811);
#680=CARTESIAN_POINT('',(0.106476590339551,0.090459874213654,0.111187973412695));
#681=CARTESIAN_POINT('',(0.10647656373909,0.0878617921052018,0.112687963198338));
#682=VECTOR('',#812,1.0);
#683=AXIS2_PLACEMENT_3D('',#813,#814,#815);
#684=CARTESIAN_POINT('',(0.0732767711341861,0.108118359237756,0.143373066494731));
#685=CARTESIAN_POINT('',(0.0740767782276002,0.108811172942544,0.142973069218559));
#686=CARTESIAN_POINT('',(0.0740767782276002,0.108811172942544,0.142973069218559));
#687=VECTOR('',#816,1.0);
#688=CARTESIAN_POINT('',(0.0676767711344796,0.108118416573348,0.143373066494731));
#689=AXIS2_PLACEMENT_3D('',#817,#818,#819);
#690=CARTESIAN_POINT('',(0.0668767782279776,0.108811246659734,0.142973069218559));
#691=CARTESIAN_POINT('',(0.0668767782279776,0.108811246659734,0.142973069218559));
#692=VECTOR('',#820,1.0);
#693=AXIS2_PLACEMENT_3D('',#821,#822,#823);
#694=CARTESIAN_POINT('',(0.0682767782279042,0.108811232325836,0.142973069218559));
#695=CARTESIAN_POINT('',(0.0682767711344482,0.108118410430249,0.143373066494731));
#696=CARTESIAN_POINT('',(0.0682767782279043,0.108811232325836,0.142973069218559));
#697=VECTOR('',#824,1.0);
#698=CARTESIAN_POINT('',(0.0726767782276736,0.108811187276442,0.142973069218559));
#699=AXIS2_PLACEMENT_3D('',#825,#826,#827);
#700=CARTESIAN_POINT('',(0.0726767711342176,0.108118365380855,0.143373066494731));
#701=CARTESIAN_POINT('',(0.0726767782276736,0.108811187276442,0.142973069218559));
#702=VECTOR('',#828,1.0);
#703=AXIS2_PLACEMENT_3D('',#829,#830,#831);
#704=AXIS2_PLACEMENT_3D('',#832,#833,#834);
#705=AXIS2_PLACEMENT_3D('',#835,#836,#837);
#706=AXIS2_PLACEMENT_3D('',#838,#839,#840);
#707=AXIS2_PLACEMENT_3D('',#841,#842,#843);
#708=CARTESIAN_POINT('',(0.108476600577875,0.0914598469270328,0.112920028151754));
#709=AXIS2_PLACEMENT_3D('',#844,#845,#846);
#710=CARTESIAN_POINT('',(0.108476573977415,0.0888617648185806,0.114420017937397));
#711=CARTESIAN_POINT('',(0.108476573977415,0.0888617648185806,0.114420017937397));
#712=VECTOR('',#847,1.0);
#713=AXIS2_PLACEMENT_3D('',#848,#849,#850);
#714=CARTESIAN_POINT('',(-0.0893863307963732,0.0904618795559131,0.111187973412695));
#715=AXIS2_PLACEMENT_3D('',#851,#852,#853);
#716=CARTESIAN_POINT('',(-0.0893863573968334,0.0878637974474609,0.112687963198338));
#717=CARTESIAN_POINT('',(-0.0893863573968334,0.087863797447461,0.112687963198338));
#718=VECTOR('',#854,1.0);
#719=AXIS2_PLACEMENT_3D('',#855,#856,#857);
#720=CARTESIAN_POINT('',(-0.0382971101508793,0.0878632743702706,0.112687963198338));
#721=VECTOR('',#858,1.0);
#722=CARTESIAN_POINT('',(-0.0382970835504191,0.0904613564787227,0.111187973412695));
#723=VECTOR('',#859,1.0);
#724=AXIS2_PLACEMENT_3D('',#860,#861,#862);
#725=AXIS2_PLACEMENT_3D('',#863,#864,#865);
#726=CARTESIAN_POINT('',(0.108476776095567,0.108602759972176,0.14861273498646));
#727=CARTESIAN_POINT('',(0.108476619174404,0.0932761805260167,0.122066079650441));
#728=VECTOR('',#866,1.0);
#729=AXIS2_PLACEMENT_3D('',#867,#868,#869);
#730=CARTESIAN_POINT('',(0.0121594531101547,0.1096037393184,0.150344789744501));
#731=VECTOR('',#870,1.0);
#732=CARTESIAN_POINT('',(-0.0913861450401466,0.108604806291159,0.148612735025829));
#733=AXIS2_PLACEMENT_3D('',#871,#872,#873);
#734=CARTESIAN_POINT('',(-0.0913863019613102,0.0932782268222705,0.122066079650441));
#735=VECTOR('',#874,1.0);
#736=CARTESIAN_POINT('',(-0.0913861184397674,0.111202880485456,0.147112731532343));
#737=CARTESIAN_POINT('',(-0.09138627536085,0.0958763089307227,0.120566089864799));
#738=VECTOR('',#875,1.0);
#739=AXIS2_PLACEMENT_3D('',#876,#877,#878);
#740=CARTESIAN_POINT('',(0.0121594797105339,0.112201813512697,0.148844786251016));
#741=VECTOR('',#879,1.0);
#742=CARTESIAN_POINT('',(0.108476802695947,0.111200834166473,0.147112731492975));
#743=AXIS2_PLACEMENT_3D('',#880,#881,#882);
#744=CARTESIAN_POINT('',(0.108476645774864,0.0958742626344689,0.120566089864799));
#745=VECTOR('',#883,1.0);
#746=AXIS2_PLACEMENT_3D('',#884,#885,#886);
#747=AXIS2_PLACEMENT_3D('',#887,#888,#889);
#748=CARTESIAN_POINT('',(-0.0913866357405266,0.0606778205726091,0.176283479059185));
#749=VECTOR('',#890,1.0);
#750=CARTESIAN_POINT('',(0.108476285395187,0.0606757742536258,0.176283479019816));
#751=VECTOR('',#891,1.0);
#752=DIRECTION('',(8.86682007758544E-06,0.866027369484064,-0.499996595214299));
#753=CARTESIAN_POINT('',(-0.0828820980688282,0.105297005820795,0.142883555340025));
#754=DIRECTION('',(-8.8668200776687E-06,-0.866027369484064,0.499996595214299));
#755=DIRECTION('',(0.999999999947587,-1.02384986775618E-05,1.80288946662742E-17));
#756=DIRECTION('',(-8.86682007758544E-06,-0.866027369484064,0.499996595214299));
#757=CARTESIAN_POINT('',(-0.0828820892020081,0.106163033190279,0.142383558744811));
#758=DIRECTION('',(-8.8668200776687E-06,-0.866027369484064,0.499996595214299));
#759=DIRECTION('',(-0.999999999947587,1.02384986786053E-05,1.78931594828598E-15));
#760=DIRECTION('',(-0.707100511360881,0.612381065367175,-0.353550983046216));
#761=CARTESIAN_POINT('',(-0.0828820892020081,0.106163033190279,0.142383558744811));
#762=DIRECTION('',(-8.8668200776687E-06,-0.866027369484064,0.499996595214299));
#763=DIRECTION('',(-0.999999999947587,1.02384986786053E-05,1.78931594828598E-15));
#764=DIRECTION('',(-0.707113050938091,-0.612366585943485,0.353550983046216));
#765=CARTESIAN_POINT('',(-0.0828820714683679,0.107895087929247,0.141383565554382));
#766=DIRECTION('',(8.8668200776687E-06,0.866027369484064,-0.499996595214299));
#767=DIRECTION('',(-0.999999999947587,1.02384986773757E-05,-3.40475213410659E-16));
#768=DIRECTION('',(8.86682007758544E-06,0.866027369484064,-0.499996595214299));
#769=CARTESIAN_POINT('',(0.0999767394074686,0.105018743318863,0.142404828947779));
#770=DIRECTION('',(-8.8668200776687E-06,-0.866027369484064,0.499996595214299));
#771=DIRECTION('',(0.999999999947587,-1.02384986744706E-05,5.37229291186062E-15));
#772=DIRECTION('',(-8.86682007758544E-06,-0.866027369484064,0.499996595214299));
#773=CARTESIAN_POINT('',(0.0999767482742887,0.105884770688348,0.141904832352565));
#774=DIRECTION('',(-8.8668200776687E-06,-0.866027369484064,0.499996595214299));
#775=DIRECTION('',(-0.999999999947587,1.023849867444E-05,-5.42516501725648E-15));
#776=DIRECTION('',(-0.707100511360883,0.612381065367169,-0.353550983046221));
#777=CARTESIAN_POINT('',(0.0999767482742887,0.105884770688348,0.141904832352565));
#778=DIRECTION('',(-8.8668200776687E-06,-0.866027369484064,0.499996595214299));
#779=DIRECTION('',(-0.999999999947587,1.023849867444E-05,-5.42516501725648E-15));
#780=DIRECTION('',(-0.707113050938091,-0.612366585943487,0.353550983046212));
#781=CARTESIAN_POINT('',(0.0999767660079288,0.107616825427316,0.140904839162136));
#782=DIRECTION('',(8.8668200776687E-06,0.866027369484064,-0.499996595214299));
#783=DIRECTION('',(-0.999999999947587,1.02384986741174E-05,-5.98396082347427E-15));
#784=DIRECTION('',(8.8667930678854E-06,0.866024731420373,-0.500001164488295));
#785=CARTESIAN_POINT('',(-0.0893861450402515,0.108604785814161,0.148612735025829));
#786=DIRECTION('',(8.86682007766846E-06,0.866027369484064,-0.499996595214299));
#787=DIRECTION('',(0.707110401057896,0.353543743277271,0.612373825620622));
#788=DIRECTION('',(8.86679306788539E-06,0.866024731420373,-0.500001164488295));
#789=CARTESIAN_POINT('',(-0.0893861184398723,0.111202860008459,0.147112731532343));
#790=DIRECTION('',(-8.86682007766846E-06,-0.866027369484064,0.499996595214299));
#791=DIRECTION('',(0.707110401057896,0.353543743277271,0.612373825620622));
#792=DIRECTION('',(-8.86679306791315E-06,-0.866024731420373,0.500001164488295));
#793=CARTESIAN_POINT('',(0.106476802696051,0.11120085464347,0.147112731492975));
#794=DIRECTION('',(-8.86682007764199E-06,-0.866027369484064,0.499996595214299));
#795=DIRECTION('',(-0.707103161231236,0.353558222783017,0.612373825762751));
#796=DIRECTION('',(-8.86679306791315E-06,-0.866024731420373,0.500001164488295));
#797=CARTESIAN_POINT('',(0.106476776095672,0.108602780449173,0.14861273498646));
#798=DIRECTION('',(8.8668200777214E-06,0.866027369484064,-0.499996595214299));
#799=DIRECTION('',(-0.707103161231236,0.353558222783017,0.612373825762751));
#800=DIRECTION('',(8.86682007769646E-06,0.866027369484064,-0.499996595214299));
#801=CARTESIAN_POINT('',(-0.0893863471584045,0.0888637906378371,0.114420017937397));
#802=DIRECTION('',(8.86682007765954E-06,0.866027369484064,-0.499996595214299));
#803=DIRECTION('',(-0.70711040098076,-0.35354374331584,-0.612373825687425));
#804=DIRECTION('',(8.86682007769645E-06,0.866027369484064,-0.499996595214299));
#805=CARTESIAN_POINT('',(-0.0893863205579442,0.0914618727462893,0.112920028151754));
#806=DIRECTION('',(-8.866820077686E-06,-0.866027369484064,0.499996595214299));
#807=DIRECTION('',(-0.70711040098076,-0.35354374331584,-0.612373825687425));
#808=DIRECTION('',(8.86682007769646E-06,0.866027369484064,-0.499996595214299));
#809=CARTESIAN_POINT('',(0.106476573977519,0.088861785295578,0.114420017937397));
#810=DIRECTION('',(8.866820077686E-06,0.866027369484064,-0.499996595214299));
#811=DIRECTION('',(0.707103161318215,-0.353558222739528,-0.612373825687425));
#812=DIRECTION('',(8.86682007769645E-06,0.866027369484064,-0.4999965952143));
#813=CARTESIAN_POINT('',(0.10647660057798,0.0914598674040302,0.112920028151754));
#814=DIRECTION('',(-8.86682007765953E-06,-0.866027369484064,0.499996595214299));
#815=DIRECTION('',(0.707103161318215,-0.353558222739528,-0.612373825687425));
#816=DIRECTION('',(0.70711305093809,0.612366585943485,-0.353550983046217));
#817=CARTESIAN_POINT('',(0.0704767711343329,0.108118387905552,0.143373066494731));
#818=DIRECTION('',(-8.86682007758543E-06,-0.866027369484065,0.499996595214299));
#819=DIRECTION('',(0.999999999947587,-1.02384986778277E-05,-6.0898549307952E-16));
#820=DIRECTION('',(0.70710051136088,-0.612381065367175,0.353550983046216));
#821=CARTESIAN_POINT('',(0.0704767782277889,0.108811209801139,0.142973069218559));
#822=DIRECTION('',(8.8668200776687E-06,0.866027369484064,-0.499996595214299));
#823=DIRECTION('',(0.999999999947586,-1.02384986779063E-05,-5.78641597917824E-16));
#824=DIRECTION('',(-8.86682007744666E-06,-0.866027369484065,0.499996595214299));
#825=CARTESIAN_POINT('',(0.0704767782277889,0.108811209801139,0.142973069218559));
#826=DIRECTION('',(-8.86682007744666E-06,-0.866027369484064,0.499996595214299));
#827=DIRECTION('',(-0.999999999947586,1.02384986773344E-05,3.21974101003832E-17));
#828=DIRECTION('',(8.86682007744666E-06,0.866027369484065,-0.499996595214299));
#829=CARTESIAN_POINT('',(0.0704767711343329,0.108118387905552,0.143373066494731));
#830=DIRECTION('',(-8.86682007758543E-06,-0.866027369484064,0.499996595214299));
#831=DIRECTION('',(-0.999999999947586,1.02384986774467E-05,-5.09284115294989E-17));
#832=CARTESIAN_POINT('',(0.0704767711343329,0.108118387905552,0.143373066494731));
#833=DIRECTION('',(-8.86682007758543E-06,-0.866027369484064,0.499996595214299));
#834=DIRECTION('',(-0.999999999947586,1.02384986774467E-05,-5.09284115294989E-17));
#835=CARTESIAN_POINT('',(0.0704767782277889,0.108811209801139,0.142973069218559));
#836=DIRECTION('',(-8.86682007744666E-06,-0.866027369484064,0.499996595214299));
#837=DIRECTION('',(-0.999999999947586,1.02384986773344E-05,3.21974101003832E-17));
#838=CARTESIAN_POINT('',(0.0704767782277889,0.108811209801139,0.142973069218559));
#839=DIRECTION('',(8.8668200776687E-06,0.866027369484064,-0.499996595214299));
#840=DIRECTION('',(0.999999999947586,-1.02384986779063E-05,-5.78641597917824E-16));
#841=CARTESIAN_POINT('',(0.0704767711343329,0.108118387905552,0.143373066494731));
#842=DIRECTION('',(-8.86682007758543E-06,-0.866027369484065,0.499996595214299));
#843=DIRECTION('',(0.999999999947587,-1.02384986778277E-05,-6.0898549307952E-16));
#844=CARTESIAN_POINT('',(0.10647660057798,0.0914598674040302,0.112920028151754));
#845=DIRECTION('',(-8.86682007765953E-06,-0.866027369484064,0.499996595214299));
#846=DIRECTION('',(0.707103161318215,-0.353558222739528,-0.612373825687425));
#847=DIRECTION('',(-8.86682007769645E-06,-0.866027369484064,0.499996595214299));
#848=CARTESIAN_POINT('',(0.106476573977519,0.088861785295578,0.114420017937397));
#849=DIRECTION('',(8.866820077686E-06,0.866027369484064,-0.499996595214299));
#850=DIRECTION('',(0.707103161318215,-0.353558222739528,-0.612373825687425));
#851=CARTESIAN_POINT('',(-0.0893863205579442,0.0914618727462893,0.112920028151754));
#852=DIRECTION('',(-8.866820077686E-06,-0.866027369484064,0.499996595214299));
#853=DIRECTION('',(-0.70711040098076,-0.35354374331584,-0.612373825687425));
#854=DIRECTION('',(-8.86682007769645E-06,-0.866027369484064,0.499996595214299));
#855=CARTESIAN_POINT('',(-0.0893863471584045,0.0888637906378371,0.114420017937397));
#856=DIRECTION('',(8.86682007765954E-06,0.866027369484064,-0.499996595214299));
#857=DIRECTION('',(-0.70711040098076,-0.35354374331584,-0.612373825687425));
#858=DIRECTION('',(0.999999999947587,-1.02384986775905E-05,-1.11022302462516E-16));
#859=DIRECTION('',(0.999999999947587,-1.02384986775905E-05,-1.11022302462516E-16));
#860=CARTESIAN_POINT('',(0.0999767394074686,0.105018743318863,0.142404828947779));
#861=DIRECTION('',(-8.8668200776687E-06,-0.866027369484064,0.499996595214299));
#862=DIRECTION('',(0.999999999947587,-1.02384986744706E-05,5.37229291186062E-15));
#863=CARTESIAN_POINT('',(-0.0828820980688282,0.105297005820795,0.142883555340025));
#864=DIRECTION('',(-8.8668200776687E-06,-0.866027369484064,0.499996595214299));
#865=DIRECTION('',(0.999999999947587,-1.02384986775618E-05,1.80288946662742E-17));
#866=DIRECTION('',(5.11921447887697E-06,0.499996595188093,0.866027369529456));
#867=CARTESIAN_POINT('',(0.106476776095672,0.108602780449173,0.14861273498646));
#868=DIRECTION('',(8.8668200777214E-06,0.866027369484064,-0.499996595214299));
#869=DIRECTION('',(-0.707103161231236,0.353558222783017,0.612373825762751));
#870=DIRECTION('',(-0.999999999947585,1.02386147242165E-05,2.01000660560169E-10));
#871=CARTESIAN_POINT('',(-0.0893861450402515,0.108604785814161,0.148612735025829));
#872=DIRECTION('',(8.86682007766846E-06,0.866027369484064,-0.499996595214299));
#873=DIRECTION('',(0.707110401057896,0.353543743277271,0.612373825620622));
#874=DIRECTION('',(-5.11921447826635E-06,-0.499996595188093,-0.866027369529456));
#875=DIRECTION('',(-5.11921447832186E-06,-0.499996595188093,-0.866027369529456));
#876=CARTESIAN_POINT('',(-0.0893861184398723,0.111202860008459,0.147112731532343));
#877=DIRECTION('',(-8.86682007766846E-06,-0.866027369484064,0.499996595214299));
#878=DIRECTION('',(0.707110401057896,0.353543743277271,0.612373825620622));
#879=DIRECTION('',(-0.999999999947585,1.02386147242165E-05,2.01000549537866E-10));
#880=CARTESIAN_POINT('',(0.106476802696051,0.11120085464347,0.147112731492975));
#881=DIRECTION('',(-8.86682007764199E-06,-0.866027369484064,0.499996595214299));
#882=DIRECTION('',(-0.707103161231236,0.353558222783017,0.612373825762751));
#883=DIRECTION('',(5.11921447887697E-06,0.499996595188093,0.866027369529455));
#884=CARTESIAN_POINT('',(0.0999767660079288,0.107616825427316,0.140904839162136));
#885=DIRECTION('',(8.8668200776687E-06,0.866027369484064,-0.499996595214299));
#886=DIRECTION('',(-0.999999999947587,1.02384986741174E-05,-5.98396082347427E-15));
#887=CARTESIAN_POINT('',(-0.0828820714683679,0.107895087929247,0.141383565554382));
#888=DIRECTION('',(8.8668200776687E-06,0.866027369484064,-0.499996595214299));
#889=DIRECTION('',(-0.999999999947587,1.02384986773757E-05,-3.40475213410659E-16));
#890=DIRECTION('',(-8.86679306791315E-06,-0.866024731420373,0.500001164488295));
#891=DIRECTION('',(8.86679306791315E-06,0.866024731420373,-0.500001164488295));
#892=PRESENTATION_LAYER_ASSIGNMENT('9','Layer0',(#25));
ENDSEC;
END-ISO-10303-21;
