ISO-10303-21;
HEADER;
FILE_DESCRIPTION(('STEP AP214'),'1');
FILE_NAME('Wooden_base_bottom.stp','2026-09-05T12:55:53',(' '),(' '),'Spatial InterOp 3D',' ',' ');
FILE_SCHEMA(('AUTOMOTIVE_DESIGN { 1 0 10303 214 1 1 1 1 }'));
ENDSEC;
DATA;
#1=MECHANICAL_DESIGN_GEOMETRIC_PRESENTATION_REPRESENTATION(' ',(#10),#6);
#2=PRODUCT_DEFINITION_CONTEXT('',#11,'design');
#3=APPLICATION_PROTOCOL_DEFINITION('INTERNATIONAL STANDARD','automotive_design',1994,#11);
#4=PRODUCT_CATEGORY_RELATIONSHIP('NONE','NONE',#12,#13);
#5=SHAPE_DEFINITION_REPRESENTATION(#14,#15);
#6= (GEOMETRIC_REPRESENTATION_CONTEXT(3)GLOBAL_UNCERTAINTY_ASSIGNED_CONTEXT((#18))GLOBAL_UNIT_ASSIGNED_CONTEXT((#20,#21,#22))REPRESENTATION_CONTEXT('NONE','WORKSPACE'));
#10=STYLED_ITEM('',(#24),#25);
#11=APPLICATION_CONTEXT(' ');
#12=PRODUCT_CATEGORY('part','NONE');
#13=PRODUCT_RELATED_PRODUCT_CATEGORY('detail',' ',(#26));
#14=PRODUCT_DEFINITION_SHAPE('NONE','NONE',#27);
#15=ADVANCED_BREP_SHAPE_REPRESENTATION('Wood_base_bottom',(#25,#28),#6);
#18=UNCERTAINTY_MEASURE_WITH_UNIT(LENGTH_MEASURE(1.0E-08),#20,'','');
#20= (CONVERSION_BASED_UNIT('METRE',#31)LENGTH_UNIT()NAMED_UNIT(#34));
#21= (NAMED_UNIT(#36)PLANE_ANGLE_UNIT()SI_UNIT($,.RADIAN.));
#22= (NAMED_UNIT(#36)SOLID_ANGLE_UNIT()SI_UNIT($,.STERADIAN.));
#24=PRESENTATION_STYLE_ASSIGNMENT((#42));
#25=MANIFOLD_SOLID_BREP('Wood_base_bottom',#43);
#26=PRODUCT('Wood_base_bottom','','PART--DESC',(#44));
#27=PRODUCT_DEFINITION('','NONE',#45,#2);
#28=AXIS2_PLACEMENT_3D('',#46,#47,#48);
#31=LENGTH_MEASURE_WITH_UNIT(LENGTH_MEASURE(1.0),#49);
#34=DIMENSIONAL_EXPONENTS(1.0,0.0,0.0,0.0,0.0,0.0,0.0);
#36=DIMENSIONAL_EXPONENTS(0.0,0.0,0.0,0.0,0.0,0.0,0.0);
#42=SURFACE_STYLE_USAGE(.BOTH.,#50);
#43=CLOSED_SHELL('',(#51,#52,#53,#54,#55,#56,#57,#58,#59,#60,#61,#62,#63,#64,#65,#66,#67,#68,#69,#70,#71,#72,#73,#74,#75,#76,#77,#78,#79,#80,#81,#82,#83,#84,#85,#86,#87,#88,#89,#90,#91,#92,#93,#94,#95,#96,#97,#98,#99,#100,#101,#102,#103,#104,#105,#106,#107,#108));
#44=PRODUCT_CONTEXT('',#11,'mechanical');
#45=PRODUCT_DEFINITION_FORMATION_WITH_SPECIFIED_SOURCE(' ','NONE',#26,.NOT_KNOWN.);
#46=CARTESIAN_POINT('',(0.0,0.0,0.0));
#47=DIRECTION('',(0.0,0.0,1.0));
#48=DIRECTION('',(1.0,0.0,0.0));
#49= (NAMED_UNIT(#34)LENGTH_UNIT()SI_UNIT($,.METRE.));
#50=SURFACE_SIDE_STYLE('',(#110));
#51=ADVANCED_FACE('11:2813',(#111),#112,.F.);
#52=ADVANCED_FACE('0:137',(#113),#114,.F.);
#53=ADVANCED_FACE('0:134',(#115),#116,.F.);
#54=ADVANCED_FACE('0:131',(#117),#118,.F.);
#55=ADVANCED_FACE('0:113',(#119),#120,.F.);
#56=ADVANCED_FACE('0:110',(#121),#122,.F.);
#57=ADVANCED_FACE('0:44',(#123),#124,.F.);
#58=ADVANCED_FACE('7:286',(#125),#126,.F.);
#59=ADVANCED_FACE('11:2999',(#127),#128,.F.);
#60=ADVANCED_FACE('11:2937',(#129),#130,.F.);
#61=ADVANCED_FACE('11:2875',(#131),#132,.F.);
#62=ADVANCED_FACE('0:35',(#133,#134,#135,#136,#137),#138,.F.);
#63=ADVANCED_FACE('11:2881',(#139),#140,.F.);
#64=ADVANCED_FACE('11:2875',(#141),#142,.F.);
#65=ADVANCED_FACE('11:2937',(#143),#144,.F.);
#66=ADVANCED_FACE('11:2943',(#145),#146,.F.);
#67=ADVANCED_FACE('11:2999',(#147),#148,.F.);
#68=ADVANCED_FACE('11:3005',(#149),#150,.F.);
#69=ADVANCED_FACE('7:286',(#151),#152,.F.);
#70=ADVANCED_FACE('7:251',(#153,#154,#155,#156,#157,#158,#159),#160,.T.);
#71=ADVANCED_FACE('0:29',(#161,#162,#163,#164,#165,#166,#167,#168),#169,.T.);
#72=ADVANCED_FACE('0:32',(#170),#171,.T.);
#73=ADVANCED_FACE('0:38',(#172),#173,.T.);
#74=ADVANCED_FACE('0:41',(#174),#175,.F.);
#75=ADVANCED_FACE('0:44',(#176),#177,.F.);
#76=ADVANCED_FACE('0:47',(#178,#179),#180,.T.);
#77=ADVANCED_FACE('0:50',(#181),#182,.F.);
#78=ADVANCED_FACE('0:53',(#183),#184,.F.);
#79=ADVANCED_FACE('0:56',(#185),#186,.F.);
#80=ADVANCED_FACE('0:59',(#187),#188,.F.);
#81=ADVANCED_FACE('0:62',(#189),#190,.F.);
#82=ADVANCED_FACE('0:65',(#191),#192,.F.);
#83=ADVANCED_FACE('0:68',(#193),#194,.T.);
#84=ADVANCED_FACE('0:71',(#195),#196,.T.);
#85=ADVANCED_FACE('0:74',(#197),#198,.T.);
#86=ADVANCED_FACE('0:77',(#199),#200,.T.);
#87=ADVANCED_FACE('0:80',(#201),#202,.T.);
#88=ADVANCED_FACE('0:83',(#203),#204,.T.);
#89=ADVANCED_FACE('0:86',(#205),#206,.T.);
#90=ADVANCED_FACE('0:89',(#207),#208,.T.);
#91=ADVANCED_FACE('0:92',(#209),#210,.T.);
#92=ADVANCED_FACE('0:95',(#211),#212,.T.);
#93=ADVANCED_FACE('0:98',(#213),#214,.T.);
#94=ADVANCED_FACE('0:101',(#215),#216,.T.);
#95=ADVANCED_FACE('0:104',(#217,#218),#219,.T.);
#96=ADVANCED_FACE('0:107',(#220,#221),#222,.T.);
#97=ADVANCED_FACE('0:110',(#223),#224,.F.);
#98=ADVANCED_FACE('0:113',(#225),#226,.F.);
#99=ADVANCED_FACE('0:116',(#227),#228,.T.);
#100=ADVANCED_FACE('0:119',(#229),#230,.T.);
#101=ADVANCED_FACE('0:122',(#231),#232,.T.);
#102=ADVANCED_FACE('0:125',(#233),#234,.T.);
#103=ADVANCED_FACE('0:128',(#235),#236,.T.);
#104=ADVANCED_FACE('0:131',(#237),#238,.F.);
#105=ADVANCED_FACE('0:134',(#239),#240,.F.);
#106=ADVANCED_FACE('0:137',(#241),#242,.F.);
#107=ADVANCED_FACE('11:2819',(#243),#244,.F.);
#108=ADVANCED_FACE('11:2813',(#245),#246,.F.);
#110=SURFACE_STYLE_FILL_AREA(#247);
#111=FACE_OUTER_BOUND('',#248,.T.);
#112=CYLINDRICAL_SURFACE('',#249,0.0015);
#113=FACE_OUTER_BOUND('',#250,.T.);
#114=CYLINDRICAL_SURFACE('',#251,0.0015);
#115=FACE_OUTER_BOUND('',#252,.T.);
#116=CYLINDRICAL_SURFACE('',#253,0.0015);
#117=FACE_OUTER_BOUND('',#254,.T.);
#118=CYLINDRICAL_SURFACE('',#255,0.0015);
#119=FACE_OUTER_BOUND('',#256,.T.);
#120=CYLINDRICAL_SURFACE('',#257,0.003);
#121=FACE_OUTER_BOUND('',#258,.T.);
#122=CYLINDRICAL_SURFACE('',#259,0.00300000000000001);
#123=FACE_OUTER_BOUND('',#260,.T.);
#124=CYLINDRICAL_SURFACE('',#261,0.00300000000000001);
#125=FACE_OUTER_BOUND('',#262,.T.);
#126=CYLINDRICAL_SURFACE('',#263,0.00149999999999999);
#127=FACE_OUTER_BOUND('',#264,.T.);
#128=CYLINDRICAL_SURFACE('',#265,0.0015);
#129=FACE_OUTER_BOUND('',#266,.T.);
#130=CYLINDRICAL_SURFACE('',#267,0.0015);
#131=FACE_OUTER_BOUND('',#268,.T.);
#132=CYLINDRICAL_SURFACE('',#269,0.0015);
#133=FACE_BOUND('',#270,.T.);
#134=FACE_BOUND('',#271,.T.);
#135=FACE_OUTER_BOUND('',#272,.T.);
#136=FACE_BOUND('',#273,.T.);
#137=FACE_BOUND('',#274,.T.);
#138=PLANE('',#275);
#139=FACE_OUTER_BOUND('',#276,.T.);
#140=PLANE('',#277);
#141=FACE_OUTER_BOUND('',#278,.T.);
#142=CYLINDRICAL_SURFACE('',#279,0.0015);
#143=FACE_OUTER_BOUND('',#280,.T.);
#144=CYLINDRICAL_SURFACE('',#281,0.0015);
#145=FACE_OUTER_BOUND('',#282,.T.);
#146=PLANE('',#283);
#147=FACE_OUTER_BOUND('',#284,.T.);
#148=CYLINDRICAL_SURFACE('',#285,0.0015);
#149=FACE_OUTER_BOUND('',#286,.T.);
#150=PLANE('',#287);
#151=FACE_OUTER_BOUND('',#288,.T.);
#152=CYLINDRICAL_SURFACE('',#289,0.00149999999999999);
#153=FACE_BOUND('',#290,.T.);
#154=FACE_OUTER_BOUND('',#291,.T.);
#155=FACE_BOUND('',#292,.T.);
#156=FACE_BOUND('',#293,.T.);
#157=FACE_BOUND('',#294,.T.);
#158=FACE_BOUND('',#295,.T.);
#159=FACE_BOUND('',#296,.T.);
#160=PLANE('',#297);
#161=FACE_BOUND('',#298,.T.);
#162=FACE_BOUND('',#299,.T.);
#163=FACE_BOUND('',#300,.T.);
#164=FACE_BOUND('',#301,.T.);
#165=FACE_BOUND('',#302,.T.);
#166=FACE_BOUND('',#303,.T.);
#167=FACE_OUTER_BOUND('',#304,.T.);
#168=FACE_BOUND('',#305,.T.);
#169=PLANE('',#306);
#170=FACE_OUTER_BOUND('',#307,.T.);
#171=PLANE('',#308);
#172=FACE_OUTER_BOUND('',#309,.T.);
#173=PLANE('',#310);
#174=FACE_OUTER_BOUND('',#311,.T.);
#175=PLANE('',#312);
#176=FACE_OUTER_BOUND('',#313,.T.);
#177=CYLINDRICAL_SURFACE('',#314,0.00300000000000001);
#178=FACE_BOUND('',#315,.T.);
#179=FACE_OUTER_BOUND('',#316,.T.);
#180=PLANE('',#317);
#181=FACE_OUTER_BOUND('',#318,.T.);
#182=PLANE('',#319);
#183=FACE_OUTER_BOUND('',#320,.T.);
#184=PLANE('',#321);
#185=FACE_OUTER_BOUND('',#322,.T.);
#186=PLANE('',#323);
#187=FACE_OUTER_BOUND('',#324,.T.);
#188=PLANE('',#325);
#189=FACE_OUTER_BOUND('',#326,.T.);
#190=PLANE('',#327);
#191=FACE_OUTER_BOUND('',#328,.T.);
#192=PLANE('',#329);
#193=FACE_OUTER_BOUND('',#330,.T.);
#194=PLANE('',#331);
#195=FACE_OUTER_BOUND('',#332,.T.);
#196=PLANE('',#333);
#197=FACE_OUTER_BOUND('',#334,.T.);
#198=PLANE('',#335);
#199=FACE_OUTER_BOUND('',#336,.T.);
#200=PLANE('',#337);
#201=FACE_OUTER_BOUND('',#338,.T.);
#202=PLANE('',#339);
#203=FACE_OUTER_BOUND('',#340,.T.);
#204=PLANE('',#341);
#205=FACE_OUTER_BOUND('',#342,.T.);
#206=PLANE('',#343);
#207=FACE_OUTER_BOUND('',#344,.T.);
#208=PLANE('',#345);
#209=FACE_OUTER_BOUND('',#346,.T.);
#210=PLANE('',#347);
#211=FACE_OUTER_BOUND('',#348,.T.);
#212=PLANE('',#349);
#213=FACE_OUTER_BOUND('',#350,.T.);
#214=PLANE('',#351);
#215=FACE_OUTER_BOUND('',#352,.T.);
#216=PLANE('',#353);
#217=FACE_OUTER_BOUND('',#354,.T.);
#218=FACE_BOUND('',#355,.T.);
#219=PLANE('',#356);
#220=FACE_OUTER_BOUND('',#357,.T.);
#221=FACE_BOUND('',#358,.T.);
#222=PLANE('',#359);
#223=FACE_OUTER_BOUND('',#360,.T.);
#224=CYLINDRICAL_SURFACE('',#361,0.00300000000000001);
#225=FACE_OUTER_BOUND('',#362,.T.);
#226=CYLINDRICAL_SURFACE('',#363,0.003);
#227=FACE_OUTER_BOUND('',#364,.T.);
#228=PLANE('',#365);
#229=FACE_OUTER_BOUND('',#366,.T.);
#230=PLANE('',#367);
#231=FACE_OUTER_BOUND('',#368,.T.);
#232=PLANE('',#369);
#233=FACE_OUTER_BOUND('',#370,.T.);
#234=PLANE('',#371);
#235=FACE_OUTER_BOUND('',#372,.T.);
#236=PLANE('',#373);
#237=FACE_OUTER_BOUND('',#374,.T.);
#238=CYLINDRICAL_SURFACE('',#375,0.0015);
#239=FACE_OUTER_BOUND('',#376,.T.);
#240=CYLINDRICAL_SURFACE('',#377,0.0015);
#241=FACE_OUTER_BOUND('',#378,.T.);
#242=CYLINDRICAL_SURFACE('',#379,0.0015);
#243=FACE_OUTER_BOUND('',#380,.T.);
#244=PLANE('',#381);
#245=FACE_OUTER_BOUND('',#382,.T.);
#246=CYLINDRICAL_SURFACE('',#383,0.0015);
#247=FILL_AREA_STYLE('',(#384));
#248=EDGE_LOOP('',(#385,#386,#387,#388));
#249=AXIS2_PLACEMENT_3D('',#389,#390,#391);
#250=EDGE_LOOP('',(#392,#393,#394,#395));
#251=AXIS2_PLACEMENT_3D('',#396,#397,#398);
#252=EDGE_LOOP('',(#399,#400,#401,#402));
#253=AXIS2_PLACEMENT_3D('',#403,#404,#405);
#254=EDGE_LOOP('',(#406,#407,#408,#409));
#255=AXIS2_PLACEMENT_3D('',#410,#411,#412);
#256=EDGE_LOOP('',(#413,#414,#415,#416));
#257=AXIS2_PLACEMENT_3D('',#417,#418,#419);
#258=EDGE_LOOP('',(#420,#421,#422,#423));
#259=AXIS2_PLACEMENT_3D('',#424,#425,#426);
#260=EDGE_LOOP('',(#427,#428,#429,#430,#431));
#261=AXIS2_PLACEMENT_3D('',#432,#433,#434);
#262=EDGE_LOOP('',(#435,#436,#437,#438));
#263=AXIS2_PLACEMENT_3D('',#439,#440,#441);
#264=EDGE_LOOP('',(#442,#443,#444,#445));
#265=AXIS2_PLACEMENT_3D('',#446,#447,#448);
#266=EDGE_LOOP('',(#449,#450,#451,#452));
#267=AXIS2_PLACEMENT_3D('',#453,#454,#455);
#268=EDGE_LOOP('',(#456,#457,#458,#459));
#269=AXIS2_PLACEMENT_3D('',#460,#461,#462);
#270=EDGE_LOOP('',(#463,#464));
#271=EDGE_LOOP('',(#465,#466));
#272=EDGE_LOOP('',(#467,#468,#469,#470));
#273=EDGE_LOOP('',(#471,#472));
#274=EDGE_LOOP('',(#473,#474));
#275=AXIS2_PLACEMENT_3D('',#475,#476,#477);
#276=EDGE_LOOP('',(#478,#479));
#277=AXIS2_PLACEMENT_3D('',#480,#481,#482);
#278=EDGE_LOOP('',(#483,#484,#485,#486));
#279=AXIS2_PLACEMENT_3D('',#487,#488,#489);
#280=EDGE_LOOP('',(#490,#491,#492,#493));
#281=AXIS2_PLACEMENT_3D('',#494,#495,#496);
#282=EDGE_LOOP('',(#497,#498));
#283=AXIS2_PLACEMENT_3D('',#499,#500,#501);
#284=EDGE_LOOP('',(#502,#503,#504,#505));
#285=AXIS2_PLACEMENT_3D('',#506,#507,#508);
#286=EDGE_LOOP('',(#509,#510));
#287=AXIS2_PLACEMENT_3D('',#511,#512,#513);
#288=EDGE_LOOP('',(#514,#515,#516,#517));
#289=AXIS2_PLACEMENT_3D('',#518,#519,#520);
#290=EDGE_LOOP('',(#521,#522));
#291=EDGE_LOOP('',(#523,#524,#525,#526,#527,#528,#529,#530));
#292=EDGE_LOOP('',(#531,#532));
#293=EDGE_LOOP('',(#533,#534));
#294=EDGE_LOOP('',(#535,#536));
#295=EDGE_LOOP('',(#537,#538));
#296=EDGE_LOOP('',(#539,#540));
#297=AXIS2_PLACEMENT_3D('',#541,#542,#543);
#298=EDGE_LOOP('',(#544,#545,#546,#547,#548,#549));
#299=EDGE_LOOP('',(#550,#551));
#300=EDGE_LOOP('',(#552,#553));
#301=EDGE_LOOP('',(#554,#555,#556));
#302=EDGE_LOOP('',(#557,#558,#559,#560,#561,#562));
#303=EDGE_LOOP('',(#563,#564,#565,#566,#567,#568));
#304=EDGE_LOOP('',(#569,#570,#571,#572,#573,#574,#575,#576));
#305=EDGE_LOOP('',(#577,#578));
#306=AXIS2_PLACEMENT_3D('',#579,#580,#581);
#307=EDGE_LOOP('',(#582,#583,#584,#585));
#308=AXIS2_PLACEMENT_3D('',#586,#587,#588);
#309=EDGE_LOOP('',(#589,#590,#591,#592));
#310=AXIS2_PLACEMENT_3D('',#593,#594,#595);
#311=EDGE_LOOP('',(#596,#597));
#312=AXIS2_PLACEMENT_3D('',#598,#599,#600);
#313=EDGE_LOOP('',(#601,#602,#603,#604));
#314=AXIS2_PLACEMENT_3D('',#605,#606,#607);
#315=EDGE_LOOP('',(#608,#609,#610));
#316=EDGE_LOOP('',(#611,#612,#613,#614,#615,#616));
#317=AXIS2_PLACEMENT_3D('',#617,#618,#619);
#318=EDGE_LOOP('',(#620,#621,#622,#623));
#319=AXIS2_PLACEMENT_3D('',#624,#625,#626);
#320=EDGE_LOOP('',(#627,#628,#629,#630));
#321=AXIS2_PLACEMENT_3D('',#631,#632,#633);
#322=EDGE_LOOP('',(#634,#635,#636,#637));
#323=AXIS2_PLACEMENT_3D('',#638,#639,#640);
#324=EDGE_LOOP('',(#641,#642,#643,#644));
#325=AXIS2_PLACEMENT_3D('',#645,#646,#647);
#326=EDGE_LOOP('',(#648,#649,#650,#651));
#327=AXIS2_PLACEMENT_3D('',#652,#653,#654);
#328=EDGE_LOOP('',(#655,#656,#657,#658));
#329=AXIS2_PLACEMENT_3D('',#659,#660,#661);
#330=EDGE_LOOP('',(#662,#663,#664,#665));
#331=AXIS2_PLACEMENT_3D('',#666,#667,#668);
#332=EDGE_LOOP('',(#669,#670,#671,#672));
#333=AXIS2_PLACEMENT_3D('',#673,#674,#675);
#334=EDGE_LOOP('',(#676,#677,#678,#679));
#335=AXIS2_PLACEMENT_3D('',#680,#681,#682);
#336=EDGE_LOOP('',(#683,#684,#685,#686));
#337=AXIS2_PLACEMENT_3D('',#687,#688,#689);
#338=EDGE_LOOP('',(#690,#691,#692,#693));
#339=AXIS2_PLACEMENT_3D('',#694,#695,#696);
#340=EDGE_LOOP('',(#697,#698,#699,#700));
#341=AXIS2_PLACEMENT_3D('',#701,#702,#703);
#342=EDGE_LOOP('',(#704,#705,#706,#707));
#343=AXIS2_PLACEMENT_3D('',#708,#709,#710);
#344=EDGE_LOOP('',(#711,#712,#713,#714));
#345=AXIS2_PLACEMENT_3D('',#715,#716,#717);
#346=EDGE_LOOP('',(#718,#719,#720,#721));
#347=AXIS2_PLACEMENT_3D('',#722,#723,#724);
#348=EDGE_LOOP('',(#725,#726,#727,#728));
#349=AXIS2_PLACEMENT_3D('',#729,#730,#731);
#350=EDGE_LOOP('',(#732,#733,#734,#735));
#351=AXIS2_PLACEMENT_3D('',#736,#737,#738);
#352=EDGE_LOOP('',(#739,#740,#741,#742));
#353=AXIS2_PLACEMENT_3D('',#743,#744,#745);
#354=EDGE_LOOP('',(#746,#747,#748,#749,#750,#751));
#355=EDGE_LOOP('',(#752,#753));
#356=AXIS2_PLACEMENT_3D('',#754,#755,#756);
#357=EDGE_LOOP('',(#757,#758,#759,#760,#761,#762));
#358=EDGE_LOOP('',(#763,#764));
#359=AXIS2_PLACEMENT_3D('',#765,#766,#767);
#360=EDGE_LOOP('',(#768,#769,#770,#771));
#361=AXIS2_PLACEMENT_3D('',#772,#773,#774);
#362=EDGE_LOOP('',(#775,#776,#777,#778));
#363=AXIS2_PLACEMENT_3D('',#779,#780,#781);
#364=EDGE_LOOP('',(#782,#783,#784,#785));
#365=AXIS2_PLACEMENT_3D('',#786,#787,#788);
#366=EDGE_LOOP('',(#789,#790,#791,#792));
#367=AXIS2_PLACEMENT_3D('',#793,#794,#795);
#368=EDGE_LOOP('',(#796,#797,#798,#799));
#369=AXIS2_PLACEMENT_3D('',#800,#801,#802);
#370=EDGE_LOOP('',(#803,#804,#805,#806));
#371=AXIS2_PLACEMENT_3D('',#807,#808,#809);
#372=EDGE_LOOP('',(#810,#811,#812,#813));
#373=AXIS2_PLACEMENT_3D('',#814,#815,#816);
#374=EDGE_LOOP('',(#817,#818,#819,#820,#821));
#375=AXIS2_PLACEMENT_3D('',#822,#823,#824);
#376=EDGE_LOOP('',(#825,#826,#827,#828));
#377=AXIS2_PLACEMENT_3D('',#829,#830,#831);
#378=EDGE_LOOP('',(#832,#833,#834,#835));
#379=AXIS2_PLACEMENT_3D('',#836,#837,#838);
#380=EDGE_LOOP('',(#839,#840));
#381=AXIS2_PLACEMENT_3D('',#841,#842,#843);
#382=EDGE_LOOP('',(#844,#845,#846,#847));
#383=AXIS2_PLACEMENT_3D('',#848,#849,#850);
#384=FILL_AREA_STYLE_COLOUR('',#851);
#385=ORIENTED_EDGE('',*,*,#852,.F.);
#386=ORIENTED_EDGE('',*,*,#853,.F.);
#387=ORIENTED_EDGE('',*,*,#854,.F.);
#388=ORIENTED_EDGE('',*,*,#855,.F.);
#389=CARTESIAN_POINT('',(-0.0778852086850302,0.00190065824746754,0.175987465570312));
#390=DIRECTION('',(2.08326436296814E-06,1.25769071989849E-17,0.99999999999783));
#391=DIRECTION('',(0.99999999999783,0.0,-2.08326436296814E-06));
#392=ORIENTED_EDGE('',*,*,#856,.F.);
#393=ORIENTED_EDGE('',*,*,#857,.T.);
#394=ORIENTED_EDGE('',*,*,#858,.F.);
#395=ORIENTED_EDGE('',*,*,#859,.F.);
#396=CARTESIAN_POINT('',(0.0303790712016197,0.0107983443916105,0.0579019590839648));
#397=DIRECTION('',(-3.02703994953349E-15,-1.0,1.09370879234311E-16));
#398=DIRECTION('',(-0.99999999999783,3.02704017735339E-15,2.0830633641117E-06));
#399=ORIENTED_EDGE('',*,*,#860,.F.);
#400=ORIENTED_EDGE('',*,*,#861,.T.);
#401=ORIENTED_EDGE('',*,*,#862,.F.);
#402=ORIENTED_EDGE('',*,*,#863,.F.);
#403=CARTESIAN_POINT('',(0.0461454512100361,0.0107983443916105,-0.0460078298838892));
#404=DIRECTION('',(-3.02704164359938E-15,-1.0,1.09370667476075E-16));
#405=DIRECTION('',(-0.99999999999783,3.02704187141885E-15,2.0830633641117E-06));
#406=ORIENTED_EDGE('',*,*,#864,.F.);
#407=ORIENTED_EDGE('',*,*,#865,.T.);
#408=ORIENTED_EDGE('',*,*,#866,.F.);
#409=ORIENTED_EDGE('',*,*,#867,.F.);
#410=CARTESIAN_POINT('',(-0.0529762882468374,0.0107983443916108,-0.00987214851359048));
#411=DIRECTION('',(-3.02703994953349E-15,-1.0,1.09370667476075E-16));
#412=DIRECTION('',(-0.99999999999783,3.02704017735295E-15,2.0830633641117E-06));
#413=ORIENTED_EDGE('',*,*,#868,.F.);
#414=ORIENTED_EDGE('',*,*,#869,.F.);
#415=ORIENTED_EDGE('',*,*,#870,.F.);
#416=ORIENTED_EDGE('',*,*,#871,.T.);
#417=CARTESIAN_POINT('',(-0.0964580104316357,0.0107984597121365,-0.100007532800422));
#418=DIRECTION('',(-3.02703994953349E-15,-1.0,1.09370879234311E-16));
#419=DIRECTION('',(-0.99999999999783,3.02704017735339E-15,2.0830633641117E-06));
#420=ORIENTED_EDGE('',*,*,#872,.F.);
#421=ORIENTED_EDGE('',*,*,#873,.T.);
#422=ORIENTED_EDGE('',*,*,#874,.F.);
#423=ORIENTED_EDGE('',*,*,#875,.F.);
#424=CARTESIAN_POINT('',(0.113545338711123,0.0107982549398414,-0.100007970298681));
#425=DIRECTION('',(-3.02703825546759E-15,-1.0,1.09370879234311E-16));
#426=DIRECTION('',(-0.99999999999783,3.0270384832875E-15,2.0830633641117E-06));
#427=ORIENTED_EDGE('',*,*,#876,.F.);
#428=ORIENTED_EDGE('',*,*,#877,.T.);
#429=ORIENTED_EDGE('',*,*,#878,.F.);
#430=ORIENTED_EDGE('',*,*,#879,.T.);
#431=ORIENTED_EDGE('',*,*,#880,.T.);
#432=CARTESIAN_POINT('',(0.0085444119330257,-0.00720165560838942,0.169987285514551));
#433=DIRECTION('',(3.02704333766528E-15,1.0,-1.25827536953986E-17));
#434=DIRECTION('',(-0.99999999999783,3.02704336386938E-15,2.0830633641117E-06));
#435=ORIENTED_EDGE('',*,*,#881,.F.);
#436=ORIENTED_EDGE('',*,*,#882,.T.);
#437=ORIENTED_EDGE('',*,*,#883,.F.);
#438=ORIENTED_EDGE('',*,*,#884,.T.);
#439=CARTESIAN_POINT('',(0.0940791333907155,0.0107983443916104,0.0381118394564163));
#440=DIRECTION('',(3.02704164359938E-15,1.0,-1.25827536953986E-17));
#441=DIRECTION('',(-1.0,3.02704164359938E-15,0.0));
#442=ORIENTED_EDGE('',*,*,#885,.F.);
#443=ORIENTED_EDGE('',*,*,#886,.F.);
#444=ORIENTED_EDGE('',*,*,#887,.F.);
#445=ORIENTED_EDGE('',*,*,#888,.F.);
#446=CARTESIAN_POINT('',(0.0550736316206241,0.00189878602625226,0.175987188581898));
#447=DIRECTION('',(2.08326436296814E-06,1.25769071989849E-17,0.99999999999783));
#448=DIRECTION('',(0.99999999999783,3.46779126695965E-39,-2.08326436296814E-06));
#449=ORIENTED_EDGE('',*,*,#889,.F.);
#450=ORIENTED_EDGE('',*,*,#890,.F.);
#451=ORIENTED_EDGE('',*,*,#891,.F.);
#452=ORIENTED_EDGE('',*,*,#892,.F.);
#453=CARTESIAN_POINT('',(0.0950736316204549,0.00189878602625273,0.175987105251324));
#454=DIRECTION('',(2.08326436296814E-06,1.25769071989849E-17,0.99999999999783));
#455=DIRECTION('',(0.99999999999783,3.46779126695965E-39,-2.08326436296814E-06));
#456=ORIENTED_EDGE('',*,*,#893,.F.);
#457=ORIENTED_EDGE('',*,*,#894,.F.);
#458=ORIENTED_EDGE('',*,*,#895,.F.);
#459=ORIENTED_EDGE('',*,*,#896,.F.);
#460=CARTESIAN_POINT('',(-0.0378852086852133,0.00190065824746711,0.175987382239738));
#461=DIRECTION('',(2.08326436296814E-06,1.25769071989849E-17,0.99999999999783));
#462=DIRECTION('',(0.99999999999783,3.46779126695965E-39,-2.08326436296814E-06));
#463=ORIENTED_EDGE('',*,*,#894,.T.);
#464=ORIENTED_EDGE('',*,*,#897,.T.);
#465=ORIENTED_EDGE('',*,*,#890,.T.);
#466=ORIENTED_EDGE('',*,*,#898,.T.);
#467=ORIENTED_EDGE('',*,*,#899,.F.);
#468=ORIENTED_EDGE('',*,*,#900,.T.);
#469=ORIENTED_EDGE('',*,*,#901,.F.);
#470=ORIENTED_EDGE('',*,*,#902,.F.);
#471=ORIENTED_EDGE('',*,*,#886,.T.);
#472=ORIENTED_EDGE('',*,*,#903,.T.);
#473=ORIENTED_EDGE('',*,*,#853,.T.);
#474=ORIENTED_EDGE('',*,*,#904,.T.);
#475=CARTESIAN_POINT('',(0.0161461406692695,0.0868366530700374,0.195987269678196));
#476=DIRECTION('',(-2.08326436296814E-06,-1.25769071989849E-17,-0.99999999999783));
#477=DIRECTION('',(-0.99999999999783,2.9881220383498E-15,2.08326436296814E-06));
#478=ORIENTED_EDGE('',*,*,#905,.T.);
#479=ORIENTED_EDGE('',*,*,#896,.T.);
#480=CARTESIAN_POINT('',(0.0161460990039823,0.0868366530700374,0.17598726967824));
#481=DIRECTION('',(-2.08326436296814E-06,-1.25769071989849E-17,-0.99999999999783));
#482=DIRECTION('',(-0.99999999999783,2.9881220383498E-15,2.08326436296814E-06));
#483=ORIENTED_EDGE('',*,*,#893,.T.);
#484=ORIENTED_EDGE('',*,*,#905,.F.);
#485=ORIENTED_EDGE('',*,*,#895,.T.);
#486=ORIENTED_EDGE('',*,*,#897,.F.);
#487=CARTESIAN_POINT('',(-0.0378852086852133,0.00190065824746711,0.175987382239738));
#488=DIRECTION('',(2.08326436296814E-06,1.25769071989849E-17,0.99999999999783));
#489=DIRECTION('',(0.99999999999783,3.46779126695965E-39,-2.08326436296814E-06));
#490=ORIENTED_EDGE('',*,*,#889,.T.);
#491=ORIENTED_EDGE('',*,*,#906,.F.);
#492=ORIENTED_EDGE('',*,*,#891,.T.);
#493=ORIENTED_EDGE('',*,*,#898,.F.);
#494=CARTESIAN_POINT('',(0.0950736316204549,0.00189878602625273,0.175987105251324));
#495=DIRECTION('',(2.08326436296814E-06,1.25769071989849E-17,0.99999999999783));
#496=DIRECTION('',(0.99999999999783,3.46779126695965E-39,-2.08326436296814E-06));
#497=ORIENTED_EDGE('',*,*,#892,.T.);
#498=ORIENTED_EDGE('',*,*,#906,.T.);
#499=CARTESIAN_POINT('',(0.0161460990039823,0.0868366530700374,0.17598726967824));
#500=DIRECTION('',(-2.08326436296814E-06,-1.25769071989849E-17,-0.99999999999783));
#501=DIRECTION('',(-0.99999999999783,2.9881220383498E-15,2.08326436296814E-06));
#502=ORIENTED_EDGE('',*,*,#885,.T.);
#503=ORIENTED_EDGE('',*,*,#907,.F.);
#504=ORIENTED_EDGE('',*,*,#887,.T.);
#505=ORIENTED_EDGE('',*,*,#903,.F.);
#506=CARTESIAN_POINT('',(0.0550736316206241,0.00189878602625226,0.175987188581898));
#507=DIRECTION('',(2.08326436296814E-06,1.25769071989849E-17,0.99999999999783));
#508=DIRECTION('',(0.99999999999783,3.46779126695965E-39,-2.08326436296814E-06));
#509=ORIENTED_EDGE('',*,*,#888,.T.);
#510=ORIENTED_EDGE('',*,*,#907,.T.);
#511=CARTESIAN_POINT('',(0.0161460990039823,0.0868366530700374,0.17598726967824));
#512=DIRECTION('',(-2.08326436296814E-06,-1.25769071989849E-17,-0.99999999999783));
#513=DIRECTION('',(-0.99999999999783,2.9881220383498E-15,2.08326436296814E-06));
#514=ORIENTED_EDGE('',*,*,#881,.T.);
#515=ORIENTED_EDGE('',*,*,#908,.T.);
#516=ORIENTED_EDGE('',*,*,#883,.T.);
#517=ORIENTED_EDGE('',*,*,#909,.T.);
#518=CARTESIAN_POINT('',(0.0940791333907155,0.0107983443916104,0.0381118394564163));
#519=DIRECTION('',(3.02704164359938E-15,1.0,-1.25827536953986E-17));
#520=DIRECTION('',(-1.0,3.02704164359938E-15,0.0));
#521=ORIENTED_EDGE('',*,*,#909,.F.);
#522=ORIENTED_EDGE('',*,*,#882,.F.);
#523=ORIENTED_EDGE('',*,*,#910,.F.);
#524=ORIENTED_EDGE('',*,*,#911,.T.);
#525=ORIENTED_EDGE('',*,*,#912,.F.);
#526=ORIENTED_EDGE('',*,*,#913,.T.);
#527=ORIENTED_EDGE('',*,*,#914,.F.);
#528=ORIENTED_EDGE('',*,*,#915,.F.);
#529=ORIENTED_EDGE('',*,*,#916,.F.);
#530=ORIENTED_EDGE('',*,*,#900,.F.);
#531=ORIENTED_EDGE('',*,*,#875,.T.);
#532=ORIENTED_EDGE('',*,*,#917,.T.);
#533=ORIENTED_EDGE('',*,*,#918,.T.);
#534=ORIENTED_EDGE('',*,*,#867,.T.);
#535=ORIENTED_EDGE('',*,*,#919,.T.);
#536=ORIENTED_EDGE('',*,*,#863,.T.);
#537=ORIENTED_EDGE('',*,*,#920,.T.);
#538=ORIENTED_EDGE('',*,*,#859,.T.);
#539=ORIENTED_EDGE('',*,*,#869,.T.);
#540=ORIENTED_EDGE('',*,*,#921,.T.);
#541=CARTESIAN_POINT('',(0.00854454152215545,0.0107983443916106,0.232192271860575));
#542=DIRECTION('',(3.02704164359938E-15,1.0,-1.25827536953986E-17));
#543=DIRECTION('',(0.99999999999783,-3.02704166980602E-15,-2.08326436296814E-06));
#544=ORIENTED_EDGE('',*,*,#922,.T.);
#545=ORIENTED_EDGE('',*,*,#923,.T.);
#546=ORIENTED_EDGE('',*,*,#924,.T.);
#547=ORIENTED_EDGE('',*,*,#925,.T.);
#548=ORIENTED_EDGE('',*,*,#926,.T.);
#549=ORIENTED_EDGE('',*,*,#927,.T.);
#550=ORIENTED_EDGE('',*,*,#861,.F.);
#551=ORIENTED_EDGE('',*,*,#928,.F.);
#552=ORIENTED_EDGE('',*,*,#857,.F.);
#553=ORIENTED_EDGE('',*,*,#929,.F.);
#554=ORIENTED_EDGE('',*,*,#930,.F.);
#555=ORIENTED_EDGE('',*,*,#931,.F.);
#556=ORIENTED_EDGE('',*,*,#865,.F.);
#557=ORIENTED_EDGE('',*,*,#932,.T.);
#558=ORIENTED_EDGE('',*,*,#933,.T.);
#559=ORIENTED_EDGE('',*,*,#934,.T.);
#560=ORIENTED_EDGE('',*,*,#935,.T.);
#561=ORIENTED_EDGE('',*,*,#936,.T.);
#562=ORIENTED_EDGE('',*,*,#937,.T.);
#563=ORIENTED_EDGE('',*,*,#938,.F.);
#564=ORIENTED_EDGE('',*,*,#939,.F.);
#565=ORIENTED_EDGE('',*,*,#940,.F.);
#566=ORIENTED_EDGE('',*,*,#941,.F.);
#567=ORIENTED_EDGE('',*,*,#942,.F.);
#568=ORIENTED_EDGE('',*,*,#943,.F.);
#569=ORIENTED_EDGE('',*,*,#944,.F.);
#570=ORIENTED_EDGE('',*,*,#902,.T.);
#571=ORIENTED_EDGE('',*,*,#945,.F.);
#572=ORIENTED_EDGE('',*,*,#946,.T.);
#573=ORIENTED_EDGE('',*,*,#947,.F.);
#574=ORIENTED_EDGE('',*,*,#948,.T.);
#575=ORIENTED_EDGE('',*,*,#949,.F.);
#576=ORIENTED_EDGE('',*,*,#950,.F.);
#577=ORIENTED_EDGE('',*,*,#908,.F.);
#578=ORIENTED_EDGE('',*,*,#884,.F.);
#579=CARTESIAN_POINT('',(0.00854454152215544,-0.00720165560838942,0.232192271860575));
#580=DIRECTION('',(-3.02704333766528E-15,-1.0,1.25827536953986E-17));
#581=DIRECTION('',(-0.99999999999783,3.02704336387191E-15,2.08326436296814E-06));
#582=ORIENTED_EDGE('',*,*,#910,.T.);
#583=ORIENTED_EDGE('',*,*,#899,.T.);
#584=ORIENTED_EDGE('',*,*,#944,.T.);
#585=ORIENTED_EDGE('',*,*,#951,.T.);
#586=CARTESIAN_POINT('',(0.138546130252379,0.0443174987308236,0.190987014686951));
#587=DIRECTION('',(0.707108254275371,-2.10265764760513E-15,0.707105308094656));
#588=DIRECTION('',(0.707105308080511,6.32519523464486E-06,-0.707108254261226));
#589=ORIENTED_EDGE('',*,*,#916,.T.);
#590=ORIENTED_EDGE('',*,*,#952,.T.);
#591=ORIENTED_EDGE('',*,*,#945,.T.);
#592=ORIENTED_EDGE('',*,*,#901,.T.);
#593=CARTESIAN_POINT('',(-0.121457218889224,0.0443174987308244,0.190987556342059));
#594=DIRECTION('',(-0.707105308094655,2.12044279839863E-15,0.707108254275371));
#595=DIRECTION('',(0.707108254251862,8.15439256331637E-06,0.707105308071146));
#596=ORIENTED_EDGE('',*,*,#877,.F.);
#597=ORIENTED_EDGE('',*,*,#953,.F.);
#598=CARTESIAN_POINT('',(0.00854413069753063,0.00879834439161061,0.0349897786879231));
#599=DIRECTION('',(3.02704164359938E-15,1.0,-1.25827536953986E-17));
#600=DIRECTION('',(0.99999999999783,-3.02704166980602E-15,-2.08326436296814E-06));
#601=ORIENTED_EDGE('',*,*,#876,.T.);
#602=ORIENTED_EDGE('',*,*,#954,.T.);
#603=ORIENTED_EDGE('',*,*,#878,.T.);
#604=ORIENTED_EDGE('',*,*,#953,.T.);
#605=CARTESIAN_POINT('',(0.0085444119330257,-0.00720165560838942,0.169987285514551));
#606=DIRECTION('',(3.02704333766528E-15,1.0,-1.25827536953986E-17));
#607=DIRECTION('',(-0.99999999999783,3.02704336386938E-15,2.0830633641117E-06));
#608=ORIENTED_EDGE('',*,*,#880,.F.);
#609=ORIENTED_EDGE('',*,*,#879,.F.);
#610=ORIENTED_EDGE('',*,*,#954,.F.);
#611=ORIENTED_EDGE('',*,*,#955,.T.);
#612=ORIENTED_EDGE('',*,*,#956,.T.);
#613=ORIENTED_EDGE('',*,*,#957,.T.);
#614=ORIENTED_EDGE('',*,*,#958,.T.);
#615=ORIENTED_EDGE('',*,*,#959,.T.);
#616=ORIENTED_EDGE('',*,*,#960,.T.);
#617=CARTESIAN_POINT('',(-0.10336485829952,-0.000202428746454288,0.520312504976812));
#618=DIRECTION('',(-3.02704333766528E-15,-1.0,1.25827536953986E-17));
#619=DIRECTION('',(-0.99999999999783,3.02704336387191E-15,2.08326436296814E-06));
#620=ORIENTED_EDGE('',*,*,#927,.F.);
#621=ORIENTED_EDGE('',*,*,#961,.F.);
#622=ORIENTED_EDGE('',*,*,#957,.F.);
#623=ORIENTED_EDGE('',*,*,#962,.T.);
#624=CARTESIAN_POINT('',(0.00291525357904828,-0.000202428746454584,0.173237297241583));
#625=DIRECTION('',(-0.866024362150376,2.59239928034526E-15,0.500001804158779));
#626=DIRECTION('',(-0.500001804158779,1.48220132087109E-15,-0.866024362150376));
#627=ORIENTED_EDGE('',*,*,#922,.F.);
#628=ORIENTED_EDGE('',*,*,#962,.F.);
#629=ORIENTED_EDGE('',*,*,#956,.F.);
#630=ORIENTED_EDGE('',*,*,#963,.T.);
#631=CARTESIAN_POINT('',(0.00854442547424407,-0.000202428746454601,0.176487285514536));
#632=DIRECTION('',(2.08326436548449E-06,1.25766248848268E-17,0.99999999999783));
#633=DIRECTION('',(-0.99999999999783,2.9861857209787E-15,2.08326436548449E-06));
#634=ORIENTED_EDGE('',*,*,#923,.F.);
#635=ORIENTED_EDGE('',*,*,#963,.F.);
#636=ORIENTED_EDGE('',*,*,#955,.F.);
#637=ORIENTED_EDGE('',*,*,#964,.T.);
#638=CARTESIAN_POINT('',(0.0141735838282215,-0.000202428746454618,0.173237273787504));
#639=DIRECTION('',(0.866026445414741,-2.57982135084151E-15,0.499998195839053));
#640=DIRECTION('',(-0.499998195839053,1.50398355308289E-15,0.866026445414741));
#641=ORIENTED_EDGE('',*,*,#924,.F.);
#642=ORIENTED_EDGE('',*,*,#964,.F.);
#643=ORIENTED_EDGE('',*,*,#960,.F.);
#644=ORIENTED_EDGE('',*,*,#965,.T.);
#645=CARTESIAN_POINT('',(0.0141735702870032,-0.000202428746454618,0.166737273787518));
#646=DIRECTION('',(0.866024362150376,-2.59239928034526E-15,-0.500001804158779));
#647=DIRECTION('',(0.500001804158779,-1.48220132087109E-15,0.866024362150376));
#648=ORIENTED_EDGE('',*,*,#925,.F.);
#649=ORIENTED_EDGE('',*,*,#965,.F.);
#650=ORIENTED_EDGE('',*,*,#959,.F.);
#651=ORIENTED_EDGE('',*,*,#966,.T.);
#652=CARTESIAN_POINT('',(0.00854439839180735,-0.000202428746454601,0.163487285514565));
#653=DIRECTION('',(-2.08326436548449E-06,-1.25766248848268E-17,-0.99999999999783));
#654=DIRECTION('',(0.99999999999783,-2.9861857209787E-15,-2.08326436548449E-06));
#655=ORIENTED_EDGE('',*,*,#926,.F.);
#656=ORIENTED_EDGE('',*,*,#966,.F.);
#657=ORIENTED_EDGE('',*,*,#958,.F.);
#658=ORIENTED_EDGE('',*,*,#961,.T.);
#659=CARTESIAN_POINT('',(0.00291524003782988,-0.000202428746454584,0.166737297241597));
#660=DIRECTION('',(-0.866026445414742,2.57982304487832E-15,-0.499998195839051));
#661=DIRECTION('',(0.499998195839051,-1.50398355306674E-15,-0.866026445414742));
#662=ORIENTED_EDGE('',*,*,#967,.T.);
#663=ORIENTED_EDGE('',*,*,#968,.F.);
#664=ORIENTED_EDGE('',*,*,#969,.F.);
#665=ORIENTED_EDGE('',*,*,#937,.F.);
#666=CARTESIAN_POINT('',(-0.0908288385364399,-0.00720154028786357,-0.0967575445274684));
#667=DIRECTION('',(-0.866026445414742,2.579823070529E-15,-0.499998195839051));
#668=DIRECTION('',(-0.499998195835053,-3.99915733685541E-06,0.866026445407817));
#669=ORIENTED_EDGE('',*,*,#970,.T.);
#670=ORIENTED_EDGE('',*,*,#971,.F.);
#671=ORIENTED_EDGE('',*,*,#967,.F.);
#672=ORIENTED_EDGE('',*,*,#936,.F.);
#673=CARTESIAN_POINT('',(-0.106457996889872,-0.00720164267401076,-0.0935075119696702));
#674=DIRECTION('',(-2.0832643654845E-06,-1.2576624888058E-17,-0.99999999999783));
#675=DIRECTION('',(-0.999999999945415,-1.02386147204689E-05,2.0832643653753E-06));
#676=ORIENTED_EDGE('',*,*,#972,.T.);
#677=ORIENTED_EDGE('',*,*,#973,.F.);
#678=ORIENTED_EDGE('',*,*,#970,.F.);
#679=ORIENTED_EDGE('',*,*,#935,.F.);
#680=CARTESIAN_POINT('',(-0.102087168785613,-0.00720154028786354,-0.0967575210733901));
#681=DIRECTION('',(0.866024362150376,-2.59239896869688E-15,-0.500001804158779));
#682=DIRECTION('',(-0.500001804149046,-6.2394573839967E-06,-0.866024362133519));
#683=ORIENTED_EDGE('',*,*,#974,.T.);
#684=ORIENTED_EDGE('',*,*,#975,.F.);
#685=ORIENTED_EDGE('',*,*,#972,.F.);
#686=ORIENTED_EDGE('',*,*,#934,.F.);
#687=CARTESIAN_POINT('',(-0.102087182326832,-0.00720154028786354,-0.103257521073376));
#688=DIRECTION('',(0.866026445414742,-2.579823070529E-15,0.499998195839051));
#689=DIRECTION('',(0.499998195835053,3.99915733685541E-06,-0.866026445407817));
#690=ORIENTED_EDGE('',*,*,#976,.T.);
#691=ORIENTED_EDGE('',*,*,#977,.F.);
#692=ORIENTED_EDGE('',*,*,#974,.F.);
#693=ORIENTED_EDGE('',*,*,#933,.F.);
#694=CARTESIAN_POINT('',(-0.106458023972308,-0.00720164267401076,-0.106507511969642));
#695=DIRECTION('',(2.0832643654845E-06,1.2576624888058E-17,0.99999999999783));
#696=DIRECTION('',(0.999999999945415,1.02386147204689E-05,-2.0832643653753E-06));
#697=ORIENTED_EDGE('',*,*,#969,.T.);
#698=ORIENTED_EDGE('',*,*,#978,.F.);
#699=ORIENTED_EDGE('',*,*,#976,.F.);
#700=ORIENTED_EDGE('',*,*,#932,.F.);
#701=CARTESIAN_POINT('',(-0.0908288520776583,-0.00720154028786357,-0.103257544527454));
#702=DIRECTION('',(-0.866024362150376,2.59239896869688E-15,0.500001804158779));
#703=DIRECTION('',(0.500001804149046,6.2394573839967E-06,0.866024362133519));
#704=ORIENTED_EDGE('',*,*,#979,.F.);
#705=ORIENTED_EDGE('',*,*,#980,.F.);
#706=ORIENTED_EDGE('',*,*,#943,.T.);
#707=ORIENTED_EDGE('',*,*,#981,.T.);
#708=CARTESIAN_POINT('',(0.123545352251796,-0.00720164267401145,-0.0935079911294609));
#709=DIRECTION('',(-2.0832643654845E-06,-1.2576624888058E-17,-0.99999999999783));
#710=DIRECTION('',(-0.999999999945415,-1.02386147204689E-05,2.0832643653753E-06));
#711=ORIENTED_EDGE('',*,*,#982,.F.);
#712=ORIENTED_EDGE('',*,*,#981,.F.);
#713=ORIENTED_EDGE('',*,*,#942,.T.);
#714=ORIENTED_EDGE('',*,*,#983,.T.);
#715=CARTESIAN_POINT('',(0.107916180357146,-0.00720174506015864,-0.0967579585716487));
#716=DIRECTION('',(0.866024362150376,-2.59239896869688E-15,-0.500001804158779));
#717=DIRECTION('',(-0.500001804149046,-6.2394573839967E-06,-0.866024362133519));
#718=ORIENTED_EDGE('',*,*,#984,.F.);
#719=ORIENTED_EDGE('',*,*,#983,.F.);
#720=ORIENTED_EDGE('',*,*,#941,.T.);
#721=ORIENTED_EDGE('',*,*,#985,.T.);
#722=CARTESIAN_POINT('',(0.107916166815928,-0.00720174506015864,-0.103257958571635));
#723=DIRECTION('',(0.866026445414742,-2.579823070529E-15,0.499998195839051));
#724=DIRECTION('',(0.499998195835053,3.99915733685541E-06,-0.866026445407817));
#725=ORIENTED_EDGE('',*,*,#986,.F.);
#726=ORIENTED_EDGE('',*,*,#985,.F.);
#727=ORIENTED_EDGE('',*,*,#940,.T.);
#728=ORIENTED_EDGE('',*,*,#987,.T.);
#729=CARTESIAN_POINT('',(0.123545325169359,-0.00720164267401145,-0.106507991129433));
#730=DIRECTION('',(2.0832643654845E-06,1.2576624888058E-17,0.99999999999783));
#731=DIRECTION('',(0.999999999945415,1.02386147204689E-05,-2.0832643653753E-06));
#732=ORIENTED_EDGE('',*,*,#988,.F.);
#733=ORIENTED_EDGE('',*,*,#987,.F.);
#734=ORIENTED_EDGE('',*,*,#939,.T.);
#735=ORIENTED_EDGE('',*,*,#989,.T.);
#736=CARTESIAN_POINT('',(0.119174497065101,-0.00720174506015867,-0.103257982025713));
#737=DIRECTION('',(-0.866024362150376,2.59239896869688E-15,0.500001804158779));
#738=DIRECTION('',(0.500001804149046,6.2394573839967E-06,0.866024362133519));
#739=ORIENTED_EDGE('',*,*,#990,.F.);
#740=ORIENTED_EDGE('',*,*,#989,.F.);
#741=ORIENTED_EDGE('',*,*,#938,.T.);
#742=ORIENTED_EDGE('',*,*,#980,.T.);
#743=CARTESIAN_POINT('',(0.119174510606319,-0.00720174506015868,-0.0967579820257269));
#744=DIRECTION('',(-0.866026445414741,2.57982285877076E-15,-0.499998195839053));
#745=DIRECTION('',(-0.499998195835055,-3.99915733685542E-06,0.866026445407816));
#746=ORIENTED_EDGE('',*,*,#986,.T.);
#747=ORIENTED_EDGE('',*,*,#988,.T.);
#748=ORIENTED_EDGE('',*,*,#990,.T.);
#749=ORIENTED_EDGE('',*,*,#979,.T.);
#750=ORIENTED_EDGE('',*,*,#982,.T.);
#751=ORIENTED_EDGE('',*,*,#984,.T.);
#752=ORIENTED_EDGE('',*,*,#873,.F.);
#753=ORIENTED_EDGE('',*,*,#991,.F.);
#754=CARTESIAN_POINT('',(-0.00145543764666506,-0.000201745060158291,0.242192292691311));
#755=DIRECTION('',(-3.02704333766528E-15,-1.0,1.25827536953986E-17));
#756=DIRECTION('',(-0.99999999999783,3.02704336387191E-15,2.08326436296814E-06));
#757=ORIENTED_EDGE('',*,*,#977,.T.);
#758=ORIENTED_EDGE('',*,*,#978,.T.);
#759=ORIENTED_EDGE('',*,*,#968,.T.);
#760=ORIENTED_EDGE('',*,*,#971,.T.);
#761=ORIENTED_EDGE('',*,*,#973,.T.);
#762=ORIENTED_EDGE('',*,*,#975,.T.);
#763=ORIENTED_EDGE('',*,*,#871,.F.);
#764=ORIENTED_EDGE('',*,*,#992,.F.);
#765=CARTESIAN_POINT('',(0.0185445623522433,-0.000201540287863876,0.242192251029779));
#766=DIRECTION('',(-3.02704333766528E-15,-1.0,1.25827536953986E-17));
#767=DIRECTION('',(-0.99999999999783,3.02704336387191E-15,2.08326436296814E-06));
#768=ORIENTED_EDGE('',*,*,#872,.T.);
#769=ORIENTED_EDGE('',*,*,#917,.F.);
#770=ORIENTED_EDGE('',*,*,#874,.T.);
#771=ORIENTED_EDGE('',*,*,#991,.T.);
#772=CARTESIAN_POINT('',(0.113545338711123,0.0107982549398414,-0.100007970298681));
#773=DIRECTION('',(-3.02703825546759E-15,-1.0,1.09370879234311E-16));
#774=DIRECTION('',(-0.99999999999783,3.0270384832875E-15,2.0830633641117E-06));
#775=ORIENTED_EDGE('',*,*,#868,.T.);
#776=ORIENTED_EDGE('',*,*,#992,.T.);
#777=ORIENTED_EDGE('',*,*,#870,.T.);
#778=ORIENTED_EDGE('',*,*,#921,.F.);
#779=CARTESIAN_POINT('',(-0.0964580104316357,0.0107984597121365,-0.100007532800422));
#780=DIRECTION('',(-3.02703994953349E-15,-1.0,1.09370879234311E-16));
#781=DIRECTION('',(-0.99999999999783,3.02704017735339E-15,2.0830633641117E-06));
#782=ORIENTED_EDGE('',*,*,#951,.F.);
#783=ORIENTED_EDGE('',*,*,#950,.T.);
#784=ORIENTED_EDGE('',*,*,#993,.F.);
#785=ORIENTED_EDGE('',*,*,#911,.F.);
#786=CARTESIAN_POINT('',(0.143546216092946,0.00179834439161019,0.232191990616397));
#787=DIRECTION('',(0.99999999999783,-2.98618233290058E-15,-2.08326436296814E-06));
#788=DIRECTION('',(-2.98618230669404E-15,-1.0,1.25826685713669E-17));
#789=ORIENTED_EDGE('',*,*,#949,.T.);
#790=ORIENTED_EDGE('',*,*,#994,.T.);
#791=ORIENTED_EDGE('',*,*,#912,.T.);
#792=ORIENTED_EDGE('',*,*,#993,.T.);
#793=CARTESIAN_POINT('',(0.138545471950926,0.0443175006709804,-0.125007998966506));
#794=DIRECTION('',(0.707105308094656,-2.12044195136568E-15,-0.70710825427537));
#795=DIRECTION('',(-0.707108254251861,-8.15439256331637E-06,-0.707105308071147));
#796=ORIENTED_EDGE('',*,*,#995,.F.);
#797=ORIENTED_EDGE('',*,*,#913,.F.);
#798=ORIENTED_EDGE('',*,*,#994,.F.);
#799=ORIENTED_EDGE('',*,*,#948,.F.);
#800=CARTESIAN_POINT('',(0.0161454615348721,0.0868366569503509,-0.130007743974937));
#801=DIRECTION('',(-2.08326436296814E-06,-1.25769071989849E-17,-0.99999999999783));
#802=DIRECTION('',(-0.99999999999783,2.9881220383498E-15,2.08326436296814E-06));
#803=ORIENTED_EDGE('',*,*,#914,.T.);
#804=ORIENTED_EDGE('',*,*,#995,.T.);
#805=ORIENTED_EDGE('',*,*,#947,.T.);
#806=ORIENTED_EDGE('',*,*,#996,.T.);
#807=CARTESIAN_POINT('',(-0.121457877190676,0.0443175006709812,-0.125007457310794));
#808=DIRECTION('',(-0.707108254275371,2.10265680057218E-15,-0.707105308094655));
#809=DIRECTION('',(-0.70710530808051,-6.32519523464485E-06,0.707108254261227));
#810=ORIENTED_EDGE('',*,*,#952,.F.);
#811=ORIENTED_EDGE('',*,*,#915,.T.);
#812=ORIENTED_EDGE('',*,*,#996,.F.);
#813=ORIENTED_EDGE('',*,*,#946,.F.);
#814=CARTESIAN_POINT('',(-0.126457133048635,0.001798344391611,0.232192553104752));
#815=DIRECTION('',(-0.99999999999783,2.98618233290058E-15,2.08326436296814E-06));
#816=DIRECTION('',(2.98618230669404E-15,1.0,-1.25826685713669E-17));
#817=ORIENTED_EDGE('',*,*,#864,.T.);
#818=ORIENTED_EDGE('',*,*,#918,.F.);
#819=ORIENTED_EDGE('',*,*,#866,.T.);
#820=ORIENTED_EDGE('',*,*,#931,.T.);
#821=ORIENTED_EDGE('',*,*,#930,.T.);
#822=CARTESIAN_POINT('',(-0.0529762882468374,0.0107983443916108,-0.00987214851359048));
#823=DIRECTION('',(-3.02703994953349E-15,-1.0,1.09370667476075E-16));
#824=DIRECTION('',(-0.99999999999783,3.02704017735295E-15,2.0830633641117E-06));
#825=ORIENTED_EDGE('',*,*,#860,.T.);
#826=ORIENTED_EDGE('',*,*,#919,.F.);
#827=ORIENTED_EDGE('',*,*,#862,.T.);
#828=ORIENTED_EDGE('',*,*,#928,.T.);
#829=CARTESIAN_POINT('',(0.0461454512100361,0.0107983443916105,-0.0460078298838892));
#830=DIRECTION('',(-3.02704164359938E-15,-1.0,1.09370667476075E-16));
#831=DIRECTION('',(-0.99999999999783,3.02704187141885E-15,2.0830633641117E-06));
#832=ORIENTED_EDGE('',*,*,#856,.T.);
#833=ORIENTED_EDGE('',*,*,#920,.F.);
#834=ORIENTED_EDGE('',*,*,#858,.T.);
#835=ORIENTED_EDGE('',*,*,#929,.T.);
#836=CARTESIAN_POINT('',(0.0303790712016197,0.0107983443916105,0.0579019590839648));
#837=DIRECTION('',(-3.02703994953349E-15,-1.0,1.09370879234311E-16));
#838=DIRECTION('',(-0.99999999999783,3.02704017735339E-15,2.0830633641117E-06));
#839=ORIENTED_EDGE('',*,*,#997,.T.);
#840=ORIENTED_EDGE('',*,*,#855,.T.);
#841=CARTESIAN_POINT('',(0.0161460990039823,0.0868366530700374,0.17598726967824));
#842=DIRECTION('',(-2.08326436296814E-06,-1.25769071989849E-17,-0.99999999999783));
#843=DIRECTION('',(-0.99999999999783,2.9881220383498E-15,2.08326436296814E-06));
#844=ORIENTED_EDGE('',*,*,#852,.T.);
#845=ORIENTED_EDGE('',*,*,#997,.F.);
#846=ORIENTED_EDGE('',*,*,#854,.T.);
#847=ORIENTED_EDGE('',*,*,#904,.F.);
#848=CARTESIAN_POINT('',(-0.0778852086850302,0.00190065824746754,0.175987465570312));
#849=DIRECTION('',(2.08326436296814E-06,1.25769071989849E-17,0.99999999999783));
#850=DIRECTION('',(0.99999999999783,0.0,-2.08326436296814E-06));
#851=COLOUR_RGB('',0.686274528503418,0.623529434204102,0.560784339904785);
#852=EDGE_CURVE('',#998,#999,#1000,.T.);
#853=EDGE_CURVE('11:3203',#1001,#998,#1002,.F.);
#854=EDGE_CURVE('',#1003,#1001,#1004,.T.);
#855=EDGE_CURVE('11:2825',#999,#1003,#1005,.T.);
#856=EDGE_CURVE('',#1006,#1007,#1008,.T.);
#857=EDGE_CURVE('0:248',#1006,#1009,#1010,.T.);
#858=EDGE_CURVE('',#1011,#1009,#1012,.T.);
#859=EDGE_CURVE('0:155',#1007,#1011,#1013,.T.);
#860=EDGE_CURVE('',#1014,#1015,#1016,.T.);
#861=EDGE_CURVE('0:251',#1014,#1017,#1018,.T.);
#862=EDGE_CURVE('',#1019,#1017,#1020,.T.);
#863=EDGE_CURVE('0:152',#1015,#1019,#1021,.T.);
#864=EDGE_CURVE('',#1022,#1023,#1024,.T.);
#865=EDGE_CURVE('0:245',#1022,#1025,#1026,.T.);
#866=EDGE_CURVE('',#1027,#1025,#1028,.T.);
#867=EDGE_CURVE('0:149',#1023,#1027,#1029,.T.);
#868=EDGE_CURVE('',#1030,#1031,#1032,.T.);
#869=EDGE_CURVE('0:158',#1033,#1030,#1034,.F.);
#870=EDGE_CURVE('',#1035,#1033,#1036,.T.);
#871=EDGE_CURVE('0:401',#1035,#1031,#1037,.F.);
#872=EDGE_CURVE('',#1038,#1039,#1040,.T.);
#873=EDGE_CURVE('0:398',#1038,#1041,#1042,.F.);
#874=EDGE_CURVE('',#1043,#1041,#1044,.T.);
#875=EDGE_CURVE('0:146',#1039,#1043,#1045,.F.);
#876=EDGE_CURVE('',#1046,#1047,#1048,.T.);
#877=EDGE_CURVE('0:284',#1046,#1049,#1050,.T.);
#878=EDGE_CURVE('',#1051,#1049,#1052,.T.);
#879=EDGE_CURVE('0:287',#1051,#1053,#1054,.F.);
#880=EDGE_CURVE('0:287',#1053,#1047,#1055,.F.);
#881=EDGE_CURVE('',#1056,#1057,#1058,.T.);
#882=EDGE_CURVE('7:260',#1056,#1059,#1060,.T.);
#883=EDGE_CURVE('',#1061,#1059,#1062,.T.);
#884=EDGE_CURVE('7:297',#1061,#1057,#1063,.T.);
#885=EDGE_CURVE('',#1064,#1065,#1066,.T.);
#886=EDGE_CURVE('11:3147',#1067,#1064,#1068,.F.);
#887=EDGE_CURVE('',#1069,#1067,#1070,.T.);
#888=EDGE_CURVE('11:3011',#1065,#1069,#1071,.T.);
#889=EDGE_CURVE('',#1072,#1073,#1074,.T.);
#890=EDGE_CURVE('11:3116',#1075,#1072,#1076,.F.);
#891=EDGE_CURVE('',#1077,#1075,#1078,.T.);
#892=EDGE_CURVE('11:2949',#1073,#1077,#1079,.T.);
#893=EDGE_CURVE('',#1080,#1081,#1082,.T.);
#894=EDGE_CURVE('11:3175',#1083,#1080,#1084,.F.);
#895=EDGE_CURVE('',#1085,#1083,#1086,.T.);
#896=EDGE_CURVE('11:2887',#1081,#1085,#1087,.T.);
#897=EDGE_CURVE('11:3175',#1080,#1083,#1088,.F.);
#898=EDGE_CURVE('11:3116',#1072,#1075,#1089,.F.);
#899=EDGE_CURVE('0:272',#1090,#1091,#1092,.T.);
#900=EDGE_CURVE('0:182',#1090,#1093,#1094,.F.);
#901=EDGE_CURVE('0:278',#1095,#1093,#1096,.T.);
#902=EDGE_CURVE('0:188',#1091,#1095,#1097,.T.);
#903=EDGE_CURVE('11:3147',#1064,#1067,#1098,.F.);
#904=EDGE_CURVE('11:3203',#998,#1001,#1099,.F.);
#905=EDGE_CURVE('11:2887',#1085,#1081,#1100,.T.);
#906=EDGE_CURVE('11:2949',#1077,#1073,#1101,.T.);
#907=EDGE_CURVE('11:3011',#1069,#1065,#1102,.T.);
#908=EDGE_CURVE('7:297',#1057,#1061,#1103,.T.);
#909=EDGE_CURVE('7:260',#1059,#1056,#1104,.T.);
#910=EDGE_CURVE('0:161',#1105,#1090,#1106,.T.);
#911=EDGE_CURVE('0:164',#1105,#1107,#1108,.T.);
#912=EDGE_CURVE('0:167',#1109,#1107,#1110,.T.);
#913=EDGE_CURVE('0:170',#1109,#1111,#1112,.T.);
#914=EDGE_CURVE('0:173',#1113,#1111,#1114,.T.);
#915=EDGE_CURVE('0:176',#1115,#1113,#1116,.T.);
#916=EDGE_CURVE('0:179',#1093,#1115,#1117,.T.);
#917=EDGE_CURVE('0:146',#1043,#1039,#1118,.F.);
#918=EDGE_CURVE('0:149',#1027,#1023,#1119,.T.);
#919=EDGE_CURVE('0:152',#1019,#1015,#1120,.T.);
#920=EDGE_CURVE('0:155',#1011,#1007,#1121,.T.);
#921=EDGE_CURVE('0:158',#1030,#1033,#1122,.F.);
#922=EDGE_CURVE('0:254',#1123,#1124,#1125,.T.);
#923=EDGE_CURVE('0:257',#1124,#1126,#1127,.T.);
#924=EDGE_CURVE('0:260',#1126,#1128,#1129,.T.);
#925=EDGE_CURVE('0:263',#1128,#1130,#1131,.T.);
#926=EDGE_CURVE('0:266',#1130,#1132,#1133,.T.);
#927=EDGE_CURVE('0:269',#1132,#1123,#1134,.T.);
#928=EDGE_CURVE('0:251',#1017,#1014,#1135,.T.);
#929=EDGE_CURVE('0:248',#1009,#1006,#1136,.T.);
#930=EDGE_CURVE('0:245',#1137,#1022,#1138,.T.);
#931=EDGE_CURVE('0:245',#1025,#1137,#1139,.T.);
#932=EDGE_CURVE('0:227',#1140,#1141,#1142,.F.);
#933=EDGE_CURVE('0:230',#1141,#1143,#1144,.F.);
#934=EDGE_CURVE('0:233',#1143,#1145,#1146,.F.);
#935=EDGE_CURVE('0:236',#1145,#1147,#1148,.F.);
#936=EDGE_CURVE('0:239',#1147,#1149,#1150,.F.);
#937=EDGE_CURVE('0:242',#1149,#1140,#1151,.F.);
#938=EDGE_CURVE('0:209',#1152,#1153,#1154,.T.);
#939=EDGE_CURVE('0:212',#1155,#1152,#1156,.T.);
#940=EDGE_CURVE('0:215',#1157,#1155,#1158,.T.);
#941=EDGE_CURVE('0:218',#1159,#1157,#1160,.T.);
#942=EDGE_CURVE('0:221',#1161,#1159,#1162,.T.);
#943=EDGE_CURVE('0:224',#1153,#1161,#1163,.T.);
#944=EDGE_CURVE('0:185',#1091,#1164,#1165,.T.);
#945=EDGE_CURVE('0:191',#1166,#1095,#1167,.T.);
#946=EDGE_CURVE('0:194',#1166,#1168,#1169,.T.);
#947=EDGE_CURVE('0:197',#1170,#1168,#1171,.T.);
#948=EDGE_CURVE('0:200',#1170,#1172,#1173,.T.);
#949=EDGE_CURVE('0:203',#1174,#1172,#1175,.T.);
#950=EDGE_CURVE('0:206',#1164,#1174,#1176,.T.);
#951=EDGE_CURVE('0:275',#1164,#1105,#1177,.T.);
#952=EDGE_CURVE('0:281',#1115,#1166,#1178,.T.);
#953=EDGE_CURVE('0:284',#1049,#1046,#1179,.T.);
#954=EDGE_CURVE('0:287',#1047,#1051,#1180,.F.);
#955=EDGE_CURVE('0:290',#1181,#1182,#1183,.F.);
#956=EDGE_CURVE('0:293',#1182,#1184,#1185,.F.);
#957=EDGE_CURVE('0:296',#1184,#1186,#1187,.F.);
#958=EDGE_CURVE('0:299',#1186,#1188,#1189,.F.);
#959=EDGE_CURVE('0:302',#1188,#1190,#1191,.F.);
#960=EDGE_CURVE('0:305',#1190,#1181,#1192,.F.);
#961=EDGE_CURVE('0:308',#1186,#1132,#1193,.T.);
#962=EDGE_CURVE('0:311',#1184,#1123,#1194,.T.);
#963=EDGE_CURVE('0:314',#1182,#1124,#1195,.T.);
#964=EDGE_CURVE('0:317',#1181,#1126,#1196,.T.);
#965=EDGE_CURVE('0:320',#1190,#1128,#1197,.T.);
#966=EDGE_CURVE('0:323',#1188,#1130,#1198,.T.);
#967=EDGE_CURVE('0:326',#1149,#1199,#1200,.T.);
#968=EDGE_CURVE('0:329',#1201,#1199,#1202,.F.);
#969=EDGE_CURVE('0:332',#1140,#1201,#1203,.T.);
#970=EDGE_CURVE('0:335',#1147,#1204,#1205,.T.);
#971=EDGE_CURVE('0:338',#1199,#1204,#1206,.F.);
#972=EDGE_CURVE('0:341',#1145,#1207,#1208,.T.);
#973=EDGE_CURVE('0:344',#1204,#1207,#1209,.F.);
#974=EDGE_CURVE('0:347',#1143,#1210,#1211,.T.);
#975=EDGE_CURVE('0:350',#1207,#1210,#1212,.F.);
#976=EDGE_CURVE('0:353',#1141,#1213,#1214,.T.);
#977=EDGE_CURVE('0:356',#1210,#1213,#1215,.F.);
#978=EDGE_CURVE('0:359',#1213,#1201,#1216,.F.);
#979=EDGE_CURVE('0:362',#1217,#1218,#1219,.F.);
#980=EDGE_CURVE('0:365',#1153,#1217,#1220,.T.);
#981=EDGE_CURVE('0:368',#1161,#1218,#1221,.T.);
#982=EDGE_CURVE('0:371',#1218,#1222,#1223,.F.);
#983=EDGE_CURVE('0:374',#1159,#1222,#1224,.T.);
#984=EDGE_CURVE('0:377',#1222,#1225,#1226,.F.);
#985=EDGE_CURVE('0:380',#1157,#1225,#1227,.T.);
#986=EDGE_CURVE('0:383',#1225,#1228,#1229,.F.);
#987=EDGE_CURVE('0:386',#1155,#1228,#1230,.T.);
#988=EDGE_CURVE('0:389',#1228,#1231,#1232,.F.);
#989=EDGE_CURVE('0:392',#1152,#1231,#1233,.T.);
#990=EDGE_CURVE('0:395',#1231,#1217,#1234,.F.);
#991=EDGE_CURVE('0:398',#1041,#1038,#1235,.F.);
#992=EDGE_CURVE('0:401',#1031,#1035,#1236,.F.);
#993=EDGE_CURVE('0:404',#1107,#1174,#1237,.T.);
#994=EDGE_CURVE('0:407',#1172,#1109,#1238,.T.);
#995=EDGE_CURVE('0:410',#1111,#1170,#1239,.T.);
#996=EDGE_CURVE('0:413',#1168,#1113,#1240,.T.);
#997=EDGE_CURVE('11:2825',#1003,#999,#1241,.T.);
#998=VERTEX_POINT('',#1242);
#999=VERTEX_POINT('',#1243);
#1000=LINE('',#1244,#1245);
#1001=VERTEX_POINT('',#1246);
#1002=CIRCLE('',#1247,0.0015);
#1003=VERTEX_POINT('',#1248);
#1004=LINE('',#1249,#1250);
#1005=CIRCLE('',#1251,0.0015);
#1006=VERTEX_POINT('',#1252);
#1007=VERTEX_POINT('',#1253);
#1008=LINE('',#1254,#1255);
#1009=VERTEX_POINT('',#1256);
#1010=CIRCLE('',#1257,0.0015);
#1011=VERTEX_POINT('',#1258);
#1012=LINE('',#1259,#1260);
#1013=CIRCLE('',#1261,0.0015);
#1014=VERTEX_POINT('',#1262);
#1015=VERTEX_POINT('',#1263);
#1016=LINE('',#1264,#1265);
#1017=VERTEX_POINT('',#1266);
#1018=CIRCLE('',#1267,0.0015);
#1019=VERTEX_POINT('',#1268);
#1020=LINE('',#1269,#1270);
#1021=CIRCLE('',#1271,0.0015);
#1022=VERTEX_POINT('',#1272);
#1023=VERTEX_POINT('',#1273);
#1024=LINE('',#1274,#1275);
#1025=VERTEX_POINT('',#1276);
#1026=CIRCLE('',#1277,0.0015);
#1027=VERTEX_POINT('',#1278);
#1028=LINE('',#1279,#1280);
#1029=CIRCLE('',#1281,0.0015);
#1030=VERTEX_POINT('',#1282);
#1031=VERTEX_POINT('',#1283);
#1032=LINE('',#1284,#1285);
#1033=VERTEX_POINT('',#1286);
#1034=CIRCLE('',#1287,0.003);
#1035=VERTEX_POINT('',#1288);
#1036=LINE('',#1289,#1290);
#1037=CIRCLE('',#1291,0.003);
#1038=VERTEX_POINT('',#1292);
#1039=VERTEX_POINT('',#1293);
#1040=LINE('',#1294,#1295);
#1041=VERTEX_POINT('',#1296);
#1042=CIRCLE('',#1297,0.00300000000000001);
#1043=VERTEX_POINT('',#1298);
#1044=LINE('',#1299,#1300);
#1045=CIRCLE('',#1301,0.00300000000000001);
#1046=VERTEX_POINT('',#1302);
#1047=VERTEX_POINT('',#1303);
#1048=LINE('',#1304,#1305);
#1049=VERTEX_POINT('',#1306);
#1050=CIRCLE('',#1307,0.00300000000000001);
#1051=VERTEX_POINT('',#1308);
#1052=LINE('',#1309,#1310);
#1053=VERTEX_POINT('',#1311);
#1054=CIRCLE('',#1312,0.00300000000000001);
#1055=CIRCLE('',#1313,0.00300000000000001);
#1056=VERTEX_POINT('',#1314);
#1057=VERTEX_POINT('',#1315);
#1058=LINE('',#1316,#1317);
#1059=VERTEX_POINT('',#1318);
#1060=CIRCLE('',#1319,0.00149999999999999);
#1061=VERTEX_POINT('',#1320);
#1062=LINE('',#1321,#1322);
#1063=CIRCLE('',#1323,0.00149999999999999);
#1064=VERTEX_POINT('',#1324);
#1065=VERTEX_POINT('',#1325);
#1066=LINE('',#1326,#1327);
#1067=VERTEX_POINT('',#1328);
#1068=CIRCLE('',#1329,0.0015);
#1069=VERTEX_POINT('',#1330);
#1070=LINE('',#1331,#1332);
#1071=CIRCLE('',#1333,0.0015);
#1072=VERTEX_POINT('',#1334);
#1073=VERTEX_POINT('',#1335);
#1074=LINE('',#1336,#1337);
#1075=VERTEX_POINT('',#1338);
#1076=CIRCLE('',#1339,0.0015);
#1077=VERTEX_POINT('',#1340);
#1078=LINE('',#1341,#1342);
#1079=CIRCLE('',#1343,0.0015);
#1080=VERTEX_POINT('',#1344);
#1081=VERTEX_POINT('',#1345);
#1082=LINE('',#1346,#1347);
#1083=VERTEX_POINT('',#1348);
#1084=CIRCLE('',#1349,0.0015);
#1085=VERTEX_POINT('',#1350);
#1086=LINE('',#1351,#1352);
#1087=CIRCLE('',#1353,0.0015);
#1088=CIRCLE('',#1354,0.0015);
#1089=CIRCLE('',#1355,0.0015);
#1090=VERTEX_POINT('',#1356);
#1091=VERTEX_POINT('',#1357);
#1092=LINE('',#1358,#1359);
#1093=VERTEX_POINT('',#1360);
#1094=LINE('',#1361,#1362);
#1095=VERTEX_POINT('',#1363);
#1096=LINE('',#1364,#1365);
#1097=LINE('',#1366,#1367);
#1098=CIRCLE('',#1368,0.0015);
#1099=CIRCLE('',#1369,0.0015);
#1100=CIRCLE('',#1370,0.0015);
#1101=CIRCLE('',#1371,0.0015);
#1102=CIRCLE('',#1372,0.0015);
#1103=CIRCLE('',#1373,0.00149999999999999);
#1104=CIRCLE('',#1374,0.00149999999999999);
#1105=VERTEX_POINT('',#1375);
#1106=LINE('',#1376,#1377);
#1107=VERTEX_POINT('',#1378);
#1108=LINE('',#1379,#1380);
#1109=VERTEX_POINT('',#1381);
#1110=LINE('',#1382,#1383);
#1111=VERTEX_POINT('',#1384);
#1112=LINE('',#1385,#1386);
#1113=VERTEX_POINT('',#1387);
#1114=LINE('',#1388,#1389);
#1115=VERTEX_POINT('',#1390);
#1116=LINE('',#1391,#1392);
#1117=LINE('',#1393,#1394);
#1118=CIRCLE('',#1395,0.00300000000000001);
#1119=CIRCLE('',#1396,0.0015);
#1120=CIRCLE('',#1397,0.0015);
#1121=CIRCLE('',#1398,0.0015);
#1122=CIRCLE('',#1399,0.003);
#1123=VERTEX_POINT('',#1400);
#1124=VERTEX_POINT('',#1401);
#1125=LINE('',#1402,#1403);
#1126=VERTEX_POINT('',#1404);
#1127=LINE('',#1405,#1406);
#1128=VERTEX_POINT('',#1407);
#1129=LINE('',#1408,#1409);
#1130=VERTEX_POINT('',#1410);
#1131=LINE('',#1411,#1412);
#1132=VERTEX_POINT('',#1413);
#1133=LINE('',#1414,#1415);
#1134=LINE('',#1416,#1417);
#1135=CIRCLE('',#1418,0.0015);
#1136=CIRCLE('',#1419,0.0015);
#1137=VERTEX_POINT('',#1420);
#1138=CIRCLE('',#1421,0.0015);
#1139=CIRCLE('',#1422,0.0015);
#1140=VERTEX_POINT('',#1423);
#1141=VERTEX_POINT('',#1424);
#1142=LINE('',#1425,#1426);
#1143=VERTEX_POINT('',#1427);
#1144=LINE('',#1428,#1429);
#1145=VERTEX_POINT('',#1430);
#1146=LINE('',#1431,#1432);
#1147=VERTEX_POINT('',#1433);
#1148=LINE('',#1434,#1435);
#1149=VERTEX_POINT('',#1436);
#1150=LINE('',#1437,#1438);
#1151=LINE('',#1439,#1440);
#1152=VERTEX_POINT('',#1441);
#1153=VERTEX_POINT('',#1442);
#1154=LINE('',#1443,#1444);
#1155=VERTEX_POINT('',#1445);
#1156=LINE('',#1446,#1447);
#1157=VERTEX_POINT('',#1448);
#1158=LINE('',#1449,#1450);
#1159=VERTEX_POINT('',#1451);
#1160=LINE('',#1452,#1453);
#1161=VERTEX_POINT('',#1454);
#1162=LINE('',#1455,#1456);
#1163=LINE('',#1457,#1458);
#1164=VERTEX_POINT('',#1459);
#1165=LINE('',#1460,#1461);
#1166=VERTEX_POINT('',#1462);
#1167=LINE('',#1463,#1464);
#1168=VERTEX_POINT('',#1465);
#1169=LINE('',#1466,#1467);
#1170=VERTEX_POINT('',#1468);
#1171=LINE('',#1469,#1470);
#1172=VERTEX_POINT('',#1471);
#1173=LINE('',#1472,#1473);
#1174=VERTEX_POINT('',#1474);
#1175=LINE('',#1475,#1476);
#1176=LINE('',#1477,#1478);
#1177=LINE('',#1479,#1480);
#1178=LINE('',#1481,#1482);
#1179=CIRCLE('',#1483,0.00300000000000001);
#1180=CIRCLE('',#1484,0.00300000000000001);
#1181=VERTEX_POINT('',#1485);
#1182=VERTEX_POINT('',#1486);
#1183=LINE('',#1487,#1488);
#1184=VERTEX_POINT('',#1489);
#1185=LINE('',#1490,#1491);
#1186=VERTEX_POINT('',#1492);
#1187=LINE('',#1493,#1494);
#1188=VERTEX_POINT('',#1495);
#1189=LINE('',#1496,#1497);
#1190=VERTEX_POINT('',#1498);
#1191=LINE('',#1499,#1500);
#1192=LINE('',#1501,#1502);
#1193=LINE('',#1503,#1504);
#1194=LINE('',#1505,#1506);
#1195=LINE('',#1507,#1508);
#1196=LINE('',#1509,#1510);
#1197=LINE('',#1511,#1512);
#1198=LINE('',#1513,#1514);
#1199=VERTEX_POINT('',#1515);
#1200=LINE('',#1516,#1517);
#1201=VERTEX_POINT('',#1518);
#1202=LINE('',#1519,#1520);
#1203=LINE('',#1521,#1522);
#1204=VERTEX_POINT('',#1523);
#1205=LINE('',#1524,#1525);
#1206=LINE('',#1526,#1527);
#1207=VERTEX_POINT('',#1528);
#1208=LINE('',#1529,#1530);
#1209=LINE('',#1531,#1532);
#1210=VERTEX_POINT('',#1533);
#1211=LINE('',#1534,#1535);
#1212=LINE('',#1536,#1537);
#1213=VERTEX_POINT('',#1538);
#1214=LINE('',#1539,#1540);
#1215=LINE('',#1541,#1542);
#1216=LINE('',#1543,#1544);
#1217=VERTEX_POINT('',#1545);
#1218=VERTEX_POINT('',#1546);
#1219=LINE('',#1547,#1548);
#1220=LINE('',#1549,#1550);
#1221=LINE('',#1551,#1552);
#1222=VERTEX_POINT('',#1553);
#1223=LINE('',#1554,#1555);
#1224=LINE('',#1556,#1557);
#1225=VERTEX_POINT('',#1558);
#1226=LINE('',#1559,#1560);
#1227=LINE('',#1561,#1562);
#1228=VERTEX_POINT('',#1563);
#1229=LINE('',#1564,#1565);
#1230=LINE('',#1566,#1567);
#1231=VERTEX_POINT('',#1568);
#1232=LINE('',#1569,#1570);
#1233=LINE('',#1571,#1572);
#1234=LINE('',#1573,#1574);
#1235=CIRCLE('',#1575,0.00300000000000001);
#1236=CIRCLE('',#1576,0.003);
#1237=LINE('',#1577,#1578);
#1238=LINE('',#1579,#1580);
#1239=LINE('',#1581,#1582);
#1240=LINE('',#1583,#1584);
#1241=CIRCLE('',#1585,0.0015);
#1242=CARTESIAN_POINT('',(-0.0763851670197462,0.00190065824746754,0.195987462445372));
#1243=CARTESIAN_POINT('',(-0.0763852086850335,0.00190065824746754,0.175987462445416));
#1244=CARTESIAN_POINT('',(-0.0763852086850335,0.00190065824746754,0.175987462445416));
#1245=VECTOR('',#1586,1.0);
#1246=CARTESIAN_POINT('',(-0.0793851670197397,0.00190065824746754,0.195987468695165));
#1247=AXIS2_PLACEMENT_3D('',#1587,#1588,#1589);
#1248=CARTESIAN_POINT('',(-0.079385208685027,0.00190065824746754,0.175987468695209));
#1249=CARTESIAN_POINT('',(-0.079385208685027,0.00190065824746754,0.175987468695209));
#1250=VECTOR('',#1590,1.0);
#1251=AXIS2_PLACEMENT_3D('',#1591,#1592,#1593);
#1252=CARTESIAN_POINT('',(0.0318790712016164,-0.00720165560838951,0.0579019559593697));
#1253=CARTESIAN_POINT('',(0.0318790712016165,0.0107983443916105,0.0579019559593697));
#1254=CARTESIAN_POINT('',(0.0318790712016165,0.0107983443916105,0.0579019559593697));
#1255=VECTOR('',#1594,1.0);
#1256=CARTESIAN_POINT('',(0.0288790712016229,-0.0072016556083895,0.0579019622085598));
#1257=AXIS2_PLACEMENT_3D('',#1595,#1596,#1597);
#1258=CARTESIAN_POINT('',(0.028879071201623,0.0107983443916106,0.0579019622085598));
#1259=CARTESIAN_POINT('',(0.028879071201623,0.0107983443916106,0.0579019622085598));
#1260=VECTOR('',#1598,1.0);
#1261=AXIS2_PLACEMENT_3D('',#1599,#1600,#1601);
#1262=CARTESIAN_POINT('',(0.0476454512100328,-0.00720165560838957,-0.0460078330084843));
#1263=CARTESIAN_POINT('',(0.0476454512100329,0.0107983443916105,-0.0460078330084843));
#1264=CARTESIAN_POINT('',(0.0476454512100329,0.0107983443916105,-0.0460078330084843));
#1265=VECTOR('',#1602,1.0);
#1266=CARTESIAN_POINT('',(0.0446454512100393,-0.00720165560838956,-0.0460078267592942));
#1267=AXIS2_PLACEMENT_3D('',#1603,#1604,#1605);
#1268=CARTESIAN_POINT('',(0.0446454512100394,0.0107983443916105,-0.0460078267592942));
#1269=CARTESIAN_POINT('',(0.0446454512100394,0.0107983443916105,-0.0460078267592942));
#1270=VECTOR('',#1606,1.0);
#1271=AXIS2_PLACEMENT_3D('',#1607,#1608,#1609);
#1272=CARTESIAN_POINT('',(-0.0514762882468408,-0.00720165560838927,-0.00987215163818553));
#1273=CARTESIAN_POINT('',(-0.0514762882468407,0.0107983443916108,-0.00987215163818553));
#1274=CARTESIAN_POINT('',(-0.0514762882468407,0.0107983443916108,-0.00987215163818553));
#1275=VECTOR('',#1610,1.0);
#1276=CARTESIAN_POINT('',(-0.0544762882468343,-0.00720165560838926,-0.00987214538899543));
#1277=AXIS2_PLACEMENT_3D('',#1611,#1612,#1613);
#1278=CARTESIAN_POINT('',(-0.0544762882468342,0.0107983443916108,-0.00987214538899544));
#1279=CARTESIAN_POINT('',(-0.0544762882468342,0.0107983443916108,-0.00987214538899544));
#1280=VECTOR('',#1614,1.0);
#1281=AXIS2_PLACEMENT_3D('',#1615,#1616,#1617);
#1282=CARTESIAN_POINT('',(-0.0994580104316292,0.0107983443916109,-0.100007526551232));
#1283=CARTESIAN_POINT('',(-0.0994580104316292,-0.000201540287863565,-0.100007526551232));
#1284=CARTESIAN_POINT('',(-0.0994580104316292,0.00529840205187367,-0.100007526551232));
#1285=VECTOR('',#1618,1.0);
#1286=CARTESIAN_POINT('',(-0.0934580104316422,0.0107983443916109,-0.100007539049612));
#1287=AXIS2_PLACEMENT_3D('',#1619,#1620,#1621);
#1288=CARTESIAN_POINT('',(-0.0934580104316422,-0.000201540287863583,-0.100007539049612));
#1289=CARTESIAN_POINT('',(-0.0934580104316422,0.00529840205187365,-0.100007539049612));
#1290=VECTOR('',#1622,1.0);
#1291=AXIS2_PLACEMENT_3D('',#1623,#1624,#1625);
#1292=CARTESIAN_POINT('',(0.116545338711117,-0.000201745060158684,-0.100007976547871));
#1293=CARTESIAN_POINT('',(0.116545338711117,0.0107983443916103,-0.100007976547871));
#1294=CARTESIAN_POINT('',(0.116545338711117,0.0107982549398414,-0.100007976547871));
#1295=VECTOR('',#1626,1.0);
#1296=CARTESIAN_POINT('',(0.11054533871113,-0.000201745060158666,-0.100007964049491));
#1297=AXIS2_PLACEMENT_3D('',#1627,#1628,#1629);
#1298=CARTESIAN_POINT('',(0.11054533871113,0.0107983443916103,-0.100007964049491));
#1299=CARTESIAN_POINT('',(0.11054533871113,0.0107982549398414,-0.100007964049491));
#1300=VECTOR('',#1630,1.0);
#1301=AXIS2_PLACEMENT_3D('',#1631,#1632,#1633);
#1302=CARTESIAN_POINT('',(0.00554441193303225,0.00879834439161062,0.169987291763741));
#1303=CARTESIAN_POINT('',(0.00554441193303222,-0.000202428746454617,0.169987291763741));
#1304=CARTESIAN_POINT('',(0.00554441193303223,0.004297957822578,0.169987291763741));
#1305=VECTOR('',#1634,1.0);
#1306=CARTESIAN_POINT('',(0.0115444119330193,0.00879834439161061,0.16998727926536));
#1307=AXIS2_PLACEMENT_3D('',#1635,#1636,#1637);
#1308=CARTESIAN_POINT('',(0.0115444119330192,-0.000202428746454636,0.16998727926536));
#1309=CARTESIAN_POINT('',(0.0115444119330192,0.00429795782257799,0.16998727926536));
#1310=VECTOR('',#1638,1.0);
#1311=CARTESIAN_POINT('',(0.0115262782300413,-0.000202428746454635,0.170316638496506));
#1312=AXIS2_PLACEMENT_3D('',#1639,#1640,#1641);
#1313=AXIS2_PLACEMENT_3D('',#1642,#1643,#1644);
#1314=CARTESIAN_POINT('',(0.0955791333907155,0.0107983443916104,0.0381118394564163));
#1315=CARTESIAN_POINT('',(0.0955791333907154,-0.00720165560838969,0.0381118394564163));
#1316=CARTESIAN_POINT('',(0.0955791333907155,0.0107983443916104,0.0381118394564163));
#1317=VECTOR('',#1645,1.0);
#1318=CARTESIAN_POINT('',(0.0925791333907155,0.0107983443916104,0.0381118394564163));
#1319=AXIS2_PLACEMENT_3D('',#1646,#1647,#1648);
#1320=CARTESIAN_POINT('',(0.0925791333907154,-0.00720165560838968,0.0381118394564163));
#1321=CARTESIAN_POINT('',(0.0925791333907155,0.0107983443916104,0.0381118394564163));
#1322=VECTOR('',#1649,1.0);
#1323=AXIS2_PLACEMENT_3D('',#1650,#1651,#1652);
#1324=CARTESIAN_POINT('',(0.0565736732859081,0.00189878602625226,0.195987185456958));
#1325=CARTESIAN_POINT('',(0.0565736316206209,0.00189878602625226,0.175987185457002));
#1326=CARTESIAN_POINT('',(0.0565736316206209,0.00189878602625226,0.175987185457002));
#1327=VECTOR('',#1653,1.0);
#1328=CARTESIAN_POINT('',(0.0535736732859146,0.00189878602625226,0.195987191706751));
#1329=AXIS2_PLACEMENT_3D('',#1654,#1655,#1656);
#1330=CARTESIAN_POINT('',(0.0535736316206274,0.00189878602625226,0.175987191706795));
#1331=CARTESIAN_POINT('',(0.0535736316206274,0.00189878602625226,0.175987191706795));
#1332=VECTOR('',#1657,1.0);
#1333=AXIS2_PLACEMENT_3D('',#1658,#1659,#1660);
#1334=CARTESIAN_POINT('',(0.0965736732857389,0.00189878602625273,0.195987102126384));
#1335=CARTESIAN_POINT('',(0.0965736316204516,0.00189878602625273,0.175987102126427));
#1336=CARTESIAN_POINT('',(0.0965736316204516,0.00189878602625273,0.175987102126427));
#1337=VECTOR('',#1661,1.0);
#1338=CARTESIAN_POINT('',(0.0935736732857454,0.00189878602625273,0.195987108376177));
#1339=AXIS2_PLACEMENT_3D('',#1662,#1663,#1664);
#1340=CARTESIAN_POINT('',(0.0935736316204582,0.00189878602625273,0.17598710837622));
#1341=CARTESIAN_POINT('',(0.0935736316204582,0.00189878602625273,0.17598710837622));
#1342=VECTOR('',#1665,1.0);
#1343=AXIS2_PLACEMENT_3D('',#1666,#1667,#1668);
#1344=CARTESIAN_POINT('',(-0.0363851670199292,0.00190065824746711,0.195987379114798));
#1345=CARTESIAN_POINT('',(-0.0363852086852165,0.00190065824746711,0.175987379114841));
#1346=CARTESIAN_POINT('',(-0.0363852086852165,0.00190065824746711,0.175987379114841));
#1347=VECTOR('',#1669,1.0);
#1348=CARTESIAN_POINT('',(-0.0393851670199227,0.00190065824746711,0.195987385364591));
#1349=AXIS2_PLACEMENT_3D('',#1670,#1671,#1672);
#1350=CARTESIAN_POINT('',(-0.03938520868521,0.00190065824746711,0.175987385364634));
#1351=CARTESIAN_POINT('',(-0.03938520868521,0.00190065824746711,0.175987385364634));
#1352=VECTOR('',#1673,1.0);
#1353=AXIS2_PLACEMENT_3D('',#1674,#1675,#1676);
#1354=AXIS2_PLACEMENT_3D('',#1677,#1678,#1679);
#1355=AXIS2_PLACEMENT_3D('',#1680,#1681,#1682);
#1356=CARTESIAN_POINT('',(0.133546140669013,0.0107983443916103,0.19598702510296));
#1357=CARTESIAN_POINT('',(0.133546140669013,-0.00720165560838977,0.19598702510296));
#1358=CARTESIAN_POINT('',(0.133546140669013,0.0443174987308237,0.19598702510296));
#1359=VECTOR('',#1683,1.0);
#1360=CARTESIAN_POINT('',(-0.116457208472611,0.010798344391611,0.195987545926028));
#1361=CARTESIAN_POINT('',(0.0123453033834335,0.0107983443916106,0.195987277596345));
#1362=VECTOR('',#1684,1.0);
#1363=CARTESIAN_POINT('',(-0.116457208472611,-0.00720165560838903,0.195987545926028));
#1364=CARTESIAN_POINT('',(-0.116457208472611,0.0443174987308244,0.195987545926028));
#1365=VECTOR('',#1685,1.0);
#1366=CARTESIAN_POINT('',(0.0123453033834334,-0.00720165560838941,0.195987277596345));
#1367=VECTOR('',#1686,1.0);
#1368=AXIS2_PLACEMENT_3D('',#1687,#1688,#1689);
#1369=AXIS2_PLACEMENT_3D('',#1690,#1691,#1692);
#1370=AXIS2_PLACEMENT_3D('',#1693,#1694,#1695);
#1371=AXIS2_PLACEMENT_3D('',#1696,#1697,#1698);
#1372=AXIS2_PLACEMENT_3D('',#1699,#1700,#1701);
#1373=AXIS2_PLACEMENT_3D('',#1702,#1703,#1704);
#1374=AXIS2_PLACEMENT_3D('',#1705,#1706,#1707);
#1375=CARTESIAN_POINT('',(0.143546119835744,0.0107983443916102,0.185987004270941));
#1376=CARTESIAN_POINT('',(0.0957445541903446,0.0107983443916104,0.233788769083352));
#1377=VECTOR('',#1708,1.0);
#1378=CARTESIAN_POINT('',(0.143545482367237,0.0107983443916102,-0.120008009382838));
#1379=CARTESIAN_POINT('',(0.143545646540662,0.0107983443916102,-0.0412021564196919));
#1380=VECTOR('',#1709,1.0);
#1381=CARTESIAN_POINT('',(0.133545461534615,0.0107983443916102,-0.130007988550173));
#1382=CARTESIAN_POINT('',(0.195345171636576,0.0107983443916101,-0.0682085359379434));
#1383=VECTOR('',#1710,1.0);
#1384=CARTESIAN_POINT('',(-0.116457887607009,0.010798344391611,-0.130007467727105));
#1385=CARTESIAN_POINT('',(0.0182204789505605,0.0107983443916106,-0.130007748297747));
#1386=VECTOR('',#1711,1.0);
#1387=CARTESIAN_POINT('',(-0.126457866774344,0.010798344391611,-0.120007446894483));
#1388=CARTESIAN_POINT('',(-0.178257340219238,0.0107983443916112,-0.0682077576251446));
#1389=VECTOR('',#1712,1.0);
#1390=CARTESIAN_POINT('',(-0.126457229305836,0.010798344391611,0.18598756675809));
#1391=CARTESIAN_POINT('',(-0.126457133048635,0.010798344391611,0.232192553104752));
#1392=VECTOR('',#1713,1.0);
#1393=CARTESIAN_POINT('',(-0.0786554644928222,0.0107983443916109,0.233789132404093));
#1394=VECTOR('',#1714,1.0);
#1395=AXIS2_PLACEMENT_3D('',#1715,#1716,#1717);
#1396=AXIS2_PLACEMENT_3D('',#1718,#1719,#1720);
#1397=AXIS2_PLACEMENT_3D('',#1721,#1722,#1723);
#1398=AXIS2_PLACEMENT_3D('',#1724,#1725,#1726);
#1399=AXIS2_PLACEMENT_3D('',#1727,#1728,#1729);
#1400=CARTESIAN_POINT('',(0.00479164872451965,-0.00720165560838941,0.176487293332562));
#1401=CARTESIAN_POINT('',(0.0122972022239685,-0.00720165560838943,0.17648727769651));
#1402=CARTESIAN_POINT('',(0.00854442547409323,-0.00720165560838942,0.176487285514536));
#1403=VECTOR('',#1730,1.0);
#1404=CARTESIAN_POINT('',(0.0160499654324745,-0.00720165560838944,0.169987269878498));
#1405=CARTESIAN_POINT('',(0.000705857819790237,-0.0072016556083894,0.196564171724264));
#1406=VECTOR('',#1731,1.0);
#1407=CARTESIAN_POINT('',(0.0122971751415318,-0.00720165560838943,0.163487277696539));
#1408=CARTESIAN_POINT('',(0.0276413934874326,-0.00720165560838947,0.190064115610277));
#1409=VECTOR('',#1732,1.0);
#1410=CARTESIAN_POINT('',(0.0047916216420829,-0.00720165560838941,0.163487293332591));
#1411=CARTESIAN_POINT('',(0.0085443983916565,-0.00720165560838942,0.163487285514565));
#1412=VECTOR('',#1733,1.0);
#1413=CARTESIAN_POINT('',(0.00103885843357685,-0.0072016556083894,0.169987301150603));
#1414=CARTESIAN_POINT('',(-0.0105524859706014,-0.00720165560838936,0.190064195178356));
#1415=VECTOR('',#1734,1.0);
#1416=CARTESIAN_POINT('',(0.0163830767794776,-0.00720165560838944,0.196564139064341));
#1417=VECTOR('',#1735,1.0);
#1418=AXIS2_PLACEMENT_3D('',#1736,#1737,#1738);
#1419=AXIS2_PLACEMENT_3D('',#1739,#1740,#1741);
#1420=CARTESIAN_POINT('',(-0.0529762913714326,-0.00720165560838926,-0.0113721485135872));
#1421=AXIS2_PLACEMENT_3D('',#1742,#1743,#1744);
#1422=AXIS2_PLACEMENT_3D('',#1745,#1746,#1747);
#1423=CARTESIAN_POINT('',(-0.0889524569321869,-0.00720165560838913,-0.100007548436474));
#1424=CARTESIAN_POINT('',(-0.0927052472231297,-0.00720165560838912,-0.106507540618434));
#1425=CARTESIAN_POINT('',(-0.00577989785608308,-0.00720165560838938,0.044050856599648));
#1426=VECTOR('',#1748,1.0);
#1427=CARTESIAN_POINT('',(-0.100210800722579,-0.0072016556083891,-0.106507524982382));
#1428=CARTESIAN_POINT('',(-0.0489570940259211,-0.00720165560838925,-0.10650763175928));
#1429=VECTOR('',#1749,1.0);
#1430=CARTESIAN_POINT('',(-0.103963563931085,-0.00720165560838909,-0.10000751716437));
#1431=CARTESIAN_POINT('',(-0.160885152529723,-0.00720165560838891,-0.00141595933141405));
#1432=VECTOR('',#1750,1.0);
#1433=CARTESIAN_POINT('',(-0.100210773640142,-0.0072016556083891,-0.0935075249824102));
#1434=CARTESIAN_POINT('',(-0.017038214564038,-0.00720165560838934,0.0505508800537122));
#1435=VECTOR('',#1751,1.0);
#1436=CARTESIAN_POINT('',(-0.0927052201406929,-0.00720165560838912,-0.0935075406184624));
#1437=CARTESIAN_POINT('',(-0.0489570669434844,-0.00720165560838925,-0.0935076317593086));
#1438=VECTOR('',#1752,1.0);
#1439=CARTESIAN_POINT('',(-0.149626808739332,-0.00720165560838895,0.00508401721449361));
#1440=VECTOR('',#1753,1.0);
#1441=CARTESIAN_POINT('',(0.121050892210572,-0.00720165560838976,-0.100007985934733));
#1442=CARTESIAN_POINT('',(0.117298129002066,-0.00720165560838975,-0.0935079781167209));
#1443=CARTESIAN_POINT('',(0.0341262164792376,-0.0072016556083895,0.050550693214319));
#1444=VECTOR('',#1754,1.0);
#1445=CARTESIAN_POINT('',(0.117298101919629,-0.00720165560838975,-0.106507978116693));
#1446=CARTESIAN_POINT('',(0.177972937925176,-0.00720165560838993,-0.00141658501924766));
#1447=VECTOR('',#1755,1.0);
#1448=CARTESIAN_POINT('',(0.109792548420181,-0.00720165560838972,-0.106507962480641));
#1449=CARTESIAN_POINT('',(0.0610445805451856,-0.00720165560838958,-0.106507860925736));
#1450=VECTOR('',#1756,1.0);
#1451=CARTESIAN_POINT('',(0.106039785211675,-0.00720165560838971,-0.100007954662629));
#1452=CARTESIAN_POINT('',(0.0228678726888462,-0.00720165560838946,0.0440507166684115));
#1453=VECTOR('',#1757,1.0);
#1454=CARTESIAN_POINT('',(0.109792575502617,-0.00720165560838972,-0.0935079624806688));
#1455=CARTESIAN_POINT('',(0.166714621217221,-0.00720165560838989,0.00508343843481645));
#1456=VECTOR('',#1758,1.0);
#1457=CARTESIAN_POINT('',(0.0610446076276223,-0.00720165560838958,-0.0935078609257644));
#1458=VECTOR('',#1759,1.0);
#1459=CARTESIAN_POINT('',(0.143546119835744,-0.00720165560838979,0.185987004270941));
#1460=CARTESIAN_POINT('',(0.0957445541903446,-0.00720165560838968,0.233788769083352));
#1461=VECTOR('',#1760,1.0);
#1462=CARTESIAN_POINT('',(-0.126457229305836,-0.00720165560838898,0.18598756675809));
#1463=CARTESIAN_POINT('',(-0.0786554644928222,-0.00720165560838917,0.233789132404093));
#1464=VECTOR('',#1761,1.0);
#1465=CARTESIAN_POINT('',(-0.126457866774344,-0.00720165560838899,-0.120007446894483));
#1466=CARTESIAN_POINT('',(-0.126457133048635,-0.00720165560838898,0.232192553104752));
#1467=VECTOR('',#1762,1.0);
#1468=CARTESIAN_POINT('',(-0.116457887607009,-0.00720165560838905,-0.130007467727105));
#1469=CARTESIAN_POINT('',(-0.178257340219238,-0.00720165560838886,-0.0682077576251446));
#1470=VECTOR('',#1763,1.0);
#1471=CARTESIAN_POINT('',(0.133545461534615,-0.00720165560838979,-0.130007988550173));
#1472=CARTESIAN_POINT('',(0.0182204789505605,-0.00720165560838945,-0.130007748297747));
#1473=VECTOR('',#1764,1.0);
#1474=CARTESIAN_POINT('',(0.143545482367237,-0.00720165560838979,-0.120008009382838));
#1475=CARTESIAN_POINT('',(0.195345171636576,-0.00720165560838998,-0.0682085359379434));
#1476=VECTOR('',#1765,1.0);
#1477=CARTESIAN_POINT('',(0.143546216092946,-0.00720165560838979,0.232191990616397));
#1478=VECTOR('',#1766,1.0);
#1479=CARTESIAN_POINT('',(0.143546119835745,0.0443174987308236,0.185987004270941));
#1480=VECTOR('',#1767,1.0);
#1481=CARTESIAN_POINT('',(-0.126457229305836,0.0443174987308244,0.18598756675809));
#1482=VECTOR('',#1768,1.0);
#1483=AXIS2_PLACEMENT_3D('',#1769,#1770,#1771);
#1484=AXIS2_PLACEMENT_3D('',#1772,#1773,#1774);
#1485=CARTESIAN_POINT('',(0.0160499654324746,-0.000202428746454641,0.169987269878498));
#1486=CARTESIAN_POINT('',(0.0122972022239684,-0.000202428746454629,0.17648727769651));
#1487=CARTESIAN_POINT('',(-0.0742897614854501,-0.000202428746454351,0.326461019651093));
#1488=VECTOR('',#1775,1.0);
#1489=CARTESIAN_POINT('',(0.00479164872451967,-0.000202428746454607,0.176487293332563));
#1490=CARTESIAN_POINT('',(-0.0489563191512075,-0.000202428746454429,0.176487405303789));
#1491=VECTOR('',#1776,1.0);
#1492=CARTESIAN_POINT('',(0.00103885843357687,-0.000202428746454596,0.169987301150603));
#1493=CARTESIAN_POINT('',(0.06262876124983,-0.000202428746454761,0.276663628831235));
#1494=VECTOR('',#1777,1.0);
#1495=CARTESIAN_POINT('',(0.00479162164208291,-0.000202428746454608,0.163487293332591));
#1496=CARTESIAN_POINT('',(-0.0855481052758416,-0.000202428746454318,0.319961043105186));
#1497=VECTOR('',#1778,1.0);
#1498=CARTESIAN_POINT('',(0.0122971751415318,-0.00020242874645463,0.163487277696539));
#1499=CARTESIAN_POINT('',(-0.0489563462336442,-0.000202428746454429,0.163487405303817));
#1500=VECTOR('',#1779,1.0);
#1501=CARTESIAN_POINT('',(0.0738870779577849,-0.000202428746454795,0.270163605377171));
#1502=VECTOR('',#1780,1.0);
#1503=CARTESIAN_POINT('',(0.00103885843357687,-0.000202428746454596,0.169987301150603));
#1504=VECTOR('',#1781,1.0);
#1505=CARTESIAN_POINT('',(0.00479164872451967,-0.000202428746454607,0.176487293332563));
#1506=VECTOR('',#1782,1.0);
#1507=CARTESIAN_POINT('',(0.0122972022239684,-0.000202428746454629,0.17648727769651));
#1508=VECTOR('',#1783,1.0);
#1509=CARTESIAN_POINT('',(0.0160499654324746,-0.000202428746454641,0.169987269878498));
#1510=VECTOR('',#1784,1.0);
#1511=CARTESIAN_POINT('',(0.0122971751415318,-0.00020242874645463,0.163487277696539));
#1512=VECTOR('',#1785,1.0);
#1513=CARTESIAN_POINT('',(0.00479162164208291,-0.000202428746454608,0.163487293332591));
#1514=VECTOR('',#1786,1.0);
#1515=CARTESIAN_POINT('',(-0.0927052201406929,-0.000201540287863566,-0.0935075406184624));
#1516=CARTESIAN_POINT('',(-0.0927052201406929,-0.00720154028786357,-0.0935075406184624));
#1517=VECTOR('',#1787,1.0);
#1518=CARTESIAN_POINT('',(-0.0889524569321869,-0.000201540287863577,-0.100007548436474));
#1519=CARTESIAN_POINT('',(-0.150541868947671,-0.000201540287863374,0.00666895561259793));
#1520=VECTOR('',#1788,1.0);
#1521=CARTESIAN_POINT('',(-0.0889524569321869,-0.00720154028786358,-0.100007548436474));
#1522=VECTOR('',#1789,1.0);
#1523=CARTESIAN_POINT('',(-0.100210773640142,-0.000201540287863544,-0.0935075249824102));
#1524=CARTESIAN_POINT('',(-0.100210773640142,-0.00720154028786354,-0.0935075249824102));
#1525=VECTOR('',#1790,1.0);
#1526=CARTESIAN_POINT('',(-0.0389570669450352,-0.000201540287863709,-0.0935076525900747));
#1527=VECTOR('',#1791,1.0);
#1528=CARTESIAN_POINT('',(-0.103963563931085,-0.000201540287863533,-0.10000751716437));
#1529=CARTESIAN_POINT('',(-0.103963563931085,-0.00720154028786353,-0.10000751716437));
#1530=VECTOR('',#1792,1.0);
#1531=CARTESIAN_POINT('',(-0.0136231387318553,-0.000201540287863782,0.0564659364488326));
#1532=VECTOR('',#1793,1.0);
#1533=CARTESIAN_POINT('',(-0.100210800722579,-0.000201540287863544,-0.106507524982382));
#1534=CARTESIAN_POINT('',(-0.100210800722579,-0.00720154028786355,-0.106507524982382));
#1535=VECTOR('',#1794,1.0);
#1536=CARTESIAN_POINT('',(-0.161800212738062,-0.000201540287863341,0.000168979066690257));
#1537=VECTOR('',#1795,1.0);
#1538=CARTESIAN_POINT('',(-0.0927052472231297,-0.000201540287863567,-0.106507540618434));
#1539=CARTESIAN_POINT('',(-0.0927052472231297,-0.00720154028786357,-0.106507540618434));
#1540=VECTOR('',#1796,1.0);
#1541=CARTESIAN_POINT('',(-0.0389570940274719,-0.000201540287863709,-0.106507652590046));
#1542=VECTOR('',#1797,1.0);
#1543=CARTESIAN_POINT('',(-0.0023648220239004,-0.000201540287863816,0.0499659129947685));
#1544=VECTOR('',#1798,1.0);
#1545=CARTESIAN_POINT('',(0.117298129002066,-0.000201745060158667,-0.0935079781167209));
#1546=CARTESIAN_POINT('',(0.109792575502617,-0.000201745060158644,-0.0935079624806687));
#1547=CARTESIAN_POINT('',(0.0560446076268902,-0.000201745060158466,-0.0935078505094426));
#1548=VECTOR('',#1799,1.0);
#1549=CARTESIAN_POINT('',(0.117298129002066,-0.00720174506015867,-0.0935079781167209));
#1550=VECTOR('',#1800,1.0);
#1551=CARTESIAN_POINT('',(0.109792575502617,-0.00720174506015865,-0.0935079624806688));
#1552=VECTOR('',#1801,1.0);
#1553=CARTESIAN_POINT('',(0.106039785211675,-0.000201745060158634,-0.100007954662629));
#1554=CARTESIAN_POINT('',(0.167629688027928,-0.000201745060158799,0.00666837301800377));
#1555=VECTOR('',#1802,1.0);
#1556=CARTESIAN_POINT('',(0.106039785211675,-0.00720174506015863,-0.100007954662629));
#1557=VECTOR('',#1803,1.0);
#1558=CARTESIAN_POINT('',(0.109792548420181,-0.000201745060158645,-0.106507962480641));
#1559=CARTESIAN_POINT('',(0.0194528215022562,-0.000201745060158355,0.0499657872919544));
#1560=VECTOR('',#1804,1.0);
#1561=CARTESIAN_POINT('',(0.109792548420181,-0.00720174506015865,-0.106507962480641));
#1562=VECTOR('',#1805,1.0);
#1563=CARTESIAN_POINT('',(0.117298101919629,-0.000201745060158667,-0.106507978116693));
#1564=CARTESIAN_POINT('',(0.0560445805444535,-0.000201745060158466,-0.106507850509414));
#1565=VECTOR('',#1806,1.0);
#1566=CARTESIAN_POINT('',(0.117298101919629,-0.00720174506015867,-0.106507978116693));
#1567=VECTOR('',#1807,1.0);
#1568=CARTESIAN_POINT('',(0.121050892210572,-0.000201745060158678,-0.100007985934733));
#1569=CARTESIAN_POINT('',(0.178888004735883,-0.000201745060158832,0.00016834956393964));
#1570=VECTOR('',#1808,1.0);
#1571=CARTESIAN_POINT('',(0.121050892210572,-0.00720174506015868,-0.100007985934733));
#1572=VECTOR('',#1809,1.0);
#1573=CARTESIAN_POINT('',(0.0307111652926476,-0.000201745060158389,0.0564657638378619));
#1574=VECTOR('',#1810,1.0);
#1575=AXIS2_PLACEMENT_3D('',#1811,#1812,#1813);
#1576=AXIS2_PLACEMENT_3D('',#1814,#1815,#1816);
#1577=CARTESIAN_POINT('',(0.143545482367237,0.0443175006709804,-0.120008009382838));
#1578=VECTOR('',#1817,1.0);
#1579=CARTESIAN_POINT('',(0.133545461534615,0.0443175006709804,-0.130007988550173));
#1580=VECTOR('',#1818,1.0);
#1581=CARTESIAN_POINT('',(-0.116457887607009,0.0443175006709812,-0.130007467727105));
#1582=VECTOR('',#1819,1.0);
#1583=CARTESIAN_POINT('',(-0.126457866774343,0.0443175006709812,-0.120007446894483));
#1584=VECTOR('',#1820,1.0);
#1585=AXIS2_PLACEMENT_3D('',#1821,#1822,#1823);
#1586=DIRECTION('',(-2.08326436296814E-06,-1.25769071989849E-17,-0.99999999999783));
#1587=CARTESIAN_POINT('',(-0.077885167019743,0.00190065824746754,0.195987465570269));
#1588=DIRECTION('',(2.08326436296814E-06,1.25769071989849E-17,0.99999999999783));
#1589=DIRECTION('',(0.99999999999783,0.0,-2.08326436296814E-06));
#1590=DIRECTION('',(2.08326436296814E-06,1.25769071989849E-17,0.99999999999783));
#1591=CARTESIAN_POINT('',(-0.0778852086850302,0.00190065824746754,0.175987465570312));
#1592=DIRECTION('',(2.08326436296814E-06,1.25769071989849E-17,0.99999999999783));
#1593=DIRECTION('',(0.99999999999783,0.0,-2.08326436296814E-06));
#1594=DIRECTION('',(3.02703994953349E-15,1.0,-1.09370879234311E-16));
#1595=CARTESIAN_POINT('',(0.0303790712016197,-0.0072016556083895,0.0579019590839648));
#1596=DIRECTION('',(-3.02704333766528E-15,-1.0,1.25827536953986E-17));
#1597=DIRECTION('',(-0.99999999999783,3.02704336386938E-15,2.0830633641117E-06));
#1598=DIRECTION('',(-3.02703994953349E-15,-1.0,1.09370879234311E-16));
#1599=CARTESIAN_POINT('',(0.0303790712016197,0.0107983443916105,0.0579019590839648));
#1600=DIRECTION('',(-3.02703994953349E-15,-1.0,1.09370879234311E-16));
#1601=DIRECTION('',(-0.99999999999783,3.02704017735339E-15,2.0830633641117E-06));
#1602=DIRECTION('',(3.02704164359938E-15,1.0,-1.09370667476075E-16));
#1603=CARTESIAN_POINT('',(0.0461454512100361,-0.00720165560838956,-0.0460078298838892));
#1604=DIRECTION('',(-3.02704333766528E-15,-1.0,1.25827536953986E-17));
#1605=DIRECTION('',(-0.99999999999783,3.02704336386938E-15,2.0830633641117E-06));
#1606=DIRECTION('',(-3.02704164359938E-15,-1.0,1.09370667476075E-16));
#1607=CARTESIAN_POINT('',(0.0461454512100361,0.0107983443916105,-0.0460078298838892));
#1608=DIRECTION('',(-3.02704164359938E-15,-1.0,1.09370667476075E-16));
#1609=DIRECTION('',(-0.99999999999783,3.02704187141885E-15,2.0830633641117E-06));
#1610=DIRECTION('',(3.02703994953349E-15,1.0,-1.09370667476075E-16));
#1611=CARTESIAN_POINT('',(-0.0529762882468375,-0.00720165560838926,-0.00987214851359048));
#1612=DIRECTION('',(-3.02704333766528E-15,-1.0,1.25827536953986E-17));
#1613=DIRECTION('',(-0.99999999999783,3.02704336386938E-15,2.0830633641117E-06));
#1614=DIRECTION('',(-3.02703994953349E-15,-1.0,1.09370667476075E-16));
#1615=CARTESIAN_POINT('',(-0.0529762882468374,0.0107983443916108,-0.00987214851359048));
#1616=DIRECTION('',(-3.02703994953349E-15,-1.0,1.09370667476075E-16));
#1617=DIRECTION('',(-0.99999999999783,3.02704017735295E-15,2.0830633641117E-06));
#1618=DIRECTION('',(-3.02703994953349E-15,-1.0,1.09370879234311E-16));
#1619=CARTESIAN_POINT('',(-0.0964580104316357,0.0107983443916109,-0.100007532800422));
#1620=DIRECTION('',(3.02704164359938E-15,1.0,-1.25827536953986E-17));
#1621=DIRECTION('',(-0.99999999999783,3.02704166980349E-15,2.0830633641117E-06));
#1622=DIRECTION('',(3.02703994953349E-15,1.0,-1.09370879234311E-16));
#1623=CARTESIAN_POINT('',(-0.0964580104316357,-0.000201540287863574,-0.100007532800422));
#1624=DIRECTION('',(3.02704333766528E-15,1.0,-1.25827536953986E-17));
#1625=DIRECTION('',(-0.99999999999783,3.02704336386938E-15,2.0830633641117E-06));
#1626=DIRECTION('',(3.02703825546759E-15,1.0,-1.09370879234311E-16));
#1627=CARTESIAN_POINT('',(0.113545338711123,-0.000201745060158675,-0.100007970298681));
#1628=DIRECTION('',(3.02704333766528E-15,1.0,-1.25827536953986E-17));
#1629=DIRECTION('',(-0.99999999999783,3.02704336386938E-15,2.0830633641117E-06));
#1630=DIRECTION('',(-3.02703825546759E-15,-1.0,1.09370879234311E-16));
#1631=CARTESIAN_POINT('',(0.113545338711123,0.0107983443916103,-0.100007970298681));
#1632=DIRECTION('',(3.02704164359938E-15,1.0,-1.25827536953986E-17));
#1633=DIRECTION('',(-0.99999999999783,3.02704166980349E-15,2.0830633641117E-06));
#1634=DIRECTION('',(-3.02704333766528E-15,-1.0,1.25827536953986E-17));
#1635=CARTESIAN_POINT('',(0.00854441193302575,0.00879834439161062,0.169987285514551));
#1636=DIRECTION('',(3.02704164359938E-15,1.0,-1.25827536953986E-17));
#1637=DIRECTION('',(-0.99999999999783,3.02704166980349E-15,2.0830633641117E-06));
#1638=DIRECTION('',(3.02704333766528E-15,1.0,-1.25827536953986E-17));
#1639=CARTESIAN_POINT('',(0.00854441193302572,-0.000202428746454626,0.169987285514551));
#1640=DIRECTION('',(3.02704333766528E-15,1.0,-1.25827536953986E-17));
#1641=DIRECTION('',(-0.99999999999783,3.02704336386938E-15,2.0830633641117E-06));
#1642=CARTESIAN_POINT('',(0.00854441193302572,-0.000202428746454626,0.169987285514551));
#1643=DIRECTION('',(3.02704333766528E-15,1.0,-1.25827536953986E-17));
#1644=DIRECTION('',(-0.99999999999783,3.02704336386938E-15,2.0830633641117E-06));
#1645=DIRECTION('',(-3.02704164359938E-15,-1.0,1.25827536953986E-17));
#1646=CARTESIAN_POINT('',(0.0940791333907155,0.0107983443916104,0.0381118394564163));
#1647=DIRECTION('',(3.02704164359938E-15,1.0,-1.25827536953986E-17));
#1648=DIRECTION('',(-1.0,3.02704164359938E-15,0.0));
#1649=DIRECTION('',(3.02704164359938E-15,1.0,-1.25827536953986E-17));
#1650=CARTESIAN_POINT('',(0.0940791333907154,-0.00720165560838968,0.0381118394564163));
#1651=DIRECTION('',(-3.02704333766528E-15,-1.0,1.25827536953986E-17));
#1652=DIRECTION('',(-1.0,3.02704333766528E-15,-2.13160138987195E-38));
#1653=DIRECTION('',(-2.08326436296814E-06,-1.25769071989849E-17,-0.99999999999783));
#1654=CARTESIAN_POINT('',(0.0550736732859114,0.00189878602625226,0.195987188581855));
#1655=DIRECTION('',(2.08326436296814E-06,1.25769071989849E-17,0.99999999999783));
#1656=DIRECTION('',(0.99999999999783,3.46779126695965E-39,-2.08326436296814E-06));
#1657=DIRECTION('',(2.08326436296814E-06,1.25769071989849E-17,0.99999999999783));
#1658=CARTESIAN_POINT('',(0.0550736316206241,0.00189878602625226,0.175987188581898));
#1659=DIRECTION('',(2.08326436296814E-06,1.25769071989849E-17,0.99999999999783));
#1660=DIRECTION('',(0.99999999999783,3.46779126695965E-39,-2.08326436296814E-06));
#1661=DIRECTION('',(-2.08326436296814E-06,-1.25769071989849E-17,-0.99999999999783));
#1662=CARTESIAN_POINT('',(0.0950736732857422,0.00189878602625273,0.19598710525128));
#1663=DIRECTION('',(2.08326436296814E-06,1.25769071989849E-17,0.99999999999783));
#1664=DIRECTION('',(0.99999999999783,3.46779126695965E-39,-2.08326436296814E-06));
#1665=DIRECTION('',(2.08326436296814E-06,1.25769071989849E-17,0.99999999999783));
#1666=CARTESIAN_POINT('',(0.0950736316204549,0.00189878602625273,0.175987105251324));
#1667=DIRECTION('',(2.08326436296814E-06,1.25769071989849E-17,0.99999999999783));
#1668=DIRECTION('',(0.99999999999783,3.46779126695965E-39,-2.08326436296814E-06));
#1669=DIRECTION('',(-2.08326436296814E-06,-1.25769071989849E-17,-0.99999999999783));
#1670=CARTESIAN_POINT('',(-0.037885167019926,0.00190065824746711,0.195987382239694));
#1671=DIRECTION('',(2.08326436296814E-06,1.25769071989849E-17,0.99999999999783));
#1672=DIRECTION('',(0.99999999999783,3.46779126695965E-39,-2.08326436296814E-06));
#1673=DIRECTION('',(2.08326436296814E-06,1.25769071989849E-17,0.99999999999783));
#1674=CARTESIAN_POINT('',(-0.0378852086852133,0.00190065824746711,0.175987382239738));
#1675=DIRECTION('',(2.08326436296814E-06,1.25769071989849E-17,0.99999999999783));
#1676=DIRECTION('',(0.99999999999783,3.46779126695965E-39,-2.08326436296814E-06));
#1677=CARTESIAN_POINT('',(-0.037885167019926,0.00190065824746711,0.195987382239694));
#1678=DIRECTION('',(2.08326436296814E-06,1.25769071989849E-17,0.99999999999783));
#1679=DIRECTION('',(0.99999999999783,3.46779126695965E-39,-2.08326436296814E-06));
#1680=CARTESIAN_POINT('',(0.0950736732857422,0.00189878602625273,0.19598710525128));
#1681=DIRECTION('',(2.08326436296814E-06,1.25769071989849E-17,0.99999999999783));
#1682=DIRECTION('',(0.99999999999783,3.46779126695965E-39,-2.08326436296814E-06));
#1683=DIRECTION('',(-3.02704164359938E-15,-1.0,1.25831772021787E-17));
#1684=DIRECTION('',(0.99999999999783,-2.98618402696648E-15,-2.08326436296814E-06));
#1685=DIRECTION('',(3.02704164359938E-15,1.0,-1.25831772021787E-17));
#1686=DIRECTION('',(-0.99999999999783,2.98618572103237E-15,2.08326436296814E-06));
#1687=CARTESIAN_POINT('',(0.0550736732859114,0.00189878602625226,0.195987188581855));
#1688=DIRECTION('',(2.08326436296814E-06,1.25769071989849E-17,0.99999999999783));
#1689=DIRECTION('',(0.99999999999783,3.46779126695965E-39,-2.08326436296814E-06));
#1690=CARTESIAN_POINT('',(-0.077885167019743,0.00190065824746754,0.195987465570269));
#1691=DIRECTION('',(2.08326436296814E-06,1.25769071989849E-17,0.99999999999783));
#1692=DIRECTION('',(0.99999999999783,0.0,-2.08326436296814E-06));
#1693=CARTESIAN_POINT('',(-0.0378852086852133,0.00190065824746711,0.175987382239738));
#1694=DIRECTION('',(2.08326436296814E-06,1.25769071989849E-17,0.99999999999783));
#1695=DIRECTION('',(0.99999999999783,3.46779126695965E-39,-2.08326436296814E-06));
#1696=CARTESIAN_POINT('',(0.0950736316204549,0.00189878602625273,0.175987105251324));
#1697=DIRECTION('',(2.08326436296814E-06,1.25769071989849E-17,0.99999999999783));
#1698=DIRECTION('',(0.99999999999783,3.46779126695965E-39,-2.08326436296814E-06));
#1699=CARTESIAN_POINT('',(0.0550736316206241,0.00189878602625226,0.175987188581898));
#1700=DIRECTION('',(2.08326436296814E-06,1.25769071989849E-17,0.99999999999783));
#1701=DIRECTION('',(0.99999999999783,3.46779126695965E-39,-2.08326436296814E-06));
#1702=CARTESIAN_POINT('',(0.0940791333907154,-0.00720165560838968,0.0381118394564163));
#1703=DIRECTION('',(-3.02704333766528E-15,-1.0,1.25827536953986E-17));
#1704=DIRECTION('',(-1.0,3.02704333766528E-15,-2.13160138987195E-38));
#1705=CARTESIAN_POINT('',(0.0940791333907155,0.0107983443916104,0.0381118394564163));
#1706=DIRECTION('',(3.02704164359938E-15,1.0,-1.25827536953986E-17));
#1707=DIRECTION('',(-1.0,3.02704164359938E-15,0.0));
#1708=DIRECTION('',(-0.707105308094656,2.12044349585729E-15,0.70710825427537));
#1709=DIRECTION('',(-2.08326436293345E-06,-1.09364465760518E-16,-0.99999999999783));
#1710=DIRECTION('',(0.707108254275371,-2.10265790771789E-15,0.707105308094656));
#1711=DIRECTION('',(-0.99999999999783,2.98618233290058E-15,2.08326436296814E-06));
#1712=DIRECTION('',(0.707105308094655,-2.1204434958379E-15,-0.707108254275371));
#1713=DIRECTION('',(-2.08326436296814E-06,-1.25766954407481E-17,-0.99999999999783));
#1714=DIRECTION('',(-0.707108254275371,2.10265790770497E-15,-0.707105308094655));
#1715=CARTESIAN_POINT('',(0.113545338711123,0.0107983443916103,-0.100007970298681));
#1716=DIRECTION('',(3.02704164359938E-15,1.0,-1.25827536953986E-17));
#1717=DIRECTION('',(-0.99999999999783,3.02704166980349E-15,2.0830633641117E-06));
#1718=CARTESIAN_POINT('',(-0.0529762882468374,0.0107983443916108,-0.00987214851359048));
#1719=DIRECTION('',(-3.02703994953349E-15,-1.0,1.09370667476075E-16));
#1720=DIRECTION('',(-0.99999999999783,3.02704017735295E-15,2.0830633641117E-06));
#1721=CARTESIAN_POINT('',(0.0461454512100361,0.0107983443916105,-0.0460078298838892));
#1722=DIRECTION('',(-3.02704164359938E-15,-1.0,1.09370667476075E-16));
#1723=DIRECTION('',(-0.99999999999783,3.02704187141885E-15,2.0830633641117E-06));
#1724=CARTESIAN_POINT('',(0.0303790712016197,0.0107983443916105,0.0579019590839648));
#1725=DIRECTION('',(-3.02703994953349E-15,-1.0,1.09370879234311E-16));
#1726=DIRECTION('',(-0.99999999999783,3.02704017735339E-15,2.0830633641117E-06));
#1727=CARTESIAN_POINT('',(-0.0964580104316357,0.0107983443916109,-0.100007532800422));
#1728=DIRECTION('',(3.02704164359938E-15,1.0,-1.25827536953986E-17));
#1729=DIRECTION('',(-0.99999999999783,3.02704166980349E-15,2.0830633641117E-06));
#1730=DIRECTION('',(0.99999999999783,-2.9861840269128E-15,-2.0832643654845E-06));
#1731=DIRECTION('',(0.499998195839053,-1.50398355307966E-15,-0.866026445414742));
#1732=DIRECTION('',(-0.500001804158779,1.48220132087109E-15,-0.866024362150376));
#1733=DIRECTION('',(-0.99999999999783,2.9861840269128E-15,2.0832643654845E-06));
#1734=DIRECTION('',(-0.499998195839051,1.50398440009645E-15,0.866026445414742));
#1735=DIRECTION('',(0.500001804158779,-1.48220132087109E-15,0.866024362150376));
#1736=CARTESIAN_POINT('',(0.0461454512100361,-0.00720165560838956,-0.0460078298838892));
#1737=DIRECTION('',(-3.02704333766528E-15,-1.0,1.25827536953986E-17));
#1738=DIRECTION('',(-0.99999999999783,3.02704336386938E-15,2.0830633641117E-06));
#1739=CARTESIAN_POINT('',(0.0303790712016197,-0.0072016556083895,0.0579019590839648));
#1740=DIRECTION('',(-3.02704333766528E-15,-1.0,1.25827536953986E-17));
#1741=DIRECTION('',(-0.99999999999783,3.02704336386938E-15,2.0830633641117E-06));
#1742=CARTESIAN_POINT('',(-0.0529762882468375,-0.00720165560838926,-0.00987214851359048));
#1743=DIRECTION('',(-3.02704333766528E-15,-1.0,1.25827536953986E-17));
#1744=DIRECTION('',(-0.99999999999783,3.02704336386938E-15,2.0830633641117E-06));
#1745=CARTESIAN_POINT('',(-0.0529762882468375,-0.00720165560838926,-0.00987214851359048));
#1746=DIRECTION('',(-3.02704333766528E-15,-1.0,1.25827536953986E-17));
#1747=DIRECTION('',(-0.99999999999783,3.02704336386938E-15,2.0830633641117E-06));
#1748=DIRECTION('',(0.500001804158779,-1.48220132087109E-15,0.866024362150376));
#1749=DIRECTION('',(0.99999999999783,-2.9861857209787E-15,-2.0832643654845E-06));
#1750=DIRECTION('',(0.499998195839051,-1.50398355305058E-15,-0.866026445414742));
#1751=DIRECTION('',(-0.500001804158779,1.48220132087109E-15,-0.866024362150376));
#1752=DIRECTION('',(-0.99999999999783,2.9861857209787E-15,2.0832643654845E-06));
#1753=DIRECTION('',(-0.499998195839051,1.50398355305058E-15,0.866026445414742));
#1754=DIRECTION('',(-0.499998195839053,1.50398270603379E-15,0.866026445414741));
#1755=DIRECTION('',(0.500001804158779,-1.48220132087109E-15,0.866024362150376));
#1756=DIRECTION('',(0.99999999999783,-2.9861857209787E-15,-2.0832643654845E-06));
#1757=DIRECTION('',(0.499998195839051,-1.50398355305058E-15,-0.866026445414742));
#1758=DIRECTION('',(-0.500001804158779,1.48220132087109E-15,-0.866024362150376));
#1759=DIRECTION('',(-0.99999999999783,2.9861857209787E-15,2.0832643654845E-06));
#1760=DIRECTION('',(0.707105308094656,-2.12044518992318E-15,-0.70710825427537));
#1761=DIRECTION('',(0.707108254275371,-2.10265960177086E-15,0.707105308094655));
#1762=DIRECTION('',(-2.08326436296814E-06,-1.25766954407481E-17,-0.99999999999783));
#1763=DIRECTION('',(-0.707105308094655,2.12044434287085E-15,0.707108254275371));
#1764=DIRECTION('',(0.99999999999783,-2.98618402696648E-15,-2.08326436296814E-06));
#1765=DIRECTION('',(-0.707108254275371,2.10265960178378E-15,-0.707105308094656));
#1766=DIRECTION('',(-2.08326436296814E-06,-1.25766954407481E-17,-0.99999999999783));
#1767=DIRECTION('',(3.02704164359938E-15,1.0,-1.25831772021787E-17));
#1768=DIRECTION('',(-3.02704164359938E-15,-1.0,1.25831772021787E-17));
#1769=CARTESIAN_POINT('',(0.00854441193302575,0.00879834439161062,0.169987285514551));
#1770=DIRECTION('',(3.02704164359938E-15,1.0,-1.25827536953986E-17));
#1771=DIRECTION('',(-0.99999999999783,3.02704166980349E-15,2.0830633641117E-06));
#1772=CARTESIAN_POINT('',(0.00854441193302572,-0.000202428746454626,0.169987285514551));
#1773=DIRECTION('',(3.02704333766528E-15,1.0,-1.25827536953986E-17));
#1774=DIRECTION('',(-0.99999999999783,3.02704336386938E-15,2.0830633641117E-06));
#1775=DIRECTION('',(0.499998195839053,-1.50398270603379E-15,-0.866026445414741));
#1776=DIRECTION('',(0.99999999999783,-2.9861857209787E-15,-2.0832643654845E-06));
#1777=DIRECTION('',(0.500001804158779,-1.48220132087109E-15,0.866024362150376));
#1778=DIRECTION('',(-0.499998195839051,1.50398355305058E-15,0.866026445414742));
#1779=DIRECTION('',(-0.99999999999783,2.9861857209787E-15,2.0832643654845E-06));
#1780=DIRECTION('',(-0.500001804158779,1.48220132087109E-15,-0.866024362150376));
#1781=DIRECTION('',(-3.02704333766528E-15,-1.0,1.25827536953986E-17));
#1782=DIRECTION('',(-3.02704333766528E-15,-1.0,1.25827536953986E-17));
#1783=DIRECTION('',(-3.02704333766528E-15,-1.0,1.25827536953986E-17));
#1784=DIRECTION('',(-3.02704333766528E-15,-1.0,1.25827536953986E-17));
#1785=DIRECTION('',(-3.02704333766528E-15,-1.0,1.25827536953986E-17));
#1786=DIRECTION('',(-3.02704333766528E-15,-1.0,1.25827536953986E-17));
#1787=DIRECTION('',(3.23156621904341E-15,1.0,-2.45974000223612E-16));
#1788=DIRECTION('',(0.499998195839051,-1.50398355305058E-15,-0.866026445414742));
#1789=DIRECTION('',(3.23156621904341E-15,1.0,-2.45974000223612E-16));
#1790=DIRECTION('',(3.23156621904341E-15,1.0,-2.45974000223612E-16));
#1791=DIRECTION('',(0.99999999999783,-2.9861857209787E-15,-2.0832643654845E-06));
#1792=DIRECTION('',(3.23156621904341E-15,1.0,-2.45974000223612E-16));
#1793=DIRECTION('',(0.500001804158779,-1.48220132087109E-15,0.866024362150376));
#1794=DIRECTION('',(3.23156621904341E-15,1.0,-2.45974000223612E-16));
#1795=DIRECTION('',(-0.499998195839051,1.50398355305058E-15,0.866026445414742));
#1796=DIRECTION('',(3.23156621904341E-15,1.0,-2.45974000223612E-16));
#1797=DIRECTION('',(-0.99999999999783,2.9861857209787E-15,2.0832643654845E-06));
#1798=DIRECTION('',(-0.500001804158779,1.48220132087109E-15,-0.866024362150376));
#1799=DIRECTION('',(0.99999999999783,-2.9861857209787E-15,-2.0832643654845E-06));
#1800=DIRECTION('',(1.24902461962251E-15,1.0,-2.45969976817112E-16));
#1801=DIRECTION('',(3.23156621904341E-15,1.0,-2.45974000223612E-16));
#1802=DIRECTION('',(0.500001804158779,-1.48220132087109E-15,0.866024362150376));
#1803=DIRECTION('',(3.23156621904341E-15,1.0,-2.45974000223612E-16));
#1804=DIRECTION('',(-0.499998195839051,1.50398355305058E-15,0.866026445414742));
#1805=DIRECTION('',(3.23156621904341E-15,1.0,-2.45974000223612E-16));
#1806=DIRECTION('',(-0.99999999999783,2.9861857209787E-15,2.0832643654845E-06));
#1807=DIRECTION('',(1.24902461962251E-15,1.0,-2.45969976817112E-16));
#1808=DIRECTION('',(-0.500001804158779,1.48220132087109E-15,-0.866024362150376));
#1809=DIRECTION('',(1.24902461962251E-15,1.0,-2.45969976817112E-16));
#1810=DIRECTION('',(0.499998195839053,-1.50398270603379E-15,-0.866026445414741));
#1811=CARTESIAN_POINT('',(0.113545338711123,-0.000201745060158675,-0.100007970298681));
#1812=DIRECTION('',(3.02704333766528E-15,1.0,-1.25827536953986E-17));
#1813=DIRECTION('',(-0.99999999999783,3.02704336386938E-15,2.0830633641117E-06));
#1814=CARTESIAN_POINT('',(-0.0964580104316357,-0.000201540287863574,-0.100007532800422));
#1815=DIRECTION('',(3.02704333766528E-15,1.0,-1.25827536953986E-17));
#1816=DIRECTION('',(-0.99999999999783,3.02704336386938E-15,2.0830633641117E-06));
#1817=DIRECTION('',(-3.02704164359938E-15,-1.0,1.25829654342484E-17));
#1818=DIRECTION('',(3.02704164359938E-15,1.0,-1.25829654342484E-17));
#1819=DIRECTION('',(-3.02704164359938E-15,-1.0,1.25829654342484E-17));
#1820=DIRECTION('',(3.02704164359938E-15,1.0,-1.25829654342484E-17));
#1821=CARTESIAN_POINT('',(-0.0778852086850302,0.00190065824746754,0.175987465570312));
#1822=DIRECTION('',(2.08326436296814E-06,1.25769071989849E-17,0.99999999999783));
#1823=DIRECTION('',(0.99999999999783,0.0,-2.08326436296814E-06));
#1824=PRESENTATION_LAYER_ASSIGNMENT('9','Layer0',(#25));
ENDSEC;
END-ISO-10303-21;
